<svg width="38" height="36" viewBox="0 0 38 36" fill="none" xmlns="http://www.w3.org/2000/svg">
<path opacity="0.804766" fill-rule="evenodd" clip-rule="evenodd" d="M19.1603 29.7364C18.9021 29.5858 18.5828 29.5858 18.3246 29.7364L8.17864 35.6511C7.55513 36.0145 6.79692 35.4637 6.94994 34.7584L9.43989 23.2813C9.50327 22.9892 9.40461 22.6855 9.18164 22.4865L0.421163 14.6648C-0.117204 14.1842 0.172404 13.2929 0.890483 13.2204L12.5753 12.0419C12.8727 12.0119 13.131 11.8242 13.2514 11.5507L17.983 0.801951C18.2738 0.141398 19.211 0.141398 19.5018 0.801951L24.2335 11.5507C24.3539 11.8242 24.6122 12.0119 24.9096 12.0419L36.5944 13.2204C37.3124 13.2929 37.6021 14.1842 37.0637 14.6648L28.3032 22.4865C28.0802 22.6855 27.9816 22.9892 28.045 23.2813L30.5349 34.7584C30.6879 35.4637 29.9297 36.0145 29.3062 35.6511L19.1603 29.7364Z" fill="#984100"/>
</svg>
