<svg width="38" height="36" viewBox="0 0 38 36" fill="none" xmlns="http://www.w3.org/2000/svg">
<path opacity="0.804766" fill-rule="evenodd" clip-rule="evenodd" d="M19.2391 29.7364C18.9809 29.5858 18.6617 29.5858 18.4034 29.7364L8.2575 35.6511C7.63399 36.0145 6.87578 35.4637 7.0288 34.7584L9.51875 23.2813C9.58212 22.9892 9.48347 22.6855 9.2605 22.4865L0.50002 14.6648C-0.038347 14.1842 0.251261 13.2929 0.96934 13.2204L12.6541 12.0419C12.9515 12.0119 13.2098 11.8242 13.3303 11.5507L18.0619 0.801951C18.3527 0.141398 19.2899 0.141398 19.5807 0.801951L24.3123 11.5507C24.4327 11.8242 24.691 12.0119 24.9884 12.0419L36.6732 13.2204C37.3913 13.2929 37.6809 14.1842 37.1425 14.6648L28.3821 22.4865C28.1591 22.6855 28.0604 22.9892 28.1238 23.2813L30.6138 34.7584C30.7668 35.4637 30.0086 36.0145 29.3851 35.6511L19.2391 29.7364Z" fill="#984100"/>
</svg>
