<svg width="40" height="40" viewBox="0 0 40 40" fill="none" xmlns="http://www.w3.org/2000/svg">
<path opacity="0.804766" fill-rule="evenodd" clip-rule="evenodd" d="M20.3337 32.9696C20.0677 32.8065 19.7326 32.8065 19.4665 32.9696L8.71391 39.5606C8.09457 39.9402 7.32094 39.397 7.46773 38.6856L10.1329 25.7688C10.1912 25.4862 10.0985 25.1937 9.88817 24.9962L0.477584 16.1618C-0.0399861 15.6759 0.252017 14.8067 0.95796 14.7318L13.4334 13.4088C13.7345 13.3768 13.9943 13.1834 14.1112 12.9041L19.1348 0.90495C19.4191 0.225906 20.3812 0.225906 20.6655 0.904949L25.689 12.9041C25.806 13.1834 26.0658 13.3768 26.3669 13.4088L38.8423 14.7318C39.5483 14.8067 39.8403 15.6759 39.3227 16.1618L29.9121 24.9962C29.7018 25.1937 29.6091 25.4862 29.6674 25.7688L32.3325 38.6856C32.4793 39.397 31.7057 39.9402 31.0864 39.5606L20.3337 32.9696Z" fill="#984100"/>
</svg>
