<svg width="38" height="36" viewBox="0 0 38 36" fill="none" xmlns="http://www.w3.org/2000/svg">
<path opacity="0.804766" fill-rule="evenodd" clip-rule="evenodd" d="M19.3966 29.7364C19.1384 29.5858 18.8191 29.5858 18.5609 29.7364L8.41497 35.6511C7.79146 36.0145 7.03325 35.4637 7.18627 34.7584L9.67622 23.2813C9.73959 22.9892 9.64094 22.6855 9.41797 22.4865L0.657491 14.6648C0.119124 14.1842 0.408732 13.2929 1.12681 13.2204L12.8116 12.0419C13.109 12.0119 13.3673 11.8242 13.4877 11.5507L18.2194 0.801951C18.5102 0.141398 19.4473 0.141398 19.7381 0.801951L24.4698 11.5507C24.5902 11.8242 24.8485 12.0119 25.1459 12.0419L36.8307 13.2204C37.5488 13.2929 37.8384 14.1842 37.3 14.6648L28.5395 22.4865C28.3166 22.6855 28.2179 22.9892 28.2813 23.2813L30.7712 34.7584C30.9243 35.4637 30.166 36.0145 29.5425 35.6511L19.3966 29.7364Z" fill="#984100"/>
</svg>
