<svg width="38" height="36" viewBox="0 0 38 36" fill="none" xmlns="http://www.w3.org/2000/svg">
<path opacity="0.804766" fill-rule="evenodd" clip-rule="evenodd" d="M19.4752 29.7364C19.217 29.5858 18.8977 29.5858 18.6395 29.7364L8.49358 35.6511C7.87007 36.0145 7.11187 35.4637 7.26488 34.7584L9.75483 23.2813C9.81821 22.9892 9.71955 22.6855 9.49658 22.4865L0.736104 14.6648C0.197737 14.1842 0.487345 13.2929 1.20542 13.2204L12.8902 12.0419C13.1876 12.0119 13.4459 11.8242 13.5663 11.5507L18.298 0.801951C18.5888 0.141398 19.526 0.141398 19.8167 0.801951L24.5484 11.5507C24.6688 11.8242 24.9271 12.0119 25.2245 12.0419L36.9093 13.2204C37.6274 13.2929 37.917 14.1842 37.3786 14.6648L28.6182 22.4865C28.3952 22.6855 28.2965 22.9892 28.3599 23.2813L30.8498 34.7584C31.0029 35.4637 30.2447 36.0145 29.6212 35.6511L19.4752 29.7364Z" fill="#FFA867"/>
</svg>
