<svg width="46" height="46" viewBox="0 0 46 46" fill="none" xmlns="http://www.w3.org/2000/svg">
<path d="M14.5296 13.8734H15.5352C15.9941 15.4975 16.9707 16.9273 18.3165 17.9456C19.6624 18.9638 21.3039 19.5148 22.9915 19.5148C24.6791 19.5148 26.3206 18.9638 27.6665 17.9456C29.0123 16.9273 29.9889 15.4975 30.4478 13.8734H31.4533C32.0144 13.8734 32.5525 13.6506 32.9492 13.2538C33.3459 12.8571 33.5688 12.319 33.5688 11.758C33.5688 11.1969 33.3459 10.6588 32.9492 10.2621C32.5525 9.86538 32.0144 9.64251 31.4533 9.64251H30.4478C29.9889 8.01845 29.0123 6.58862 27.6665 5.57036C26.3206 4.55211 24.6791 4.0011 22.9915 4.0011C21.3039 4.0011 19.6624 4.55211 18.3165 5.57036C16.9707 6.58862 15.9941 8.01845 15.5352 9.64251H14.5296C13.9686 9.64251 13.4305 9.86538 13.0338 10.2621C12.6371 10.6588 12.4142 11.1969 12.4142 11.758C12.4142 12.319 12.6371 12.8571 13.0338 13.2538C13.4305 13.6506 13.9686 13.8734 14.5296 13.8734ZM31.4533 11.0528C31.6404 11.0528 31.8197 11.1271 31.952 11.2593C32.0842 11.3916 32.1585 11.5709 32.1585 11.758C32.1585 11.945 32.0842 12.1243 31.952 12.2566C31.8197 12.3888 31.6404 12.4631 31.4533 12.4631H30.7122C30.7334 12.2304 30.7482 11.9963 30.7482 11.758C30.7482 11.5196 30.7334 11.2855 30.7122 11.0528H31.4533ZM22.9915 5.41158C23.2271 5.41225 23.4626 5.42614 23.6966 5.45319V6.82189C23.6966 7.00891 23.6224 7.18827 23.4901 7.32051C23.3579 7.45275 23.1785 7.52704 22.9915 7.52704C22.8045 7.52704 22.6251 7.45275 22.4929 7.32051C22.3606 7.18827 22.2863 7.00891 22.2863 6.82189H20.876C20.876 7.38294 21.0989 7.92102 21.4956 8.31775C21.8924 8.71447 22.4304 8.93735 22.9915 8.93735C23.5526 8.93735 24.0906 8.71447 24.4874 8.31775C24.8841 7.92102 25.107 7.38294 25.107 6.82189V5.78179C26.5994 6.31602 27.8371 7.3909 28.5751 8.79382C29.3131 10.1967 29.4978 11.8256 29.0926 13.3581C28.6874 14.8906 27.7218 16.2153 26.3868 17.0701C25.0518 17.9249 23.4446 18.2476 21.8831 17.9743C20.3217 17.7011 18.9196 16.8518 17.9542 15.5944C16.9889 14.3371 16.5305 12.7632 16.6698 11.1841C16.8091 9.60504 17.536 8.13575 18.7066 7.06683C19.8772 5.99791 21.4063 5.40722 22.9915 5.41158ZM14.5296 11.0528H15.2708C15.2496 11.2855 15.2348 11.5196 15.2348 11.758C15.2348 11.9963 15.2496 12.2304 15.2708 12.4631H14.5296C14.3426 12.4631 14.1633 12.3888 14.031 12.2566C13.8988 12.1243 13.8245 11.945 13.8245 11.758C13.8245 11.5709 13.8988 11.3916 14.031 11.2593C14.1633 11.1271 14.3426 11.0528 14.5296 11.0528Z" fill="#FCFCFC"/>
<path d="M19.4657 11.3455C19.6555 11.164 19.9081 11.0626 20.1708 11.0626C20.4335 11.0626 20.6861 11.164 20.876 11.3455L21.0826 11.5521L22.0797 10.555L21.8731 10.3477C21.4141 9.91058 20.8046 9.66675 20.1708 9.66675C19.537 9.66675 18.9275 9.91058 18.4686 10.3477L18.262 10.5543L19.2591 11.5514L19.4657 11.3455ZM25.1069 11.3455C25.2968 11.164 25.5493 11.0626 25.812 11.0626C26.0747 11.0626 26.3273 11.164 26.5172 11.3455L26.7238 11.5521L27.7209 10.555L27.5143 10.3477C27.0554 9.91058 26.4459 9.66675 25.812 9.66675C25.1782 9.66675 24.5687 9.91058 24.1098 10.3477L23.9032 10.5543L24.9003 11.5514L25.1069 11.3455ZM21.5811 14.4136L21.5071 14.2642L20.2449 14.8939L20.3196 15.0433C20.5677 15.5394 20.9491 15.9566 21.4209 16.2481C21.8927 16.5397 22.4364 16.6941 22.9911 16.6941C23.5457 16.6941 24.0894 16.5397 24.5613 16.2481C25.0331 15.9566 25.4144 15.5394 25.6626 15.0433L25.7373 14.8946L24.4751 14.2642L24.4046 14.4129C24.2736 14.6749 24.0723 14.8951 23.8232 15.0491C23.5741 15.2031 23.2871 15.2846 22.9943 15.2846C22.7014 15.2846 22.4144 15.2031 22.1653 15.0491C21.9162 14.8951 21.7149 14.6749 21.5839 14.4129L21.5811 14.4136Z" fill="#FCFCFC"/>
<path d="M36.3894 11.6388C36.3895 10.2653 36.1191 8.90523 35.5936 7.63627C35.068 6.3673 34.2976 5.21429 33.3264 4.24312C32.3552 3.27195 31.2021 2.50163 29.9331 1.97616C28.6641 1.4507 27.304 1.18039 25.9305 1.18066H20.0516C18.6782 1.18057 17.3183 1.45102 16.0494 1.97655C14.7805 2.50209 13.6276 3.27243 12.6564 4.24358C11.6853 5.21472 10.9149 6.36766 10.3894 7.63654C9.86386 8.90542 9.59341 10.2654 9.59351 11.6388V31.5023C9.59351 35.0556 11.0051 38.4635 13.5177 40.9761C16.0303 43.4887 19.4381 44.9002 22.9914 44.9002C26.5448 44.9002 29.9526 43.4887 32.4652 40.9761C34.9778 38.4635 36.3894 35.0556 36.3894 31.5023V11.6388ZM12.2935 6.98479C13.1008 5.6481 14.2386 4.54174 15.5974 3.7722C16.9561 3.00266 18.4901 2.59587 20.0516 2.59097H25.9305C27.1188 2.59069 28.2955 2.82453 29.3934 3.27912C30.4913 3.73371 31.4889 4.40014 32.3292 5.24036C33.1694 6.08057 33.836 7.0781 34.2906 8.17597C34.7453 9.27383 34.9792 10.4505 34.9791 11.6388V16.3147L23.0619 21.908L11.0038 16.1793V11.6388C11.004 9.9989 11.4495 8.38983 12.2928 6.98338L12.2935 6.98479ZM34.9791 17.8724V27.5661L24.7155 22.6914L34.9791 17.8724ZM22.9914 43.4899C19.8132 43.4864 16.7662 42.2222 14.5188 39.9749C12.2715 37.7276 11.0074 34.6805 11.0038 31.5023V17.7405L34.9791 29.1273V31.5023C34.9753 34.6805 33.7111 37.7274 31.4638 39.9747C29.2165 42.222 26.1696 43.4862 22.9914 43.4899Z" fill="#FCFCFC"/>
</svg>
