<svg width="139" height="116" viewBox="0 0 139 116" fill="none" xmlns="http://www.w3.org/2000/svg">
<path d="M84.8278 55.2653C84.8278 55.2653 84.0332 54.9987 83.6621 54.4649C83.2909 53.9317 81.9137 53.3446 80.748 53.3446C79.5823 53.3446 78.2051 53.9312 77.8339 54.4649C77.4633 54.9987 76.6682 55.2653 76.6682 55.2653M76.2803 54.0787C76.2803 54.0787 77.8204 52.7583 78.5284 52.3581C79.2358 51.958 81.2016 51.7579 82.0087 52.1182C82.8158 52.4786 84.3146 54.0787 84.3146 54.0787M75.6138 61.4383C75.6138 61.4383 76.5714 62.2387 76.3632 63.3187C76.155 64.3987 75.0312 64.2788 74.2399 64.3191C73.4491 64.3589 73.0328 65.3195 72.1586 65.2792C71.2844 65.319 70.868 64.3589 70.0772 64.3191C69.2865 64.2788 68.1622 64.3993 67.954 63.3187C67.7458 62.2382 68.7033 61.4383 68.7033 61.4383M71.2001 63.5988C71.2001 63.5988 70.3673 63.2385 70.7003 61.7988C71.0333 60.3586 71.4911 60.6786 71.4911 58.3989C71.4911 56.1187 71.4911 53.3452 71.4911 53.3452M76.8626 68.417C76.8626 68.417 75.8233 68.5335 75.1557 68.5036C74.4886 68.4736 74.1938 68.2968 73.694 68.3167C72.695 68.3566 72.7414 68.6773 72.1582 68.6978C71.5756 68.6778 71.6219 68.3571 70.6224 68.3167C70.1227 68.2968 69.8278 68.4736 69.1608 68.5036C68.4937 68.5335 67.4538 68.417 67.4538 68.417M74.6978 67.7187C74.6978 67.7187 73.6575 67.1986 73.3659 67.2788C73.0743 67.3589 72.1587 67.999 72.1587 67.999C72.1587 67.999 71.2431 67.3589 70.9516 67.2788C70.66 67.1986 69.6196 67.7187 69.6196 67.7187M75.3238 69.0788C75.3238 69.0788 73.4507 70.2793 72.1601 70.2793C70.8696 70.2793 68.9965 69.0788 68.9965 69.0788M75.3213 49.8778C75.3213 49.8778 78.8599 46.5173 85.1873 49.8778M60.1125 55.2653C60.1125 55.2653 60.9071 54.9987 61.2783 54.4649C61.6489 53.9317 63.0266 53.3446 64.1923 53.3446C65.3581 53.3446 66.7353 53.9312 67.1064 54.4649C67.4775 54.9987 68.2722 55.2653 68.2722 55.2653M68.6622 54.0787C68.6622 54.0787 67.122 52.7583 66.4141 52.3581C65.7062 51.958 63.7409 51.7579 62.9338 52.1182C62.1267 52.4786 60.6279 54.0787 60.6279 54.0787M69.6194 49.8778C69.6194 49.8778 66.0813 46.5173 59.7534 49.8778M90.2354 47.9253C95.9533 57.3491 92.6386 69.4429 82.8318 74.9375C73.0249 80.4321 60.4396 77.2469 54.7216 67.823C49.0037 58.3992 52.3184 46.3054 62.1253 40.8108C71.9322 35.3162 84.5175 38.5014 90.2354 47.9253ZM75.3094 38.3212C75.0048 30.9082 74.2843 23.5323 73.1502 16.2528L72.4701 11.8877L71.7899 16.2528C70.6558 23.5323 69.9353 30.9076 69.6306 38.3212C70.5593 38.1976 71.506 38.129 72.4701 38.129C73.4342 38.129 74.3808 38.1976 75.3094 38.3212ZM69.6342 77.4541C69.9389 84.8672 70.6594 92.243 71.7935 99.5226L72.4736 103.888L73.1538 99.5226C74.2879 92.243 75.0084 84.8677 75.313 77.4541C74.3844 77.5777 73.4377 77.6463 72.4736 77.6463C71.5095 77.6463 70.5629 77.5777 69.6342 77.4541ZM92.834 60.6156C100.548 60.3234 108.224 59.6309 115.799 58.5404L120.342 57.8867L115.799 57.2331C108.224 56.1431 100.549 55.4507 92.834 55.1579C92.9626 56.0504 93.034 56.9602 93.034 57.8867C93.034 58.8133 92.9621 59.7231 92.834 60.6156ZM52.1097 55.1607C44.3953 55.4535 36.7202 56.146 29.1443 57.2359L24.6018 57.8896L29.1443 58.5433C36.7197 59.6333 44.3948 60.3257 52.1097 60.6185C51.9811 59.726 51.9097 58.8162 51.9097 57.8896C51.9102 56.9636 51.9816 56.0533 52.1097 55.1607ZM64.1965 32.3673C61.2704 31.0198 58.4664 28.0142 57.8353 25.1045C57.2042 22.1948 56.2761 17.9507 52.1135 18.0853C52.1135 18.0853 55.6625 20.3084 55.5398 24.0823C55.4548 26.7092 54.2602 29.9415 56.4336 32.1646C58.6065 34.3877 60.6306 36.4648 60.6306 38.901C60.6306 41.0566 59.7564 42.3633 59.7564 42.3633L59.7722 42.357C62.5664 40.2428 65.9426 38.811 69.6344 38.3203C69.6344 38.3203 67.9013 34.0735 64.1965 32.3673ZM80.7493 32.3672C83.6753 31.0197 86.4793 28.0141 87.1104 25.1044C87.7415 22.1947 88.6701 17.9506 92.8322 18.0852C92.8322 18.0852 89.2833 20.3083 89.4059 24.0821C89.4909 26.7091 90.6855 29.9414 88.5127 32.1645C86.3392 34.3876 84.3157 36.4647 84.3157 38.9009C84.3157 41.0565 85.1899 42.3632 85.1899 42.3632L85.1741 42.3569C82.3799 40.2427 79.0037 38.8109 75.3119 38.3201C75.3119 38.3201 77.0444 34.0734 80.7493 32.3672ZM80.7481 83.3761C83.6741 84.7236 86.4781 87.7291 87.1092 90.6388C87.7403 93.5485 88.669 97.7927 92.8316 97.6581C92.8316 97.6581 89.2826 95.4349 89.4053 91.6611C89.4903 89.0342 90.6849 85.8014 88.5115 83.5788C86.338 81.3556 84.3145 79.2786 84.3145 76.8423C84.3145 74.6868 85.1887 73.3801 85.1887 73.3801L85.1729 73.3864C82.3787 75.5006 79.0025 76.9324 75.3107 77.4231C75.3107 77.4231 77.0427 81.6698 80.7481 83.3761ZM64.1953 83.3761C61.2692 84.7236 58.4647 87.7291 57.8342 90.6388C57.2031 93.5485 56.2744 97.7927 52.1123 97.6581C52.1123 97.6581 55.6613 95.4349 55.5387 91.6611C55.4537 89.0342 54.259 85.8014 56.4324 83.5788C58.6059 81.3556 60.6294 79.2786 60.6294 76.8423C60.6294 74.6868 59.7553 73.3801 59.7553 73.3801L59.7711 73.3864C62.5652 75.5006 65.9415 76.9324 69.6332 77.4231C69.6332 77.4231 67.9002 81.6698 64.1953 83.3761ZM60.0775 42.1242C54.4074 37.0887 48.4708 32.3633 42.3118 27.9867L38.619 25.3624L41.3499 28.9116C45.9044 34.83 50.8224 40.5347 56.062 45.9833C56.6277 45.2648 57.2468 44.573 57.9286 43.9184C58.6103 43.2627 59.3303 42.6678 60.0775 42.1242ZM84.8595 73.6514C90.5296 78.6863 96.4662 83.4123 102.625 87.7889L106.318 90.4137L103.587 86.8645C99.0326 80.9461 94.1146 75.2414 88.875 69.7928C88.3093 70.5113 87.6902 71.2031 87.0084 71.8577C86.3267 72.5129 85.6067 73.1078 84.8595 73.6514ZM88.8739 45.9804C94.1139 40.5318 99.0314 34.827 103.586 28.9086L106.317 25.36L102.624 27.9843C96.465 32.3609 90.5284 37.0868 84.8583 42.1217C85.6061 42.6654 86.326 43.2603 87.0073 43.9154C87.6891 44.5701 88.3076 45.2624 88.8739 45.9804ZM56.0643 69.7948C50.8242 75.2434 45.9068 80.9481 41.3523 86.8665L38.6214 90.4152L42.3147 87.7909C48.4737 83.4143 54.4103 78.6884 60.0804 73.6534C59.3326 73.1098 58.6127 72.5149 57.9315 71.8597C57.2492 71.2051 56.63 70.5133 56.0643 69.7948ZM99.0175 49.9186C100.42 47.1068 103.548 44.4123 106.576 43.8059C109.603 43.1994 114.02 42.307 113.88 38.307C113.88 38.307 111.567 41.7174 107.639 41.5995C104.906 41.5178 101.542 40.3699 99.2285 42.4584C96.915 44.5464 94.7535 46.4915 92.2177 46.4915C89.9745 46.4915 88.6148 45.6514 88.6148 45.6514L88.6213 45.6666C90.8214 48.3517 92.3114 51.596 92.8221 55.1436C92.8221 55.1436 97.242 53.4793 99.0175 49.9186ZM99.0175 65.8262C100.42 68.638 103.548 71.3324 106.576 71.9389C109.603 72.5453 114.02 73.4377 113.88 77.4373C113.88 77.4373 111.567 74.0269 107.639 74.1447C104.906 74.2264 101.542 75.3744 99.2285 73.2864C96.915 71.1978 94.7535 69.2533 92.2177 69.2533C89.9745 69.2533 88.6148 70.0933 88.6148 70.0933L88.6213 70.0781C90.8214 67.3936 92.3114 64.1487 92.8221 60.6012C92.8221 60.6012 97.242 62.2655 99.0175 65.8262ZM45.935 65.8247C44.5327 68.6365 41.4051 71.331 38.3771 71.9374C35.3491 72.5439 30.9325 73.4363 31.0726 77.4358C31.0726 77.4358 33.386 74.0255 37.3132 74.1433C40.0469 74.225 43.4106 75.373 45.7241 73.2849C48.0376 71.1964 50.199 69.2519 52.7349 69.2519C54.978 69.2519 56.3378 70.0919 56.3378 70.0919L56.3313 70.0767C54.1311 67.3917 52.6411 64.1473 52.1305 60.5997C52.1305 60.5997 47.71 62.2641 45.935 65.8247ZM45.935 49.9172C44.5327 47.1054 41.4051 44.4109 38.3771 43.8045C35.3491 43.198 30.9325 42.3056 31.0726 38.3056C31.0726 38.3056 33.386 41.7159 37.3132 41.5981C40.0469 41.5164 43.4106 40.3684 45.7241 42.457C48.0376 44.5455 50.199 46.49 52.7349 46.49C54.978 46.49 56.3378 45.65 56.3378 45.65L56.3313 45.6652C54.1311 48.3502 52.6411 51.5946 52.1305 55.1422C52.1305 55.1422 47.71 53.4778 45.935 49.9172ZM82.007 54.5561C82.007 55.225 81.4429 55.7676 80.7464 55.7676C80.0505 55.7676 79.4858 55.2255 79.4858 54.5561C79.4858 53.8873 80.0499 53.3452 80.7464 53.3452C81.4429 53.3446 82.007 53.8873 82.007 54.5561ZM62.9338 54.5561C62.9338 55.225 63.4978 55.7676 64.1943 55.7676C64.8903 55.7676 65.4549 55.2255 65.4549 54.5561C65.4549 53.8873 64.8908 53.3452 64.1943 53.3452C63.4984 53.3446 62.9338 53.8873 62.9338 54.5561Z" stroke="#D97122" stroke-width="1.5" stroke-miterlimit="10" stroke-linecap="round" stroke-linejoin="round"/>
</svg>
