<svg width="38" height="37" viewBox="0 0 38 37" fill="none" xmlns="http://www.w3.org/2000/svg">
<g clip-path="url(#clip0_1_22645)">
<path d="M33.0573 21.8049L30.1392 21.1698V20.005C30.7891 19.7313 31.3876 19.3424 31.9047 18.8462C32.7163 18.0671 33.2559 17.0968 33.4793 16.041C34.4401 15.9225 35.1852 15.1328 35.1852 14.1787C35.1852 13.6793 34.9797 13.2064 34.6167 12.856V8.54952C34.6167 5.87304 32.3485 3.69567 29.5606 3.69567V3.71005C29.2274 3.3213 28.723 3.07252 28.1591 3.07153H28.1505C28.144 3.07153 28.1375 3.07153 28.131 3.07153C26.2651 3.07153 24.4954 3.78212 23.1464 5.07361C21.7639 6.39725 21.0025 8.14716 21.0025 10.0011V12.8788C20.6541 13.2268 20.4566 13.6916 20.4566 14.1788C20.4566 14.5149 20.5496 14.8304 20.7113 15.1036C20.2032 14.9751 19.6742 14.9088 19.1343 14.9117C18.1281 14.9189 17.18 15.1712 16.3491 15.6086V14.9104C16.3491 12.7551 14.9116 10.872 12.7721 10.2248L12.5513 10.8973C14.3834 11.4516 15.6145 13.0643 15.6145 14.9104V16.0651C14.3606 16.9758 13.4852 18.3521 13.2623 19.9237C12.4606 20.4329 11.5304 20.7018 10.5611 20.7018C9.25072 20.7018 8.01832 20.2118 7.09097 19.3222C6.16413 18.4318 5.6537 17.2487 5.6537 15.9907V15.0908C5.6537 13.5491 6.58774 12.1345 8.03698 11.4749L8.07804 11.4567C9.80956 10.6911 10.9284 9.01323 10.9284 7.18209V6.57883H10.1939V7.18209C10.1939 8.72377 9.2613 10.1376 7.8136 10.797L7.77005 10.8162C6.03823 11.5827 4.91917 13.2605 4.91917 15.0908V20.584C4.91917 21.334 5.03581 22.0743 5.26491 22.7898C4.12499 23.1997 3.18464 23.9982 2.62213 25.0369C2.07975 24.3995 1.77543 23.5952 1.77543 22.7643C1.77543 21.65 2.30084 20.6177 3.21725 19.9316C3.75228 19.5302 4.0591 18.929 4.0591 18.2823V11.0602C4.0591 9.38725 4.73774 7.81447 5.96999 6.6315C7.18918 5.46179 8.80919 4.81051 10.5318 4.79768C12.2576 4.78456 13.8909 5.43098 15.1368 6.61775C16.4086 7.82893 17.1089 9.4347 17.1089 11.1391V14.2002H17.8434V11.1391C17.8434 9.2453 17.066 7.46175 15.6543 6.11716C14.2682 4.79704 12.4483 4.07927 10.526 4.0926C8.60955 4.10698 6.80707 4.83153 5.4506 6.13289C4.07959 7.44906 3.32456 9.19897 3.32456 11.0602V18.2824C3.32456 18.7107 3.12066 19.1092 2.76529 19.3758C1.66944 20.1961 1.04089 21.4312 1.04089 22.7644C1.04089 23.8814 1.49968 24.9592 2.30687 25.7573C2.14593 26.2298 2.0641 26.7224 2.0641 27.2251V33.9637H11.0746V33.2585H2.79842V27.2251C2.79842 26.73 2.89104 26.2466 3.07394 25.7881C3.57622 24.5245 4.69638 23.5914 6.0704 23.2922L9.22479 22.6059V21.2541C9.65722 21.3545 10.1048 21.4069 10.5609 21.4069C11.032 21.4069 11.4951 21.3507 11.9426 21.2427V22.6059L13.2049 22.8806V24.5712C13.2049 26.0568 14.4639 27.2654 16.0114 27.2654H16.1135V26.5602H16.0114C14.869 26.5602 13.9395 25.668 13.9395 24.5712V20.7146C13.9395 17.9241 16.2723 15.6372 19.1397 15.6168C20.5504 15.6063 21.8723 16.1253 22.8708 17.0767C23.8695 18.0283 24.4195 19.2964 24.4195 20.647V24.5712C24.4195 25.668 23.49 26.5602 22.3476 26.5602V27.2654C23.895 27.2654 25.154 26.0568 25.154 24.5712V21.9788L25.5479 21.8929V25.1046C25.5479 25.307 25.6819 25.487 25.8816 25.5523C25.9339 25.5695 25.9875 25.5777 26.0406 25.5777C26.1904 25.5777 26.3356 25.5119 26.4308 25.3937L27.8436 23.5056L29.2487 25.3839L29.2564 25.3938C29.3852 25.554 29.6059 25.6177 29.8056 25.5524C30.0052 25.487 30.1393 25.3071 30.1393 25.1046V21.8927L32.895 22.4926C35.0671 22.965 36.5842 24.7884 36.5842 26.9269V33.2585H33.4626V27.3665H32.728V33.2585H26.8255V33.9637H37.3187V26.9269C37.3187 25.7403 36.8939 24.576 36.1226 23.6491C35.3511 22.722 34.2625 22.067 33.0573 21.8049ZM6.57143 19.8208C6.59185 19.8404 6.6133 19.8587 6.63409 19.878V20.5648C6.63409 21.1835 6.71459 21.7973 6.87127 22.395L5.96941 22.5912C5.75999 21.9402 5.65356 21.2666 5.65356 20.584V18.6643C5.90139 19.0823 6.20776 19.4714 6.57143 19.8208ZM8.49033 22.0428L7.58766 22.2392C7.44274 21.6926 7.36862 21.1309 7.36862 20.5648V20.4568C7.72039 20.6895 8.09633 20.8813 8.49033 21.0305V22.0428ZM12.6772 22.0428V21.0135C12.857 20.9436 13.0329 20.8637 13.205 20.7758V22.1577L12.6772 22.0428ZM33.5814 15.3016C33.59 15.177 33.5959 15.0519 33.5959 14.9259V14.7789C33.9636 14.6476 34.2659 14.3881 34.4436 14.0561C34.448 14.0967 34.4506 14.1376 34.4506 14.1788C34.4506 14.7079 34.0837 15.1559 33.5814 15.3016ZM33.882 8.54966V13.3731C33.882 13.6125 33.7708 13.8271 33.5959 13.9731V13.5798C33.5959 12.9883 33.4129 12.4174 33.0663 11.9283C32.9368 11.7465 32.8361 11.5456 32.7673 11.3318C32.6992 11.1188 32.6646 10.898 32.6646 10.6753V9.94474C32.6646 8.83969 31.7281 7.94069 30.5798 7.94069L29.7346 7.9347C29.8926 7.50145 29.974 7.04769 29.974 6.57904V4.81615C29.974 4.67872 29.9568 4.54516 29.9253 4.41683C32.138 4.5953 33.882 6.38005 33.882 8.54966ZM21.7369 10.0012C21.7369 8.33593 22.4216 6.7633 23.665 5.573C24.8754 4.41422 26.4607 3.77676 28.132 3.77676C28.1377 3.77676 28.1436 3.77676 28.1493 3.77676H28.1582C28.7543 3.77782 29.2393 4.24406 29.2393 4.81615V6.57904C29.2393 7.1225 29.1099 7.64213 28.8549 8.12326C28.2446 9.27245 27.0319 9.98634 25.6901 9.98634C24.7158 9.98634 23.8005 10.3504 23.1129 11.0112C22.4245 11.6722 22.0454 12.5506 22.0454 13.4846V13.9107C21.8531 13.7367 21.7369 13.4907 21.7369 13.2216V10.0012ZM21.2065 14.0033C21.3883 14.3291 21.6809 14.5917 22.0454 14.7407V14.9259C22.0454 15.0515 22.0502 15.1766 22.059 15.3012C21.5574 15.1551 21.1912 14.7074 21.1912 14.1788C21.1911 14.1195 21.1974 14.0611 21.2065 14.0033ZM22.9585 16.2047C22.8405 15.7912 22.7799 15.3617 22.7799 14.9259V13.4846C22.7799 12.7389 23.0826 12.0376 23.6325 11.5097C24.1815 10.9821 24.9122 10.6915 25.6901 10.6915C27.2323 10.6915 28.6327 9.90983 29.3987 8.63753L30.577 8.64585C31.323 8.64585 31.93 9.22852 31.93 9.94474V10.6753C31.93 10.9682 31.9755 11.2589 32.0654 11.5396C32.1562 11.8214 32.2888 12.086 32.4593 12.3255C32.7224 12.6966 32.8614 13.1303 32.8614 13.5798V14.9259C32.8614 16.2187 32.3372 17.4339 31.3854 18.3476C30.4327 19.2614 29.1669 19.7647 27.821 19.7647C27.2082 19.7647 26.6106 19.6606 26.044 19.4551C25.6176 19.3013 25.2164 19.0922 24.849 18.8338C24.5577 17.9917 24.064 17.2202 23.3883 16.5764C23.2505 16.445 23.1069 16.3213 22.9585 16.2047ZM25.154 21.2558V20.6471C25.154 20.3649 25.1325 20.0859 25.0911 19.8116C25.2399 19.8883 25.3922 19.959 25.5477 20.0227V21.1699L25.154 21.2558ZM26.2824 24.3837V22.1756L27.3398 22.9704L26.2824 24.3837ZM27.8435 22.4535L26.2822 21.2798V20.2707C26.7804 20.4029 27.2961 20.4698 27.821 20.4698C28.3644 20.4698 28.8958 20.3967 29.4047 20.2583V21.2799L27.8435 22.4535ZM29.4047 24.3837L28.3474 22.9703L29.4047 22.1756V24.3837Z" fill="#FCFCFC"/>
<path d="M20.6882 23.3387C20.8828 23.3387 21.0407 23.1872 21.0407 23.0003V22.7678C21.0407 22.581 20.8829 22.4294 20.6882 22.4294C20.4936 22.4294 20.3358 22.5809 20.3358 22.7678V23.0003C20.3358 23.1872 20.4936 23.3387 20.6882 23.3387ZM17.7727 23.3387C17.9673 23.3387 18.1252 23.1872 18.1252 23.0003V22.7678C18.1252 22.581 17.9674 22.4294 17.7727 22.4294C17.578 22.4294 17.4202 22.5809 17.4202 22.7678V23.0003C17.4202 23.1872 17.5779 23.3387 17.7727 23.3387ZM20.869 24.6224L20.2063 24.3182C20.024 24.6842 19.6335 24.9208 19.2114 24.9208C18.789 24.9208 18.3986 24.6843 18.2167 24.3185L17.5538 24.6222C17.8569 25.2319 18.5076 25.6259 19.2114 25.6259C19.9147 25.6259 20.5653 25.232 20.869 24.6224Z" fill="#FCFCFC"/>
<path d="M14.7321 19.4128L16.0425 20.6708L16.5619 20.1722L15.2515 18.9142L14.7321 19.4128Z" fill="#FCFCFC"/>
<path d="M17.3517 19.4135L16.0414 18.1555L15.522 18.6541L16.8323 19.9121L17.3517 19.4135Z" fill="#FCFCFC"/>
<path d="M26.1535 31.5456C26.1535 29.7085 24.8501 28.1419 22.9838 27.7358L20.9456 27.2924V26.7451C22.6176 26.1021 23.8697 24.5717 24.0952 22.6935C24.1473 22.259 23.9552 21.8243 23.5938 21.5589C23.2183 21.283 22.5721 20.6901 22.463 19.8189C22.4224 19.4939 22.202 19.223 21.8882 19.1121L21.8536 19.0998C21.4899 18.9713 21.0865 19.0815 20.8497 19.3742C19.4997 21.0427 16.9099 21.5353 15.4862 21.6805C15.1191 21.718 14.7842 21.9044 14.5674 22.1917C14.3509 22.4786 14.271 22.8416 14.3483 23.1874C14.5904 24.2709 15.1981 25.2555 16.0595 25.9596C16.4678 26.2932 16.9262 26.5563 17.4133 26.7433V27.2924L15.375 27.7358C13.5088 28.1419 12.2054 29.7086 12.2054 31.5456V33.9638H26.1535V31.5456H26.1535ZM15.0665 23.0394C15.0324 22.8866 15.0665 22.7324 15.1624 22.6053C15.2586 22.4778 15.4013 22.3983 15.564 22.3818C17.1036 22.2247 19.9131 21.6814 21.4298 19.8067C21.4583 19.7716 21.5016 19.7523 21.5465 19.7523C21.5642 19.7523 21.5822 19.7553 21.5997 19.7615L21.6343 19.7737C21.6881 19.7928 21.7262 19.8423 21.7338 19.9029V19.903C21.8749 21.0312 22.6801 21.7756 23.1475 22.1189C23.3046 22.2344 23.3882 22.4236 23.3655 22.6128C23.1085 24.7533 21.3089 26.3676 19.1796 26.3676C17.1957 26.3675 15.5044 24.999 15.0665 23.0394ZM19.1795 27.0726C19.5326 27.0726 19.8775 27.0339 20.2111 26.9625V27.4215C19.9246 27.66 19.5636 27.7903 19.1795 27.7903C18.7954 27.7903 18.4343 27.6598 18.1478 27.4215V26.9624C18.4854 27.035 18.8312 27.0726 19.1795 27.0726ZM17.6716 27.9592C18.0908 28.3063 18.6186 28.4956 19.1795 28.4956C19.7404 28.4956 20.2681 28.3062 20.6871 27.9592L21.9802 28.2405V30.2719H16.4807V28.2184L17.6716 27.9592ZM15.5374 28.4236L15.7462 28.3781V30.9769H22.7148V28.4003L22.8215 28.4235C23.0723 28.478 23.3103 28.5587 23.5337 28.6612V33.2586H14.8892V28.6326C15.0939 28.5438 15.3105 28.4729 15.5374 28.4236ZM12.94 31.5456C12.94 30.555 13.4026 29.6604 14.1547 29.0695V33.2587H12.94V31.5456ZM25.4189 33.2587H24.2682V29.1218C24.9822 29.7125 25.4189 30.5835 25.4189 31.5456V33.2587Z" fill="#FCFCFC"/>
<path d="M10.5838 18.3513C10.3026 18.3513 10.0426 18.1939 9.92159 17.9503L9.25867 18.254C9.50092 18.7414 10.0211 19.0564 10.5838 19.0564C11.146 19.0564 11.666 18.7416 11.9087 18.2543L11.2461 17.9502C11.1247 18.1938 10.8647 18.3513 10.5838 18.3513Z" fill="#FCFCFC"/>
<path d="M12.5726 25.3099H4.29456V26.0151H12.5726V25.3099Z" fill="#FCFCFC"/>
<path d="M13.2166 14.8742C13.4405 14.8742 13.6228 15.0492 13.6228 15.2642H14.3573C14.3573 14.6603 13.8456 14.1691 13.2166 14.1691C12.5876 14.1691 12.0758 14.6603 12.0758 15.2642H12.8104C12.8104 15.0492 12.9926 14.8742 13.2166 14.8742ZM6.81018 15.2642H7.54472C7.54472 15.0492 7.72695 14.8742 7.95091 14.8742C8.17495 14.8742 8.35711 15.0492 8.35711 15.2642H9.09165C9.09165 14.6603 8.5799 14.1691 7.95091 14.1691C7.32193 14.1691 6.81018 14.6603 6.81018 15.2642Z" fill="#FCFCFC"/>
<path d="M27.8442 18.0336C28.417 18.0336 28.947 17.7128 29.1943 17.2163L28.5317 16.9121C28.4056 17.1651 28.1358 17.3285 27.8442 17.3285C27.5523 17.3285 27.2826 17.1652 27.157 16.9124L26.4941 17.2161C26.7407 17.7127 27.2708 18.0336 27.8442 18.0336ZM30.477 13.967C30.7011 13.967 30.8832 14.1419 30.8832 14.3569H31.6178C31.6178 13.7531 31.106 13.2618 30.477 13.2618C29.848 13.2618 29.3363 13.7531 29.3363 14.3569H30.0708C30.0708 14.1419 30.253 13.967 30.477 13.967ZM25.2114 13.967C25.4353 13.967 25.6175 14.1419 25.6175 14.3569H26.352C26.352 13.7531 25.8403 13.2618 25.2114 13.2618C24.5823 13.2618 24.0706 13.7531 24.0706 14.3569H24.8051C24.8051 14.1419 24.9873 13.967 25.2114 13.967Z" fill="#FCFCFC"/>
<path d="M28.2107 25.2255H27.4762V32.462H28.2107V25.2255Z" fill="#FCFCFC"/>
</g>
<defs>
<clipPath id="clip0_1_22645">
<rect width="37.6082" height="36.1039" fill="white" transform="translate(0.375488 0.465698)"/>
</clipPath>
</defs>
</svg>
