<svg width="1232" height="112" viewBox="0 0 1232 112" fill="none" xmlns="http://www.w3.org/2000/svg">
<g filter="url(#filter0_d_1_21957)">
<path d="M1227.94 42.0959C1228.12 29.473 1227.85 4.47295 1227.85 4.10792C1227.85 3.5548 1227.7 0.888693 1227.7 0.0774564C1171.35 0.0774359 168.005 0.139995 4.54696 0.0769043C4.37138 12.6999 4.19729 25.3466 4.02172 37.9688C4.0225 39.3315 3.97296 40.7864 4.02099 41.5792C4.22969 44.9425 4.07141 49.0466 4.02171 52.4129C3.9654 56.3803 4.07803 59.5039 4.02171 63.4713C3.98693 66.3553 4.05649 67.8698 4.02171 70.7537C10.6107 70.3953 20.0636 71.0339 25.4765 69.6972C31.943 68.0997 38.3415 69.0938 43.5391 69.3681C49.507 69.6829 54.375 69.486 59.7433 68.7241C61.9313 68.4138 64.4043 68.5175 66.7464 68.4333C68.31 67.4136 70.6653 66.4826 71.2831 65.3563C72.9229 62.3657 78.2448 61.9854 83.3497 61.5639C84.9912 61.4286 88.2807 62.017 88.6004 62.549C90.1855 65.1827 94.1757 65.4397 99.0901 65.3089C102.621 65.215 106.176 65.3059 109.721 65.3134C111.203 64.9565 112.626 64.3667 114.179 64.2833C120.641 63.9361 127.134 63.6408 133.63 63.5304C137.294 63.468 141.483 63.3786 144.507 64.1014C146.636 64.6101 152.243 64.5989 150.253 67.0582C147.479 70.3441 149.316 72.8914 156.148 74.64C160.162 78.0266 166.961 77.9079 174.252 78.0589C181.82 78.2152 189.292 79.2792 196.815 79.9269C199.631 80.1696 202.632 80.8218 204.138 78.8396C204.449 78.4293 207.302 78.0206 208.529 78.2114C218.571 79.7714 224.531 76.6275 231.253 74.3266C234.474 72.5706 237.943 70.8934 240.848 69.0352C243.713 67.2017 247.14 66.2114 252.187 66.2475C264.585 66.3361 276.99 66.2775 289.382 66.4195C292.26 66.4526 295.107 67.05 297.967 67.3873C302.928 67.0838 307.819 66.0558 312.899 65.2834C316.126 64.7927 319.666 64.387 323.012 64.4583C331.658 64.6409 340.267 65.1639 348.91 65.4232C350.938 65.484 353.268 65.2293 355.065 64.789C362.878 62.8766 370.788 62.8586 379.033 64.0962C380.504 64.3171 382.38 64.0165 384.057 63.9151C389.259 63.6002 394.694 62.6685 399.603 63.0698C408.463 63.7941 416.288 63.4041 424.086 61.3761C428.27 60.288 432.558 60.4533 436.565 62.1297C438.495 62.9367 441.638 63.3192 444.367 63.5168C447.658 63.7558 451.116 63.4875 454.449 63.6551C455.963 63.7317 458.363 64.2164 458.628 64.7086C460.223 67.6639 462.071 70.7161 456.547 73.3461C454.78 76.6485 452.7 79.9878 462.078 81.8024C462.525 81.8888 462.726 82.2428 463.03 82.4749C465.276 84.1874 468.203 85.4363 472.619 86.0299C478.247 86.7865 481.31 88.7147 482.716 91.2492C484.575 94.596 491.028 95.9162 496.991 96.5872C508.383 97.8707 521.286 96.9584 529.873 101.851C530.194 102.034 530.934 102.128 531.501 102.151C537.404 102.386 543.312 102.788 549.217 102.78C563.083 102.759 576.956 102.634 590.805 102.348C595.231 102.256 599.576 101.486 603.988 101.099C609.482 100.619 615.013 100.226 620.519 99.7732C625.259 99.384 630.157 99.1946 634.679 98.5033C640.731 97.5784 647.1 96.0462 652.895 97.6573C662.84 100.422 673.742 99.5523 684.025 99.6628C696.701 99.7995 709.47 98.6221 722.151 97.8474C724.801 97.6851 727.233 96.7961 729.777 96.2544C732.251 95.7284 734.786 94.7387 737.217 94.7846C747.664 94.98 758.076 95.7629 768.513 95.8118C787.536 95.9004 806.566 95.5984 825.594 95.5172C828.118 95.5067 831.027 95.5278 833.112 96.0568C843.161 98.6085 854.03 97.6017 864.593 97.6956C868.813 97.7332 873.295 96.5249 877.26 96.8578C895.843 98.4192 911.946 95.6171 927.711 91.7143C929.962 91.1568 932.979 91.1853 935.667 91.0643C936.975 91.0057 938.411 91.3965 939.673 91.2935C946.756 90.7149 953.748 89.7952 960.878 89.4668C972.653 88.9243 984.514 88.7733 996.331 88.4013C1007.79 88.0407 1018.55 89.7877 1029.63 90.4873C1045.25 91.4724 1061.19 91.3912 1076.96 91.9157C1086.69 92.2396 1096.36 92.8978 1106.07 93.3066C1120.7 93.9212 1134.21 97.6903 1149.5 96.4483C1150.41 96.3746 1151.43 96.6053 1152.4 96.6782C1163.84 97.5371 1175.29 98.3576 1186.7 99.2653C1192.11 99.6951 1198.06 99.7785 1202.68 100.925C1209.86 102.709 1219.85 103.164 1227.94 103.064C1227.94 83.7819 1227.94 65.1426 1227.94 45.3096C1227.96 44.2801 1227.53 43.1223 1227.94 42.0959Z" fill="#FFEFE3"/>
</g>
<defs>
<filter id="filter0_d_1_21957" x="0" y="0.0769043" width="1232" height="111" filterUnits="userSpaceOnUse" color-interpolation-filters="sRGB">
<feFlood flood-opacity="0" result="BackgroundImageFix"/>
<feColorMatrix in="SourceAlpha" type="matrix" values="0 0 0 0 0 0 0 0 0 0 0 0 0 0 0 0 0 0 127 0" result="hardAlpha"/>
<feOffset dy="4"/>
<feGaussianBlur stdDeviation="2"/>
<feComposite in2="hardAlpha" operator="out"/>
<feColorMatrix type="matrix" values="0 0 0 0 0 0 0 0 0 0 0 0 0 0 0 0 0 0 0.25 0"/>
<feBlend mode="normal" in2="BackgroundImageFix" result="effect1_dropShadow_1_21957"/>
<feBlend mode="normal" in="SourceGraphic" in2="effect1_dropShadow_1_21957" result="shape"/>
</filter>
</defs>
</svg>
