<svg width="1230" height="84" viewBox="0 0 1230 84" fill="none" xmlns="http://www.w3.org/2000/svg">
<g filter="url(#filter0_d_1_22536)">
<path d="M1225.94 30.6733C1226.12 21.4818 1225.85 3.27792 1225.85 3.01213C1225.85 2.60936 1225.7 0.668027 1225.7 0.0773208C1169.45 0.0773052 167.737 0.122846 4.54606 0.0769043C4.37078 9.26838 4.19697 18.4772 4.02168 27.6681C4.02246 28.6604 3.973 29.7198 4.02096 30.297C4.22932 32.746 4.07129 35.7344 4.02168 38.1856C3.96546 41.0745 4.0779 43.349 4.02168 46.2379C3.98695 48.3378 4.0564 49.4407 4.02168 51.5406C10.5999 51.2796 20.0373 51.7446 25.4414 50.7713C31.8973 49.608 38.2854 50.3319 43.4745 50.5316C49.4326 50.7609 54.2927 50.6175 59.6522 50.0627C61.8367 49.8368 64.3056 49.9123 66.6438 49.851C68.2049 49.1085 70.5564 48.4306 71.1732 47.6104C72.8103 45.4328 78.1235 45.1559 83.2201 44.849C84.8588 44.7505 88.143 45.1789 88.4621 45.5663C90.0447 47.484 94.0283 47.6712 98.9347 47.576C102.46 47.5076 106.009 47.5738 109.548 47.5792C111.028 47.3193 112.448 46.8898 113.999 46.8291C120.45 46.5763 126.933 46.3613 133.418 46.2809C137.076 46.2355 141.258 46.1703 144.278 46.6967C146.403 47.0671 152 47.0589 150.014 48.8497C147.244 51.2424 149.078 53.0972 155.9 54.3704C159.906 56.8364 166.695 56.7499 173.974 56.8599C181.53 56.9737 188.989 57.7485 196.5 58.2201C199.311 58.3968 202.308 58.8717 203.811 57.4284C204.122 57.1296 206.969 56.832 208.195 56.971C218.221 58.1068 224.171 55.8176 230.881 54.1422C234.098 52.8636 237.56 51.6423 240.461 50.2892C243.322 48.9542 246.743 48.2331 251.782 48.2593C264.159 48.3239 276.543 48.2812 288.916 48.3846C291.788 48.4087 294.631 48.8437 297.487 49.0894C302.44 48.8683 307.323 48.1198 312.395 47.5574C315.616 47.2001 319.15 46.9046 322.49 46.9566C331.122 47.0896 339.718 47.4704 348.347 47.6591C350.371 47.7034 352.697 47.518 354.492 47.1973C362.292 45.8049 370.188 45.7917 378.42 46.6929C379.888 46.8537 381.762 46.6349 383.436 46.561C388.63 46.3318 394.055 45.6533 398.957 45.9455C407.802 46.4729 415.614 46.189 423.399 44.7122C427.576 43.9199 431.858 44.0403 435.858 45.261C437.785 45.8486 440.923 46.1271 443.647 46.271C446.933 46.445 450.385 46.2497 453.713 46.3717C455.224 46.4275 457.62 46.7804 457.885 47.1388C459.477 49.2907 461.323 51.5132 455.808 53.4282C454.043 55.8329 451.966 58.2644 461.329 59.5858C461.776 59.6487 461.976 59.9064 462.28 60.0755C464.523 61.3224 467.445 62.2318 471.853 62.664C477.472 63.215 480.53 64.619 481.934 66.4645C483.789 68.9015 490.232 69.8628 496.185 70.3514C507.559 71.2859 520.441 70.6217 529.013 74.1841C529.334 74.3176 530.073 74.386 530.639 74.4024C536.532 74.5737 542.431 74.8664 548.326 74.8604C562.169 74.8456 576.02 74.7543 589.846 74.5458C594.265 74.479 598.602 73.9182 603.008 73.637C608.493 73.2868 614.014 73.0007 619.511 72.6713C624.244 72.3879 629.134 72.25 633.648 71.7466C639.691 71.0731 646.049 69.9575 651.835 71.1306C661.764 73.1441 672.648 72.5105 682.914 72.5909C695.569 72.6905 708.317 71.8331 720.978 71.269C723.623 71.1508 726.051 70.5035 728.591 70.109C731.062 69.726 733.592 69.0054 736.019 69.0388C746.449 69.1811 756.844 69.7512 767.263 69.7867C786.255 69.8513 805.254 69.6314 824.251 69.5723C826.772 69.5646 829.675 69.58 831.757 69.9651C841.79 71.8232 852.641 71.0901 863.187 71.1585C867.4 71.1858 871.875 70.306 875.833 70.5484C894.386 71.6854 910.462 69.645 926.202 66.8032C928.449 66.3972 931.461 66.418 934.144 66.3299C935.451 66.2872 936.884 66.5717 938.145 66.4968C945.216 66.0755 952.196 65.4058 959.315 65.1667C971.07 64.7716 982.912 64.6616 994.709 64.3908C1006.15 64.1282 1016.89 65.4003 1027.96 65.9097C1043.55 66.627 1059.46 66.5679 1075.21 66.9498C1084.92 67.1856 1094.57 67.6649 1104.27 67.9626C1118.87 68.4101 1132.36 71.1547 1147.63 70.2502C1148.53 70.1966 1149.55 70.3646 1150.52 70.4177C1161.94 71.043 1173.37 71.6405 1184.77 72.3015C1190.17 72.6144 1196.11 72.6752 1200.72 73.5101C1207.88 74.809 1217.86 75.1402 1225.94 75.0675C1225.94 61.0271 1225.94 47.4548 1225.94 33.0133C1225.96 32.2637 1225.53 31.4207 1225.94 30.6733Z" fill="#F2D2BA"/>
</g>
<defs>
<filter id="filter0_d_1_22536" x="0" y="0.0769043" width="1230" height="83" filterUnits="userSpaceOnUse" color-interpolation-filters="sRGB">
<feFlood flood-opacity="0" result="BackgroundImageFix"/>
<feColorMatrix in="SourceAlpha" type="matrix" values="0 0 0 0 0 0 0 0 0 0 0 0 0 0 0 0 0 0 127 0" result="hardAlpha"/>
<feOffset dy="4"/>
<feGaussianBlur stdDeviation="2"/>
<feComposite in2="hardAlpha" operator="out"/>
<feColorMatrix type="matrix" values="0 0 0 0 0 0 0 0 0 0 0 0 0 0 0 0 0 0 0.25 0"/>
<feBlend mode="normal" in2="BackgroundImageFix" result="effect1_dropShadow_1_22536"/>
<feBlend mode="normal" in="SourceGraphic" in2="effect1_dropShadow_1_22536" result="shape"/>
</filter>
</defs>
</svg>
