<svg width="270" height="45" viewBox="0 0 270 45" fill="none" xmlns="http://www.w3.org/2000/svg">
<circle cx="20.1256" cy="24.7862" r="18.9297" transform="rotate(-1 20.1256 24.7862)" fill="#F9F9F9"/>
<g clip-path="url(#clip0_1_22800)">
<path d="M34.4022 24.5372C34.2734 17.1612 27.7772 11.2933 19.8925 11.431C12.0078 11.5686 5.72034 17.6596 5.84909 25.0356C5.96544 31.7017 11.2826 37.1358 18.1252 38.0185L17.9623 28.6859L14.3374 28.7492L14.27 24.8887L17.8949 24.8254L17.8436 21.883C17.7851 18.5358 19.8843 16.6497 23.1453 16.5928C24.7073 16.5655 26.3456 16.7978 26.3456 16.7978L26.403 20.0845L24.6027 20.116C22.8293 20.1469 22.2942 21.1861 22.3126 22.2422L22.3563 24.7475L26.3158 24.6784L25.7503 28.55L22.4237 28.6081L22.5866 37.9407C29.3942 36.8197 34.5185 31.2033 34.4022 24.5372Z" fill="#1877F2"/>
<path d="M25.7502 28.5501L26.3158 24.6785L22.3563 24.7476L22.3126 22.2423C22.2941 21.1861 22.8292 20.147 24.6027 20.116L26.403 20.0846L26.3456 16.7979C26.3456 16.7979 24.7073 16.5656 23.1453 16.5928C19.8842 16.6498 17.7851 18.5359 17.8435 21.8831L17.8949 24.8255L14.27 24.8887L14.3374 28.7493L17.9623 28.686L18.1252 38.0186C19.6071 38.2092 21.1122 38.183 22.5866 37.9407L22.4237 28.6082L25.7502 28.5501Z" fill="#F8F8F8"/>
</g>
<circle cx="81.0016" cy="22.6604" r="18.9297" transform="rotate(-1 81.0016 22.6604)" fill="#F9F9F9"/>
<g clip-path="url(#clip1_1_22800)">
<path d="M84.7887 11.999L76.8445 12.1376C75.0888 12.1683 73.4171 12.8951 72.1972 14.1583C70.9774 15.4215 70.3093 17.1176 70.3399 18.8733L70.4786 26.8175C70.5092 28.5733 71.2361 30.245 72.4993 31.4649C73.7625 32.6847 75.4585 33.3528 77.2143 33.3222L85.1585 33.1835C86.9143 33.1528 88.586 32.426 89.8058 31.1628C91.0257 29.8996 91.6938 28.2035 91.6631 26.4478L91.5245 18.5036C91.4938 16.7478 90.7669 15.0761 89.5037 13.8562C88.2406 12.6364 86.5445 11.9683 84.7887 11.999V11.999ZM89.6771 26.4824C89.7217 29.0378 87.6792 31.1528 85.1238 31.1974L77.1796 31.3361C74.6243 31.3807 72.5092 29.3383 72.4646 26.7829L72.326 18.8387C72.2814 16.2833 74.3238 14.1683 76.8792 14.1237L84.8234 13.985C87.3788 13.9404 89.4938 15.9828 89.5384 18.5382L89.6771 26.4824Z" fill="url(#paint0_linear_1_22800)"/>
<path d="M80.9092 17.3643C79.5045 17.3889 78.1672 17.9704 77.1913 18.9809C76.2154 19.9915 75.681 21.3483 75.7055 22.7529C75.73 24.1575 76.3115 25.4949 77.3221 26.4708C78.3326 27.4467 79.6894 27.9811 81.0941 27.9566C82.4987 27.9321 83.836 27.3506 84.8119 26.34C85.7878 25.3295 86.3223 23.9727 86.2977 22.568C86.2732 21.1634 85.6917 19.8261 84.6812 18.8502C83.6706 17.8743 82.3138 17.3398 80.9092 17.3643ZM81.0594 25.9706C80.1818 25.9848 79.3344 25.6504 78.703 25.0407C78.0717 24.431 77.7079 23.5958 77.6915 22.7183C77.6597 20.8924 79.1193 19.3822 80.9438 19.3504C82.7684 19.3185 84.2798 20.7769 84.3117 22.6027C84.3435 24.4272 82.8839 25.9387 81.0594 25.9706Z" fill="url(#paint1_linear_1_22800)"/>
<path d="M86.6078 17.5737C86.9975 17.5669 87.308 17.2454 87.3012 16.8556C87.2944 16.4659 86.9729 16.1554 86.5832 16.1622C86.1934 16.169 85.883 16.4905 85.8898 16.8803C85.8966 17.27 86.218 17.5805 86.6078 17.5737Z" fill="url(#paint2_linear_1_22800)"/>
</g>
<circle cx="141.884" cy="21.597" r="18.9297" transform="rotate(-1 141.884 21.597)" fill="#F9F9F9"/>
<g clip-path="url(#clip2_1_22800)">
<path d="M152.373 15.5056C151.583 15.8671 150.744 16.1128 149.883 16.2352C150.783 15.6799 151.448 14.814 151.752 13.8013C150.909 14.3211 149.984 14.6929 149.016 14.9007C148.409 14.2753 147.629 13.8467 146.775 13.6707C145.922 13.4947 145.036 13.5794 144.231 13.9138C143.426 14.2482 142.741 14.8169 142.264 15.5459C141.787 16.2748 141.54 17.1305 141.555 18.0016C141.561 18.3459 141.596 18.6764 141.673 18.9902C139.944 18.9357 138.246 18.5168 136.689 17.7609C135.133 17.005 133.754 15.9292 132.642 14.6037C132.101 15.5692 131.948 16.7046 132.215 17.7787C132.482 18.8528 133.148 19.7848 134.078 20.385C133.39 20.3786 132.714 20.2069 132.107 19.8843L132.107 19.932C132.126 20.9349 132.49 21.9007 133.137 22.6668C133.784 23.433 134.676 23.9528 135.661 24.1386C135.292 24.243 134.909 24.2978 134.525 24.3015C134.249 24.3112 133.973 24.2912 133.702 24.2417C133.997 25.0988 134.551 25.8431 135.288 26.3723C136.024 26.9014 136.906 27.1893 137.813 27.1963C136.296 28.4254 134.412 29.1107 132.46 29.1426C132.104 29.1488 131.762 29.1389 131.42 29.1012C133.428 30.3462 135.754 30.9828 138.116 30.9339C146.108 30.7944 150.362 24.0979 150.262 18.3596C150.258 18.1676 150.249 17.9823 150.236 17.7984C151.082 17.1705 151.806 16.3935 152.373 15.5056Z" fill="#03A9F4"/>
</g>
<circle cx="202.767" cy="20.5345" r="18.9297" transform="rotate(-1 202.767 20.5345)" fill="#F9F9F9"/>
<path fill-rule="evenodd" clip-rule="evenodd" d="M202.508 14.1335C201.936 13.1269 201.329 12.951 200.1 12.9026C198.872 12.8397 195.787 12.8613 193.114 12.9108C190.437 12.9604 187.351 13.0531 186.127 13.1601C184.903 13.2553 184.302 13.4522 183.758 14.4808C183.202 15.507 182.936 17.2617 182.987 20.3414L182.987 20.352C183.038 23.4185 183.362 25.1755 183.951 26.1699C184.528 27.1764 185.134 27.3497 186.361 27.4126C187.589 27.4637 190.676 27.45 193.353 27.4004C196.026 27.3509 199.11 27.2502 200.337 27.155C201.563 27.0467 202.163 26.8511 202.702 25.8239C203.263 24.8082 203.526 23.0403 203.475 19.9738L203.475 19.9632C203.424 16.8822 203.104 15.1383 202.508 14.1335Z" fill="#F44336"/>
<path fill-rule="evenodd" clip-rule="evenodd" d="M190.734 24.1563L190.604 16.2502L197.073 20.0846L190.734 24.1563Z" fill="#FAFAFA"/>
<defs>
<linearGradient id="paint0_linear_1_22800" x1="72.4987" y1="31.4655" x2="89.5044" y2="13.8556" gradientUnits="userSpaceOnUse">
<stop stop-color="#FFC107"/>
<stop offset="0.507" stop-color="#F44336"/>
<stop offset="0.99" stop-color="#9C27B0"/>
</linearGradient>
<linearGradient id="paint1_linear_1_22800" x1="77.3226" y1="26.4702" x2="84.6806" y2="18.8508" gradientUnits="userSpaceOnUse">
<stop stop-color="#FFC107"/>
<stop offset="0.507" stop-color="#F44336"/>
<stop offset="0.99" stop-color="#9C27B0"/>
</linearGradient>
<linearGradient id="paint2_linear_1_22800" x1="86.105" y1="17.3758" x2="87.0859" y2="16.3601" gradientUnits="userSpaceOnUse">
<stop stop-color="#FFC107"/>
<stop offset="0.507" stop-color="#F44336"/>
<stop offset="0.99" stop-color="#9C27B0"/>
</linearGradient>
<clipPath id="clip0_1_22800">
<rect width="28.5574" height="26.715" fill="white" transform="translate(5.61597 11.6802) rotate(-1)"/>
</clipPath>
<clipPath id="clip1_1_22800">
<rect width="21.1878" height="21.1878" fill="white" transform="translate(70.2244 12.2532) rotate(-1)"/>
</clipPath>
<clipPath id="clip2_1_22800">
<rect width="21.1878" height="21.1878" fill="white" transform="translate(131.107 11.1897) rotate(-1)"/>
</clipPath>
</defs>
</svg>
