<svg width="180" height="177" viewBox="0 0 180 177" fill="none" xmlns="http://www.w3.org/2000/svg">
<path d="M157.527 64.8305C155.724 65.2869 153.106 65.6612 149.81 65.9745C146.551 66.2913 142.609 66.5483 138.248 67.1619C133.909 67.7861 129.126 68.841 124.39 70.8861C122.13 71.8411 120.047 72.9922 118.111 74.2476C118.119 74.2746 118.124 74.3028 118.131 74.3298C118.399 74.6853 118.649 75.0643 118.87 75.4796C120.77 74.2922 122.812 73.1893 125.017 72.2577C129.558 70.3299 134.214 69.2035 138.459 68.4338C142.721 67.6582 146.636 67.2159 149.895 66.7208C153.189 66.2221 155.831 65.6354 157.582 65.0898C159.373 64.5266 160.277 64.0409 160.277 64.0538C160.275 64.0409 159.312 64.4152 157.527 64.8305Z" fill="#A95210"/>
<path d="M111.706 65.4665C113.012 63.6361 114.485 61.8327 116.184 60.1302C119.621 56.6067 123.445 53.8294 127.098 51.5168C130.713 49.2218 134.166 47.3351 137.006 45.6349C139.843 43.95 142.032 42.4294 143.445 41.2279C144.868 40.037 145.527 39.2473 145.536 39.2567C145.529 39.245 144.806 39.9678 143.304 41.0355C141.825 42.1208 139.529 43.4702 136.616 44.9779C133.727 46.4891 130.192 48.2057 126.415 50.4244C122.661 52.6373 118.614 55.4486 115.051 59.073C113.326 60.826 111.844 62.681 110.529 64.5747C110.587 64.617 110.652 64.6569 110.709 64.6991C111.041 64.9408 111.374 65.1978 111.706 65.4665Z" fill="#A95210"/>
<path d="M57.8457 95.2887C56.8787 95.3403 55.9117 95.3943 54.9494 95.4189C55.7971 94.729 56.6375 94.0297 57.4732 93.3304C57.3729 92.7074 57.2965 92.0797 57.238 91.4484C57.2165 91.4672 57.195 91.4836 57.1747 91.5024C53.7699 92.2451 50.5466 92.5279 47.6408 92.5161C44.1071 92.5243 41.0533 92.1195 38.6 91.6467C33.6671 90.6717 31.0777 89.5394 31.0598 89.5676C31.0801 89.5406 33.4892 90.8441 38.3636 92.1219C40.7907 92.7543 43.8516 93.3281 47.4809 93.5217C49.8231 93.6425 52.4149 93.5686 55.1834 93.2213C54.2725 93.9934 53.3569 94.7314 52.4221 95.4706C49.822 95.487 47.2302 95.3837 44.6431 95.1115C39.6577 94.5694 34.7463 93.3597 30.168 91.2759L30.1561 91.2677L30.1322 91.2595C27.6466 90.3971 25.2255 89.2519 22.7985 88.1607C20.3452 87.066 17.8955 85.9479 15.2881 85.184C12.7047 84.412 9.9219 83.9767 7.21788 84.3768C4.51864 84.7616 2.03428 86.0406 -1.53918e-07 87.7466C2.13934 86.1591 4.65116 85.0444 7.27996 84.7675C9.91951 84.4941 12.5531 85.0268 15.0613 85.8868C17.5636 86.7457 19.9679 87.8615 22.3663 89.0255C24.7743 90.2129 27.1619 91.4026 29.7108 92.3718L29.6535 92.3507C31.9683 93.4818 34.4013 94.3829 36.8821 95.0892C39.3795 95.7944 41.926 96.2543 44.4808 96.5606C46.4721 96.7788 48.4753 96.9137 50.4678 96.9525C49.0269 98.0284 47.5716 99.0691 46.0554 100.022C41.84 102.648 37.2724 104.764 32.4028 105.795L32.3599 105.806L32.3455 105.801C29.8588 106.59 27.2503 107.084 24.6621 107.651C22.0727 108.216 19.4283 108.822 16.9678 109.917C14.5014 110.982 12.22 112.567 10.4925 114.576C8.74478 116.585 7.53901 118.973 6.689 121.449C7.67749 119.03 9.02055 116.732 10.7958 114.841C12.5758 112.928 14.8214 111.524 17.2556 110.59C19.6838 109.651 22.2613 109.092 24.8734 108.612C27.452 108.1 30.0856 107.674 32.6714 106.929C35.194 106.463 37.6569 105.711 40.0194 104.764C42.4083 103.791 44.6682 102.587 46.8386 101.242C48.9743 99.9362 51.0134 98.4883 52.9832 96.9771C54.7453 96.9724 56.4978 96.9161 58.248 96.8351C58.0999 96.3236 57.9651 95.8085 57.8457 95.2887Z" fill="#A95210"/>
<path d="M57.7167 82.9137C56.7187 82.5676 55.723 82.2156 54.7286 81.8448C55.9212 81.4928 57.1055 81.1209 58.2838 80.736C58.5226 80.0496 58.8186 79.4278 59.1624 78.8693C59.1732 78.8376 59.1803 78.8036 59.1911 78.7719C58.9046 78.8704 58.618 78.962 58.3387 79.0593C54.8897 78.4645 51.775 77.5317 49.0925 76.4323C45.8298 75.0876 43.1604 73.5917 41.0736 72.2153C36.9012 69.4615 34.9516 67.427 34.9242 67.4681C34.954 67.4293 36.6779 69.5566 40.676 72.572C42.6829 74.061 45.2687 75.7447 48.5517 77.29C50.6696 78.2803 53.099 79.1896 55.7851 79.91C54.651 80.2761 53.5121 80.6222 52.3684 80.9484C49.9652 79.9827 47.605 78.9209 45.3296 77.7077C40.9196 75.3117 36.8522 72.3327 33.4367 68.7059L33.42 68.6965L33.4009 68.6801C31.4561 66.9295 29.663 64.9888 27.8436 63.0399C26.0099 61.1122 24.1666 59.1527 22.0738 57.4643C19.9715 55.7853 17.5886 54.3433 14.9264 53.7073C12.2857 53.0233 9.47301 53.2802 6.9421 54.0898C9.51599 53.4198 12.2797 53.3459 14.819 54.0863C17.357 54.8138 19.6181 56.3086 21.5748 58.0298C23.5422 59.764 25.333 61.7129 27.0903 63.6946C28.856 65.6729 30.6216 67.6781 32.5819 69.5401L32.5473 69.4979C34.2425 71.4081 36.1252 73.1693 38.1559 74.7485C40.183 76.3419 42.3534 77.7264 44.6204 78.9655C46.361 79.9288 48.1482 80.7923 49.9688 81.5867C48.2258 82.0326 46.478 82.4456 44.7171 82.7624C39.7986 83.6001 34.7535 83.8277 29.8588 82.9571L29.8098 82.9477L29.7979 82.9372C27.1894 82.7342 24.594 82.2121 21.9807 81.7592C19.3663 81.3039 16.6825 80.878 13.9881 80.9578C11.2996 81.0094 8.57644 81.6125 6.19237 82.8222C3.79756 84.0248 1.74776 85.7837 -1.50498e-06 87.7431C1.85998 85.8834 3.98499 84.2654 6.36071 83.1883C8.75791 82.0971 11.3855 81.6289 13.9881 81.6817C16.5942 81.7416 19.2015 82.1851 21.8016 82.7131C24.3779 83.2188 26.9745 83.8195 29.657 84.107C32.1688 84.6221 34.7403 84.8567 37.2927 84.8649C39.8809 84.8556 42.4405 84.5939 44.9643 84.1833C47.4355 83.7749 49.8804 83.2141 52.2872 82.5547C53.9944 83.2434 55.7147 83.877 57.435 84.4895C57.515 83.965 57.6069 83.4405 57.7167 82.9137Z" fill="#A95210"/>
<path d="M116.702 61.6776C115.847 62.5987 114.952 63.6089 114.1 64.7717C113.686 65.3184 113.299 65.911 112.934 66.534C113.284 66.859 113.629 67.1958 113.964 67.5466C114.301 66.8367 114.69 66.1562 115.103 65.5226C115.852 64.388 116.646 63.3484 117.413 62.3945C118.993 60.5019 120.43 58.9555 121.654 57.7012C124.099 55.1926 125.549 53.8539 125.538 53.8445C125.548 53.8562 124.019 54.9814 121.354 57.2694C120.037 58.4146 118.446 59.8472 116.702 61.6776Z" fill="#A95210"/>
<path d="M147.518 40.0762C145.638 41.8609 143.482 43.3451 141.271 44.7731C139.068 46.208 136.832 47.5973 134.718 49.2563L134.739 49.2258C132.595 50.6162 130.572 52.2342 128.775 54.0212C126.967 55.8152 125.338 57.7817 123.842 59.8444C122.387 61.8485 121.085 63.9382 119.856 66.0654C118.108 66.7811 116.393 67.5496 114.689 68.3358C115.049 68.7476 115.395 69.1712 115.718 69.6065C116.688 69.1524 117.657 68.6972 118.638 68.2654C118.044 69.3296 117.488 70.4067 116.941 71.4861C117.271 72.0775 117.562 72.6806 117.793 73.2931C117.889 73.1077 117.985 72.9223 118.075 72.7357C120.921 70.7587 123.809 69.2862 126.509 68.1961C129.759 66.8539 132.731 66.0935 135.184 65.582C140.142 64.6492 142.976 64.7055 142.953 64.6738C142.971 64.709 140.218 64.4462 135.236 65.0775C132.727 65.4189 129.68 66.029 126.267 67.1976C124.06 67.9861 121.67 69.021 119.256 70.3774C119.793 69.3366 120.35 68.3053 120.921 67.2833C123.327 66.2883 125.769 65.3943 128.263 64.6703C133.086 63.2846 138.07 62.5794 143.102 62.7637L143.132 62.766L143.158 62.7637C145.8 62.6416 148.488 62.7754 151.176 62.8763C153.824 62.9878 156.544 63.0816 159.261 62.8212C161.94 62.5454 164.652 61.9177 167.016 60.5179C169.374 59.1545 171.15 57.0249 172.361 54.6689C171.026 56.9463 169.159 58.9351 166.784 60.1671C164.474 61.4214 161.831 61.9071 159.195 62.0737C156.54 62.2181 153.863 62.0761 151.211 61.9106C148.54 61.7311 145.859 61.5305 143.131 61.5868L143.173 61.5692C140.58 61.4225 137.996 61.4742 135.422 61.7616C132.85 62.0514 130.319 62.5935 127.836 63.2928C125.903 63.8208 124.017 64.4556 122.148 65.1561C123.059 63.6237 124.007 62.1207 125.03 60.6728C127.902 56.6577 131.305 52.984 135.427 50.2079L135.451 50.1786L135.459 50.1633C137.444 48.5124 139.645 47.0693 141.837 45.5744C144.004 44.0667 146.227 42.5156 148.069 40.5913C149.927 38.6706 151.408 36.3756 152.223 33.8353C153.092 31.3267 153.258 28.6657 153.078 26.0691C153.093 28.6621 152.744 31.3021 151.841 33.7227C150.937 36.155 149.416 38.301 147.518 40.0762Z" fill="#A95210"/>
<path d="M22.206 53.7593C24.6068 54.7872 26.8333 56.1858 29.0144 57.6395C31.2122 59.0944 33.4041 60.6245 35.7667 61.9092L35.7094 61.8776C37.8439 63.302 40.1241 64.4953 42.5142 65.4715C44.8947 66.4313 47.3635 67.154 49.8777 67.7207C52.3238 68.2687 54.7879 68.6676 57.2722 68.9633C58.7395 70.403 60.2508 71.7922 61.7706 73.1497C62.0464 72.6851 62.3353 72.2287 62.6349 71.7781C61.6763 70.9427 60.7379 70.1026 59.8056 69.239C61.1808 69.3775 62.5573 69.4819 63.9398 69.5793L63.6115 70.3936C64.2012 69.6039 64.822 68.8366 65.4834 68.1009L65.1241 68.0809C64.816 68.0622 64.4997 68.034 64.1929 68.0141C61.2441 66.1731 58.7478 64.1339 56.6992 62.1064C54.2089 59.6436 52.3262 57.2558 50.9342 55.199C48.1514 51.0818 47.1462 48.4758 47.0961 48.4993C47.1474 48.4782 47.9115 51.0853 50.4221 55.3773C51.7031 57.5093 53.4377 60.0366 55.8659 62.6907C57.4418 64.4084 59.322 66.1661 61.5282 67.8392C60.3416 67.7512 59.1489 67.6421 57.9683 67.5107C56.1178 65.7155 54.3474 63.8499 52.7238 61.8682C49.584 58.0033 46.9898 53.7218 45.2397 49.086L45.2337 49.0649L45.223 49.0414C44.1055 46.6983 43.203 44.2237 42.273 41.7445C41.3394 39.2746 40.3975 36.7661 39.1189 34.4194C37.8272 32.081 36.1905 29.854 33.9807 28.263C31.8056 26.6368 29.1051 25.8131 26.4465 25.616C29.092 25.9656 31.6742 26.9324 33.7348 28.5645C35.7977 30.1978 37.2983 32.4295 38.4396 34.7503C39.5762 37.0993 40.4799 39.5668 41.3287 42.0589C42.1823 44.544 43.0311 47.0444 44.1091 49.4908C44.94 51.8879 45.987 54.224 47.2489 56.438C48.5012 58.6791 49.9624 60.7735 51.5765 62.767C52.8181 64.3134 54.1588 65.7765 55.5364 67.2056C53.7338 66.9639 51.9478 66.6823 50.1761 66.2987C45.3089 65.2439 40.5646 63.5531 36.3779 60.8849L36.323 60.8685C34.0129 59.694 31.8091 58.2438 29.5671 56.8393C27.3168 55.4348 25.0234 54.0245 22.5009 53.0788C19.9735 52.1237 17.254 51.6591 14.5536 51.8844C11.889 52.0827 9.30551 52.938 6.93457 54.0914C9.36759 53.0812 11.9594 52.3701 14.5894 52.2751C17.217 52.1648 19.8195 52.7292 22.206 53.7593Z" fill="#A95210"/>
<path d="M124.423 21.9162C123.373 24.2722 121.973 26.4546 120.476 28.6088C119.003 30.7677 117.464 32.8903 116.164 35.2158L116.176 35.183C114.732 37.2703 113.501 39.5266 112.531 41.8603C111.559 44.1988 110.818 46.617 110.247 49.0963C109.681 51.5004 109.275 53.9245 108.973 56.365C107.457 57.8598 105.998 59.3992 104.578 60.9527C105.065 61.1991 105.539 61.4631 106.013 61.7259C106.895 60.7556 107.791 59.797 108.683 58.8501C108.552 60.2053 108.446 61.5628 108.337 62.9215L107.541 62.6094C108.348 63.0975 109.124 63.6021 109.873 64.1219L109.876 64.0878C109.895 63.7898 109.908 63.4836 109.925 63.1867C111.83 60.2769 113.912 57.8094 115.958 55.8041C118.445 53.3589 120.897 51.5086 122.991 50.137C127.156 47.4043 129.846 46.4011 129.819 46.3554C129.846 46.4023 127.189 47.1532 122.818 49.6207C120.629 50.8867 118.057 52.5916 115.35 54.9781C113.596 56.5316 111.817 58.3866 110.101 60.5596C110.202 59.3933 110.306 58.2224 110.433 57.0631C112.277 55.2351 114.184 53.4868 116.205 51.8841C120.127 48.8053 124.483 46.258 129.199 44.5379L129.242 44.5215L129.241 44.5203C131.625 43.4244 134.17 42.5245 136.663 41.6257C139.189 40.6988 141.739 39.7742 144.121 38.5211C146.49 37.2539 148.785 35.6335 150.386 33.4699C152.051 31.3262 152.871 28.6827 153.086 26.0733C152.71 28.6757 151.735 31.2042 150.059 33.2364C148.411 35.2604 146.145 36.7294 143.778 37.8558C141.389 38.9693 138.867 39.8645 136.343 40.6917C133.793 41.5447 131.247 42.3743 128.763 43.4385L128.788 43.4326C126.34 44.2481 123.952 45.2771 121.699 46.5185C119.438 47.7411 117.307 49.1807 115.28 50.7647C113.698 51.9885 112.198 53.3132 110.756 54.6707C110.991 52.9013 111.285 51.1472 111.659 49.4072C112.746 44.62 114.467 39.9455 117.193 35.8295L117.22 35.786L117.221 35.7778C118.403 33.5063 119.878 31.3391 121.308 29.1356C122.737 26.931 124.178 24.6629 125.127 22.1884C126.096 19.7138 126.574 17.0375 126.349 14.3834C126.172 11.7423 125.286 9.22667 124.093 6.88941C125.122 9.28181 125.829 11.8455 125.944 14.4304C126.047 17.0152 125.471 19.5695 124.423 21.9162Z" fill="#A95210"/>
<path d="M104.344 53.4743C103.921 54.6453 103.478 55.9066 103.146 57.3088C102.94 58.1723 102.758 59.0805 102.674 60.0461C103.156 60.2632 103.632 60.4967 104.106 60.7302C104.078 59.6707 104.191 58.6158 104.369 57.622C104.621 56.2927 104.954 55.0337 105.283 53.8615C106.009 51.5184 106.749 49.5437 107.386 47.9257C108.674 44.6897 109.483 42.9156 109.47 42.9109C109.483 42.9168 108.507 44.5312 106.932 47.6417C106.16 49.1999 105.246 51.1242 104.344 53.4743Z" fill="#A95210"/>
<path d="M66.6022 17.0432C67.5644 19.4133 68.147 21.9512 68.6532 24.4997C69.1475 27.0575 69.576 29.6623 70.3413 32.2061L70.3162 32.1544C70.7854 34.6513 71.5649 37.073 72.5415 39.4021C73.5419 41.7511 74.7596 43.9757 76.1158 46.1053C77.4529 48.2008 78.9129 50.2013 80.4566 52.135C80.4637 54.2364 80.5413 56.3249 80.6416 58.4123C81.1657 58.2515 81.6958 58.106 82.2294 57.9723C82.153 56.6769 82.0933 55.3757 82.0575 54.0839C82.9314 55.1305 83.8243 56.1736 84.7352 57.199L83.6441 57.6625C84.703 57.449 85.7751 57.2953 86.8567 57.1944L86.6609 56.989C86.4532 56.7567 86.2538 56.5291 86.0544 56.305C85.288 52.9469 84.9967 49.7602 85.0086 46.8914C84.9907 43.4242 85.4038 40.4252 85.8706 38.0175C86.8853 33.1588 88.0374 30.615 87.9968 30.601C88.0397 30.6221 86.7206 32.9805 85.4121 37.77C84.7675 40.1671 84.1825 43.1719 83.9819 46.7353C83.8733 49.0374 83.9306 51.5953 84.284 54.308C83.5116 53.4139 82.7559 52.5163 82.0073 51.6C81.9918 49.0409 82.0897 46.4901 82.3715 43.9499C82.923 39.0501 84.1515 34.2183 86.2514 29.728L86.2717 29.7069L86.2801 29.6834C87.173 27.2394 88.331 24.8599 89.4628 22.4663C90.5587 20.061 91.7 17.6557 92.4915 15.0837C93.2615 12.554 93.6997 9.82723 93.2926 7.16847C92.9297 4.50268 91.5914 2.06921 89.84 0.0769058C91.4768 2.17129 92.6252 4.63057 92.8724 7.23183C93.1708 9.81784 92.6109 12.4121 91.7537 14.8702C90.8811 17.3307 89.7266 19.7019 88.5591 22.0462C87.3605 24.4152 86.1499 26.7618 85.1579 29.2657L85.1626 29.2164C84.0213 31.4927 83.0854 33.8863 82.3679 36.3244C81.6599 38.7755 81.1955 41.2794 80.9066 43.7809C80.6595 45.7462 80.5354 47.7045 80.484 49.6593C79.3929 48.2478 78.3363 46.821 77.3634 45.3344C74.6868 41.2008 72.5427 36.7022 71.4957 31.9174L71.485 31.8752L71.4897 31.8611C70.6911 29.4088 70.167 26.8651 69.6166 24.299C69.0376 21.7564 68.4132 19.1657 67.303 16.7475C66.2262 14.3211 64.6145 12.0812 62.5587 10.394C60.5316 8.65274 58.0855 7.47941 55.5593 6.65339C58.0294 7.61434 60.374 8.92025 62.2913 10.6791C64.2205 12.4414 65.6746 14.6437 66.6022 17.0432Z" fill="#A95210"/>
<path d="M40.6975 31.0547C42.5145 32.9027 44.0211 35.0299 45.4776 37.1947C46.9245 39.3501 48.3451 41.5689 50.0105 43.6269C51.4324 45.7529 53.0703 47.7112 54.8957 49.5064C56.727 51.2875 58.7231 52.8844 60.8194 54.3475C62.8585 55.7755 64.9823 57.0626 67.1443 58.2688C67.9812 60.2294 68.8813 62.1619 69.8018 64.0815C70.2435 63.7365 70.6936 63.4009 71.152 63.0783L71.1138 63.0959C70.5169 61.8956 69.9474 60.687 69.3887 59.4738C70.6172 60.1144 71.8516 60.7469 73.0943 61.357L71.9101 62.5573C72.969 61.8521 74.0685 61.2056 75.2026 60.6237L74.7753 60.4219C74.4911 60.2834 74.213 60.1461 73.93 60.0159C71.9196 57.2034 70.4226 54.3757 69.3147 51.7299C67.9501 48.5267 67.1682 45.6004 66.6584 43.201C65.7046 38.3352 65.7798 35.5462 65.7284 35.5509C65.7846 35.5521 65.4825 38.2319 66.1427 43.154C66.4794 45.5992 67.1037 48.5959 68.3083 51.9692C69.1034 54.1387 70.1516 56.4724 71.5292 58.8414C70.4691 58.311 69.4186 57.7701 68.3787 57.2058C67.3676 54.8497 66.4638 52.455 65.7296 50.0016C64.3293 45.2672 63.5867 40.3392 63.7801 35.4054L63.7897 35.3749L63.7873 35.3549C63.6631 32.7607 63.8004 30.1196 63.9186 27.4901C63.9974 24.8572 64.1108 22.2043 63.8458 19.5327C63.564 16.8985 62.9086 14.214 61.5011 11.9084C60.1187 9.58638 57.9435 7.84166 55.5559 6.65308C57.8731 7.97424 59.9002 9.81987 61.1358 12.129C62.4203 14.3994 62.9158 17.0135 63.0793 19.6054C63.2321 22.2043 63.0793 24.8314 62.9194 27.4444C62.7296 30.0773 62.5314 32.7021 62.5887 35.389L62.5708 35.3409C62.4048 37.8729 62.4693 40.4296 62.757 42.9581C63.0602 45.4878 63.6034 47.9729 64.3078 50.3958C64.8474 52.2966 65.4944 54.1575 66.2084 55.9785C64.6528 55.0903 63.1247 54.168 61.6539 53.1543C57.5698 50.3442 53.8403 47.0061 51.0122 42.9663L50.993 42.9464L50.9728 42.9229C49.2883 40.974 47.8198 38.8033 46.2918 36.6562C44.7672 34.5172 43.1914 32.3512 41.224 30.5361C39.2721 28.7045 36.9369 27.2449 34.3571 26.44C31.8142 25.621 29.0983 25.4403 26.4468 25.6163C29.0923 25.594 31.7712 25.9132 34.2317 26.8108C36.7077 27.7025 38.8924 29.202 40.6975 31.0547Z" fill="#A95210"/>
<path d="M96.0098 13.8224C95.9716 16.3744 95.5215 18.9405 94.9998 21.4854C94.4602 24.035 93.8358 26.5987 93.5517 29.2434L93.5517 29.1789C93.018 31.6628 92.7876 34.196 92.7817 36.7245C92.79 39.2636 93.0574 41.7804 93.4741 44.2596C93.8979 46.6966 94.4769 49.0914 95.1395 51.4568C94.3396 53.3787 93.6114 55.3147 92.9082 57.246C93.1099 57.2695 93.3117 57.28 93.5135 57.307C93.8465 57.3516 94.1844 57.4279 94.5211 57.4865C94.9461 56.2651 95.4021 55.0589 95.8629 53.8527C96.2664 55.1586 96.6795 56.4575 97.1296 57.7482L95.993 57.7669C97.0424 58.0075 98.0942 58.3208 99.1424 58.6739L98.986 58.2762C98.8893 57.9946 98.7962 57.713 98.7066 57.4396C99.3119 54.0287 100.272 50.9534 101.372 48.324C102.729 45.1338 104.269 42.4938 105.67 40.4416C108.457 36.3561 110.549 34.4096 110.5 34.3884C110.545 34.4131 108.38 36.1144 105.31 40.0368C103.786 42.0221 102.06 44.5635 100.496 47.7902C99.4874 49.8775 98.5514 52.2629 97.8387 54.897C97.4686 53.78 97.1176 52.6595 96.7857 51.5331C97.7635 49.1676 98.8475 46.8456 100.094 44.6081C102.509 40.2879 105.534 36.2974 109.218 32.9335L109.252 32.9018L109.249 32.9007C111.034 30.9858 113.036 29.2059 114.982 27.4353C116.957 25.6343 118.955 23.8203 120.665 21.7646C122.365 19.7055 123.861 17.34 124.488 14.7399C125.195 12.1387 124.924 9.38723 124.09 6.89274C124.769 9.44003 124.857 12.1399 124.087 14.6461C123.369 17.1359 121.841 19.3511 120.084 21.2801C118.318 23.2078 116.338 24.9795 114.328 26.6926C112.305 28.4455 110.264 30.1656 108.385 32.0887L108.406 32.0711C106.459 33.7419 104.659 35.5911 103.072 37.5858C101.457 39.564 100.048 41.6959 98.7842 43.9276C97.8148 45.6336 96.9386 47.3865 96.122 49.177C95.6731 47.4687 95.2469 45.7509 94.9293 44.0156C94.0626 39.1873 93.8358 34.223 94.73 29.4147L94.7395 29.3643L94.7503 29.3537C94.9699 26.7853 95.4713 24.2451 95.9584 21.6649C96.43 19.0977 96.8454 16.4624 96.775 13.8154C96.7141 11.1707 96.0921 8.49667 94.8625 6.15941C93.652 3.79281 91.8624 1.78409 89.8389 0.0769043C91.7526 1.89556 93.418 3.98641 94.5032 6.31898C95.5919 8.67971 96.0897 11.2587 96.0098 13.8224Z" fill="#A95210"/>
<path d="M53.0876 74.5765C48.4628 72.806 44.3691 70.3796 40.8139 67.9578C37.2432 65.5197 34.1619 63.1308 31.4806 61.2124C28.8231 59.2799 26.531 57.8555 24.8692 57.033C23.2097 56.2082 22.2165 55.9101 22.2225 55.8972C22.2153 55.9078 23.1739 56.3008 24.745 57.2372C26.3316 58.1735 28.4745 59.7422 30.9959 61.8073C33.5471 63.8676 36.5018 66.4067 40.0331 68.9833C43.5704 71.5635 47.7238 74.1354 52.5122 76.0033C54.8258 76.8927 57.1633 77.5369 59.4615 78.0038C59.631 77.5427 59.8148 77.0875 60.007 76.6357C57.7173 76.1429 55.3953 75.4847 53.0876 74.5765Z" fill="#A95210"/>
<path d="M66.9584 66.5687C64.9504 65.2112 62.9746 63.6777 61.1158 61.9001C57.5332 58.5186 54.6907 54.7381 52.3543 51.1688C50.0025 47.5714 48.0912 44.2063 46.3613 41.4197C44.6565 38.6354 43.0891 36.4565 41.8725 35.0755C40.6644 33.6851 39.861 33.0363 39.8717 33.0339C39.861 33.0339 40.5999 33.7567 41.6815 35.2128C42.7858 36.6759 44.1575 38.9311 45.6832 41.7893C47.24 44.6475 48.9794 48.1088 51.2357 51.82C53.4956 55.5348 56.3381 59.4736 60.0318 62.996C61.9026 64.7583 63.901 66.2953 65.9281 67.6259C66.2636 67.2669 66.6062 66.9137 66.9584 66.5687Z" fill="#A95210"/>
<path d="M54.3119 73.49C55.5105 73.9241 56.8046 74.3571 58.2336 74.6879C59.0108 74.8674 59.8453 75.0071 60.7096 75.1021C60.9352 74.6469 61.1716 74.1975 61.4211 73.7551C60.4446 73.7528 59.4752 73.6401 58.55 73.4829C57.1974 73.2447 55.9128 72.9139 54.7238 72.5853C52.354 71.8872 50.3233 71.1445 48.6806 70.5144C45.3857 69.2554 43.5818 68.4564 43.5818 68.4717C43.583 68.4587 45.2364 69.4232 48.3905 70.9626C49.9688 71.71 51.9374 72.6194 54.3119 73.49Z" fill="#A95210"/>
<path d="M57.2784 85.6648C56.6027 85.8936 55.9163 86.0884 55.2418 86.2327C53.8999 86.5284 52.5807 86.7184 51.3535 86.8498C48.8894 87.0986 46.731 87.176 44.9701 87.223C41.4352 87.2887 39.4582 87.237 39.4558 87.2417C39.4606 87.237 41.3492 87.5034 44.8579 87.7251C46.6319 87.8401 48.7927 87.9234 51.3201 87.8425C52.5915 87.8002 53.9572 87.7017 55.4137 87.4764C55.9772 87.3872 56.5622 87.2699 57.1531 87.1291C57.1817 86.6422 57.2259 86.1541 57.2784 85.6648Z" fill="#A95210"/>
<path d="M57.1046 88.7121C55.0119 89.0547 52.8451 89.2788 50.609 89.3269C45.6499 89.3973 40.9187 88.7027 36.6807 87.811C32.445 86.9134 28.6605 85.8597 25.4491 85.0935C22.2282 84.3074 19.5695 83.8487 17.7024 83.7137C15.8639 83.5694 14.8217 83.6644 14.8277 83.6621C14.8217 83.6644 15.8615 83.6727 17.6905 83.9543C19.4991 84.2335 22.0849 84.8554 25.2235 85.8093C28.3764 86.7538 32.1047 87.9964 36.3822 89.0512C40.6346 90.113 45.4923 90.9179 50.6401 90.8393C52.8797 90.8065 55.0465 90.5624 57.1369 90.1963C57.113 89.7035 57.1034 89.2084 57.1046 88.7121Z" fill="#A95210"/>
<path d="M115.668 115.467C117.592 117.023 119.168 118.435 120.438 119.635C122.999 122.039 124.334 123.469 124.336 123.462C124.333 123.469 123.188 121.971 120.86 119.35C119.701 118.048 118.239 116.489 116.378 114.77C115.447 113.933 114.431 113.05 113.248 112.207C112.897 111.951 112.52 111.708 112.138 111.468C111.796 111.795 111.444 112.107 111.087 112.412C111.565 112.662 112.03 112.926 112.474 113.199C113.652 113.926 114.685 114.715 115.668 115.467Z" fill="#A95210"/>
<path d="M111.253 147.392C111.76 150.629 112.356 153.226 112.907 154.947C113.503 156.687 113.981 157.595 113.976 157.591C113.981 157.597 113.588 156.646 113.179 154.892C112.706 153.122 112.341 150.551 112.007 147.308C111.697 144.099 111.435 140.238 110.794 135.945C110.167 131.679 109.083 126.987 107.014 122.325C106.131 120.3 105.078 118.418 103.932 116.657C103.46 116.837 102.978 117.002 102.49 117.156C103.634 118.953 104.706 120.883 105.619 122.94C107.584 127.403 108.734 131.974 109.522 136.149C110.285 140.352 110.756 144.193 111.253 147.392Z" fill="#A95210"/>
<path d="M124.336 103.552C126.713 104.266 128.733 104.994 130.375 105.613C133.683 106.882 135.461 107.689 135.46 107.682C135.46 107.69 133.822 106.727 130.655 105.182C129.082 104.413 127.113 103.526 124.742 102.628C123.546 102.218 122.257 101.778 120.844 101.439C120.3 101.319 119.745 101.205 119.17 101.116C118.988 101.554 118.785 101.989 118.577 102.423C119.235 102.469 119.884 102.552 120.511 102.653C121.879 102.883 123.152 103.229 124.336 103.552Z" fill="#A95210"/>
<path d="M132.718 134.722C134.436 137.504 135.962 139.666 137.183 141.064C138.407 142.454 139.207 143.1 139.198 143.11C139.21 143.102 138.452 142.401 137.38 140.927C136.31 139.453 134.912 137.204 133.375 134.345C131.839 131.504 130.103 128.031 127.842 124.314C125.586 120.628 122.721 116.651 119.032 113.148C117.502 111.674 115.877 110.376 114.214 109.219C113.896 109.604 113.579 109.992 113.245 110.355C114.862 111.513 116.437 112.806 117.974 114.25C121.527 117.646 124.357 121.406 126.717 124.984C129.074 128.55 130.977 131.935 132.718 134.722Z" fill="#A95210"/>
<path d="M103 123.21C104.166 125.334 105.084 127.285 105.803 128.874C107.206 132.031 107.915 133.863 107.921 133.863C107.914 133.86 107.434 132.021 106.307 128.761C105.742 127.126 105.009 125.123 103.933 122.841C103.43 121.709 102.809 120.511 102.039 119.279C101.693 118.732 101.318 118.174 100.896 117.626C100.393 117.761 99.9019 117.903 99.4268 118.05C99.9843 118.639 100.495 119.275 100.95 119.923C101.717 121.008 102.387 122.131 103 123.21Z" fill="#A95210"/>
<path d="M90.1967 119.893C90.5477 121.964 90.771 124.12 90.8152 126.33C90.8892 131.196 90.1884 135.846 89.2751 140.01C88.3535 144.185 87.2898 147.894 86.5042 151.047C85.7115 154.224 85.2495 156.85 85.0955 158.64C84.9582 160.479 85.0537 161.495 85.0514 161.489C85.0549 161.496 85.0621 160.481 85.3594 158.699C85.6244 156.885 86.2667 154.369 87.2301 151.25C88.1959 148.165 89.4542 144.504 90.537 140.304C91.6138 136.117 92.4435 131.372 92.3516 126.294C92.317 124.097 92.0818 121.972 91.7129 119.929C91.2211 119.947 90.7173 119.938 90.1967 119.893Z" fill="#A95210"/>
<path d="M119.713 77.6215C119.788 77.9031 119.851 78.18 119.924 78.4604C120.551 77.8667 121.239 77.3305 121.929 76.8377C123.05 76.0903 124.2 75.4414 125.298 74.8466C127.444 73.6803 129.448 72.7968 131.065 72.0963C134.282 70.7165 136.141 70.0195 136.139 70.0066C136.141 70.0207 134.266 70.4947 130.92 71.566C129.274 72.1385 127.239 72.8683 124.898 73.9091C123.765 74.4206 122.551 75.0284 121.291 75.7711C120.7 76.1372 120.096 76.535 119.504 76.9808C119.577 77.1909 119.652 77.3974 119.713 77.6215Z" fill="#A95210"/>
<path d="M88.9411 121.62C88.8325 120.986 88.7023 120.341 88.5328 119.688C88.2045 119.712 87.8702 119.725 87.5216 119.718C87.3676 119.714 87.216 119.7 87.062 119.694C87.3103 120.389 87.5181 121.094 87.6756 121.788C87.9693 123.085 88.1544 124.374 88.2952 125.599C88.5447 128.013 88.6331 130.144 88.682 131.88C88.7405 135.336 88.6892 137.289 88.6952 137.293C88.6904 137.287 88.9554 135.418 89.1882 131.986C89.3112 130.256 89.3983 128.129 89.298 125.611C89.2646 124.382 89.1655 123.046 88.9411 121.62Z" fill="#A95210"/>
<path d="M138.35 145.066C136.537 143.213 135.046 141.103 133.585 138.918C132.117 136.753 130.722 134.549 129 132.485L129.031 132.508C127.636 130.394 125.995 128.403 124.175 126.636C122.34 124.859 120.364 123.253 118.251 121.789C116.203 120.354 114.077 119.07 111.898 117.858C111.256 116.349 110.576 114.865 109.876 113.391C109.448 113.713 109.016 114.031 108.567 114.323C108.94 115.104 109.319 115.884 109.682 116.672C108.78 116.189 107.871 115.739 106.962 115.287C106.381 115.605 105.782 115.899 105.168 116.171C107.143 118.96 108.655 121.775 109.74 124.414C111.114 127.617 111.89 130.531 112.391 132.957C113.365 137.813 113.298 140.6 113.321 140.583C113.293 140.597 113.578 137.88 112.928 132.984C112.572 130.525 111.967 127.525 110.769 124.174C109.958 122.001 108.897 119.655 107.51 117.276C108.578 117.804 109.633 118.355 110.676 118.918C111.689 121.28 112.602 123.681 113.335 126.143C114.746 130.877 115.471 135.775 115.257 140.736L115.273 140.759L115.274 140.778C115.399 143.375 115.262 146.016 115.169 148.654C115.05 151.259 114.959 153.933 115.233 156.587C115.505 159.239 116.137 161.901 117.569 164.227C118.964 166.542 121.101 168.295 123.505 169.497C121.197 168.169 119.179 166.317 117.908 164.013C116.641 161.729 116.133 159.143 115.986 156.538C115.838 153.931 115.961 151.317 116.148 148.687C116.331 146.067 116.538 143.432 116.474 140.754L116.477 140.804C116.625 138.258 116.569 135.721 116.278 133.194C115.998 130.659 115.448 128.162 114.74 125.719C114.191 123.818 113.549 121.958 112.83 120.129C114.391 121.011 115.927 121.947 117.415 122.959C121.47 125.792 125.229 129.128 128.076 133.172L128.095 133.199L128.098 133.212C129.789 135.155 131.236 137.331 132.776 139.478C134.279 141.617 135.878 143.793 137.87 145.594C139.801 147.427 142.128 148.884 144.699 149.698C147.287 150.535 149.985 150.694 152.613 150.526C149.953 150.552 147.314 150.202 144.851 149.302C142.375 148.41 140.163 146.924 138.35 145.066Z" fill="#A95210"/>
<path d="M172.702 92.949C170.309 94.0179 167.682 94.5118 165.076 94.4309C162.481 94.3922 159.879 93.9487 157.29 93.4383C154.7 92.8985 152.069 92.2919 149.406 92.0091L149.43 92.0197C146.935 91.4858 144.356 91.2582 141.757 91.2641C139.191 91.2664 136.624 91.5339 134.107 91.9434C131.626 92.3564 129.181 92.9267 126.772 93.5802C124.985 92.8633 123.187 92.2074 121.377 91.5797C121.344 92.1183 121.291 92.6533 121.229 93.186C122.264 93.545 123.299 93.9123 124.334 94.2901C123.185 94.6397 122.035 94.9964 120.898 95.3707C120.784 95.9668 120.649 96.5593 120.497 97.1495C120.563 97.1284 120.621 97.1072 120.688 97.0873C124.146 97.688 127.277 98.6337 129.979 99.7062C133.232 101.019 135.905 102.547 138.004 103.913C142.15 106.663 144.124 108.727 144.157 108.676C144.117 108.724 142.384 106.606 138.394 103.591C136.385 102.079 133.776 100.397 130.518 98.8426C128.38 97.864 125.966 96.9324 123.28 96.2284C124.418 95.8635 125.556 95.5186 126.693 95.1936C129.12 96.1498 131.478 97.2164 133.745 98.4472C138.136 100.823 142.227 103.792 145.626 107.416L145.655 107.448L145.656 107.448C147.604 109.2 149.424 111.167 151.235 113.081C153.055 115.025 154.894 116.987 156.987 118.666C159.085 120.333 161.489 121.803 164.13 122.418C166.783 123.119 169.583 122.854 172.127 122.032C169.519 122.707 166.782 122.787 164.243 122.019C161.689 121.332 159.46 119.805 157.484 118.087C155.519 116.366 153.732 114.397 151.974 112.439C150.177 110.463 148.44 108.445 146.48 106.597L146.504 106.618C144.796 104.713 142.929 102.943 140.907 101.359C138.874 99.7965 136.708 98.4049 134.438 97.1636C132.692 96.2073 130.89 95.3613 129.071 94.5517C130.822 94.1059 132.581 93.6835 134.36 93.369C139.28 92.5148 144.303 92.3037 149.224 93.1707L149.247 93.1918L149.263 93.1942C151.877 93.4113 154.459 93.9099 157.093 94.3863C159.734 94.8392 162.37 95.2628 165.099 95.1783C167.781 95.1232 170.474 94.5212 172.882 93.2974C175.29 92.1159 177.326 90.3559 179.07 88.3718C177.23 90.2386 175.116 91.8766 172.702 92.949Z" fill="#A95210"/>
<path d="M147.59 114.924C150.274 116.864 152.524 118.265 154.172 119.101C155.858 119.934 156.847 120.227 156.842 120.24C156.848 120.228 155.889 119.863 154.327 118.908C152.749 117.949 150.589 116.395 148.051 114.323C145.536 112.288 142.574 109.722 139.037 107.148C135.509 104.586 131.321 101.988 126.549 100.148C124.438 99.3044 122.302 98.7048 120.193 98.2507C120.051 98.7224 119.909 99.1941 119.742 99.6611C121.806 100.133 123.896 100.76 125.996 101.562C130.6 103.359 134.684 105.773 138.258 108.192C141.817 110.592 144.892 113.005 147.59 114.924Z" fill="#A95210"/>
<path d="M156.819 122.368C154.433 121.334 152.227 119.949 150.027 118.481C147.84 117.034 145.687 115.506 143.295 114.258L143.317 114.269C141.205 112.839 138.927 111.624 136.543 110.675C134.173 109.718 131.712 108.981 129.181 108.427C126.74 107.872 124.271 107.474 121.797 107.176C120.555 105.957 119.271 104.783 117.971 103.632C117.721 104.101 117.462 104.569 117.183 105.035C117.88 105.653 118.582 106.273 119.26 106.897C118.223 106.795 117.187 106.719 116.15 106.638C115.791 107.167 115.407 107.694 115.007 108.218C117.884 110.061 120.341 112.071 122.361 114.039C124.869 116.47 126.734 118.888 128.142 120.939C130.902 125.04 131.933 127.693 131.965 127.659C131.928 127.689 131.14 125.082 128.62 120.788C127.376 118.624 125.613 116.108 123.195 113.436C121.616 111.724 119.731 109.973 117.541 108.289C118.723 108.384 119.904 108.484 121.096 108.615C122.952 110.416 124.731 112.288 126.344 114.288C129.483 118.133 132.102 122.404 133.832 127.048L133.848 127.089L133.849 127.089C134.954 129.431 135.87 131.932 136.813 134.388C137.716 136.867 138.666 139.378 139.95 141.713C141.228 144.04 142.886 146.295 145.081 147.867C147.264 149.518 149.947 150.315 152.607 150.525C149.947 150.162 147.389 149.196 145.336 147.541C143.261 145.933 141.779 143.695 140.634 141.373C139.467 139.04 138.588 136.541 137.726 134.068C136.843 131.567 136.023 129.066 134.932 126.616L134.945 126.642C134.109 124.24 133.07 121.89 131.828 119.665C130.548 117.457 129.107 115.358 127.484 113.366C126.242 111.813 124.907 110.339 123.531 108.924C125.311 109.154 127.098 109.443 128.865 109.819C133.717 110.896 138.489 112.572 142.689 115.239L142.734 115.284C145.052 116.433 147.232 117.897 149.488 119.295C151.714 120.716 154.038 122.118 156.584 123.049C159.064 124.002 161.805 124.471 164.478 124.26C167.199 124.058 169.758 123.187 172.129 122.033C169.68 123.06 167.085 123.738 164.467 123.835C161.84 123.938 159.221 123.396 156.819 122.368Z" fill="#A95210"/>
<path d="M62.2075 145.131C60.2544 147.751 58.7896 149.997 57.9396 151.609C57.1135 153.259 56.8102 154.229 56.7971 154.223C56.8079 154.232 57.1899 153.278 58.1605 151.752C59.1299 150.208 60.7081 148.079 62.808 145.594C64.9068 143.093 67.4974 140.201 70.1166 136.724C72.7383 133.243 75.3527 129.158 77.2473 124.446C78.0663 122.429 78.6811 120.373 79.1455 118.349C78.6656 118.199 78.1929 118.035 77.7237 117.862C77.2402 119.86 76.6146 121.88 75.8207 123.912C73.9882 128.417 71.5158 132.446 69.072 135.948C66.6008 139.471 64.1571 142.478 62.2075 145.131Z" fill="#A95210"/>
<path d="M54.1368 102.237C55.2984 101.722 56.5208 101.111 57.7744 100.361C58.2244 100.087 58.6817 99.7973 59.1353 99.4759C58.9622 99.0276 58.7975 98.5771 58.6459 98.1218C58.1552 98.5384 57.6442 98.9267 57.1321 99.2752C56.0015 100.043 54.859 100.711 53.7786 101.305C51.6011 102.457 49.6337 103.343 48.028 104.047C44.7915 105.441 42.9387 106.134 42.9375 106.14C42.9411 106.133 44.7939 105.672 48.1223 104.552C49.796 103.986 51.8291 103.262 54.1368 102.237Z" fill="#A95210"/>
<path d="M61.6637 113.753C60.1021 115.635 58.6242 117.196 57.4029 118.444C54.9532 120.962 53.5134 122.268 53.5218 122.272C53.5146 122.268 55.0439 121.141 57.7037 118.856C59.0229 117.727 60.6227 116.279 62.3513 114.461C63.2156 113.54 64.1229 112.536 64.9873 111.372C65.2869 110.96 65.5866 110.524 65.8767 110.066C65.5424 109.718 65.2213 109.357 64.9037 108.995C64.6148 109.557 64.2949 110.097 63.9642 110.615C63.2324 111.77 62.4265 112.784 61.6637 113.753Z" fill="#A95210"/>
<path d="M42.0779 130.507C39.2497 132.186 37.0244 133.707 35.611 134.902C34.2034 136.104 33.5444 136.887 33.5337 136.876C33.5397 136.888 34.2667 136.137 35.7578 135.09C37.2549 134.043 39.541 132.673 42.4468 131.16C45.3573 129.634 48.8851 127.938 52.6576 125.716C56.4349 123.49 60.4413 120.691 64.0264 117.054C65.5545 115.515 66.9131 113.865 68.1188 112.186C67.7392 111.859 67.3643 111.525 67.0002 111.18C65.7849 112.836 64.4275 114.446 62.909 116.01C59.4612 119.499 55.6135 122.291 51.9843 124.602C48.3383 126.933 44.9037 128.798 42.0779 130.507Z" fill="#A95210"/>
<path d="M69.578 133.208C69.5696 133.205 70.5462 131.592 72.1125 128.485C72.8909 126.95 73.8053 125.002 74.7019 122.689C75.1388 121.506 75.5829 120.229 75.9339 118.839C76.0497 118.332 76.1584 117.811 76.2467 117.274C75.8014 117.083 75.3621 116.882 74.9275 116.671C74.8798 117.296 74.7938 117.914 74.6935 118.514C74.4595 119.859 74.1121 121.105 73.7803 122.276C73.0687 124.603 72.3154 126.602 71.6803 128.214C70.3946 131.465 69.5672 133.206 69.578 133.208Z" fill="#A95210"/>
<path d="M54.6077 154.218C55.6619 151.873 57.0933 149.696 58.57 147.541C60.0504 145.392 61.6239 143.243 62.9036 140.899L62.8654 140.948C64.3267 138.864 65.5456 136.634 66.5377 134.274C67.513 131.936 68.2532 129.515 68.8262 127.04C69.3801 124.64 69.7872 122.215 70.0881 119.788C71.3261 118.569 72.5187 117.314 73.691 116.041C73.2123 115.78 72.7396 115.51 72.2764 115.227C71.646 115.918 71.0181 116.612 70.3698 117.286C70.4785 116.238 70.5573 115.193 70.6372 114.146C70.1155 113.78 69.607 113.397 69.108 113.001C67.2325 115.87 65.1647 118.312 63.1173 120.329C60.621 122.806 58.1845 124.631 56.0893 126.016C51.8978 128.734 49.2487 129.731 49.2654 129.766C49.2499 129.728 51.8954 128.952 56.2612 126.489C58.4435 125.262 61.0031 123.529 63.7142 121.164C65.4513 119.604 67.2408 117.759 68.9408 115.611C68.8513 116.774 68.745 117.933 68.6137 119.102C66.7919 120.921 64.8973 122.662 62.8774 124.252C58.9425 127.334 54.5982 129.908 49.873 131.609L49.8492 131.616L49.8253 131.627C47.4376 132.713 44.9246 133.603 42.4116 134.539C39.8867 135.429 37.3355 136.36 34.949 137.624C32.5661 138.882 30.3014 140.498 28.6886 142.666C27.0315 144.805 26.1911 147.46 25.9929 150.061C26.3391 147.458 27.3288 144.933 28.999 142.923C30.6488 140.874 32.9267 139.419 35.2916 138.298C37.6721 137.148 40.1947 136.294 42.722 135.436C45.2505 134.576 47.8244 133.762 50.3195 132.687L50.273 132.71C52.7131 131.889 55.096 130.869 57.3619 129.648C59.629 128.388 61.7647 126.964 63.7871 125.373C65.3617 124.156 66.8492 122.848 68.3033 121.499C68.0586 123.251 67.7721 125.011 67.3805 126.746C66.2893 131.515 64.5881 136.193 61.8829 140.317L61.8638 140.336L61.8507 140.358C60.6688 142.648 59.1694 144.784 57.7487 147.003C56.3101 149.188 54.8883 151.466 53.9476 153.972C52.9567 156.421 52.4851 159.112 52.6976 161.731C52.9352 164.394 53.8043 166.922 54.9611 169.253C53.9165 166.847 53.2205 164.309 53.1202 161.731C53.0176 159.145 53.5727 156.571 54.6077 154.218Z" fill="#A95210"/>
<path d="M29.2461 110.161C32.5231 109.85 36.4424 109.604 40.8083 108.963C45.1574 108.349 49.9566 107.266 54.6793 105.253C56.7148 104.397 58.6082 103.376 60.3787 102.265C60.1566 101.823 59.9441 101.376 59.7436 100.923C57.9671 102.002 56.0737 103.004 54.0633 103.863C49.5089 105.808 44.8697 106.938 40.6101 107.711C36.3338 108.464 32.4336 108.926 29.1625 109.422C25.8843 109.907 23.2519 110.49 21.4671 111.055C19.7134 111.623 18.7965 112.096 18.8013 112.091C18.7965 112.096 19.754 111.711 21.5519 111.289C23.3331 110.856 25.9678 110.468 29.2461 110.161Z" fill="#A95210"/>
<path d="M83.045 162.32C83.1071 159.758 83.5524 157.205 84.0944 154.647C84.6197 152.113 85.219 149.532 85.521 146.912L85.4983 146.945C86.0391 144.488 86.2815 141.956 86.2779 139.394C86.2743 136.87 86.0021 134.351 85.5891 131.874C85.1724 129.435 84.5958 127.032 83.9273 124.664C84.6221 122.999 85.2608 121.322 85.872 119.633C85.3217 119.592 84.7773 119.533 84.2353 119.463C83.8986 120.398 83.562 121.33 83.2038 122.263C82.8815 121.215 82.5388 120.171 82.1926 119.133C81.5754 119.01 80.9666 118.865 80.3637 118.704C80.3649 118.709 80.3661 118.712 80.3673 118.716C79.7548 122.094 78.8022 125.157 77.6895 127.816C76.3465 131.034 74.8017 133.645 73.4132 135.708C70.6042 139.796 68.5305 141.705 68.5758 141.744C68.5305 141.701 70.6877 139.997 73.7535 136.075C75.2875 134.117 76.9875 131.553 78.5634 128.351C79.5662 126.25 80.501 123.879 81.2388 121.235C81.6112 122.356 81.9634 123.466 82.2953 124.597C81.3164 126.966 80.2371 129.28 78.9932 131.51C76.5506 135.839 73.5422 139.86 69.8377 143.201L69.8186 143.216L69.8091 143.236C68.0303 145.146 66.0545 146.919 64.0895 148.715C62.1077 150.5 60.1116 152.311 58.3973 154.368C56.6937 156.438 55.2229 158.787 54.5806 161.391C53.8799 163.985 54.1401 166.753 54.9639 169.247C54.2655 166.701 54.207 163.994 54.9626 161.513C55.6933 158.986 57.2285 156.796 58.9751 154.859C60.7276 152.924 62.7321 151.179 64.7353 149.438C66.7254 147.699 68.7633 145.986 70.6519 144.066C72.5835 142.393 74.3814 140.562 76.0014 138.576C77.5976 136.561 79.0135 134.436 80.2741 132.206C81.2591 130.486 82.1222 128.722 82.934 126.918C83.3936 128.642 83.8138 130.371 84.1409 132.123C84.9969 136.965 85.2178 141.897 84.3343 146.733L84.3212 146.755L84.3176 146.77C84.1123 149.35 83.5727 151.882 83.1131 154.462C82.6642 157.059 82.2129 159.656 82.3108 162.334C82.3562 164.969 82.9614 167.617 84.2078 169.988C85.4255 172.342 87.215 174.349 89.2123 176.075C87.3165 174.263 85.6798 172.169 84.5743 169.805C83.4605 167.46 82.9901 164.872 83.045 162.32Z" fill="#A95210"/>
<path d="M31.5158 136.053C33.4021 134.272 35.5689 132.801 37.7727 131.368C39.9657 129.937 42.2316 128.571 44.3125 126.89C46.4745 125.509 48.4753 123.913 50.3007 122.112C52.1117 120.304 53.7365 118.361 55.2252 116.291C56.6829 114.288 57.9973 112.194 59.2269 110.052C60.8446 109.386 62.4407 108.674 64.0273 107.943C63.693 107.527 63.3707 107.103 63.0579 106.671C62.1852 107.078 61.3126 107.486 60.4327 107.877C60.9449 106.93 61.4415 105.977 61.9357 105.022C61.6003 104.493 61.2779 103.957 60.9735 103.409C60.9723 103.412 60.9711 103.415 60.9699 103.417C58.1059 105.368 55.2419 106.859 52.557 107.929C49.2883 109.279 46.3193 110.048 43.8588 110.53C38.9259 111.487 36.087 111.407 36.0858 111.451C36.0918 111.403 38.8292 111.709 43.8373 111.06C46.3181 110.722 49.3743 110.118 52.7994 108.934C55.0115 108.143 57.3849 107.104 59.8 105.744C59.2592 106.794 58.7076 107.832 58.131 108.86C55.7338 109.85 53.2912 110.742 50.7985 111.46C45.9814 112.837 40.9638 113.575 35.9294 113.368L35.9151 113.366L35.8888 113.367C33.2552 113.49 30.5691 113.355 27.9081 113.257C25.2172 113.163 22.512 113.057 19.8032 113.326C17.1135 113.595 14.3773 114.232 12.0374 115.623C9.69269 116.99 7.89598 119.101 6.68066 121.449C8.03446 119.18 9.92072 117.21 12.2451 115.965C14.5707 114.71 17.2198 114.212 19.8701 114.066C22.5132 113.923 25.1694 114.046 27.8424 114.226C30.5238 114.407 33.1956 114.609 35.9306 114.546L35.8709 114.552C38.446 114.714 41.0438 114.639 43.6153 114.361C46.1963 114.079 48.7344 113.548 51.2032 112.859C53.1372 112.318 55.033 111.686 56.8954 110.979C55.9893 112.512 55.0366 114.017 54.0087 115.478C51.1411 119.46 47.7543 123.149 43.6487 125.945L43.6236 125.956L43.595 125.967C41.6192 127.631 39.3975 129.052 37.2223 130.568C35.0376 132.043 32.8398 133.61 30.9953 135.571C29.1306 137.474 27.6467 139.76 26.8181 142.284C26.0028 144.818 25.8201 147.479 25.9896 150.062C25.9586 147.459 26.2976 144.862 27.2145 142.442C28.1134 140.008 29.6391 137.832 31.5158 136.053Z" fill="#A95210"/>
<path d="M112.448 159.115C111.496 156.728 110.931 154.183 110.433 151.616C109.925 149.093 109.482 146.478 108.728 143.939L108.725 143.989C108.27 141.504 107.505 139.072 106.512 136.72C105.53 134.393 104.297 132.161 102.94 130.029C101.612 127.934 100.138 125.938 98.6012 123.992C98.5964 122.109 98.5332 120.234 98.4389 118.364C97.904 118.536 97.3799 118.71 96.8654 118.874C96.9239 119.939 96.9764 120.999 97.0098 122.058C96.278 121.178 95.5355 120.325 94.7941 119.47C94.1984 119.619 93.5991 119.743 92.9878 119.825C93.0022 119.841 93.0153 119.856 93.0296 119.873C93.7853 123.224 94.0742 126.387 94.0623 129.237C94.0707 132.714 93.654 135.708 93.1789 138.138C92.1868 142.986 91.03 145.549 91.0598 145.542C91.0288 145.545 92.3503 143.136 93.6612 138.352C94.2987 135.952 94.8872 132.964 95.089 129.414C95.2084 127.101 95.132 124.55 94.7786 121.839C95.5629 122.716 96.3127 123.623 97.0648 124.542C97.0827 127.099 96.98 129.65 96.703 132.185C96.1574 137.104 94.9123 141.908 92.7909 146.402L92.792 146.426L92.7837 146.445C91.8943 148.895 90.7423 151.275 89.6416 153.675C88.5098 156.051 87.3816 158.471 86.6044 161.04C85.8177 163.59 85.3653 166.294 85.7831 168.964C86.1687 171.631 87.4736 174.071 89.2142 176.078C87.6001 173.975 86.466 171.516 86.1735 168.91C85.9013 166.327 86.4373 163.731 87.3112 161.265C88.1863 158.8 89.3216 156.437 90.5214 154.087C91.72 151.729 92.9305 149.363 93.9155 146.869L93.894 146.933C95.0341 144.628 95.9629 142.266 96.6768 139.81C97.3967 137.368 97.8599 134.854 98.1691 132.334C98.3911 130.38 98.5308 128.417 98.5726 126.474C99.6673 127.871 100.726 129.311 101.692 130.794C104.373 134.944 106.506 139.419 107.576 144.217L107.563 144.244L107.573 144.273C108.377 146.724 108.865 149.267 109.451 151.819C110.048 154.387 110.631 156.955 111.775 159.4C112.846 161.813 114.443 164.039 116.515 165.765C118.546 167.471 120.978 168.657 123.504 169.498C121.048 168.535 118.714 167.224 116.772 165.465C114.828 163.704 113.396 161.494 112.448 159.115Z" fill="#A95210"/>
<path d="M123.841 89.8798C125.17 89.6087 126.485 89.4386 127.735 89.306C130.179 89.0256 132.359 88.9728 134.126 88.9306C137.643 88.8613 139.632 88.9212 139.63 88.9071C139.629 88.9223 137.714 88.6619 134.215 88.3885C132.464 88.2946 130.302 88.2066 127.729 88.2899C126.488 88.3345 125.123 88.4413 123.677 88.6619C122.944 88.7839 122.199 88.9258 121.443 89.1288C121.447 89.6228 121.444 90.1144 121.427 90.6025C122.223 90.3033 123.043 90.071 123.841 89.8798Z" fill="#A95210"/>
<path d="M153.617 91.0535C156.847 91.8255 159.52 92.2866 161.342 92.4392C163.224 92.587 164.249 92.4661 164.248 92.4791C164.252 92.4661 163.217 92.4591 161.402 92.1716C159.556 91.9194 156.997 91.2717 153.823 90.3319C150.687 89.3826 146.96 88.1448 142.686 87.0853C138.427 86.0234 133.594 85.1962 128.431 85.3007C125.955 85.3382 123.572 85.621 121.291 86.0527C121.336 86.535 121.363 87.0113 121.39 87.4889C123.663 87.0958 126.029 86.8401 128.47 86.8095C133.421 86.7368 138.156 87.4361 142.39 88.3278C146.628 89.2066 150.408 90.2744 153.617 91.0535Z" fill="#A95210"/>
<path d="M164.014 90.249C161.501 89.3878 159.091 88.259 156.713 87.1092C154.31 85.9311 151.904 84.7426 149.365 83.7664L149.426 83.7711C147.079 82.6576 144.675 81.7295 142.173 81.0278C139.692 80.3285 137.14 79.8768 134.566 79.5952C132.59 79.3547 130.595 79.2268 128.618 79.1763C130.041 78.1039 131.501 77.0643 133.005 76.1081C137.215 73.4716 141.782 71.3866 146.662 70.3365L146.689 70.347L146.72 70.3365C149.225 69.5551 151.788 69.0447 154.406 68.5038C157.016 67.9218 159.621 67.3234 162.11 66.2076C164.566 65.161 166.83 63.5934 168.576 61.5459C170.335 59.5642 171.529 57.1601 172.365 54.6726C171.403 57.0955 170.07 59.4023 168.28 61.2937C166.479 63.1956 164.245 64.6236 161.807 65.5329C159.394 66.4774 156.803 67.0453 154.212 67.5475C151.625 68.0157 148.958 68.4521 146.379 69.1984L146.417 69.1937C143.891 69.6419 141.431 70.4045 139.033 71.3819C136.661 72.3534 134.389 73.5608 132.227 74.8855C130.098 76.1937 128.07 77.6358 126.096 79.1458C124.105 79.1505 122.118 79.2197 120.139 79.3124C120.264 79.8381 120.379 80.3602 120.487 80.8788C121.703 80.8096 122.907 80.7521 124.109 80.7216C123.034 81.5828 121.987 82.4581 120.944 83.351C121.042 83.9752 121.124 84.5959 121.194 85.2119C121.42 85.0195 121.638 84.8388 121.857 84.6452C125.28 83.8919 128.513 83.6056 131.425 83.6185C134.96 83.5986 138.01 84.0116 140.474 84.4633C145.406 85.4607 148.024 86.587 148.012 86.5554C148.018 86.587 145.573 85.3093 140.706 84.0128C138.26 83.3909 135.223 82.8054 131.596 82.6083C129.255 82.5003 126.657 82.559 123.899 82.9051C124.789 82.1472 125.71 81.4056 126.64 80.6711C129.248 80.6559 131.845 80.7486 134.426 81.0243C139.431 81.5617 144.32 82.7831 148.884 84.8482L148.91 84.8599L148.936 84.8681C151.428 85.7458 153.849 86.8827 156.301 87.9857C158.703 89.0815 161.172 90.1938 163.789 90.9718C166.379 91.7297 169.133 92.1685 171.848 91.7673C174.571 91.4024 177.041 90.0894 179.074 88.3729C176.945 89.9733 174.436 91.0997 171.786 91.3531C169.163 91.6417 166.515 91.0914 164.014 90.249Z" fill="#A95210"/>
<path d="M88.2642 49.8114C88.1807 44.9374 88.8934 40.2816 89.8007 36.1269C90.7044 31.9639 91.7824 28.2398 92.5703 25.0836C93.363 21.9167 93.8215 19.3061 93.9755 17.4722C94.1343 15.6535 94.0113 14.6433 94.0244 14.6433C94.0113 14.6421 93.9993 15.6606 93.7224 17.4581C93.4454 19.2357 92.8055 21.7783 91.835 24.87C90.8799 27.9652 89.6097 31.6237 88.5304 35.8289C87.456 40.0071 86.6155 44.786 86.7182 49.8407C86.7576 52.3657 87.0656 54.8039 87.5372 57.1318C88.0254 57.0977 88.5161 57.0813 89.008 57.0707C88.5722 54.7476 88.2917 52.3258 88.2642 49.8114Z" fill="#A95210"/>
<path d="M103.265 52.2375C105.08 47.6873 107.532 43.6804 110.013 40.1698C112.464 36.6897 114.907 33.6485 116.868 31.0132C118.835 28.3932 120.259 26.158 121.102 24.5247C121.956 22.8891 122.255 21.9082 122.267 21.9129C122.257 21.9047 121.865 22.841 120.914 24.3921C119.951 25.9515 118.356 28.0588 116.246 30.5451C114.177 33.0325 111.575 35.9517 108.953 39.4177C106.343 42.8814 103.696 46.9939 101.825 51.6837C100.855 54.089 100.186 56.4908 99.7124 58.8644C100.18 59.031 100.644 59.207 101.107 59.3936C101.606 57.0352 102.303 54.6311 103.265 52.2375Z" fill="#A95210"/>
<path d="M90.7945 50.5367C90.5116 48.1267 90.4519 45.9959 90.4173 44.2605C90.3504 40.7875 90.4017 38.8445 90.3886 38.8445C90.4017 38.848 90.1224 40.7066 89.8598 44.1702C89.7654 45.9044 89.6819 48.0281 89.7487 50.5202C89.8072 51.7675 89.9147 53.0992 90.1379 54.5342C90.2716 55.3543 90.4435 56.2132 90.7181 57.085C91.2446 57.1049 91.7711 57.1366 92.2999 57.1847C91.9 56.2672 91.6099 55.3027 91.3711 54.3746C91.1013 53.0487 90.9223 51.7464 90.7945 50.5367Z" fill="#A95210"/>
<path d="M75.1066 53.3042C75.6486 54.433 76.267 55.6251 77.0346 56.8629C77.4942 57.6056 78.0183 58.3671 78.6463 59.0969C79.1477 58.908 79.6551 58.7355 80.166 58.5713C79.3996 57.8508 78.7132 57.0483 78.121 56.2469C77.3403 55.1241 76.6705 53.993 76.0796 52.9205C74.8845 50.8027 74.0023 48.8491 73.2908 47.2651C71.8737 44.0854 71.167 42.2644 71.155 42.2703C71.1682 42.2691 71.6397 44.0948 72.7416 47.3895C73.3266 49.0216 74.0811 51.0198 75.1066 53.3042Z" fill="#A95210"/>
<path d="M62.6716 61.3522C63.6099 62.204 64.6449 63.0934 65.8304 63.9358C66.5527 64.4509 67.3537 64.946 68.2228 65.3896C68.6132 65.0446 69.0096 64.7055 69.4155 64.3782C68.4139 63.9933 67.4636 63.4864 66.5909 62.9397C65.4364 62.2087 64.3811 61.4272 63.407 60.6763C61.4897 59.1404 59.9043 57.6914 58.6245 56.4934C56.0757 54.0869 54.7183 52.6707 54.7087 52.6824C54.7195 52.6731 55.8679 54.1784 58.1851 56.7926C59.3551 58.0809 60.8152 59.659 62.6716 61.3522Z" fill="#A95210"/>
<path d="M73.4606 53.2057C71.4801 48.7306 70.34 44.1605 69.5544 39.9811C68.7689 35.7924 68.3176 31.9485 67.8055 28.7348C67.3101 25.5105 66.7263 22.9245 66.1425 21.1727C65.579 19.4374 65.086 18.5433 65.0967 18.5398C65.0848 18.541 65.4656 19.4867 65.9049 21.2572C66.3359 23.0031 66.7525 25.5926 67.0438 28.8146C67.3697 32.0272 67.6264 35.8862 68.2615 40.1783C68.8955 44.4527 69.9866 49.1777 72.046 53.8099C73.0834 56.1812 74.3441 58.3531 75.7265 60.3618C76.1635 60.1471 76.6016 59.9359 77.0481 59.7399C75.7134 57.7253 74.4861 55.5558 73.4606 53.2057Z" fill="#A95210"/>
<path d="M100.791 83.5628C101.32 83.6074 101.87 83.3046 102.127 82.982C102.203 82.9045 102.236 82.8177 102.265 82.7321C101.549 82.7016 100.751 82.691 99.9347 82.7426C99.8165 82.7591 99.7007 82.7637 99.5837 82.7837C99.875 83.1486 100.283 83.537 100.791 83.5628Z" fill="#A95210"/>
<path d="M106.658 83.113C106.671 83.1213 106.689 83.1308 106.696 83.1344L106.928 83.1058C106.846 83.1177 106.756 83.1213 106.658 83.113Z" fill="#A95210"/>
<path d="M105.407 82.0647C104.998 81.5859 104.547 81.0732 104.003 80.6696C103.431 80.2624 102.773 79.9808 102.084 79.8459C101.385 79.711 100.685 79.7274 100.006 79.8084C99.3421 79.8905 98.6449 80.1181 98.0348 80.4103C97.4212 80.7224 96.8541 81.0978 96.3611 81.5249C95.3237 82.3756 94.4772 83.3893 93.8517 84.5146C94.7793 83.6158 95.732 82.771 96.7813 82.067C97.3054 81.7185 97.8307 81.3888 98.4001 81.1542C98.5864 81.0685 98.7631 81.0051 98.9374 80.9359C99.0078 80.9101 99.0902 80.8902 99.1702 80.8679C99.4674 80.7705 99.8041 80.6966 100.138 80.6637C100.796 80.5628 101.444 80.5522 102.085 80.6672C102.142 80.6684 102.202 80.6895 102.26 80.6954C102.727 80.7963 103.192 80.957 103.612 81.2152C104.135 81.5261 104.618 81.9344 105.117 82.3568C105.234 82.4425 105.349 82.5387 105.471 82.6279C105.292 82.5633 105.059 82.5 104.825 82.4425C104.41 82.3275 103.9 82.216 103.368 82.1268C103.251 82.1092 103.134 82.0987 103.005 82.0694C102.078 81.9415 101.016 81.8687 99.8781 81.9544C99.4042 81.9825 98.9374 82.0424 98.4706 82.1339C98.3536 82.1573 98.2378 82.1902 98.1208 82.2184C97.7817 82.2982 97.4713 82.385 97.1574 82.4988C96.3551 82.7851 95.6723 83.1676 95.147 83.5583C94.7315 83.895 94.4235 84.2118 94.2146 84.4747C93.9102 84.8466 93.8027 85.1141 93.8493 85.147C93.9137 85.1939 94.1561 84.9487 94.6241 84.5885C95.5493 85.0519 96.5318 85.3617 97.5179 85.6128C98.5864 85.8674 99.6835 86.0375 100.801 86.0493C101.909 86.0375 103.03 85.878 104.056 85.3899C104.546 85.1529 105.013 84.8325 105.407 84.4442C105.757 84.0722 106.049 83.6616 106.282 83.2122C106.555 83.2403 106.716 83.2403 106.735 83.1934C106.744 83.1828 106.712 83.1547 106.689 83.1253C106.682 83.1218 106.664 83.1124 106.651 83.1042C106.749 83.1195 105.82 82.5316 105.407 82.0647ZM99.1702 82.8191C99.1702 82.8461 99.1702 82.8672 99.1702 82.8825C99.2287 83.1336 99.3445 83.4468 99.5784 83.7449C99.6178 83.7918 99.6596 83.8375 99.7038 83.881C99.9545 84.1262 100.3 84.3256 100.716 84.3515C101.21 84.3925 101.632 84.2048 101.93 83.9631C102.078 83.8528 102.183 83.7343 102.26 83.6088C102.377 83.4492 102.439 83.2955 102.493 83.1359C102.53 82.9951 102.537 82.8719 102.509 82.7604C102.678 82.7616 102.846 82.7804 103.018 82.7886C102.973 83.0631 102.901 83.3236 102.778 83.5536C102.657 83.7801 102.494 83.9889 102.318 84.1473C101.91 84.5263 101.361 84.7398 100.836 84.7598C100.278 84.7809 99.7492 84.5932 99.2872 84.2494C99.1797 84.1637 99.0854 84.071 98.9959 83.9631C98.7547 83.6768 98.5792 83.3131 98.4909 82.9317C98.7034 82.8872 98.9362 82.8484 99.1702 82.8191ZM103.905 85.1024C102.933 85.4825 101.85 85.6257 100.801 85.6257C99.7301 85.6257 98.6437 85.4696 97.5943 85.2901C97.0583 85.1963 96.5306 85.0848 96.0065 84.9592C95.5541 84.8525 95.098 84.7222 94.6778 84.5697C94.7387 84.5193 94.8127 84.4594 94.9106 84.4019C95.0813 84.2787 95.2628 84.1626 95.4765 84.0241C96.1223 83.6299 97.0046 83.2755 98.0074 83.0256C98.0325 83.3706 98.1196 83.7179 98.2557 84.0417C98.393 84.3128 98.5661 84.5674 98.7762 84.795C99.052 85.0531 99.3576 85.2819 99.7229 85.4239C100.075 85.5576 100.477 85.6257 100.844 85.6198C101.632 85.5882 102.373 85.2256 102.854 84.653C103.146 84.3104 103.347 83.908 103.426 83.4785C103.482 83.272 103.495 83.0491 103.482 82.8449C103.943 82.8848 104.353 82.9364 104.706 82.9904C105.289 83.0761 105.755 83.1512 106.105 83.191C106.165 83.2004 106.209 83.2122 106.259 83.2204C105.661 84.0617 104.86 84.7363 103.905 85.1024Z" fill="#A95210"/>
<path d="M106.952 76.9981C106.191 76.821 105.085 76.5886 103.691 76.4162C102.299 76.2578 100.608 76.1381 98.7191 76.3915C96.8603 76.6344 94.795 77.3372 93.1081 78.8086C92.282 79.5454 91.6457 80.47 91.2577 81.4439C90.8924 82.4177 90.7539 83.4209 90.7169 84.3467C90.6739 86.2146 91.001 87.8314 91.1849 89.1855C91.4093 90.5289 91.5132 91.6143 91.4666 92.3581C91.4177 93.1044 91.2422 93.5021 91.3043 93.535C91.3592 93.5467 91.6326 93.1947 91.7675 92.4004C91.8606 91.9416 91.8845 91.369 91.8749 90.719C91.8893 90.7612 91.937 90.7953 91.9597 90.8528C92.2343 91.1989 92.6664 91.7011 92.9912 92.2302C93.1535 92.5142 93.2239 92.7735 93.1857 92.8638C93.1857 92.973 92.3823 93.4305 92.159 93.5197C92.1758 93.3742 92.1758 93.2757 92.1758 93.2944C92.1758 93.271 92.0015 93.5925 91.5968 93.8095C91.2088 94.0395 90.6011 94.1475 89.9171 94.1193C89.2294 94.1193 88.605 93.9808 88.1633 93.7966C87.7168 93.6171 87.4721 93.3801 87.4685 93.3977C87.4697 93.3836 87.4828 93.4317 87.5175 93.5197C87.5151 93.5268 87.5091 93.5279 87.5091 93.535C87.5163 93.5385 87.5198 93.5385 87.527 93.5467C87.5843 93.6617 87.6965 93.8905 87.9353 94.1193C88.3149 94.5206 89.0408 94.896 89.8908 94.9219C90.7563 94.9547 91.5359 94.5745 91.8857 94.1134C92.042 93.8917 92.1185 93.7157 92.1435 93.5561C92.2008 93.6617 92.4683 93.7743 92.9625 93.7192C93.1105 93.7192 93.255 93.6863 93.4257 93.6042C93.5928 93.5279 93.7994 93.3754 93.8901 93.1302C93.9856 92.8826 93.9856 92.6303 93.9271 92.4215C93.8734 92.222 93.8006 92.0284 93.6943 91.8501C93.286 91.1555 92.7619 90.7401 92.3536 90.4503C92.1602 90.2931 91.9824 90.218 91.8367 90.1675C91.8284 89.8238 91.7902 89.4776 91.7663 89.1209C91.6362 87.747 91.3783 86.1419 91.4774 84.3783C91.5168 83.5066 91.6529 82.5902 92.0027 81.7313C92.3525 80.8619 92.9004 80.0593 93.6418 79.3952C95.1651 78.0647 97.074 77.3877 98.8301 77.119C100.623 76.8327 102.262 76.8902 103.645 76.9758C105.003 77.0756 106.12 77.2199 106.909 77.2997C107.684 77.3795 108.107 77.4065 108.122 77.3548C108.132 77.3032 107.722 77.1753 106.952 76.9981Z" fill="#A95210"/>
<path d="M96.6139 98.0664C96.7762 97.8752 96.793 97.7309 96.7739 97.7062C96.6867 97.6159 96.3417 98.0172 95.74 97.9186C95.1347 97.8458 94.3372 97.2521 93.3225 96.6995C92.8259 96.4261 92.2743 96.2149 91.724 96.1844C91.1939 96.1269 90.6806 96.3252 90.363 96.5857C90.0323 96.8567 89.8437 97.1419 89.7494 97.3308C89.6407 97.556 89.6205 97.6746 89.6634 97.7074C89.7494 97.7884 90.0407 97.3871 90.6209 97.0679C90.9002 96.9295 91.2512 96.8298 91.6595 96.9025C92.0678 96.9682 92.5334 97.1583 93.0002 97.4164C93.8168 97.8459 94.5856 98.3527 95.3317 98.4748C94.7491 98.6707 93.9051 98.7951 92.9417 98.8444C91.9472 98.8889 90.9969 98.9406 90.326 99.1213C90.0156 99.2069 89.7804 99.2832 89.6061 99.3911C89.4306 99.282 89.1978 99.2069 88.9006 99.1213C88.2237 98.9406 87.2746 98.8889 86.2837 98.8444C85.3155 98.7951 84.4727 98.6707 83.871 98.4747C84.6207 98.3516 85.4086 97.8459 86.2145 97.4164C86.6908 97.1583 87.1409 96.9682 87.542 96.9025C87.9503 96.8298 88.3084 96.9295 88.5914 97.0679C89.1668 97.3871 89.4653 97.7884 89.5548 97.7074C89.5978 97.6746 89.5751 97.556 89.4688 97.3308C89.3721 97.1419 89.1883 96.8579 88.8552 96.5857C88.5329 96.3252 88.0315 96.1269 87.4799 96.1844C86.9463 96.2149 86.3983 96.4261 85.9017 96.6995C84.8881 97.2521 84.0799 97.8458 83.4675 97.9186C82.8706 98.0172 82.5208 97.6159 82.4456 97.7062C82.4074 97.7297 82.4432 97.874 82.5936 98.0664C82.6557 98.1321 82.7536 98.2154 82.8622 98.2952C82.898 98.3386 82.9386 98.402 82.9959 98.4712C83.0604 98.7212 83.1977 99.1236 83.4507 99.6164C83.8805 100.48 84.7067 101.591 85.9482 102.34C86.2228 102.505 86.4855 102.648 86.7708 102.752C86.0199 103.006 85.3788 103.402 84.9383 103.803C84.0799 104.551 83.7982 105.248 83.8674 105.299C83.951 105.384 84.3879 104.851 85.2343 104.26C87.2161 102.885 92.137 102.943 93.9922 104.26C94.81 104.868 95.272 105.384 95.3353 105.299C95.4189 105.248 95.1359 104.55 94.2835 103.803C93.8275 103.402 93.1936 103.006 92.4522 102.752C92.7184 102.647 93.0014 102.504 93.2747 102.34C94.5175 101.59 95.3341 100.48 95.7722 99.6164C96.0265 99.1236 96.1495 98.7212 96.2116 98.4712C96.2665 98.4008 96.325 98.3386 96.3644 98.2952C96.4706 98.2154 96.5554 98.1321 96.6139 98.0664ZM95.3317 99.3019C94.8232 100.022 94.0376 100.988 92.9321 101.639C92.2564 102.048 91.5962 102.274 90.9599 102.411C90.7558 102.373 88.4326 103.059 86.2921 101.639C85.2176 100.939 84.3867 100.022 83.8698 99.3019C83.791 99.1787 83.7182 99.0778 83.6513 98.9816C84.2709 99.3501 85.2331 99.5859 86.2527 99.6258C87.2746 99.6809 88.1759 99.6551 88.8242 99.6798C89.0498 99.6798 89.2325 99.695 89.3996 99.7056C89.4473 99.7185 89.5166 99.7208 89.6049 99.7173C89.6957 99.7208 89.7768 99.7185 89.8246 99.7056C89.9834 99.6938 90.1684 99.6798 90.3917 99.6798C91.0328 99.6551 91.9496 99.6809 92.9715 99.6258C93.991 99.5859 94.9413 99.3501 95.5657 98.9816C95.506 99.0767 95.4332 99.1787 95.3317 99.3019Z" fill="#A95210"/>
<path d="M93.5514 82.5393C93.8415 81.9878 94.1758 81.4305 94.5805 80.8744C94.9792 80.3264 95.4747 79.8512 96.0871 79.4664C97.2988 78.7119 98.6765 78.3916 99.9348 78.2578C101.184 78.1194 102.325 78.1769 103.298 78.2883C105.204 78.5148 106.347 78.9524 106.347 78.9489C106.347 78.9536 105.24 78.4139 103.316 78.0912C102.365 77.9199 101.193 77.8214 99.8882 77.9199C98.6013 78.0302 97.1508 78.3212 95.8543 79.1367C95.2132 79.5415 94.6664 80.0683 94.2808 80.669C93.8726 81.2275 93.5228 81.8165 93.2434 82.3891C92.7002 83.5425 92.3576 84.6548 92.231 85.6134C92.0711 86.572 92.1331 87.3605 92.286 87.8779C92.4149 88.4047 92.5904 88.6453 92.5904 88.6476C92.5904 88.6453 92.4364 88.3848 92.348 87.8603C92.2406 87.3452 92.2406 86.5708 92.4161 85.6498C92.6011 84.7229 92.9819 83.6493 93.5514 82.5393Z" fill="#A95210"/>
<path d="M96.8427 96.9997C96.2601 96.7005 95.7933 96.3544 95.4805 95.9672C94.8585 95.2092 94.8597 94.524 94.8597 94.5463C94.8597 94.5463 94.8227 94.693 94.8597 94.9793C94.8955 95.248 94.9946 95.6668 95.268 96.1256C95.5486 96.5797 95.9676 97.0725 96.6087 97.4526C96.771 97.5582 96.9453 97.6439 97.1328 97.7295C96.9167 97.9689 96.783 98.2446 96.6684 98.5028C96.4917 98.9698 96.4332 99.391 96.4117 99.7347C96.3747 100.422 96.549 100.772 96.549 100.766C96.549 100.767 96.4881 100.412 96.6564 99.7923C96.7245 99.4989 96.8594 99.1246 97.0743 98.7609C97.2975 98.4253 98.908 97.157 98.908 97.157C98.5331 97.2708 97.6067 97.3963 96.8427 96.9997Z" fill="#A95210"/>
<path d="M77.6928 82.9801C77.9423 83.3028 78.5034 83.6055 79.0347 83.5609C79.5277 83.534 79.9492 83.1597 80.2166 82.7901C80.0447 82.7736 79.874 82.7596 79.6997 82.7408C78.9523 82.695 78.2336 82.7021 77.5496 82.7302C77.5818 82.8124 77.6212 82.8992 77.6928 82.9801Z" fill="#A95210"/>
<path d="M84.5026 83.562C83.9809 83.1712 83.3064 82.7887 82.4934 82.5025C82.183 82.3875 81.8559 82.3018 81.5324 82.222C81.413 82.195 81.2937 82.161 81.1647 82.1375C80.717 82.046 80.2502 81.9874 79.7644 81.958C78.641 81.8724 77.582 81.9451 76.6532 82.073C76.5219 82.1012 76.4025 82.1129 76.2855 82.1305C75.7376 82.2197 75.2445 82.3311 74.8267 82.4461C74.5831 82.5036 74.3623 82.5658 74.1641 82.6315C74.2883 82.5423 74.4124 82.4461 74.5318 82.3605C75.0332 81.9381 75.5048 81.5298 76.0253 81.2188C76.461 80.9607 76.9254 80.8 77.3934 80.699C77.4531 80.692 77.5116 80.6721 77.5677 80.6709C78.2088 80.5559 78.8606 80.5676 79.5208 80.6674C79.8503 80.699 80.1691 80.7741 80.483 80.8715C80.5595 80.8938 80.6299 80.9138 80.7111 80.9396C80.8901 81.0088 81.068 81.0722 81.2531 81.1578C81.8237 81.3925 82.3478 81.721 82.8719 82.0707C83.9105 82.7746 84.8799 83.6195 85.8087 84.5182C85.1748 83.3918 84.3116 82.3781 83.2957 81.5286C82.7859 81.1015 82.2308 80.726 81.6196 80.4139C81.0059 80.1218 80.3111 79.8953 79.6378 79.812C78.9609 79.7311 78.2673 79.7146 77.5677 79.8496C76.8753 79.9845 76.2056 80.2661 75.654 80.6732C75.0917 81.0769 74.6536 81.5884 74.2381 82.0683C73.8155 82.5341 72.9046 83.122 72.9918 83.1149C72.987 83.1231 72.9751 83.1325 72.9667 83.136C72.9333 83.1642 72.9046 83.1935 72.9166 83.2041C72.9333 83.251 73.098 83.251 73.3702 83.2229C73.5839 83.6723 73.8824 84.0817 74.2345 84.4549C74.6249 84.8421 75.0905 85.1636 75.5979 85.4006C76.6067 85.8887 77.7444 86.0482 78.8499 86.06C79.9709 86.0482 81.0644 85.8781 82.1293 85.6235C83.1238 85.3724 84.1027 85.0626 85.0088 84.5992C85.4852 84.9582 85.7371 85.2034 85.8099 85.1577C85.8457 85.1248 85.7418 84.8573 85.4374 84.4854C85.2357 84.2155 84.9181 83.8987 84.5026 83.562ZM77.3075 82.7395C77.3767 83.2639 77.89 83.9632 77.89 83.9632C78.1813 84.2061 78.6171 84.3927 79.1077 84.3516C79.5041 84.327 79.8491 84.1345 80.0939 83.9034C80.144 83.8494 80.1965 83.7919 80.2491 83.745C80.4819 83.4481 80.5917 83.1337 80.649 82.8826C80.6526 82.8744 80.6549 82.8627 80.6561 82.8462C80.8245 82.8744 80.9928 82.9037 81.1528 82.9319C81.0728 83.3132 80.9045 83.6769 80.6561 83.9632C80.5642 84.0712 80.4556 84.1639 80.3517 84.2495C79.9076 84.5933 79.374 84.781 78.8188 84.7599C78.2936 84.74 77.742 84.5264 77.3337 84.1474C77.157 83.9879 76.9983 83.7802 76.8705 83.5537C76.75 83.3238 76.664 83.0645 76.6342 82.7887C76.8502 82.77 77.1045 82.6256 77.3075 82.7395ZM83.6491 84.9582C83.1262 85.0838 82.5913 85.1952 82.0577 85.2891C81.0012 85.4686 79.9255 85.6247 78.8523 85.6247C77.7898 85.6247 76.7225 85.4815 75.734 85.1014C74.798 84.7365 73.985 84.0606 73.3965 83.2182C73.4419 83.21 73.4896 83.1982 73.5481 83.1888C73.8979 83.1489 74.3647 83.0739 74.9449 82.9882C75.2994 82.9342 75.7125 82.8814 76.1578 82.8427C76.1423 83.0457 76.1709 83.2686 76.2103 83.4763C76.3023 83.9057 76.4921 84.3082 76.7834 84.6508C77.2776 85.2234 78.0082 85.5859 78.8045 85.6176C79.1722 85.6247 79.5781 85.5566 79.9315 85.4217C80.2813 85.2797 80.6012 85.0509 80.8639 84.7928C81.0931 84.5652 81.259 84.3105 81.388 84.0395C81.5324 83.7168 81.6208 83.3684 81.6232 83.0234C82.6498 83.2733 83.5285 83.6277 84.1731 84.0219C84.3892 84.1615 84.5731 84.2765 84.739 84.3997C84.8274 84.4572 84.9133 84.517 84.9826 84.5675C84.5373 84.7212 84.0979 84.8514 83.6491 84.9582Z" fill="#A95210"/>
<path d="M86.454 92.8657C86.4242 92.7753 86.4958 92.516 86.657 92.2321C86.9793 91.7029 87.4031 91.2007 87.6777 90.8546C87.7123 90.7971 87.7434 90.7631 87.7744 90.7208C87.7625 91.3709 87.7899 91.9434 87.8783 92.4022C88.0191 93.1965 88.289 93.5486 88.326 93.5368C88.3892 93.504 88.2281 93.1062 88.1815 92.36C88.1349 91.6161 88.2388 90.5308 88.4573 89.1873C88.6483 87.8333 88.9611 86.2153 88.9288 84.3485C88.8978 83.4216 88.7545 82.4196 88.3773 81.4457C88.0024 80.4718 87.3721 79.5473 86.54 78.8104C84.8555 77.3402 82.7818 76.6362 80.9159 76.3934C79.0463 76.1411 77.3499 76.2608 75.9603 76.418C74.5623 76.5905 73.4545 76.8228 72.694 77C71.9347 77.1771 71.5133 77.305 71.53 77.3555C71.5312 77.4071 71.967 77.3801 72.7441 77.3004C73.513 77.2206 74.6328 77.0762 76.014 76.9765C77.3881 76.8909 79.0308 76.8334 80.8013 77.1197C82.5705 77.3883 84.4735 78.0654 85.992 79.3959C86.7453 80.0588 87.2981 80.8626 87.6479 81.732C87.9929 82.5909 88.1338 83.5084 88.1755 84.379C88.2615 86.1425 88.0204 87.7488 87.8878 89.1216C87.8532 89.4783 87.8222 89.8244 87.7995 90.1682C87.6694 90.2187 87.4903 90.2937 87.2885 90.451C86.8886 90.7408 86.3645 91.1573 85.9562 91.8507C85.8512 92.0291 85.7652 92.2227 85.7175 92.4221C85.6649 92.631 85.653 92.8833 85.7533 93.1308C85.85 93.3761 86.0458 93.5286 86.2201 93.6049C86.3944 93.6858 86.5424 93.7198 86.6868 93.7198C87.2276 93.7773 87.5094 93.6272 87.513 93.5368C87.3267 93.4488 86.454 92.9748 86.454 92.8657Z" fill="#A95210"/>
<path d="M87.0655 88.6471C87.0584 88.6448 87.2386 88.4042 87.3747 87.8774C87.5108 87.36 87.5681 86.5715 87.4273 85.6129C87.29 84.6555 86.9581 83.542 86.3958 82.3886C86.1248 81.816 85.7822 81.227 85.3751 80.6685C84.9883 80.0678 84.4343 79.5409 83.7909 79.1361C82.4908 78.3207 81.0427 78.0297 79.7545 77.9194C78.4652 77.822 77.2964 77.9194 76.3342 78.0907C74.4014 78.4134 73.3079 78.9531 73.3079 78.9484C73.3079 78.9519 74.4456 78.5143 76.3653 78.2878C77.3143 78.1764 78.4688 78.1189 79.7211 78.2573C80.9758 78.3911 82.3606 78.7114 83.5688 79.4659C84.1824 79.8495 84.6767 80.3247 85.0563 80.8738C85.4646 81.4288 85.8108 81.9873 86.1021 82.5388C86.6775 83.6487 87.0393 84.7223 87.2339 85.6493C87.4165 86.5703 87.4165 87.3436 87.3091 87.8598C87.2124 88.3831 87.0584 88.6448 87.0655 88.6471Z" fill="#A95210"/>
<path d="M82.5292 98.5028C82.4325 98.2447 82.2857 97.9689 82.0827 97.7296C82.2666 97.6439 82.4397 97.5583 82.6056 97.4527C83.2384 97.0725 83.6634 96.5797 83.9439 96.1257C84.2101 95.6669 84.3211 95.2492 84.357 94.9793C84.3844 94.693 84.357 94.5464 84.357 94.5464C84.357 94.5229 84.3582 95.2081 83.7302 95.9673C83.4246 96.3545 82.9626 96.7557 82.3752 96.9998C82.1173 97.1077 81.8428 97.2122 81.5467 97.2415C81.5133 97.2145 80.6848 97.2708 80.3027 97.157L81.1778 97.8798C81.1778 97.8798 81.9192 98.4254 82.1185 98.761C82.3442 99.1235 82.4791 99.499 82.5555 99.7923C82.725 100.412 82.657 100.767 82.657 100.766C82.6522 100.772 82.8408 100.422 82.7978 99.7348C82.7823 99.391 82.7155 98.9686 82.5292 98.5028Z" fill="#A95210"/>
<path d="M95.1909 99.1047C95.1766 99.0871 94.7754 99.6808 93.9362 100.537C93.5243 100.954 92.9608 101.433 92.2266 101.774C91.484 102.124 90.5839 102.314 89.6575 102.318C87.7331 102.371 86.1644 101.455 85.2965 100.652C84.4166 99.8099 84.191 99.0777 84.1826 99.1059C84.1898 99.0847 84.5527 99.7371 85.491 100.423C86.3984 101.108 87.9133 101.799 89.636 101.741C90.5063 101.741 91.3241 101.592 92.0201 101.333C92.7137 101.054 93.2903 100.68 93.7571 100.323C94.6596 99.6069 95.1825 99.0824 95.1909 99.1047Z" fill="#A95210"/>
<path d="M104.801 81.3771C104.8 81.3771 104.441 81.2997 103.486 81.2575C102.501 81.2129 101.16 81.2387 99.7384 81.4417C98.3034 81.6423 97.0786 81.9873 96.3193 82.3369C95.5123 82.6795 95.1541 82.9893 95.1362 82.9811C95.1565 82.9893 95.4383 82.6455 96.1749 82.2372C96.9043 81.8148 98.1363 81.3842 99.6441 81.1765C101.126 80.9571 102.54 81.011 103.499 81.1272C104.483 81.2422 104.8 81.3771 104.801 81.3771Z" fill="#A95210"/>
<path d="M75.0662 81.3863C75.0626 81.3863 75.6106 81.215 76.5752 81.1223C77.5338 81.0284 78.902 80.9604 80.3883 81.1774C80.7476 81.2361 81.1093 81.303 81.4388 81.4156C81.7337 81.5306 82.0214 81.6444 82.2864 81.7465C82.8332 81.96 83.3036 82.1794 83.639 82.3918C84.298 82.84 84.6192 83.1392 84.6359 83.1345C84.624 83.1427 84.2049 82.8764 83.4898 82.4986C83.1281 82.305 82.6541 82.1325 82.1014 81.9366L81.2323 81.6444C80.941 81.5587 80.6211 81.4907 80.2713 81.4402C78.8852 81.2431 77.5493 81.2279 76.599 81.2502C75.644 81.2713 75.065 81.3863 75.0662 81.3863Z" fill="#A95210"/>
<path d="M95.8158 100.076C95.7979 100.076 95.3383 100.727 94.3976 101.678C93.9272 102.139 93.2933 102.654 92.4707 103.011C91.6542 103.399 90.6633 103.594 89.6282 103.628C87.502 103.671 85.7531 102.672 84.7837 101.795C83.7785 100.879 83.5218 100.066 83.5146 100.076C83.5206 100.07 83.911 100.821 84.9508 101.58C85.968 102.356 87.6704 103.151 89.6151 103.113C90.5952 103.074 91.5276 102.929 92.2964 102.608C93.0891 102.31 93.7255 101.874 94.2221 101.469C95.2368 100.649 95.8039 100.073 95.8158 100.076Z" fill="#A95210"/>
<path d="M122.515 89.7265L122.516 87.2285L122.535 87.2332L122.516 87.076L122.516 86.9188L122.502 86.9188L122.289 84.4231L122.311 84.4243L122.27 84.2729L122.245 84.1157L121.803 81.6458L121.808 81.6458L121.782 81.5003L121.733 81.3431L121.08 78.9167L121.092 78.9167L121.035 78.7911L120.99 78.621L120.97 78.6339L120.111 76.2708L120.136 76.2708L120.065 76.1441L120.008 75.981L119.991 75.9869L118.911 73.7177L118.911 73.7142L118.854 73.5921L118.782 73.4349L118.766 73.4349L117.496 71.2654L117.5 71.2607L117.421 71.1446L117.323 71.0014L117.315 71.0085L115.85 68.9599L115.868 68.9505L115.776 68.8343L115.672 68.7017L115.659 68.7088L114.034 66.7833L114.038 66.7833L113.927 66.6836L113.823 66.5498L113.81 66.5663L112.003 64.791L112.018 64.7793L111.914 64.6866L111.799 64.5681L111.78 64.5763L109.814 62.9724L109.829 62.9595L109.714 62.875L109.576 62.7659L109.566 62.7846L107.492 61.3379L107.497 61.3356L107.369 61.264L107.23 61.1631L107.222 61.1748L105.003 59.9182L105.012 59.9159L104.877 59.8525L104.747 59.7622L104.747 59.7833L102.43 58.7179L102.44 58.7132L102.3 58.6545L102.126 58.5912L102.12 58.5994L99.7464 57.7429L99.7464 57.7358L99.6091 57.6971L99.4204 57.6396L99.4204 57.6455L96.9779 57.0025L96.9838 56.9861L96.8382 56.9638L96.6687 56.9227L96.6687 56.9344L94.1593 56.5003L94.1616 56.4827L94.0148 56.4815L93.8465 56.4475L93.8465 56.4569L91.2917 56.2375L91.2964 56.2293L91.1532 56.2293L90.9765 56.2117L90.9801 56.2293L88.4384 56.2293L88.4396 56.2129L88.2797 56.2293L88.1197 56.2293L88.1233 56.2387L85.5816 56.4557L85.5828 56.4475L85.4264 56.4745L85.2652 56.4804L85.2664 56.4991L82.757 56.9309L82.7558 56.9215L82.6054 56.9556L82.4454 56.9849L82.4454 57.0013L79.9814 57.6443L79.9814 57.6384L79.831 57.6877L79.6769 57.7323L79.6877 57.7405L77.2881 58.5947L77.2881 58.5888L77.1377 58.6522L76.9908 58.7085L76.998 58.7144L74.6891 59.7774L74.6855 59.7575L74.5399 59.8455L74.4026 59.9123L74.4026 59.9147L72.194 61.1713L72.1893 61.1596L72.0615 61.2499L71.9254 61.3332L71.9338 61.3356L69.8506 62.7823L69.8398 62.7635L69.7192 62.8691L69.5867 62.9571L69.5951 62.9712L67.6384 64.5751L67.6384 64.5657L67.5166 64.6725L67.3972 64.7746L67.4152 64.7875L65.6089 66.5627L65.5958 66.5452L65.4919 66.6648L65.3833 66.7798L65.3952 66.7798L63.7608 68.7052L63.7453 68.697L63.6534 68.8308L63.5483 68.9469L63.5675 68.9575L62.0955 71.0061L62.0931 70.9979L62.0047 71.1328L61.9164 71.2584L61.9319 71.2631L60.6497 73.4326L60.5769 73.5734L60.491 73.7118L60.5112 73.7165L59.432 75.9857L59.4225 75.9787L59.3676 76.1265L59.3031 76.2685L59.3055 76.2685L58.4376 78.6269L58.428 78.6175L58.3803 78.7712L58.3313 78.9155L58.3397 78.9155L57.6831 81.3419L57.6676 81.3419L57.6377 81.4968L57.6043 81.6447L57.6126 81.6447L57.1733 84.1145L57.1506 84.111L57.1471 84.2717L57.122 84.4219L57.1268 84.4208L56.9059 86.9176L56.894 86.9176L56.894 87.0748L56.8796 87.232L56.894 87.2262L56.894 89.7242L56.8796 89.7218L56.894 89.8967L56.894 90.0363L56.9047 90.0316L57.1268 92.5437L57.122 92.5437L57.1471 92.6868L57.1506 92.8581L57.1721 92.8511L57.6115 95.3162L57.6031 95.3162L57.6377 95.4606L57.6676 95.6319L57.6831 95.6201L58.3397 98.0266L58.3301 98.0266L58.3815 98.1874L58.4268 98.3422L58.4364 98.3422L59.3043 100.675L59.3019 100.68L59.3664 100.833L59.4213 100.989L59.4308 100.981L60.5101 103.253L60.4886 103.258L60.5793 103.384L60.6485 103.52L60.6485 103.51L61.9307 105.69L61.914 105.699L62.0071 105.83L62.0919 105.967L62.0931 105.956L63.5663 107.993L63.546 108.003L63.6534 108.125L63.7429 108.254L63.7585 108.238L65.3928 110.171L65.3797 110.188L65.4895 110.29L65.5922 110.405L65.6053 110.391L67.4128 112.165L67.3937 112.178L67.5178 112.271L67.636 112.394L67.636 112.386L69.5927 113.981L69.5831 113.994L69.7204 114.095L69.8374 114.189L69.8494 114.169L71.9326 115.608L71.923 115.617L72.0603 115.709L72.1881 115.797L72.1917 115.788L74.4014 117.036L74.4014 117.057L74.5447 117.12L74.6844 117.183L74.6891 117.183L76.998 118.241L76.9896 118.255L77.146 118.318L77.2869 118.381L77.2869 118.357L79.6865 119.2L79.6757 119.222L79.8393 119.264L79.9802 119.327L79.9802 119.312L82.4442 119.957L82.4442 119.958L82.609 119.999L82.7534 120.026L82.7546 120.019L85.2664 120.461L85.264 120.461L85.43 120.479L85.5804 120.524L85.5804 120.499L88.1233 120.713L88.1197 120.721L88.2797 120.721L88.4396 120.741L88.436 120.721L90.9789 120.721L90.9765 120.741L91.1532 120.721L91.2964 120.721L91.2917 120.713L93.8465 120.498L93.8465 120.523L93.9897 120.476L94.1604 120.459L94.1581 120.459L96.6675 120.018L96.6675 120.025L96.8107 119.995L96.9826 119.956L96.9779 119.956L99.4192 119.31L99.4192 119.326L99.5828 119.263L99.7464 119.22L99.7464 119.199L102.12 118.356L102.124 118.38L102.276 118.309L102.44 118.254L102.43 118.239L104.741 117.182L104.748 117.182L104.876 117.119L105.015 117.056L105.004 117.034L107.223 115.787L107.232 115.795L107.357 115.706L107.498 115.616L107.493 115.607L109.566 114.168L109.576 114.188L109.691 114.094L109.832 113.993L109.815 113.98L111.781 112.385L111.792 112.393L111.891 112.271L112.019 112.176L112.002 112.163L113.81 110.389L113.822 110.403L113.909 110.29L114.036 110.186L114.032 110.168L115.656 108.236L115.67 108.252L115.775 108.128L115.868 108.003L115.847 107.993L117.314 105.955L117.321 105.965L117.407 105.832L117.499 105.698L117.494 105.69L118.766 103.508L118.782 103.519L118.854 103.383L118.911 103.257L118.911 103.251L119.992 100.98L120.008 100.988L120.058 100.84L120.136 100.68L120.109 100.674L120.97 98.3411L120.989 98.3411L121.035 98.1932L121.092 98.0254L121.079 98.0254L121.733 95.6201L121.733 95.6307L121.776 95.4676L121.809 95.3151L121.803 95.3151L122.245 92.8499L122.245 92.8569L122.266 92.695L122.317 92.5413L122.289 92.5413L122.503 90.0304L122.516 90.0351L122.516 89.8943L122.539 89.7207L122.515 89.7265ZM121.605 89.8368L115.087 90.6535L121.349 92.5718L114.808 92.8253L120.872 95.2599L114.315 94.9525L120.145 97.9022L113.653 97.0399L119.197 100.485L112.804 99.058L118.013 102.958L111.778 100.988L116.623 105.336L110.576 102.837L115.029 107.576L109.235 104.58L113.24 109.685L107.722 106.185L111.28 111.607L106.084 107.668L109.138 113.363L104.318 108.991L106.854 114.931L102.436 110.167L104.439 116.3L100.472 111.175L101.924 117.458L98.4176 112.015L99.2879 118.39L96.295 112.659L96.6054 119.103L94.1294 113.15L93.8715 119.578L91.9196 113.418L91.0875 119.831L89.7051 113.529L88.3119 119.831L87.4786 113.418L85.5374 119.578L85.2784 113.15L82.7988 119.104L83.114 112.659L80.1055 118.389L80.9925 112.015L77.4887 117.457L78.9368 111.175L74.9685 116.3L76.9634 110.165L72.5546 114.93L75.0903 108.99L70.2696 113.362L73.327 107.667L68.1446 111.606L71.6855 106.181L66.1676 109.682L70.186 104.577L64.3805 107.573L68.831 102.835L62.7879 105.334L67.6324 100.986L61.3887 102.956L66.6069 99.0556L60.2176 100.482L65.7641 97.0352L59.2661 97.8976L65.0967 94.949L58.5403 95.2552L64.6192 92.8217L58.0556 92.5671L64.3255 90.6499L57.8228 89.8321L64.2288 88.4722L57.8228 87.103L64.3255 86.2863L58.0556 84.3785L64.6192 84.1227L58.5403 81.6834L65.0967 81.999L59.2649 79.0364L65.7629 79.9105L60.2164 76.4668L66.6069 77.8912L61.3887 73.9911L67.6336 75.9493L62.7879 71.6186L68.831 74.1107L64.3816 69.3729L70.1872 72.3777L66.1688 67.2808L71.6867 70.7656L68.1446 65.3425L73.3282 69.2919L70.2708 63.586L75.0915 67.959L72.5558 62.0196L76.9634 66.7822L74.9697 60.6457L78.938 65.7743L77.4898 59.4935L80.9937 64.9447L80.1055 58.5571L83.1152 64.2924L82.7988 57.8461L85.2808 63.816L85.5398 57.3697L87.481 63.5309L88.3131 57.1362L89.7063 63.4347L91.0887 57.1362L91.9208 63.5297L93.8727 57.3651L94.1306 63.8148L96.6066 57.8426L96.2962 64.2912L99.2891 58.556L98.4188 64.9436L101.925 59.4899L100.473 65.7731L104.443 60.641L102.437 66.781L106.856 62.0161L104.319 67.959L109.142 63.5837L106.086 69.2931L111.286 65.3413L107.722 70.7656L113.243 67.2808L109.235 72.3789L115.031 69.3729L110.576 74.1119L116.627 71.6174L111.778 75.9493L118.013 73.9911L112.804 77.8924L119.197 76.468L113.653 79.9128L120.145 79.0387L114.315 82.0013L120.874 81.6857L114.808 84.1262L121.349 84.382L115.087 86.2898L121.605 87.1065L115.193 88.4758L121.605 89.8368Z" fill="#A95210"/>
</svg>
