<svg width="56" height="58" viewBox="0 0 56 58" fill="none" xmlns="http://www.w3.org/2000/svg">
<path d="M55.6602 0.630859H8.27381C3.70431 0.630859 -3.8147e-06 4.33517 -3.8147e-06 8.90467V49.5215C-3.8147e-06 54.091 3.70431 57.7953 8.2738 57.7953H55.6602V0.630859Z" fill="#A95210"/>
<path d="M33.2245 22.0205C32.6042 22.0216 31.9849 22.0717 31.3724 22.1704C29.671 20.4405 27.5031 19.243 25.1329 18.724L28.2736 15.2296C28.3493 15.1469 28.4002 15.0445 28.4203 14.9343C28.4405 14.824 28.4291 14.7103 28.3875 14.6062L27.1887 11.6093C27.1443 11.4978 27.0674 11.4022 26.9681 11.3348C26.8687 11.2675 26.7514 11.2316 26.6313 11.2317H18.24C18.1199 11.2316 18.0026 11.2675 17.9032 11.3348C17.8039 11.4022 17.727 11.4978 17.6826 11.6093L16.4838 14.6062C16.4422 14.7103 16.4308 14.824 16.451 14.9343C16.4711 15.0445 16.522 15.1469 16.5977 15.2296L19.7384 18.724C16.707 19.3878 14.0279 21.1485 12.2157 23.6676C10.4036 26.1868 9.58623 29.2868 9.92077 32.3719C10.2553 35.4571 11.7181 38.3098 14.0281 40.382C16.3381 42.4541 19.3324 43.5996 22.4357 43.5983C23.056 43.5972 23.6753 43.5471 24.2877 43.4484C25.4503 44.6399 26.8405 45.5854 28.3757 46.229C29.9109 46.8725 31.5599 47.2009 33.2245 47.1945C36.5628 47.1945 39.7643 45.8684 42.1249 43.5079C44.4854 41.1474 45.8115 37.9458 45.8115 34.6075C45.8115 31.2693 44.4854 28.0677 42.1249 25.7072C39.7643 23.3467 36.5628 22.0205 33.2245 22.0205ZM25.8401 12.4305H26.2237L26.943 14.2286H25.1209L25.8401 12.4305ZM26.4875 15.4274L23.7723 18.4422L24.6773 15.4274H26.4875ZM24.5455 12.4305L23.8262 14.2286H21.0451L20.3258 12.4305H24.5455ZM23.4306 15.4274L22.5256 18.4303H22.3457L21.4407 15.4274H23.4306ZM18.6476 12.4305H19.0312L19.7504 14.2286H17.9283L18.6476 12.4305ZM18.3838 15.4274H20.194L21.099 18.4422L18.3838 15.4274ZM22.4357 42.3995C19.5084 42.4078 16.6905 41.2886 14.5666 39.2742C12.4427 37.2598 11.1761 34.5049 11.0295 31.5814C10.883 28.6578 11.8679 25.7901 13.7797 23.5734C15.6915 21.3568 18.3835 19.9614 21.2968 19.677C22.0543 19.605 22.817 19.605 23.5745 19.677C26.3077 19.9506 28.8486 21.2072 30.7251 23.2133C32.7204 25.3187 33.8299 28.1106 33.8239 31.0113C33.8316 33.0675 33.2781 35.0869 32.2229 36.8518C31.1678 38.6168 29.651 40.0603 27.8361 41.0269C27.3555 40.6272 26.9212 40.1748 26.5414 39.6783C28.1772 38.8944 29.5592 37.6657 30.5291 36.1329C31.499 34.6001 32.0177 32.8251 32.0257 31.0113C32.0229 28.4687 31.0116 26.0311 29.2137 24.2332C27.4158 22.4353 24.9782 21.424 22.4357 21.4212C19.9149 21.4176 17.4941 22.4071 15.6976 24.1755C13.9011 25.9438 12.8735 28.3486 12.8372 30.8692C12.801 33.3897 13.759 35.8231 15.5039 37.6424C17.2488 39.4617 19.6401 40.5204 22.1599 40.5894C22.4962 41.2115 22.8831 41.8049 23.3167 42.3635C23.029 42.3815 22.7353 42.3995 22.4357 42.3995ZM34.0876 26.2582C36.232 26.4733 38.2113 27.5052 39.6155 29.1401C41.0197 30.775 41.7411 32.8874 41.6301 35.0396C41.5192 37.1919 40.5844 39.219 39.0195 40.7007C37.4546 42.1825 35.3796 43.0054 33.2245 42.9989C31.705 43.0038 30.2137 42.589 28.915 41.8001C31.4919 40.2549 33.4304 37.838 34.3793 34.987C35.3281 32.136 35.2247 29.0395 34.0876 26.2582ZM25.8821 38.6594C25.1919 37.4206 24.8308 36.0256 24.8332 34.6075C24.8411 32.9936 25.311 31.4157 26.1873 30.0604C27.0636 28.7051 28.3096 27.629 29.7781 26.9594C30.4682 28.1982 30.8294 29.5932 30.827 31.0113C30.8191 32.6252 30.3492 34.2031 29.4729 35.5584C28.5966 36.9137 27.3506 37.9898 25.8821 38.6594ZM21.5725 39.3606C19.4282 39.1455 17.4488 38.1136 16.0446 36.4787C14.6404 34.8439 13.9191 32.7314 14.03 30.5792C14.141 28.4269 15.0758 26.3998 16.6407 24.9181C18.2055 23.4363 20.2805 22.6134 22.4357 22.6199C23.9552 22.615 25.4465 23.0298 26.7452 23.8187C24.1682 25.3639 22.2298 27.7808 21.2809 30.6318C20.332 33.4828 20.4355 36.5793 21.5725 39.3606ZM33.2245 45.9958C30.6894 45.9972 28.2264 45.1522 26.226 43.5948C24.2257 42.0373 22.8026 39.8567 22.1824 37.3986C21.5622 34.9405 21.7804 32.3457 22.8024 30.0257C23.8244 27.7057 25.5917 25.7934 27.8241 24.5919C28.3047 24.9916 28.739 25.444 29.1187 25.9405C27.483 26.7244 26.101 27.9531 25.1311 29.4859C24.1612 31.0187 23.6425 32.7937 23.6344 34.6075C23.6373 37.1501 24.6486 39.5877 26.4464 41.3856C28.2443 43.1835 30.6819 44.1948 33.2245 44.1976C35.7453 44.2012 38.166 43.2117 39.9625 41.4433C41.759 39.675 42.7867 37.2702 42.8229 34.7496C42.8592 32.2291 41.9011 29.7957 40.1562 27.9764C38.4114 26.1571 36.0201 25.0984 33.5002 25.0294C33.164 24.4073 32.7771 23.8139 32.3434 23.2553C32.6311 23.2373 32.9248 23.2193 33.2245 23.2193C36.2449 23.2193 39.1415 24.4191 41.2772 26.5548C43.4129 28.6906 44.6127 31.5872 44.6127 34.6075C44.6127 37.6279 43.4129 40.5245 41.2772 42.6602C39.1415 44.796 36.2449 45.9958 33.2245 45.9958Z" fill="#FCFCFC"/>
</svg>
