<svg width="53" height="56" viewBox="0 0 53 56" fill="none" xmlns="http://www.w3.org/2000/svg">
<path d="M13.4664 16.1511C14.7541 16.1913 14.3052 15.2056 14.5049 14.54C14.5585 15.0864 14.6107 15.6328 14.667 16.21C14.8653 16.21 15.0516 16.21 15.0744 16.21C15.2084 16.5073 15.2486 16.8435 15.4268 16.9533C17.1111 17.9845 17.8133 19.6987 18.5141 21.3874C19.1921 23.0212 19.7482 24.706 20.3726 26.3626C20.9274 27.833 21.7005 29.1495 23.0083 30.1016C24.0053 30.8275 24.9446 31.635 25.9563 32.3381C26.6182 32.7975 26.8112 32.5912 26.9706 31.8145C27.4597 29.4294 28.0239 27.0603 28.5679 24.6859C28.6536 24.3122 28.785 23.9493 28.9659 23.3453C28.1404 23.565 27.516 23.731 26.7254 23.9413C26.9854 23.7833 27.1006 23.6708 27.236 23.6359C29.0382 23.182 29.5327 21.8066 29.6573 20.1888C29.7028 19.5982 29.6546 19.0023 29.6734 18.409C29.6935 17.7876 29.5005 17.3979 28.8037 17.5318C29.9936 16.9359 28.8908 16.2194 28.9297 15.4427C30.4465 17.5466 29.7631 19.8018 29.5876 22.2284C30.011 21.9231 30.1879 21.8146 30.3433 21.6807C31.1647 20.9682 31.9258 20.1714 32.8116 19.5527C34.2319 18.5603 34.5173 16.9734 33.4132 15.5471C34.173 15.9234 34.2963 16.2141 34.5388 18.2028C35.2651 18.3099 36.0007 18.417 36.7377 18.5255C36.7471 18.5965 36.7564 18.6688 36.7645 18.7398C35.0748 18.4545 33.6839 19.0251 32.423 20.0509C31.2009 21.0446 30.2402 22.1869 29.8958 23.6346C31.1232 23.7377 32.2662 23.8275 33.4038 23.9587C33.432 23.9614 33.4079 24.4207 33.4079 24.6752C32.1014 25.1211 30.9048 24.8051 29.5474 24.1783C29.2566 25.3716 28.8453 26.459 28.7501 27.5746C28.5397 30.0628 28.4781 32.5645 28.3856 35.0607C28.3776 35.2911 28.5907 35.5295 28.7005 35.7638C28.8694 35.567 29.0918 35.3955 29.1963 35.1692C29.7712 33.9144 30.1879 32.5658 30.9115 31.4074C31.5855 30.328 32.569 29.4401 33.432 28.4812C33.6705 28.2174 33.9626 28.0018 34.3365 27.6683C32.967 27.5585 31.6337 28.054 30.5149 27.1246C31.5105 26.2528 33.6638 26.1737 34.717 27.0362C35.1163 27.3643 35.4111 27.3978 35.6992 27.0697C35.7568 27.0041 35.4634 26.4443 35.2356 26.3532C34.319 25.9876 33.365 25.7184 32.6226 25.476C33.4266 25.1693 34.4128 25.6166 35.3441 26.0117C37.2804 26.8326 40.0541 25.7439 40.7294 23.9386C40.909 23.4578 41.2172 23.0253 41.4664 22.5713C41.5482 22.6208 41.6312 22.669 41.713 22.7186C41.118 23.6346 40.6785 24.7274 39.8866 25.4158C39.1 26.0988 37.9584 26.3733 36.9789 27.0295C37.3152 27.1125 37.6569 27.1755 37.9838 27.2839C38.5158 27.458 39.1215 27.5505 39.5476 27.8732C41.2051 29.1267 42.3548 29.1133 44.3447 28.8937C44.3058 29.0236 44.2683 29.1454 44.1986 29.3758C45.5265 29.1441 46.8236 28.9406 48.0108 29.7843C46.8933 30.7659 44.5725 30.6239 43.7243 29.5954C43.6224 29.4709 43.4013 29.4187 43.2258 29.3865C42.8962 29.3249 42.5545 29.3249 42.2262 29.2579C41.1917 29.0504 40.984 29.2553 41.2909 30.4927C40.5338 29.112 39.5302 28.3312 38.2585 27.8799C36.9682 27.4219 35.8024 27.7848 34.721 28.4745C32.8451 29.6704 31.7932 31.477 31.1058 33.5287C31.0482 33.7001 31.0977 33.9077 31.0977 34.1956C31.5667 34.0336 31.9754 33.8916 32.2314 33.8032C31.6378 34.8826 30.8686 35.9888 30.3902 37.2088C29.3893 39.76 29.392 42.4706 29.6399 45.1423C29.8409 47.3118 30.5269 49.401 31.3537 51.4165C31.5614 51.924 32.0317 52.4062 32.5034 52.7102C33.9907 53.6717 35.5357 54.5435 37.0499 55.4462C37.0606 55.4341 37.0311 55.5011 36.9976 55.5024C34.4343 55.6082 31.8722 55.7247 29.3089 55.8024C28.0118 55.8412 26.7107 55.8399 25.4122 55.8024C22.5729 55.7207 19.7335 55.6042 16.6917 55.4944C17.3724 55.252 17.9098 55.1475 18.3546 54.8864C19.7857 54.0494 21.4218 53.3784 22.5206 52.212C23.4318 51.2451 23.9061 49.7117 24.1902 48.3497C24.5292 46.7266 24.5922 45.0124 24.5306 43.3478C24.4649 41.5867 24.1728 39.8256 23.874 38.0833C23.4371 35.5415 21.7421 34.1045 19.4186 33.2488C17.7959 32.6515 16.1289 32.5136 14.2865 32.6314C14.588 32.4774 14.7716 32.3837 15.073 32.2283C13.6232 31.7274 12.1961 31.4101 11.2756 29.8686C11.8263 29.9356 12.2176 29.9155 12.5579 30.0374C13.7063 30.4512 14.8211 30.9266 15.4496 32.0971C15.5327 32.2524 15.8623 32.3703 16.0646 32.3529C17.9138 32.1908 19.7308 32.5377 21.3294 33.3251C22.8141 34.0563 24.075 35.2496 25.4056 36.2767C25.7955 36.5781 26.0863 37.0093 26.5472 37.5195C26.7951 36.0678 26.1452 35.0781 25.5462 34.0911C25.3466 33.7617 25.0491 33.4684 24.7382 33.2341C22.2941 31.394 20.8363 28.8254 19.4695 26.1845C19.3944 26.0412 19.302 25.9059 19.2578 25.8322C18.5958 26.6291 17.9446 27.4112 17.2934 28.1933C17.2304 28.1491 17.1674 28.1049 17.1044 28.0607C17.2063 27.8946 17.2786 27.6978 17.414 27.5652C19.0662 25.9501 19.2645 24.1596 18.0022 22.1588C17.8682 21.9459 17.7235 21.7316 17.6351 21.4972C17.0441 19.9384 16.9544 19.8219 15.3049 20.0696C13.5039 20.3402 11.8317 20.9816 10.8575 22.6516C10.4488 23.352 10.292 24.1984 10.0468 24.9042C9.65018 23.6842 10.3161 22.5498 10.9995 21.2923C10.2264 21.2923 9.65554 21.2923 9.08472 21.2923C10.6203 21.1236 12.0434 20.7285 13.4423 20.0402C14.4258 19.5567 15.5836 19.4255 16.7601 19.1121C16.2964 17.8948 15.3384 17.1341 14.2034 16.5314C13.9662 16.4056 13.7465 16.2489 13.5173 16.1056C13.5214 16.1163 13.4664 16.1511 13.4664 16.1511Z" fill="#CF6C21"/>
<path d="M19.0572 26.8447C19.9054 28.0969 19.9416 30.0789 19.1738 31.1449C18.2666 30.32 18.1822 28.0755 19.0572 26.8447Z" fill="#CF6C21"/>
<path d="M40.8401 27.6673C41.7218 26.7245 43.8296 26.7098 45.065 27.6379C44.1565 28.3932 41.829 28.4093 40.8401 27.6673Z" fill="#CF6C21"/>
<path d="M28.8516 31.9795C29.0338 30.4541 30.4032 28.8926 31.695 28.677C31.6199 30.1608 30.5212 31.4599 28.8516 31.9795Z" fill="#CF6C21"/>
<path d="M23.6397 33.3932C22.2569 33.5686 20.8365 32.4812 20.1062 30.9812C21.5614 30.9103 23.3717 32.1236 23.6397 33.3932Z" fill="#CF6C21"/>
<path d="M30.9984 14.13C29.5231 14.6549 27.5372 14.1474 26.957 13.1363C27.9406 12.5202 30.1462 13.0372 30.9984 14.13Z" fill="#CF6C21"/>
<path d="M8.35799 29.8244C7.8622 28.2013 8.33923 26.9143 9.26113 25.6729C9.99275 26.8272 9.53582 29.0128 8.35799 29.8244Z" fill="#CF6C21"/>
<path d="M29.3674 15.1524C30.8816 15.1243 32.6664 16.2144 33.1421 17.4143C31.8517 17.6165 29.7828 16.4059 29.3674 15.1524Z" fill="#CF6C21"/>
<path d="M24.8937 30.623C23.547 30.4275 22.2352 28.7776 22.2646 27.3179C23.4478 27.5509 24.7624 29.2021 24.8937 30.623Z" fill="#CF6C21"/>
<path d="M25.3108 24.3648C23.7832 24.9769 22.3897 24.9822 21.0015 24.2296C21.9408 23.2734 24.0901 23.3149 25.3108 24.3648Z" fill="#CF6C21"/>
<path d="M5.23926 6.16917C6.72796 5.9857 8.51281 6.89369 8.9081 8.03737C7.6579 8.42306 5.66403 7.40928 5.23926 6.16917Z" fill="#CF6C21"/>
<path d="M22.6524 14.0827C21.3232 15.1594 20.0033 15.6281 18.4248 15.4233C18.9608 14.2247 20.8421 13.5912 22.6524 14.0827Z" fill="#CF6C21"/>
<path d="M12.7249 27.2011C13.7941 26.3507 15.8456 26.3855 16.868 27.2306C15.3994 28.0743 13.6521 28.0796 12.7249 27.2011Z" fill="#CF6C21"/>
<path d="M5.03198 16.1313C6.02758 15.297 7.98126 15.3867 9.10549 16.3162C8.18359 17.1183 6.14952 17.0259 5.03198 16.1313Z" fill="#CF6C21"/>
<path d="M36.6384 17.6817C37.6648 17.138 39.7096 17.655 40.7548 18.7196C39.8142 19.345 37.2173 18.6902 36.6384 17.6817Z" fill="#CF6C21"/>
<path d="M24.7617 19.8028C25.9248 18.9283 27.7016 18.8841 28.8795 19.701C28.0152 20.6023 25.8297 20.6559 24.7617 19.8028Z" fill="#CF6C21"/>
<path d="M43.011 23.0907C43.8565 22.2135 45.9134 22.0836 47.114 22.7867C46.385 23.7215 44.2933 23.8969 43.011 23.0907Z" fill="#CF6C21"/>
<path d="M52.434 25.0544C51.3272 26.2276 49.4646 26.7606 48.3618 26.2597C49.1779 25.1388 51.098 24.5495 52.434 25.0544Z" fill="#CF6C21"/>
<path d="M15.7703 14.3035C16.9883 13.2321 18.2974 12.8558 19.8679 13.1196C19.0679 14.3557 16.9387 14.9811 15.7703 14.3035Z" fill="#CF6C21"/>
<path d="M6.58989 13.9294C5.52193 14.8495 3.516 14.8642 2.46948 14.0044C3.4691 13.1527 5.07438 13.1085 6.58989 13.9294Z" fill="#CF6C21"/>
<path d="M23.2205 2.6438C24.1799 4.20666 24.4452 5.58068 23.5943 7.21854C22.7408 5.69318 22.6604 4.30576 23.2205 2.6438Z" fill="#CF6C21"/>
<path d="M4.97534 22.7558C6.16792 21.8344 7.77722 21.8103 9.17213 22.6513C8.27167 23.4829 6.24161 23.5539 4.97534 22.7558Z" fill="#CF6C21"/>
<path d="M33.4196 11.3342C32.6478 9.8879 32.7014 8.18041 33.5482 7.21216C34.4165 8.10273 34.3536 10.1517 33.4196 11.3342Z" fill="#CF6C21"/>
<path d="M26.0305 4.88354C26.5946 6.51336 26.0627 7.80168 25.2681 9.08464C24.4601 8.08559 24.8125 6.02455 26.0305 4.88354Z" fill="#CF6C21"/>
<path d="M7.19756 30.407C5.90851 31.2801 4.06472 31.2842 3.0249 30.4552C3.95082 29.5954 5.88171 29.5539 7.19756 30.407Z" fill="#CF6C21"/>
<path d="M49.7914 20.8818C48.3174 21.7938 46.9172 21.763 45.4204 21.2193C46.7001 20.1894 48.2947 20.0502 49.7914 20.8818Z" fill="#CF6C21"/>
<path d="M17.1359 26.0602C16.1939 24.7946 16.2086 22.8782 17.1252 21.9233C17.8689 22.8474 17.8957 25.0196 17.1359 26.0602Z" fill="#CF6C21"/>
<path d="M9.15595 12.6752C7.51448 13.1547 6.22945 12.6632 4.98462 11.7954C5.90116 11.0481 8.09335 11.4847 9.15595 12.6752Z" fill="#CF6C21"/>
<path d="M16.2917 5.03631C15.4958 3.91405 15.5252 1.85033 16.3105 0.928955C17.1908 1.91059 17.2042 3.95422 16.2917 5.03631Z" fill="#CF6C21"/>
<path d="M10.0574 28.9458C10.8238 28.0405 13.0026 28.007 14.1697 28.8842C13.0147 29.6917 10.9578 29.7949 10.0574 28.9458Z" fill="#CF6C21"/>
<path d="M14.1587 4.00391C15.3472 5.17973 15.9409 6.45868 15.7774 8.09653C14.5205 7.26354 13.6321 5.11009 14.1587 4.00391Z" fill="#CF6C21"/>
<path d="M29.4339 5.63184C30.0812 6.7474 29.6323 8.89951 28.6541 9.61732C27.9948 8.60354 28.3365 6.77954 29.4339 5.63184Z" fill="#CF6C21"/>
<path d="M0.503418 21.5356C2.02964 20.7991 3.40713 20.8031 4.85564 21.4312C3.91096 22.4436 2.12478 22.4972 0.503418 21.5356Z" fill="#CF6C21"/>
<path d="M46.6167 28.0071C47.6605 27.0911 49.4829 27.0509 50.6755 27.916C49.8728 28.7651 47.6914 28.8133 46.6167 28.0071Z" fill="#CF6C21"/>
<path d="M28.1413 22.1227C26.7062 22.9825 25.322 22.9209 23.8413 22.487C24.6614 21.4009 26.6981 21.2254 28.1413 22.1227Z" fill="#CF6C21"/>
<path d="M14.2214 17.8063C13.0556 18.7705 11.8201 18.7705 10.5726 18.662C10.3877 18.6459 10.2202 18.441 10.0447 18.3218C10.184 18.1772 10.2966 17.9737 10.4668 17.8987C11.6647 17.3683 12.8801 17.2398 14.2214 17.8063Z" fill="#CF6C21"/>
<path d="M33.8516 31.9224C34.9329 31.1336 36.8317 31.1069 37.9009 31.8635C37.4065 32.7943 34.6515 32.8277 33.8516 31.9224Z" fill="#CF6C21"/>
<path d="M19.9048 11.5537C21.5529 11.401 22.838 11.8764 23.9448 12.988C22.9197 13.5906 20.6444 12.7978 19.9048 11.5537Z" fill="#CF6C21"/>
<path d="M19.2136 0.537598C20.6273 1.28889 21.6966 2.90532 21.6658 4.17221C20.4451 3.83875 19.219 2.05492 19.2136 0.537598Z" fill="#CF6C21"/>
<path d="M32.3781 5.46339C31.215 4.69468 30.5062 2.7314 30.9564 1.52344C32.141 2.39928 32.898 4.49648 32.3781 5.46339Z" fill="#CF6C21"/>
<path d="M0.881592 15.5484C2.10498 15.3194 4.05464 16.372 4.59867 17.5559C3.35384 17.8465 1.27554 16.7229 0.881592 15.5484Z" fill="#CF6C21"/>
<path d="M18.6952 3.53662C19.2419 4.77673 18.3991 6.95294 17.1449 7.57166C16.9667 5.95255 17.6125 4.72584 18.6952 3.53662Z" fill="#CF6C21"/>
<path d="M25.3482 28.2972C25.2048 26.9299 26.4845 25.0898 27.7186 24.8113C27.9022 25.8197 26.7257 27.5848 25.3482 28.2972Z" fill="#CF6C21"/>
<path d="M7.31958 5.35279C8.49741 5.17467 10.0236 6.13623 10.7968 7.49418C9.66721 7.91737 7.98153 6.90493 7.31958 5.35279Z" fill="#CF6C21"/>
<path d="M31.9808 9.41925C30.9048 8.7992 30.1839 6.97386 30.4492 5.54492C31.5962 6.06855 32.3332 7.93273 31.9808 9.41925Z" fill="#CF6C21"/>
<path d="M36.9775 34.0026C35.7287 35.0498 34.3847 35.2427 32.8906 34.9172C33.3435 33.8512 35.5933 33.3196 36.9775 34.0026Z" fill="#CF6C21"/>
<path d="M34.2031 15.1757C33.8708 13.6986 34.4591 11.8987 35.4855 11.2478C35.9947 12.4611 35.3033 14.5771 34.2031 15.1757Z" fill="#CF6C21"/>
<path d="M25.0538 4.52004C24.156 3.36564 24.3302 1.30192 25.3486 0.262695C26.1084 1.72109 25.6796 3.06566 25.0538 4.52004Z" fill="#CF6C21"/>
<path d="M1.38721 25.7324C2.49804 24.5124 3.75896 23.9526 5.37094 24.0892C4.73982 25.2865 2.48062 26.2266 1.38721 25.7324Z" fill="#CF6C21"/>
<path d="M36.0214 19.6826C36.6177 21.0794 36.264 22.9744 35.3421 23.5141C34.664 22.2244 34.9816 20.292 36.0214 19.6826Z" fill="#CF6C21"/>
<path d="M38.3458 21.4351C38.7934 22.406 37.8876 24.6358 36.7674 25.3188C36.4243 23.9849 37.2149 22.0417 38.3458 21.4351Z" fill="#CF6C21"/>
<path d="M29.818 11.4634C28.5571 12.0312 26.2242 11.304 25.7432 10.2273C27.2855 9.9849 28.6067 10.3492 29.818 11.4634Z" fill="#CF6C21"/>
<path d="M34.8993 6.47205C33.7228 5.6163 33.0595 3.69052 33.5392 2.53076C34.6862 3.36375 35.3522 5.29355 34.8993 6.47205Z" fill="#CF6C21"/>
<path d="M39.2117 2.53979C39.2921 4.20979 38.7937 5.49677 37.6078 6.53465C37.0249 5.59453 37.8691 3.42367 39.2117 2.53979Z" fill="#CF6C21"/>
<path d="M44.6189 25.12C43.571 26.1954 41.7969 26.6145 40.5762 26.119C41.0264 25.1494 43.2601 24.5736 44.6189 25.12Z" fill="#CF6C21"/>
<path d="M27.4354 16.6146C25.8609 16.7954 24.5812 16.3387 23.5039 15.1977C24.4982 14.587 26.8083 15.4173 27.4354 16.6146Z" fill="#CF6C21"/>
<path d="M1.90332 18.6178C3.18433 18.2201 4.90619 18.879 5.6807 20.0615C4.45998 20.4753 2.33613 19.6624 1.90332 18.6178Z" fill="#CF6C21"/>
<path d="M39.3213 12.995C40.7484 12.0924 42.552 12.1085 43.6052 12.9669C42.2156 13.6579 40.8395 13.8816 39.3213 12.995Z" fill="#CF6C21"/>
<path d="M9.43271 10.356C8.41032 10.8087 6.48343 10.0895 5.56689 8.9137C6.64289 8.43024 8.91281 9.27662 9.43271 10.356Z" fill="#CF6C21"/>
<path d="M42.4965 33.0664C42.3236 34.7043 41.8224 36.0019 40.5602 36.9635C40.1193 35.8024 41.0587 33.8083 42.4965 33.0664Z" fill="#CF6C21"/>
<path d="M14.521 12.4708C13.9689 11.1543 14.2771 9.40667 15.195 8.646C15.9601 10.0736 15.6465 11.8547 14.521 12.4708Z" fill="#CF6C21"/>
<path d="M5.07593 25.8544C5.99381 24.6867 7.93542 23.9822 9.00338 24.4295C8.36421 25.5719 6.49764 26.2495 5.07593 25.8544Z" fill="#CF6C21"/>
<path d="M46.2044 26.9799C46.108 25.3889 47.3046 23.5542 48.5628 23.2783C48.3015 24.8331 47.5752 26.0197 46.2044 26.9799Z" fill="#CF6C21"/>
<path d="M36.4687 6.06055C36.7957 7.2886 35.9542 9.30143 34.9184 9.88265C34.4829 8.66397 35.1891 6.88282 36.4687 6.06055Z" fill="#CF6C21"/>
<path d="M40.5681 11.5151C41.0438 10.3406 42.7965 9.40318 44.2839 9.52773C43.6956 10.7464 41.9992 11.6544 40.5681 11.5151Z" fill="#CF6C21"/>
<path d="M39.7118 10.5066C39.145 12.1444 37.8224 13.2721 36.323 13.4314C36.934 11.8686 38.0757 11.0088 39.7118 10.5066Z" fill="#CF6C21"/>
<path d="M45.2726 17.3511C45.3624 18.6943 44.2502 20.4821 43.0617 20.9857C42.8138 19.8688 43.9246 18.0059 45.2726 17.3511Z" fill="#CF6C21"/>
<path d="M40.9018 19.6687C41.0264 21.3534 40.528 22.635 39.314 23.6823C38.8811 22.4395 39.6087 20.5472 40.9018 19.6687Z" fill="#CF6C21"/>
<path d="M26.7605 6.77479C27.1477 5.13426 27.8981 3.91825 29.3935 3.15356C29.3721 4.63205 28.1661 6.29937 26.7605 6.77479Z" fill="#CF6C21"/>
<path d="M47.9407 10.7364C46.8661 11.8439 44.7757 12.3541 43.8887 11.7702C44.5801 10.7752 46.6919 10.2154 47.9407 10.7364Z" fill="#CF6C21"/>
<path d="M10.2437 8.48315C11.6721 8.89965 12.9799 10.417 13.0536 11.6705C11.9334 11.6102 10.6483 10.1786 10.2437 8.48315Z" fill="#CF6C21"/>
<path d="M42.1934 6.98071C41.5114 8.51143 40.4783 9.41674 38.9963 9.89082C38.8904 8.77391 40.5493 7.2365 42.1934 6.98071Z" fill="#CF6C21"/>
<path d="M39.4263 6.63794C39.0552 8.31061 38.1467 9.41144 36.7383 10.2217C36.6365 8.88781 37.9175 7.18702 39.4263 6.63794Z" fill="#CF6C21"/>
<path d="M25.5529 13.1458C24.1031 12.2164 23.4894 10.9495 23.2 9.39331C24.5989 9.97319 25.7003 11.674 25.5529 13.1458Z" fill="#CF6C21"/>
<path d="M14.3404 21.4756C14.0899 23.2621 13.2832 24.458 11.9392 25.0339C11.9941 23.459 13.1211 21.7903 14.3404 21.4756Z" fill="#CF6C21"/>
<path d="M49.2691 24.3776C49.1873 22.9192 50.3223 21.1354 51.4827 20.8193C51.5229 22.2429 50.5862 23.779 49.2691 24.3776Z" fill="#CF6C21"/>
<path d="M46.1526 33.1304C44.4991 32.9496 43.2395 32.3295 42.2961 30.997C43.6817 30.7921 45.7131 31.8849 46.1526 33.1304Z" fill="#CF6C21"/>
<path d="M14.9102 29.3989C16.1456 29.3252 17.9961 30.6698 18.3887 31.926C17.0796 31.9568 15.3282 30.6832 14.9102 29.3989Z" fill="#CF6C21"/>
<path d="M47.2755 13.3408C46.6189 14.4108 44.479 14.98 43.3547 14.3827C44.1199 13.3649 46.1178 12.8346 47.2755 13.3408Z" fill="#CF6C21"/>
<path d="M8.02322 26.7714C6.97001 27.9432 5.85783 28.8231 4.30078 29.0132C4.4924 27.7718 6.69665 26.4219 8.02322 26.7714Z" fill="#CF6C21"/>
<path d="M19.9636 16.6673C21.3157 16.5749 23.0174 17.578 23.5936 18.7618C22.3622 19.0002 20.5974 18.0038 19.9636 16.6673Z" fill="#CF6C21"/>
<path d="M28.8717 0.201904C28.7618 1.85583 28.0757 3.09593 26.8014 4.06552C26.3927 2.97942 27.4982 0.879544 28.8717 0.201904Z" fill="#CF6C21"/>
<path d="M39.3797 14.1421C38.423 15.5522 37.2264 16.3062 35.6345 16.5058C35.9374 15.3072 37.9044 14.0443 39.3797 14.1421Z" fill="#CF6C21"/>
<path d="M48.9787 13.7585C48.7468 15.391 47.9201 16.4718 46.6431 17.3034C46.3148 16.1115 47.5704 14.1924 48.9787 13.7585Z" fill="#CF6C21"/>
<path d="M19.708 22.9323C20.3807 21.2569 21.533 20.4199 23.2442 19.9124C22.5487 21.6198 21.3575 22.4153 19.708 22.9323Z" fill="#CF6C21"/>
<path d="M39.2923 31.6483C37.9483 31.2331 36.7102 29.7251 36.6365 28.4141C38.0783 28.8788 39.4049 30.4939 39.2923 31.6483Z" fill="#CF6C21"/>
<path d="M10.7507 4.93115C12.2689 5.34765 13.5352 6.66275 13.6732 7.90554C12.4632 7.83188 10.9718 6.34402 10.7507 4.93115Z" fill="#CF6C21"/>
<path d="M20.3807 18.7624C19.2056 18.9566 17.4502 17.8477 16.8821 16.5514C18.0211 16.3331 19.8689 17.5009 20.3807 18.7624Z" fill="#CF6C21"/>
<path d="M16.3421 12.6206C16.1478 10.964 16.8446 9.24846 17.8898 8.80786C18.2355 10.218 17.7718 11.3577 16.3421 12.6206Z" fill="#CF6C21"/>
<path d="M32.808 14.1272C31.6154 13.0692 30.7632 11.9791 30.8664 10.364C32.1661 10.976 33.1122 12.7438 32.808 14.1272Z" fill="#CF6C21"/>
<path d="M7.87866 14.0345C9.45447 13.6274 11.2581 14.1872 11.8075 15.2144C11.1495 15.5974 11.037 15.5827 10.3817 15.0282C9.78008 15.4661 8.56473 15.0041 7.87866 14.0345Z" fill="#CF6C21"/>
<path d="M46.6592 19.4439C47.1081 18.1904 48.8902 17.0253 50.0895 17.2007C49.6661 18.4113 47.7874 19.6381 46.6592 19.4439Z" fill="#CF6C21"/>
<path d="M40.6861 31.9834C40.4891 33.2235 39.0285 34.5426 37.4902 34.8694C37.8748 33.4833 39.4051 32.1026 40.6861 31.9834Z" fill="#CF6C21"/>
<path d="M46.3689 36.6966C44.7971 36.0229 43.7453 35.0708 43.2307 33.5012C44.5305 33.6392 45.9401 35.0534 46.3689 36.6966Z" fill="#CF6C21"/>
<path d="M22.1485 10.7124C20.5432 10.4284 19.5637 9.38922 18.7798 8.09421C19.8062 7.96296 22.1042 9.41868 22.1485 10.7124Z" fill="#CF6C21"/>
<path d="M8.95796 19.908C7.76539 20.1959 6.20031 19.0964 5.61206 17.6219C6.76711 17.5724 8.21562 18.546 8.95796 19.908Z" fill="#CF6C21"/>
<path d="M22.7044 8.56125C21.3068 7.67202 20.3715 6.6127 20.0017 5.0994C20.8727 5.03244 22.6629 7.22606 22.7044 8.56125Z" fill="#CF6C21"/>
<path d="M43.065 15.2734C42.3816 16.4533 40.5767 17.0586 38.9995 16.6836C40.2068 15.7167 41.4637 15.2239 43.065 15.2734Z" fill="#CF6C21"/>
<path d="M13.5553 13.8659C12.1818 14.1686 10.6717 13.0785 10.2241 11.5156C11.6807 11.8451 12.7258 12.6325 13.5553 13.8659Z" fill="#CF6C21"/>
<path d="M11.1873 31.8581C10.1689 31.5822 8.96559 32.1447 8.09863 31.1925C9.24297 30.8952 10.2466 31.2354 11.1873 31.8581Z" fill="#CF6C21"/>
<path d="M13.4676 16.1508L13.5226 16.116C12.7213 16.116 11.92 16.116 11.1187 16.116C11.9146 15.7625 12.7092 15.4424 13.4676 16.1508Z" fill="#CF6C21"/>
</svg>
