<svg width="125" height="17" viewBox="0 0 125 17" fill="none" xmlns="http://www.w3.org/2000/svg">
<path d="M41.25 8.0769C41.25 11.882 38.377 14.8269 35 14.8269C31.623 14.8269 28.75 11.882 28.75 8.0769C28.75 4.27176 31.623 1.3269 35 1.3269C38.377 1.3269 41.25 4.27176 41.25 8.0769Z" stroke="#ED944E" stroke-width="2.5"/>
<ellipse cx="7.5" cy="8.0769" rx="7.5" ry="8" fill="#87420C"/>
<path d="M68.75 8.0769C68.75 11.882 65.877 14.8269 62.5 14.8269C59.123 14.8269 56.25 11.882 56.25 8.0769C56.25 4.27176 59.123 1.3269 62.5 1.3269C65.877 1.3269 68.75 4.27176 68.75 8.0769Z" stroke="#ED944E" stroke-width="2.5"/>
<path d="M96.25 8.0769C96.25 11.882 93.377 14.8269 90 14.8269C86.623 14.8269 83.75 11.882 83.75 8.0769C83.75 4.27176 86.623 1.3269 90 1.3269C93.377 1.3269 96.25 4.27176 96.25 8.0769Z" stroke="#ED944E" stroke-width="2.5"/>
<path d="M123.75 8.0769C123.75 11.882 120.877 14.8269 117.5 14.8269C114.123 14.8269 111.25 11.882 111.25 8.0769C111.25 4.27176 114.123 1.3269 117.5 1.3269C120.877 1.3269 123.75 4.27176 123.75 8.0769Z" stroke="#ED944E" stroke-width="2.5"/>
</svg>
