<svg width="131" height="52" viewBox="0 0 131 52" fill="none" xmlns="http://www.w3.org/2000/svg">
<rect y="0.0769043" width="131" height="51" rx="8" fill="#FEFEFE"/>
<g clip-path="url(#clip0_1_23796)">
<path d="M15.438 19.302L14.4827 23.1391L19.9506 19.2802L16.3745 33.8408L20.0064 33.8441L25.2894 12.3374" fill="#3395FF"/>
<path d="M9.5528 27.7228L8.04858 33.8441H15.4927L18.5387 21.3916L9.5528 27.7228ZM35.4108 22.3335C35.2289 23.0715 34.8783 23.6136 34.3554 23.9598C33.8338 24.3053 33.1017 24.4788 32.1567 24.4788H29.1544L30.2085 20.1896H33.2109C34.1547 20.1896 34.8031 20.3617 35.1549 20.7125C35.5067 21.0633 35.5916 21.5995 35.4108 22.3408M38.5193 22.2481C38.9015 20.6993 38.7438 19.5078 38.045 18.6738C37.3475 17.8464 36.1235 17.4294 34.3767 17.4294H27.6762L23.6427 33.8514H26.898L28.5236 27.2323H30.6586C31.1377 27.2323 31.515 27.3183 31.7904 27.4838C32.0664 27.6559 32.2283 27.9538 32.278 28.384L32.8591 33.8514H36.3467L35.7814 28.7547C35.6662 27.6162 35.1888 26.9477 34.35 26.7491C35.4193 26.4115 36.3152 25.8489 37.037 25.0679C37.7537 24.2925 38.2658 23.3208 38.5193 22.2548M46.4323 27.9736C46.1593 29.0856 45.7408 29.9263 45.1749 30.5154C44.6084 31.1045 43.9315 31.3957 43.1418 31.3957C42.3375 31.3957 41.7922 31.1111 41.5041 30.5352C41.2154 29.9594 41.2057 29.1254 41.4738 28.0332C41.7419 26.9411 42.1695 26.0872 42.7578 25.4716C43.3462 24.856 44.034 24.5483 44.8237 24.5483C45.6122 24.5483 46.152 24.8461 46.425 25.4372C46.704 26.0309 46.7101 26.8802 46.4371 27.9855L46.4323 27.9736ZM47.8588 22.1621L47.4512 23.8235C47.2754 23.2278 46.9339 22.7512 46.4292 22.3938C45.9234 22.0429 45.2974 21.8642 44.5508 21.8642C43.6349 21.8642 42.7554 22.1224 41.9123 22.6387C41.0692 23.1549 40.3293 23.883 39.6985 24.823C39.0677 25.7629 38.6067 26.8285 38.3095 28.0266C38.0183 29.2313 37.9577 30.2837 38.1336 31.1971C38.3155 32.1172 38.6977 32.8188 39.286 33.3086C39.8804 33.805 40.6386 34.0499 41.5666 34.0499C42.304 34.054 43.0331 33.88 43.7016 33.5403C44.3626 33.2149 44.9505 32.736 45.4242 32.137L44.9996 33.8686H48.1476L51.0219 22.168H47.8679L47.8588 22.1621ZM62.3339 22.1621H53.1794L52.5395 24.77H57.8661L50.8242 31.4089L50.2225 33.858H59.6724L60.3123 31.2501H54.6048L61.7547 24.5119M70.3918 27.9538C70.1086 29.1055 69.6882 29.9713 69.1332 30.5352C68.5783 31.1045 67.9062 31.3891 67.1171 31.3891C65.4673 31.3891 64.9251 30.244 65.4879 27.9538C65.7669 26.8153 66.1891 25.9595 66.7532 25.3829C67.3173 24.8044 68.0008 24.5158 68.8045 24.5158C69.593 24.5158 70.1255 24.8024 70.3997 25.3796C70.6738 25.9555 70.6714 26.814 70.3918 27.9525M72.2345 22.6023C71.5097 22.1098 70.5847 21.8636 69.4565 21.8636C68.3144 21.8636 67.2572 22.1085 66.2843 22.5983C65.3155 23.085 64.464 23.8116 63.7975 24.7204C63.1121 25.6404 62.619 26.7193 62.3163 27.9505C62.0191 29.177 61.9827 30.2539 62.2132 31.1759C62.4437 32.096 62.9289 32.8042 63.6568 33.2941C64.3907 33.7878 65.3248 34.0334 66.4711 34.0334C67.5993 34.0334 68.6486 33.7858 69.613 33.2934C70.5774 32.7983 71.4023 32.0953 72.0877 31.1687C72.7731 30.246 73.2644 29.1697 73.5676 27.9386C73.8709 26.7074 73.9073 25.6325 73.6768 24.7084C73.4463 23.7884 72.9672 23.0802 72.2454 22.587M83.4725 25.2876L84.2791 22.1038C84.0062 21.9516 83.6484 21.8722 83.1995 21.8722C82.4777 21.8722 81.7863 22.0668 81.1191 22.4613C80.5453 22.7962 80.0576 23.2688 79.6452 23.8605L80.0637 22.1462L79.1496 22.1502H76.9054L74.0122 33.8461H77.2045L78.7057 27.732C78.924 26.8431 79.317 26.1435 79.8842 25.647C80.4482 25.1486 81.1518 24.8991 82.001 24.8991C82.5226 24.8991 83.0078 25.0295 83.4688 25.2896M92.3546 28.01C92.0817 29.1022 91.6692 29.9362 91.1051 30.5121C90.5411 31.0906 89.8617 31.3792 89.0732 31.3792C88.2847 31.3792 87.7449 31.0879 87.4598 30.5054C87.1687 29.9196 87.1626 29.0757 87.4356 27.9664C87.7085 26.8577 88.127 26.0071 88.7033 25.418C89.2795 24.8243 89.9588 24.5277 90.7473 24.5277C91.5237 24.5277 92.0453 24.8322 92.3243 25.4478C92.6033 26.0634 92.6094 26.9172 92.3413 28.0094M94.5733 22.6214C93.982 22.1052 93.2268 21.847 92.311 21.847C91.5085 21.847 90.7437 22.0456 90.0182 22.4467C89.2934 22.8472 88.7051 23.3932 88.2532 24.0843L88.2641 24.0048L88.7997 22.1449H85.6821L84.8875 25.3816L84.8632 25.4941L81.5879 38.8276H84.7844L86.4342 32.1159C86.598 32.7129 86.9315 33.1815 87.441 33.5204C87.9505 33.858 88.5795 34.0255 89.3274 34.0255C90.2554 34.0255 91.1409 33.7806 91.981 33.2907C92.8241 32.7996 93.5519 32.0927 94.1706 31.1793C94.7893 30.2658 95.2484 29.2068 95.5414 28.0087C95.8386 26.8087 95.8992 25.7384 95.7294 24.8018C95.5565 23.8638 95.1738 23.1377 94.5831 22.6241M105.176 27.9624C104.903 29.0678 104.485 29.915 103.921 30.4975C103.357 31.0839 102.677 31.3758 101.889 31.3758C101.082 31.3758 100.536 31.0912 100.251 30.5154C99.96 29.9395 99.954 29.1055 100.221 28.0133C100.488 26.9212 100.914 26.0673 101.502 25.4518C102.09 24.8362 102.779 24.5291 103.568 24.5291C104.357 24.5291 104.891 24.8269 105.17 25.416C105.449 26.0071 105.45 26.8563 105.179 27.9644L105.176 27.9624ZM106.602 22.1475L106.193 23.8089C106.018 23.2099 105.678 22.7333 105.174 22.3792C104.665 22.0257 104.04 21.8497 103.294 21.8497C102.378 21.8497 101.494 22.1078 100.65 22.6241C99.8066 23.1404 99.0666 23.8645 98.4358 24.8018C97.805 25.739 97.344 26.8074 97.0468 28.0054C96.7526 29.2081 96.695 30.2625 96.8709 31.1799C97.0486 32.0933 97.4314 32.7989 98.0233 33.2914C98.6141 33.7812 99.3759 34.0288 100.304 34.0288C101.05 34.0288 101.763 33.8593 102.439 33.5191C103.098 33.1923 103.685 32.7128 104.157 32.1139L103.733 33.8467H106.881L109.754 22.1508H106.606L106.602 22.1475ZM122.97 22.1515L122.972 22.1482H121.037C120.975 22.1482 120.921 22.1515 120.864 22.1528H119.861L119.345 22.9339L119.218 23.1192L119.163 23.2119L115.084 29.4126L114.241 22.1515H110.9L112.592 33.1855L108.856 38.8316H112.186L113.09 37.433C113.115 37.3919 113.138 37.3575 113.169 37.3138L114.224 35.6789L114.254 35.6326L118.981 28.3185L122.966 22.1627L122.972 22.1588H122.97V22.1515Z" fill="#072654"/>
</g>
<defs>
<clipPath id="clip0_1_23796">
<rect width="115" height="26.6087" fill="white" transform="translate(8 12.2725)"/>
</clipPath>
</defs>
</svg>
