<svg width="49" height="48" viewBox="0 0 49 48" fill="none" xmlns="http://www.w3.org/2000/svg">
<path d="M46.3284 32.5871C46.2309 32.5868 46.1341 32.5701 46.0421 32.5376C45.9366 32.5001 45.8396 32.4421 45.7566 32.367C45.6736 32.2919 45.6062 32.2012 45.5583 32.1001C45.5103 31.9989 45.4827 31.8893 45.4771 31.7776C45.4715 31.6658 45.488 31.554 45.5256 31.4486C45.9054 30.3793 46.2015 29.282 46.4111 28.1668C46.4533 27.9448 46.5821 27.7486 46.769 27.6215C46.9559 27.4943 47.1856 27.4466 47.4077 27.4889C47.6297 27.5312 47.8259 27.6599 47.953 27.8468C48.0802 28.0337 48.1279 28.2635 48.0856 28.4855C47.8595 29.687 47.5404 30.8692 47.1311 32.0212C47.0721 32.1868 46.9632 32.3301 46.8195 32.4314C46.6758 32.5327 46.5042 32.5871 46.3284 32.5871Z" fill="#F4F4F4"/>
<path d="M40.9778 41.1086C40.8103 41.1079 40.6467 41.0578 40.5075 40.9647C40.3682 40.8715 40.2595 40.7394 40.195 40.5848C40.1304 40.4302 40.1128 40.26 40.1445 40.0955C40.1761 39.931 40.2555 39.7795 40.3728 39.6598C41.3701 38.6544 42.2684 37.5555 43.0554 36.3781C43.1809 36.1901 43.3759 36.0596 43.5975 36.0153C43.8192 35.971 44.0493 36.0166 44.2374 36.1421C44.4254 36.2675 44.5559 36.4625 44.6002 36.6842C44.6445 36.9058 44.5989 37.136 44.4734 37.324C43.6254 38.5904 42.6574 39.7721 41.5829 40.8529C41.5039 40.9334 41.4098 40.9975 41.306 41.0414C41.2021 41.0852 41.0906 41.1081 40.9778 41.1086Z" fill="#F4F4F4"/>
<path d="M44.5922 4.5417C44.4432 4.47388 44.2778 4.45043 44.1158 4.47416C43.9538 4.49789 43.802 4.56779 43.6787 4.67549L41.1724 6.87241C37.992 3.81919 34.0275 1.70733 29.7192 0.77139C25.4109 -0.164554 20.9275 0.112052 16.7669 1.57049C12.6063 3.02892 8.93145 5.6121 6.15043 9.03311C3.36942 12.4541 1.59112 16.5791 1.01304 20.9498C0.434962 25.3205 1.07974 29.7659 2.87575 33.7923C4.67176 37.8187 7.54871 41.2684 11.1871 43.7583C14.8254 46.2483 19.0827 47.6809 23.4862 47.8972C27.8897 48.1135 32.2669 47.1049 36.1318 44.9835C36.33 44.8748 36.4769 44.6918 36.5402 44.4748C36.6035 44.2578 36.578 44.0245 36.4693 43.8263C36.3605 43.6281 36.1775 43.4812 35.9605 43.4179C35.7435 43.3546 35.5102 43.3801 35.312 43.4888C31.7262 45.4624 27.664 46.4044 23.5756 46.2106C19.4872 46.0167 15.5323 44.6945 12.1493 42.3905C8.76639 40.0865 6.08752 36.8908 4.40967 33.1575C2.73182 29.4242 2.12053 25.2992 2.64357 21.2397C3.16661 17.1803 4.80354 13.345 7.37291 10.1589C9.94229 6.97284 13.3437 4.5605 17.2002 3.18928C21.0567 1.81806 25.2176 1.54152 29.2216 2.39033C33.2256 3.23913 36.9164 5.18012 39.8848 7.99814L36.8647 10.6399C36.7339 10.7538 36.641 10.9049 36.5984 11.073C36.5558 11.241 36.5654 11.4181 36.6261 11.5806C36.6868 11.743 36.7955 11.8831 36.9379 11.9821C37.0803 12.0811 37.2494 12.1343 37.4228 12.1346H44.2403C44.4663 12.1346 44.683 12.0448 44.8429 11.885C45.0027 11.7252 45.0924 11.5084 45.0924 11.2824V5.31718C45.0923 5.15354 45.0451 4.99339 44.9564 4.85587C44.8677 4.71836 44.7413 4.60929 44.5922 4.5417Z" fill="#F4F4F4"/>
<path d="M47.6499 24.0657C47.4293 24.0659 47.2172 23.9804 47.0582 23.8274C46.8993 23.6743 46.8059 23.4656 46.7977 23.2451C46.7585 22.1445 46.6337 21.0487 46.4245 19.9676C46.3846 19.7471 46.4332 19.5198 46.5597 19.3349C46.6861 19.1499 46.8804 19.0222 47.1003 18.9794C47.3202 18.9366 47.5481 18.9822 47.7347 19.1062C47.9213 19.2302 48.0516 19.4227 48.0973 19.642C48.3235 20.8098 48.4588 21.9933 48.5021 23.182C48.5063 23.2939 48.4884 23.4056 48.4495 23.5106C48.4105 23.6156 48.3512 23.7119 48.275 23.794C48.1988 23.876 48.1071 23.9423 48.0053 23.9889C47.9034 24.0355 47.7934 24.0616 47.6815 24.0657H47.6499Z" fill="#F4F4F4"/>
<path d="M33.6012 16.9294L27.451 11.6978C27.106 11.4027 26.6707 11.234 26.217 11.2195C25.7633 11.205 25.3181 11.3455 24.955 11.6179L22.2892 13.6147L20.6119 11.9374C20.2378 11.5655 19.7317 11.3568 19.2042 11.3568C18.6766 11.3568 18.1705 11.5655 17.7964 11.9374L12.8044 16.9794C12.0914 17.0777 11.4377 17.4295 10.9628 17.9703C10.488 18.5112 10.2238 19.205 10.2185 19.9247V33.9023C10.2185 34.6967 10.5341 35.4586 11.0958 36.0203C11.6575 36.582 12.4193 36.8976 13.2137 36.8976H33.1818C33.9762 36.8976 34.738 36.582 35.2998 36.0203C35.8615 35.4586 36.177 34.6967 36.177 33.9023V19.9247C36.1842 19.1979 35.9268 18.4933 35.4529 17.9422C34.979 17.3911 34.3208 17.0312 33.6012 16.9294ZM34.1802 28.9103H32.1834C31.6538 28.9103 31.1459 28.6999 30.7715 28.3255C30.397 27.951 30.1866 27.4431 30.1866 26.9135C30.1866 26.3839 30.397 25.876 30.7715 25.5015C31.1459 25.1271 31.6538 24.9167 32.1834 24.9167H34.1802V28.9103ZM26.193 13.2154L30.4861 16.9294H25.6039L23.7169 15.0425L26.193 13.2154ZM19.2042 13.3452L22.7884 16.9294H15.6199L19.2042 13.3452ZM33.1818 34.9007H13.2137C12.9489 34.9007 12.695 34.7956 12.5077 34.6083C12.3205 34.4211 12.2153 34.1671 12.2153 33.9023V19.9247C12.2153 19.6599 12.3205 19.4059 12.5077 19.2187C12.695 19.0314 12.9489 18.9263 13.2137 18.9263H33.1818C33.4466 18.9263 33.7006 19.0314 33.8878 19.2187C34.075 19.4059 34.1802 19.6599 34.1802 19.9247V22.9199H32.1834C31.1242 22.9199 30.1085 23.3406 29.3595 24.0896C28.6106 24.8385 28.1898 25.8543 28.1898 26.9135C28.1898 27.9727 28.6106 28.9885 29.3595 29.7374C30.1085 30.4864 31.1242 30.9071 32.1834 30.9071H34.1802V33.9023C34.1802 34.1671 34.075 34.4211 33.8878 34.6083C33.7006 34.7956 33.4466 34.9007 33.1818 34.9007Z" fill="#F4F4F4"/>
<path d="M31.4746 26.2046C31.2922 26.396 31.1887 26.6492 31.1851 26.9135C31.1851 27.1783 31.2902 27.4323 31.4775 27.6195C31.6647 27.8067 31.9187 27.9119 32.1835 27.9119C32.4483 27.9119 32.7022 27.8067 32.8894 27.6195C33.0767 27.4323 33.1819 27.1783 33.1819 26.9135C33.183 26.7152 33.1251 26.521 33.0155 26.3558C32.9058 26.1905 32.7495 26.0617 32.5663 25.9856C32.3832 25.9096 32.1815 25.8898 31.9871 25.9288C31.7927 25.9678 31.6142 26.0638 31.4746 26.2046Z" fill="#F4F4F4"/>
</svg>
