<svg width="48" height="45" viewBox="0 0 48 45" fill="none" xmlns="http://www.w3.org/2000/svg">
<g clip-path="url(#clip0_1_23846)">
<path d="M40.7806 5.38788C40.7806 5.21694 40.7079 5.053 40.5784 4.93213C40.4489 4.81125 40.2732 4.74335 40.0901 4.74335H35.0259C34.8428 4.74335 34.6671 4.81125 34.5376 4.93213C34.4081 5.053 34.3353 5.21694 34.3353 5.38788C34.3353 5.55882 34.4081 5.72276 34.5376 5.84363C34.6671 5.9645 34.8428 6.03241 35.0259 6.03241H35.9467C36.3749 6.03292 36.7925 6.15708 37.1422 6.38788C37.4918 6.61867 37.7564 6.94478 37.8996 7.32147H35.0259C34.8428 7.32147 34.6671 7.38938 34.5376 7.51025C34.4081 7.63112 34.3353 7.79506 34.3353 7.966C34.3353 8.13694 34.4081 8.30088 34.5376 8.42176C34.6671 8.54263 34.8428 8.61054 35.0259 8.61054H37.8996C37.7564 8.98722 37.4918 9.31333 37.1421 9.54412C36.7925 9.77491 36.3749 9.89908 35.9467 9.8996H35.0259C34.8907 9.8996 34.7584 9.93665 34.6455 10.0062C34.5327 10.0757 34.4441 10.1746 34.391 10.2906C34.3378 10.4067 34.3223 10.5348 34.3464 10.6589C34.3705 10.7831 34.4331 10.898 34.5265 10.9893L38.2095 14.5883C38.336 14.712 38.51 14.7836 38.6931 14.7875C38.8762 14.7915 39.0535 14.7273 39.186 14.6092C39.3184 14.4911 39.3952 14.3288 39.3994 14.1579C39.4036 13.987 39.3349 13.8215 39.2084 13.6979L36.5841 11.1336C37.258 11.0141 37.8787 10.7105 38.3674 10.2613C38.8561 9.81206 39.1909 9.2375 39.3293 8.61045H40.0901C40.2732 8.61045 40.4489 8.54254 40.5784 8.42167C40.7079 8.3008 40.7806 8.13686 40.7806 7.96592C40.7806 7.79498 40.7079 7.63104 40.5784 7.51017C40.4489 7.38929 40.2732 7.32139 40.0901 7.32139H39.3301C39.2277 6.85381 39.0149 6.41343 38.7071 6.03232H40.0901C40.2732 6.03232 40.4489 5.96442 40.5784 5.84355C40.7079 5.72267 40.7806 5.55882 40.7806 5.38788ZM24.4372 21.7105V18.0398C24.4372 17.8688 24.3644 17.7049 24.2349 17.584C24.1054 17.4631 23.9298 17.3952 23.7466 17.3952C23.5635 17.3952 23.3878 17.4631 23.2583 17.584C23.1288 17.7049 23.056 17.8688 23.056 18.0398V21.6986L20.025 20.6139C19.8545 20.5547 19.6658 20.5607 19.5 20.6306C19.3342 20.7005 19.2046 20.8287 19.1395 20.9872C19.0744 21.1458 19.0789 21.3219 19.1521 21.4774C19.2253 21.6328 19.3613 21.755 19.5305 21.8174L22.6457 22.9323L20.401 25.7277C20.2912 25.8645 20.244 26.0364 20.27 26.2056C20.296 26.3748 20.3929 26.5275 20.5395 26.63C20.686 26.7326 20.8702 26.7766 21.0516 26.7523C21.2329 26.7281 21.3965 26.6376 21.5063 26.5008L23.7607 23.6933L26.1445 26.5135C26.258 26.6477 26.4239 26.7343 26.6058 26.7544C26.7877 26.7744 26.9707 26.7262 27.1145 26.6203C27.2583 26.5144 27.3511 26.3595 27.3726 26.1898C27.394 26.02 27.3424 25.8492 27.2289 25.715L24.8773 22.933L28.1021 21.8201C28.2715 21.7592 28.4084 21.6385 28.4832 21.4841C28.5579 21.3297 28.5646 21.154 28.5016 20.9951C28.4387 20.8362 28.3112 20.7068 28.1468 20.6349C27.9824 20.5631 27.7943 20.5545 27.6232 20.6111L24.4372 21.7105ZM37.558 0.0770264C36.0538 0.0770444 34.5698 0.399483 33.2203 1.01948C31.8707 1.63948 30.6918 2.54047 29.7744 3.65297C27.7894 2.74394 25.9408 1.59563 24.2761 0.237472C24.1455 0.130272 23.9763 0.0730554 23.8023 0.0772616C23.6284 0.0814678 23.4626 0.146787 23.3381 0.260159C21.6893 1.75141 19.7993 2.99104 17.7374 3.93347C13.51 5.88271 9.29584 6.33964 6.50484 6.37977C6.32356 6.38239 6.15066 6.45143 6.02346 6.57201C5.89625 6.69258 5.82495 6.855 5.82495 7.02421V20.0489C5.82495 25.0058 7.51906 29.8675 10.7243 34.1086C13.8231 38.209 18.2477 41.6337 23.5196 44.0128C23.6134 44.0551 23.7161 44.077 23.8203 44.077C23.9244 44.077 24.0272 44.0551 24.1209 44.0128C29.3929 41.6337 33.8174 38.209 36.9163 34.1086C40.1215 29.8676 41.8157 25.0058 41.8157 20.0489V17.5275C43.8246 16.627 45.4462 15.1163 46.4147 13.243C47.3833 11.3697 47.6413 9.24486 47.1464 7.21676C46.6516 5.18867 45.4333 3.37761 43.6912 2.08042C41.9491 0.783221 39.7866 0.0768341 37.558 0.0770264ZM40.4344 20.0489C40.4344 24.7383 38.8275 29.343 35.7876 33.3656C32.8822 37.2099 28.7494 40.4376 23.8202 42.7149C18.891 40.4376 14.7582 37.2099 11.8528 33.3656C8.81281 29.3431 7.206 24.7383 7.206 20.0489V7.65156C10.1196 7.54603 14.2232 6.99173 18.3492 5.08925C20.3501 4.17307 22.2003 2.99438 23.8434 1.58901C25.4276 2.8195 27.1588 3.87497 29.0027 4.73441C28.6213 5.36021 28.3207 6.02592 28.107 6.71768C26.79 6.11041 25.5233 5.41233 24.3176 4.62922C24.1983 4.5515 24.0557 4.51094 23.9102 4.51333C23.7647 4.51572 23.6238 4.56094 23.5075 4.64254C22.2096 5.55124 20.8243 6.34555 19.3691 7.01528C16.4568 8.34355 13.328 9.21032 10.1108 9.58008C9.94419 9.59998 9.79105 9.67589 9.68007 9.79358C9.56909 9.91127 9.50788 10.0627 9.50789 10.2195V20.0489C9.50789 24.2922 10.9693 28.4689 13.7343 32.1276C16.135 35.3047 19.507 38.0707 23.4857 40.1267C23.588 40.1796 23.7031 40.2073 23.8202 40.2073C23.9372 40.2073 24.0523 40.1796 24.1547 40.1267C28.1333 38.0707 31.5054 35.3047 33.9061 32.1277C36.6711 28.4689 38.1325 24.2922 38.1325 20.0489V18.417C38.9136 18.3751 39.6864 18.2459 40.4344 18.0322V20.0489ZM36.7514 18.402V20.0489C36.7514 24.0246 35.3773 27.9445 32.7774 31.3848C30.5634 34.3147 27.472 36.881 23.8202 38.8235C20.1684 36.881 17.077 34.3147 14.8629 31.3847C12.2631 27.9446 10.8889 24.0246 10.8889 20.0489V10.7814C14.0473 10.3612 17.1154 9.48029 19.9808 8.17105C21.3635 7.53424 22.6869 6.79076 23.937 5.94836C25.1745 6.72445 26.4701 7.41648 27.8139 8.01911C27.6342 9.25393 27.7257 10.51 28.083 11.7107C28.4403 12.9114 29.0558 14.0316 29.8921 15.0031C30.7283 15.9746 31.7677 16.7769 32.947 17.3613C34.1262 17.9457 35.4207 18.2998 36.7513 18.4021L36.7514 18.402ZM37.558 17.144C35.8863 17.144 34.2521 16.6814 32.8621 15.8145C31.4721 14.9477 30.3887 13.7156 29.7489 12.2741C29.1092 10.8326 28.9418 9.24635 29.2679 7.71604C29.5941 6.18573 30.3991 4.78004 31.5812 3.67675C32.7632 2.57345 34.2693 1.82209 35.9089 1.51768C37.5486 1.21328 39.2481 1.36949 40.7925 1.96658C42.337 2.56366 43.6571 3.5748 44.5859 4.87212C45.5147 6.16945 46.0104 7.69469 46.0105 9.25498C46.008 11.3466 45.1166 13.3518 43.532 14.8308C41.9474 16.3098 39.799 17.1417 37.558 17.144Z" fill="#F4F4F4"/>
</g>
<defs>
<clipPath id="clip0_1_23846">
<rect width="47.1429" height="44" fill="white" transform="translate(0.248047 0.0769043)"/>
</clipPath>
</defs>
</svg>
