<svg width="346" height="92" viewBox="0 0 346 92" fill="none" xmlns="http://www.w3.org/2000/svg">
<path fill-rule="evenodd" clip-rule="evenodd" d="M173 73.7771C192.109 73.7771 207.6 58.2861 207.6 39.1771L346 39.177V74.7794C346 83.7803 338.703 91.077 329.702 91.077H174.236H16.2976C7.29668 91.077 0 83.7803 0 74.7794V39.177L138.4 39.1771C138.4 58.2861 153.891 73.7771 173 73.7771Z" fill="#A95210"/>
<g filter="url(#filter0_d_1_22475)">
<circle cx="173" cy="39.177" r="33.3643" fill="#833800"/>
<path d="M172.3 61.3971C167.94 61.3971 163.569 61.3528 159.209 61.4192C157.223 61.4524 155.913 60.0586 155.936 58.1449C155.98 54.8263 155.936 51.5078 155.958 48.1892C155.969 46.6295 156.834 45.5012 158.243 45.1914C158.51 45.1361 158.798 45.1251 159.064 45.1251C167.907 45.1251 176.738 45.1251 185.581 45.1251C187.345 45.1251 188.609 46.2644 188.632 48.0122C188.676 51.5188 188.676 55.0144 188.632 58.521C188.609 60.2356 187.345 61.386 185.614 61.386C181.176 61.3971 176.738 61.3971 172.3 61.3971ZM179.534 50.6781C180.677 50.6781 181.786 50.6449 182.885 50.6892C183.484 50.7113 183.484 50.3905 183.473 49.9591C183.461 49.5609 183.528 49.1958 182.907 49.2069C181.387 49.2401 179.878 49.229 178.358 49.2069C177.903 49.1958 177.781 49.3728 177.792 49.7932C177.803 52.1162 177.803 54.4392 177.792 56.7621C177.792 57.1604 177.914 57.3152 178.336 57.3152C179.867 57.3042 181.409 57.2931 182.94 57.3263C183.528 57.3374 183.484 56.9944 183.484 56.6073C183.484 56.2201 183.572 55.8219 182.929 55.844C181.953 55.8883 180.965 55.8661 179.989 55.844C179.822 55.844 179.534 55.6781 179.523 55.5675C179.467 55.0586 179.501 54.5498 179.501 53.9635C180.266 53.9635 180.965 53.9524 181.664 53.9635C182.019 53.9746 182.186 53.8418 182.152 53.4878C182.141 53.344 182.141 53.1892 182.152 53.0454C182.197 52.6361 182.019 52.4923 181.609 52.5033C180.932 52.5255 180.244 52.5144 179.534 52.5144C179.534 51.8839 179.534 51.3087 179.534 50.6781ZM170.325 49.229C170.381 49.4613 170.403 49.5719 170.436 49.6715C171.102 51.8728 171.768 54.0741 172.444 56.2754C172.833 57.5254 172.589 57.2599 173.853 57.3152C174.308 57.3374 174.541 57.2046 174.674 56.74C175.351 54.4834 176.061 52.2379 176.76 49.9923C176.827 49.7711 176.871 49.5498 176.96 49.229C176.45 49.229 176.028 49.1958 175.618 49.2511C175.44 49.2733 175.196 49.4613 175.14 49.6273C174.919 50.302 174.752 51.01 174.564 51.6958C174.286 52.7024 174.02 53.698 173.743 54.7046C173.576 54.5387 173.51 54.3728 173.465 54.2069C173.055 52.7135 172.655 51.2202 172.234 49.7379C172.178 49.5498 172.023 49.2843 171.879 49.2622C171.39 49.1958 170.902 49.229 170.325 49.229ZM161.128 53.2666C161.128 54.4502 161.128 55.6228 161.128 56.8064C161.128 57.094 161.15 57.3152 161.527 57.3152C163.158 57.3042 164.778 57.3152 166.409 57.2931C166.531 57.2931 166.697 57.0829 166.753 56.9281C166.808 56.7621 166.753 56.563 166.775 56.386C166.819 55.9768 166.642 55.844 166.231 55.844C165.288 55.8661 164.345 55.833 163.402 55.8551C162.981 55.8661 162.825 55.7445 162.836 55.302C162.859 53.6427 162.859 51.9834 162.848 50.3241C162.836 49.0963 163.036 49.2401 161.716 49.2069C161.283 49.1958 161.128 49.3396 161.139 49.7711C161.139 50.9436 161.128 52.1051 161.128 53.2666ZM169.371 53.2666C169.371 52.2489 169.382 51.2423 169.371 50.2246C169.36 49.0852 169.527 49.2622 168.373 49.218C167.829 49.1958 167.685 49.3839 167.696 49.9038C167.718 52.0056 167.696 54.1073 167.707 56.2091C167.718 57.448 167.518 57.2931 168.828 57.3374C169.282 57.3484 169.393 57.1825 169.382 56.7621C169.36 55.5785 169.371 54.417 169.371 53.2666Z" fill="white"/>
<path d="M172.267 43.311C168.606 43.311 164.944 43.2999 161.283 43.3221C160.85 43.3221 160.617 43.1783 160.418 42.8132C155.558 34.2735 160.773 23.7204 170.536 22.3598C178.069 21.309 185.181 26.9063 185.935 34.4615C186.235 37.4372 185.658 40.2137 184.194 42.8132C183.983 43.1783 183.75 43.3221 183.317 43.3221C179.623 43.311 175.95 43.311 172.267 43.311ZM169.271 34.7159C169.26 36.1208 169.249 37.5146 169.26 38.9194C169.271 39.8708 169.771 40.1584 170.58 39.6716C172.844 38.2779 175.096 36.873 177.348 35.4571C178.014 35.0367 178.025 34.5058 177.348 34.0854C175.085 32.6695 172.81 31.2536 170.525 29.8487C169.782 29.3952 169.271 29.6938 169.26 30.5677C169.271 31.9615 169.271 33.3443 169.271 34.7159Z" fill="white"/>
<path d="M153.229 35.966C153.229 27.0501 159.342 19.2736 168.084 17.4374C175.451 15.8887 181.875 17.902 186.768 23.6541C191.949 29.7492 192.692 36.6518 189.63 43.9969C189.608 44.0522 189.586 44.0964 189.564 44.1518C189.386 44.5168 189.098 44.7048 188.709 44.5057C188.321 44.3066 188.31 43.9748 188.487 43.6097C189.741 41.0434 190.318 38.3111 190.207 35.4682C190.041 30.966 188.432 27.0169 185.314 23.7426C182.064 20.3356 178.069 18.4329 173.354 18.1675C168.173 17.8798 163.658 19.5281 159.919 23.1121C156.058 26.7957 154.271 31.3753 154.405 36.6739C154.46 39.0522 155.037 41.342 156.069 43.4991C156.257 43.8973 156.357 44.2402 155.913 44.4947C155.547 44.7159 155.248 44.5389 154.981 43.9969C153.828 41.5965 153.229 38.8642 153.229 35.966Z" fill="white"/>
</g>
<defs>
<filter id="filter0_d_1_22475" x="134.693" y="0.869887" width="76.6142" height="76.6143" filterUnits="userSpaceOnUse" color-interpolation-filters="sRGB">
<feFlood flood-opacity="0" result="BackgroundImageFix"/>
<feColorMatrix in="SourceAlpha" type="matrix" values="0 0 0 0 0 0 0 0 0 0 0 0 0 0 0 0 0 0 127 0" result="hardAlpha"/>
<feOffset/>
<feGaussianBlur stdDeviation="2.47143"/>
<feComposite in2="hardAlpha" operator="out"/>
<feColorMatrix type="matrix" values="0 0 0 0 1 0 0 0 0 1 0 0 0 0 1 0 0 0 0.5 0"/>
<feBlend mode="normal" in2="BackgroundImageFix" result="effect1_dropShadow_1_22475"/>
<feBlend mode="normal" in="SourceGraphic" in2="effect1_dropShadow_1_22475" result="shape"/>
</filter>
</defs>
</svg>
