<svg width="52" height="56" viewBox="0 0 52 56" fill="none" xmlns="http://www.w3.org/2000/svg">
<path d="M12.9664 16.0742C14.2541 16.1144 13.8052 15.1287 14.0049 14.4631C14.0585 15.0095 14.1107 15.5559 14.167 16.1331C14.3653 16.1331 14.5516 16.1331 14.5744 16.1331C14.7084 16.4304 14.7486 16.7666 14.9268 16.8764C16.6111 17.9076 17.3133 19.6218 18.0141 21.3105C18.6921 22.9443 19.2482 24.6291 19.8726 26.2857C20.4274 27.7561 21.2005 29.0726 22.5083 30.0247C23.5053 30.7506 24.4446 31.5581 25.4563 32.2612C26.1182 32.7206 26.3112 32.5143 26.4706 31.7376C26.9597 29.3525 27.5239 26.9834 28.0679 24.609C28.1536 24.2353 28.285 23.8724 28.4659 23.2684C27.6404 23.4881 27.016 23.6541 26.2254 23.8644C26.4854 23.7064 26.6006 23.5939 26.736 23.559C28.5382 23.1051 29.0327 21.7297 29.1573 20.1119C29.2028 19.5213 29.1546 18.9254 29.1734 18.3321C29.1935 17.7107 29.0005 17.321 28.3037 17.4549C29.4936 16.859 28.3908 16.1425 28.4297 15.3658C29.9465 17.4697 29.2631 19.7249 29.0876 22.1515C29.511 21.8462 29.6879 21.7377 29.8433 21.6038C30.6647 20.8913 31.4258 20.0945 32.3116 19.4758C33.7319 18.4834 34.0173 16.8965 32.9132 15.4702C33.673 15.8465 33.7963 16.1371 34.0388 18.1259C34.7651 18.233 35.5007 18.3401 36.2377 18.4486C36.2471 18.5196 36.2564 18.5919 36.2645 18.6629C34.5748 18.3776 33.1839 18.9481 31.923 19.974C30.7009 20.9677 29.7402 22.11 29.3958 23.5577C30.6232 23.6608 31.7662 23.7506 32.9038 23.8818C32.932 23.8845 32.9079 24.3438 32.9079 24.5983C31.6014 25.0442 30.4048 24.7282 29.0474 24.1014C28.7566 25.2947 28.3453 26.3821 28.2501 27.4977C28.0397 29.9859 27.9781 32.4876 27.8856 34.9838C27.8776 35.2142 28.0907 35.4526 28.2005 35.6869C28.3694 35.4901 28.5918 35.3186 28.6963 35.0923C29.2712 33.8375 29.6879 32.4889 30.4115 31.3305C31.0855 30.2511 32.069 29.3632 32.932 28.4043C33.1705 28.1405 33.4626 27.9249 33.8365 27.5914C32.467 27.4816 31.1337 27.9771 30.0149 27.0477C31.0105 26.1759 33.1638 26.0968 34.217 26.9593C34.6163 27.2874 34.9111 27.3209 35.1992 26.9928C35.2568 26.9272 34.9634 26.3674 34.7356 26.2763C33.819 25.9107 32.865 25.6415 32.1226 25.3991C32.9266 25.0924 33.9128 25.5397 34.8441 25.9348C36.7804 26.7557 39.5541 25.667 40.2294 23.8617C40.409 23.3809 40.7172 22.9484 40.9664 22.4944C41.0482 22.5439 41.1312 22.5921 41.213 22.6417C40.618 23.5577 40.1785 24.6505 39.3866 25.3389C38.6 26.0218 37.4584 26.2964 36.4789 26.9526C36.8152 27.0356 37.1569 27.0986 37.4838 27.207C38.0158 27.3811 38.6215 27.4735 39.0476 27.7963C40.7051 29.0498 41.8548 29.0364 43.8447 28.8168C43.8058 28.9467 43.7683 29.0685 43.6986 29.2989C45.0265 29.0672 46.3236 28.8636 47.5108 29.7074C46.3933 30.689 44.0725 30.547 43.2243 29.5185C43.1224 29.394 42.9013 29.3417 42.7258 29.3096C42.3962 29.248 42.0545 29.248 41.7262 29.181C40.6917 28.9735 40.484 29.1784 40.7909 30.4158C40.0338 29.0351 39.0302 28.2543 37.7585 27.803C36.4682 27.345 35.3024 27.7079 34.221 28.3976C32.3451 29.5935 31.2932 31.4001 30.6058 33.4518C30.5482 33.6232 30.5977 33.8308 30.5977 34.1187C31.0667 33.9567 31.4754 33.8147 31.7314 33.7263C31.1378 34.8057 30.3686 35.9119 29.8902 37.1319C28.8893 39.6831 28.892 42.3937 29.1399 45.0654C29.3409 47.2349 30.0269 49.3241 30.8537 51.3396C31.0614 51.8471 31.5317 52.3293 32.0034 52.6333C33.4907 53.5948 35.0357 54.4666 36.5499 55.3693C36.5606 55.3572 36.5311 55.4242 36.4976 55.4255C33.9343 55.5313 31.3722 55.6478 28.8089 55.7255C27.5118 55.7643 26.2107 55.763 24.9122 55.7255C22.0729 55.6438 19.2335 55.5273 16.1917 55.4175C16.8724 55.1751 17.4098 55.0706 17.8546 54.8095C19.2857 53.9725 20.9218 53.3015 22.0206 52.1351C22.9318 51.1682 23.4061 49.6348 23.6902 48.2728C24.0292 46.6497 24.0922 44.9355 24.0306 43.2709C23.9649 41.5098 23.6728 39.7487 23.374 38.0064C22.9371 35.4646 21.2421 34.0276 18.9186 33.1719C17.2959 32.5746 15.6289 32.4367 13.7865 32.5545C14.088 32.4005 14.2716 32.3068 14.573 32.1514C13.1232 31.6505 11.6961 31.3332 10.7756 29.7917C11.3263 29.8587 11.7176 29.8386 12.0579 29.9605C13.2063 30.3743 14.3211 30.8497 14.9496 32.0202C15.0327 32.1755 15.3623 32.2934 15.5646 32.276C17.4138 32.1139 19.2308 32.4608 20.8294 33.2482C22.3141 33.9794 23.575 35.1727 24.9056 36.1998C25.2955 36.5012 25.5863 36.9324 26.0472 37.4426C26.2951 35.9909 25.6452 35.0012 25.0462 34.0142C24.8466 33.6848 24.5491 33.3915 24.2382 33.1572C21.7941 31.3171 20.3363 28.7485 18.9695 26.1076C18.8944 25.9643 18.802 25.829 18.7578 25.7553C18.0958 26.5522 17.4446 27.3343 16.7934 28.1164C16.7304 28.0722 16.6674 28.028 16.6044 27.9838C16.7063 27.8177 16.7786 27.6209 16.914 27.4883C18.5662 25.8732 18.7645 24.0827 17.5022 22.0819C17.3682 21.869 17.2235 21.6547 17.1351 21.4203C16.5441 19.8615 16.4544 19.745 14.8049 19.9927C13.0039 20.2632 11.3317 20.9047 10.3575 22.5747C9.9488 23.2751 9.79203 24.1215 9.54681 24.8273C9.15018 23.6073 9.81615 22.4729 10.4995 21.2154C9.72637 21.2154 9.15554 21.2154 8.58472 21.2154C10.1203 21.0467 11.5434 20.6516 12.9423 19.9633C13.9258 19.4798 15.0836 19.3486 16.2601 19.0352C15.7964 17.8179 14.8384 17.0572 13.7034 16.4545C13.4662 16.3287 13.2465 16.172 13.0173 16.0287C13.0214 16.0394 12.9664 16.0742 12.9664 16.0742Z" fill="#CF6C21"/>
<path d="M18.5572 26.7678C19.4054 28.02 19.4416 30.002 18.6738 31.068C17.7666 30.2431 17.6822 27.9986 18.5572 26.7678Z" fill="#CF6C21"/>
<path d="M40.3401 27.5904C41.2218 26.6476 43.3296 26.6329 44.565 27.561C43.6565 28.3163 41.329 28.3324 40.3401 27.5904Z" fill="#CF6C21"/>
<path d="M28.3516 31.9026C28.5338 30.3772 29.9032 28.8157 31.195 28.6001C31.1199 30.0839 30.0212 31.383 28.3516 31.9026Z" fill="#CF6C21"/>
<path d="M23.1397 33.3163C21.7569 33.4917 20.3365 32.4042 19.6062 30.9043C21.0614 30.8334 22.8717 32.0467 23.1397 33.3163Z" fill="#CF6C21"/>
<path d="M30.4984 14.0531C29.0231 14.578 27.0372 14.0705 26.457 13.0594C27.4406 12.4433 29.6462 12.9603 30.4984 14.0531Z" fill="#CF6C21"/>
<path d="M7.85799 29.7475C7.3622 28.1244 7.83923 26.8374 8.76113 25.5959C9.49275 26.7503 9.03582 28.9359 7.85799 29.7475Z" fill="#CF6C21"/>
<path d="M28.8674 15.0755C30.3816 15.0474 32.1664 16.1375 32.6421 17.3374C31.3517 17.5396 29.2828 16.329 28.8674 15.0755Z" fill="#CF6C21"/>
<path d="M24.3937 30.5461C23.047 30.3506 21.7352 28.7007 21.7646 27.241C22.9478 27.474 24.2624 29.1252 24.3937 30.5461Z" fill="#CF6C21"/>
<path d="M24.8108 24.2879C23.2832 24.9 21.8897 24.9053 20.5015 24.1527C21.4408 23.1965 23.5901 23.238 24.8108 24.2879Z" fill="#CF6C21"/>
<path d="M4.73926 6.09227C6.22796 5.9088 8.01281 6.81678 8.4081 7.96047C7.1579 8.34616 5.16403 7.33238 4.73926 6.09227Z" fill="#CF6C21"/>
<path d="M22.1524 14.0058C20.8232 15.0825 19.5033 15.5512 17.9248 15.3463C18.4608 14.1478 20.3421 13.5143 22.1524 14.0058Z" fill="#CF6C21"/>
<path d="M12.2249 27.1242C13.2941 26.2738 15.3456 26.3086 16.368 27.1537C14.8994 27.9974 13.1521 28.0027 12.2249 27.1242Z" fill="#CF6C21"/>
<path d="M4.53198 16.0544C5.52758 15.2201 7.48126 15.3098 8.60549 16.2393C7.68359 17.0414 5.64952 16.949 4.53198 16.0544Z" fill="#CF6C21"/>
<path d="M36.1384 17.6048C37.1648 17.0611 39.2096 17.578 40.2548 18.6427C39.3142 19.2681 36.7173 18.6133 36.1384 17.6048Z" fill="#CF6C21"/>
<path d="M24.2617 19.7259C25.4248 18.8514 27.2016 18.8072 28.3795 19.6241C27.5152 20.5254 25.3297 20.579 24.2617 19.7259Z" fill="#CF6C21"/>
<path d="M42.511 23.0138C43.3565 22.1366 45.4134 22.0067 46.614 22.7098C45.885 23.6446 43.7933 23.82 42.511 23.0138Z" fill="#CF6C21"/>
<path d="M51.934 24.9775C50.8272 26.1507 48.9646 26.6837 47.8618 26.1828C48.6779 25.0619 50.598 24.4726 51.934 24.9775Z" fill="#CF6C21"/>
<path d="M15.2703 14.2266C16.4883 13.1552 17.7974 12.7789 19.3679 13.0427C18.5679 14.2788 16.4387 14.9042 15.2703 14.2266Z" fill="#CF6C21"/>
<path d="M6.08989 13.8525C5.02193 14.7725 3.016 14.7873 1.96948 13.9275C2.9691 13.0758 4.57438 13.0316 6.08989 13.8525Z" fill="#CF6C21"/>
<path d="M22.7205 2.56689C23.6799 4.12975 23.9452 5.50378 23.0943 7.14163C22.2408 5.61627 22.1604 4.22885 22.7205 2.56689Z" fill="#CF6C21"/>
<path d="M4.47534 22.6789C5.66792 21.7575 7.27722 21.7334 8.67213 22.5744C7.77167 23.406 5.74161 23.477 4.47534 22.6789Z" fill="#CF6C21"/>
<path d="M32.9196 11.2573C32.1478 9.81099 32.2014 8.1035 33.0482 7.13525C33.9165 8.02583 33.8536 10.0748 32.9196 11.2573Z" fill="#CF6C21"/>
<path d="M25.5305 4.80664C26.0946 6.43646 25.5627 7.72478 24.7681 9.00774C23.9601 8.00869 24.3125 5.94765 25.5305 4.80664Z" fill="#CF6C21"/>
<path d="M6.69756 30.3301C5.40851 31.2032 3.56472 31.2073 2.5249 30.3783C3.45082 29.5185 5.38171 29.477 6.69756 30.3301Z" fill="#CF6C21"/>
<path d="M49.2914 20.8049C47.8174 21.7169 46.4172 21.6861 44.9204 21.1424C46.2001 20.1125 47.7947 19.9733 49.2914 20.8049Z" fill="#CF6C21"/>
<path d="M16.6359 25.9832C15.6939 24.7177 15.7086 22.8013 16.6252 21.8464C17.3689 22.7705 17.3957 24.9427 16.6359 25.9832Z" fill="#CF6C21"/>
<path d="M8.65595 12.5983C7.01448 13.0778 5.72945 12.5863 4.48462 11.7185C5.40116 10.9712 7.59335 11.4078 8.65595 12.5983Z" fill="#CF6C21"/>
<path d="M15.7917 4.9594C14.9958 3.83714 15.0252 1.77343 15.8105 0.852051C16.6908 1.83369 16.7042 3.87732 15.7917 4.9594Z" fill="#CF6C21"/>
<path d="M9.55737 28.8689C10.3238 27.9636 12.5026 27.9301 13.6697 28.8073C12.5147 29.6148 10.4578 29.718 9.55737 28.8689Z" fill="#CF6C21"/>
<path d="M13.6587 3.927C14.8472 5.10283 15.4409 6.38177 15.2774 8.01962C14.0205 7.18664 13.1321 5.03319 13.6587 3.927Z" fill="#CF6C21"/>
<path d="M28.9339 5.55493C29.5812 6.67049 29.1323 8.8226 28.1541 9.54042C27.4948 8.52664 27.8365 6.70263 28.9339 5.55493Z" fill="#CF6C21"/>
<path d="M0.00341797 21.4587C1.52964 20.7221 2.90713 20.7262 4.35564 21.3543C3.41096 22.3667 1.62478 22.4203 0.00341797 21.4587Z" fill="#CF6C21"/>
<path d="M46.1167 27.9302C47.1605 27.0142 48.9829 26.974 50.1755 27.8391C49.3728 28.6882 47.1914 28.7364 46.1167 27.9302Z" fill="#CF6C21"/>
<path d="M27.6413 22.0458C26.2062 22.9056 24.822 22.844 23.3413 22.4101C24.1614 21.324 26.1981 21.1485 27.6413 22.0458Z" fill="#CF6C21"/>
<path d="M13.7214 17.7293C12.5556 18.6936 11.3201 18.6936 10.0726 18.5851C9.88771 18.569 9.72021 18.3641 9.54468 18.2449C9.68403 18.1003 9.79659 17.8967 9.96676 17.8218C11.1647 17.2914 12.3801 17.1629 13.7214 17.7293Z" fill="#CF6C21"/>
<path d="M33.3516 31.8455C34.4329 31.0567 36.3317 31.03 37.4009 31.7866C36.9065 32.7174 34.1515 32.7508 33.3516 31.8455Z" fill="#CF6C21"/>
<path d="M19.4048 11.4768C21.0529 11.3241 22.338 11.7995 23.4448 12.9111C22.4197 13.5137 20.1444 12.7209 19.4048 11.4768Z" fill="#CF6C21"/>
<path d="M18.7136 0.460693C20.1273 1.21199 21.1966 2.82842 21.1658 4.09531C19.9451 3.76184 18.719 1.97802 18.7136 0.460693Z" fill="#CF6C21"/>
<path d="M31.8781 5.38648C30.715 4.61778 30.0062 2.6545 30.4564 1.44653C31.641 2.32238 32.398 4.41957 31.8781 5.38648Z" fill="#CF6C21"/>
<path d="M0.381592 15.4715C1.60498 15.2425 3.55464 16.2951 4.09867 17.479C2.85384 17.7696 0.775543 16.646 0.381592 15.4715Z" fill="#CF6C21"/>
<path d="M18.1952 3.45972C18.7419 4.69982 17.8991 6.87604 16.6449 7.49475C16.4667 5.87565 17.1125 4.64893 18.1952 3.45972Z" fill="#CF6C21"/>
<path d="M24.8482 28.2203C24.7048 26.853 25.9845 25.0129 27.2186 24.7344C27.4022 25.7428 26.2257 27.5079 24.8482 28.2203Z" fill="#CF6C21"/>
<path d="M6.81958 5.27589C7.99741 5.09777 9.52364 6.05932 10.2968 7.41728C9.16721 7.84047 7.48153 6.82803 6.81958 5.27589Z" fill="#CF6C21"/>
<path d="M31.4808 9.34235C30.4048 8.72229 29.6839 6.89695 29.9492 5.46802C31.0962 5.99165 31.8332 7.85583 31.4808 9.34235Z" fill="#CF6C21"/>
<path d="M36.4775 33.9256C35.2287 34.9729 33.8847 35.1657 32.3906 34.8403C32.8435 33.7743 35.0933 33.2426 36.4775 33.9256Z" fill="#CF6C21"/>
<path d="M33.7031 15.0988C33.3708 13.6216 33.9591 11.8218 34.9855 11.1709C35.4947 12.3842 34.8033 14.5002 33.7031 15.0988Z" fill="#CF6C21"/>
<path d="M24.5538 4.44314C23.656 3.28874 23.8302 1.22502 24.8486 0.185791C25.6084 1.64419 25.1796 2.98876 24.5538 4.44314Z" fill="#CF6C21"/>
<path d="M0.887207 25.6555C1.99804 24.4355 3.25896 23.8757 4.87094 24.0123C4.23982 25.2096 1.98062 26.1497 0.887207 25.6555Z" fill="#CF6C21"/>
<path d="M35.5214 19.6057C36.1177 21.0025 35.764 22.8975 34.8421 23.4372C34.164 22.1475 34.4816 20.2151 35.5214 19.6057Z" fill="#CF6C21"/>
<path d="M37.8458 21.3582C38.2934 22.3291 37.3876 24.5589 36.2674 25.2419C35.9243 23.908 36.7149 21.9648 37.8458 21.3582Z" fill="#CF6C21"/>
<path d="M29.318 11.3865C28.0571 11.9543 25.7242 11.2271 25.2432 10.1504C26.7855 9.908 28.1067 10.2723 29.318 11.3865Z" fill="#CF6C21"/>
<path d="M34.3993 6.39515C33.2228 5.53939 32.5595 3.61361 33.0392 2.45386C34.1862 3.28684 34.8522 5.21664 34.3993 6.39515Z" fill="#CF6C21"/>
<path d="M38.7117 2.46289C38.7921 4.13288 38.2937 5.41986 37.1078 6.45775C36.5249 5.51762 37.3691 3.34677 38.7117 2.46289Z" fill="#CF6C21"/>
<path d="M44.1189 25.0431C43.071 26.1184 41.2969 26.5376 40.0762 26.0421C40.5264 25.0725 42.7601 24.4967 44.1189 25.0431Z" fill="#CF6C21"/>
<path d="M26.9354 16.5377C25.3609 16.7185 24.0812 16.2618 23.0039 15.1208C23.9982 14.5101 26.3083 15.3404 26.9354 16.5377Z" fill="#CF6C21"/>
<path d="M1.40332 18.5409C2.68433 18.1432 4.40619 18.8021 5.1807 19.9846C3.95998 20.3984 1.83613 19.5855 1.40332 18.5409Z" fill="#CF6C21"/>
<path d="M38.8213 12.9181C40.2484 12.0155 42.052 12.0316 43.1052 12.89C41.7156 13.581 40.3395 13.8047 38.8213 12.9181Z" fill="#CF6C21"/>
<path d="M8.93271 10.2791C7.91032 10.7318 5.98343 10.0126 5.06689 8.83679C6.14289 8.35334 8.41281 9.19972 8.93271 10.2791Z" fill="#CF6C21"/>
<path d="M41.9965 32.9895C41.8236 34.6274 41.3224 35.925 40.0602 36.8866C39.6193 35.7255 40.5587 33.7314 41.9965 32.9895Z" fill="#CF6C21"/>
<path d="M14.021 12.3939C13.4689 11.0774 13.7771 9.32976 14.695 8.56909C15.4601 9.99669 15.1465 11.7778 14.021 12.3939Z" fill="#CF6C21"/>
<path d="M4.57593 25.7775C5.49381 24.6098 7.43542 23.9053 8.50338 24.3526C7.86421 25.495 5.99764 26.1726 4.57593 25.7775Z" fill="#CF6C21"/>
<path d="M45.7044 26.903C45.608 25.312 46.8046 23.4773 48.0628 23.2014C47.8015 24.7562 47.0752 25.9428 45.7044 26.903Z" fill="#CF6C21"/>
<path d="M35.9687 5.98364C36.2957 7.2117 35.4542 9.22453 34.4184 9.80574C33.9829 8.58706 34.6891 6.80592 35.9687 5.98364Z" fill="#CF6C21"/>
<path d="M40.0681 11.4382C40.5438 10.2637 42.2965 9.32628 43.7839 9.45082C43.1956 10.6695 41.4992 11.5775 40.0681 11.4382Z" fill="#CF6C21"/>
<path d="M39.2118 10.4297C38.645 12.0675 37.3224 13.1952 35.823 13.3545C36.434 11.7917 37.5757 10.9319 39.2118 10.4297Z" fill="#CF6C21"/>
<path d="M44.7726 17.2742C44.8624 18.6174 43.7502 20.4052 42.5617 20.9088C42.3138 19.7919 43.4246 17.929 44.7726 17.2742Z" fill="#CF6C21"/>
<path d="M40.4018 19.5918C40.5264 21.2765 40.028 22.5581 38.814 23.6054C38.3811 22.3626 39.1087 20.4703 40.4018 19.5918Z" fill="#CF6C21"/>
<path d="M26.2605 6.69788C26.6477 5.05735 27.3981 3.84135 28.8935 3.07666C28.8721 4.55515 27.6661 6.22246 26.2605 6.69788Z" fill="#CF6C21"/>
<path d="M47.4407 10.6595C46.3661 11.767 44.2757 12.2772 43.3887 11.6933C44.0801 10.6983 46.1919 10.1385 47.4407 10.6595Z" fill="#CF6C21"/>
<path d="M9.74365 8.40625C11.1721 8.82274 12.4799 10.3401 12.5536 11.5936C11.4334 11.5333 10.1483 10.1017 9.74365 8.40625Z" fill="#CF6C21"/>
<path d="M41.6934 6.90381C41.0114 8.43452 39.9783 9.33983 38.4963 9.81391C38.3904 8.69701 40.0493 7.1596 41.6934 6.90381Z" fill="#CF6C21"/>
<path d="M38.9263 6.56104C38.5552 8.23371 37.6467 9.33454 36.2383 10.1448C36.1365 8.81091 37.4175 7.11011 38.9263 6.56104Z" fill="#CF6C21"/>
<path d="M25.0529 13.0689C23.6031 12.1395 22.9894 10.8726 22.7 9.31641C24.0989 9.89628 25.2003 11.5971 25.0529 13.0689Z" fill="#CF6C21"/>
<path d="M13.8404 21.3987C13.5899 23.1852 12.7832 24.3811 11.4392 24.957C11.4941 23.3821 12.6211 21.7134 13.8404 21.3987Z" fill="#CF6C21"/>
<path d="M48.7691 24.3007C48.6873 22.8423 49.8223 21.0585 50.9827 20.7424C51.0229 22.166 50.0862 23.7021 48.7691 24.3007Z" fill="#CF6C21"/>
<path d="M45.6526 33.0535C43.9991 32.8727 42.7395 32.2526 41.7961 30.9201C43.1817 30.7152 45.2131 31.808 45.6526 33.0535Z" fill="#CF6C21"/>
<path d="M14.4102 29.322C15.6456 29.2483 17.4961 30.5929 17.8887 31.8491C16.5796 31.8799 14.8282 30.6063 14.4102 29.322Z" fill="#CF6C21"/>
<path d="M46.7755 13.2639C46.1189 14.3339 43.979 14.9031 42.8547 14.3058C43.6199 13.288 45.6178 12.7577 46.7755 13.2639Z" fill="#CF6C21"/>
<path d="M7.52322 26.6945C6.47001 27.8663 5.35783 28.7462 3.80078 28.9363C3.9924 27.6949 6.19665 26.345 7.52322 26.6945Z" fill="#CF6C21"/>
<path d="M19.4636 16.5904C20.8157 16.498 22.5174 17.5011 23.0936 18.6849C21.8622 18.9233 20.0974 17.9269 19.4636 16.5904Z" fill="#CF6C21"/>
<path d="M28.3717 0.125C28.2618 1.77892 27.5757 3.01903 26.3014 3.98862C25.8927 2.90252 26.9982 0.802639 28.3717 0.125Z" fill="#CF6C21"/>
<path d="M38.8797 14.0652C37.923 15.4753 36.7264 16.2293 35.1345 16.4289C35.4374 15.2303 37.4044 13.9674 38.8797 14.0652Z" fill="#CF6C21"/>
<path d="M48.4787 13.6816C48.2468 15.3141 47.4201 16.3949 46.1431 17.2265C45.8148 16.0346 47.0704 14.1155 48.4787 13.6816Z" fill="#CF6C21"/>
<path d="M19.208 22.8554C19.8807 21.18 21.033 20.343 22.7442 19.8354C22.0487 21.5429 20.8575 22.3384 19.208 22.8554Z" fill="#CF6C21"/>
<path d="M38.7923 31.5713C37.4483 31.1562 36.2102 29.6482 36.1365 28.3372C37.5783 28.8019 38.9049 30.4169 38.7923 31.5713Z" fill="#CF6C21"/>
<path d="M10.2507 4.85425C11.7689 5.27074 13.0352 6.58585 13.1732 7.82863C11.9632 7.75498 10.4718 6.26711 10.2507 4.85425Z" fill="#CF6C21"/>
<path d="M19.8807 18.6855C18.7056 18.8797 16.9502 17.7708 16.3821 16.4745C17.5211 16.2562 19.3689 17.424 19.8807 18.6855Z" fill="#CF6C21"/>
<path d="M15.8421 12.5437C15.6478 10.8871 16.3446 9.17156 17.3898 8.73096C17.7355 10.1411 17.2718 11.2808 15.8421 12.5437Z" fill="#CF6C21"/>
<path d="M32.308 14.0503C31.1154 12.9923 30.2632 11.9022 30.3664 10.2871C31.6661 10.8991 32.6122 12.6669 32.308 14.0503Z" fill="#CF6C21"/>
<path d="M7.37866 13.9576C8.95447 13.5505 10.7581 14.1103 11.3075 15.1375C10.6495 15.5205 10.537 15.5058 9.88173 14.9513C9.28008 15.3892 8.06473 14.9272 7.37866 13.9576Z" fill="#CF6C21"/>
<path d="M46.1592 19.367C46.6081 18.1135 48.3902 16.9484 49.5895 17.1238C49.1661 18.3344 47.2874 19.5611 46.1592 19.367Z" fill="#CF6C21"/>
<path d="M40.1861 31.9065C39.9891 33.1466 38.5285 34.4657 36.9902 34.7925C37.3748 33.4064 38.9051 32.0257 40.1861 31.9065Z" fill="#CF6C21"/>
<path d="M45.8689 36.6197C44.2971 35.946 43.2453 34.9939 42.7307 33.4243C44.0305 33.5623 45.4401 34.9765 45.8689 36.6197Z" fill="#CF6C21"/>
<path d="M21.6485 10.6355C20.0432 10.3515 19.0637 9.31232 18.2798 8.0173C19.3062 7.88606 21.6042 9.34178 21.6485 10.6355Z" fill="#CF6C21"/>
<path d="M8.45796 19.8311C7.26539 20.119 5.70031 19.0195 5.11206 17.545C6.26711 17.4955 7.71562 18.4691 8.45796 19.8311Z" fill="#CF6C21"/>
<path d="M22.2044 8.48435C20.8068 7.59511 19.8715 6.5358 19.5017 5.02249C20.3727 4.95553 22.1629 7.14916 22.2044 8.48435Z" fill="#CF6C21"/>
<path d="M42.565 15.1965C41.8816 16.3764 40.0767 16.9817 38.4995 16.6067C39.7068 15.6398 40.9637 15.147 42.565 15.1965Z" fill="#CF6C21"/>
<path d="M13.0553 13.789C11.6818 14.0917 10.1717 13.0016 9.72412 11.4387C11.1807 11.7682 12.2258 12.5556 13.0553 13.789Z" fill="#CF6C21"/>
<path d="M10.6873 31.7812C9.66888 31.5053 8.46559 32.0678 7.59863 31.1156C8.74297 30.8183 9.7466 31.1584 10.6873 31.7812Z" fill="#CF6C21"/>
<path d="M12.9676 16.0739L13.0226 16.0391C12.2213 16.0391 11.42 16.0391 10.6187 16.0391C11.4146 15.6856 12.2092 15.3655 12.9676 16.0739Z" fill="#CF6C21"/>
</svg>
