<svg width="131" height="52" viewBox="0 0 131 52" fill="none" xmlns="http://www.w3.org/2000/svg">
<rect y="0.0769043" width="131" height="51" rx="8" fill="#FEFEFE"/>
<path d="M88.146 17.6324C88.4819 17.3671 88.6499 17.2344 88.8179 17.1018C91.1526 15.1453 94.1425 15.3609 96.1413 17.6821C96.3429 17.9142 96.4437 17.9308 96.6452 17.7318C96.7796 17.5826 96.9308 17.4666 97.0651 17.3173C98.6273 15.8085 100.693 15.3609 102.625 16.2065C104.657 17.1018 105.749 18.6769 105.766 20.8821C105.8 25.6406 105.783 30.3826 105.783 35.1412C105.783 36.8324 104.725 37.8935 103.028 37.8935C102.356 37.8935 101.684 37.8438 101.012 37.9101C100.324 37.9764 100.122 37.7609 100.122 37.0479C100.156 32.4054 100.139 27.7629 100.139 23.1204C100.139 22.9215 100.139 22.7391 100.139 22.5401C100.122 21.4624 99.6855 21.0147 98.644 20.965C97.7034 20.9153 97.0483 21.479 96.9476 22.4241C96.9308 22.6396 96.9476 22.8717 96.9476 23.0873C96.9476 27.0997 96.9476 31.0956 96.9476 35.108C96.9476 36.8655 95.923 37.8935 94.1425 37.8769C93.2355 37.8603 92.0093 38.2749 91.4886 37.6945C91.0351 37.1971 91.3374 36.0199 91.3374 35.1412C91.3374 31.0293 91.3374 26.9008 91.3374 22.7888C91.3374 21.3298 90.38 20.5837 89.137 21.0811C88.3644 21.3961 88.1124 22.0096 88.1124 22.8054C88.1292 26.652 88.1124 30.4821 88.1124 34.3287C88.1124 34.6272 88.1124 34.9422 88.1124 35.2407C88.062 36.8489 87.0206 37.8603 85.4081 37.8769C84.7362 37.8935 84.0644 37.8272 83.3925 37.8935C82.6702 37.9598 82.4519 37.7609 82.4687 36.9982C82.5023 30.4821 82.4855 23.966 82.4855 17.4334C82.4855 17.1515 82.5023 16.8862 82.4855 16.6044C82.4519 16.2396 82.603 16.1236 82.9726 16.1236C84.5179 16.1401 86.0464 16.1401 87.5917 16.1236C87.978 16.1236 88.1628 16.223 88.1292 16.6375C88.0956 16.936 88.1292 17.2013 88.146 17.6324Z" fill="#02B9EF"/>
<path d="M52.5367 26.619C52.5367 28.8905 52.5367 31.1454 52.5367 33.4169C52.5199 36.3682 50.9578 37.8936 47.968 37.9102C46.6578 37.9102 45.3308 37.9268 44.0207 37.9102C41.3668 37.877 39.4183 36.1361 39.284 33.5164C39.1832 31.6428 39.1664 29.7527 39.2672 27.8791C39.4015 25.1931 41.4844 23.3029 44.239 23.2698C44.9613 23.2532 45.7004 23.2698 46.4226 23.2698C47.1281 23.2532 47.3969 22.8552 47.3801 22.192C47.3801 21.5288 47.0777 21.2304 46.4058 21.2635C45.65 21.2801 44.8941 21.2801 44.1383 21.2635C42.2906 21.2304 41.266 20.2356 41.2828 18.4449C41.2828 17.7154 40.9469 16.7371 41.434 16.306C41.8539 15.9413 42.8113 16.1734 43.5336 16.1734C45.4148 16.1568 47.2793 16.1734 49.1605 16.1734C51.1594 16.1734 52.5199 17.5164 52.5367 19.506C52.5535 21.8604 52.5367 24.248 52.5367 26.619ZM47.3969 30.3827C47.3969 30.1008 47.3969 29.8356 47.3969 29.5537C47.3969 27.8625 47.3969 27.8625 45.6836 27.9288C44.8269 27.962 44.3566 28.3931 44.3398 29.2718C44.323 29.9682 44.323 30.648 44.3398 31.3444C44.3566 32.5381 44.8941 32.8532 46.641 32.9029C47.9344 32.9361 47.2793 32.0407 47.3969 31.5433C47.464 31.1786 47.3801 30.7641 47.3969 30.3827Z" fill="#06306F"/>
<path d="M67.486 24.8117C67.486 27.3485 67.5196 29.9018 67.4692 32.4386C67.4356 34.3951 66.9653 36.1692 65.0504 37.2137C64.2778 37.6282 63.4379 37.8604 62.5645 37.877C60.6329 37.9101 58.7012 37.877 56.7696 37.9101C56.2993 37.9101 56.1985 37.7443 56.2153 37.3298C56.2489 36.6334 56.1985 35.9536 56.2321 35.2573C56.2657 33.9308 57.2903 32.9194 58.634 32.8697C59.5075 32.8365 60.3641 32.8531 61.2375 32.8697C61.943 32.8697 62.3293 32.5878 62.3293 31.8417C62.3293 31.079 61.9598 30.8137 61.2543 30.7972C60.0786 30.764 58.9028 30.9298 57.7438 30.5982C55.745 30.0179 54.2836 28.3764 54.2332 26.3371C54.1325 23.1039 54.1997 19.8707 54.1829 16.6376C54.1829 16.2728 54.3004 16.1567 54.67 16.1733C56.0473 16.1899 57.4079 16.2065 58.7852 16.1733C59.3899 16.1567 59.3059 16.4884 59.3059 16.8531C59.3059 19.2904 59.3059 21.7112 59.3059 24.1485C59.3059 25.2096 59.8098 25.7733 60.7504 25.8065C61.859 25.8396 62.3461 25.392 62.3461 24.2811C62.3461 21.8272 62.3629 19.3567 62.3293 16.9029C62.3293 16.3226 62.4805 16.1567 63.0684 16.1733C64.2946 16.2231 65.5375 16.2396 66.7637 16.1733C67.4356 16.1402 67.5364 16.3889 67.5196 16.9692C67.4692 19.5723 67.486 22.192 67.486 24.8117Z" fill="#06306F"/>
<path d="M24.6875 28.5754C24.6875 25.8728 24.6875 23.1536 24.6875 20.451C24.6875 17.7982 26.3336 16.1401 29.0379 16.1733C30.8016 16.1899 32.5652 15.9743 34.3121 16.3059C36.5461 16.737 37.957 18.4448 37.9738 20.7163C37.9906 23.1205 37.9738 25.5246 37.9738 27.9287C37.9738 30.9464 36.1766 32.7868 33.1195 32.8697C32.1957 32.9028 31.2719 32.8863 30.348 32.8697C29.9281 32.8531 29.7434 32.9857 29.7601 33.4334C29.7937 34.0966 29.7769 34.7598 29.7601 35.423C29.7266 36.849 28.7019 37.8769 27.2742 37.8935C26.4344 37.9101 25.3762 38.2417 24.8387 37.7609C24.3348 37.3132 24.7043 36.2521 24.6875 35.4562C24.6707 33.1681 24.6875 30.8635 24.6875 28.5754ZM29.7601 24.5132C29.7601 25.0438 29.7601 25.5578 29.7601 26.0883C29.7601 27.9619 29.7602 27.9619 31.6582 27.7961C32.4812 27.7298 32.8676 27.3319 32.8844 26.5194C32.9012 25.5909 32.8508 24.6458 32.9012 23.7173C33.0019 21.0313 32.498 21.2966 30.2809 21.28C29.8777 21.28 29.7434 21.3961 29.7434 21.794C29.7769 22.6894 29.7601 23.6013 29.7601 24.5132Z" fill="#06306F"/>
<path d="M72.2393 28.6086C72.2393 26.4034 72.2225 24.1817 72.2561 21.9765C72.2561 21.4625 72.1386 21.2469 71.5675 21.2635C70.8116 21.2967 69.8038 21.5122 69.3839 21.1475C68.8632 20.6666 69.2663 19.6386 69.1991 18.8428C69.1991 18.7931 69.1991 18.7267 69.1991 18.677C69.1991 17.8977 68.9471 16.9858 69.2831 16.4055C69.619 15.8252 70.6436 16.1899 71.3659 16.0076C72.7936 15.6428 73.8686 14.8304 74.7421 13.7029C75.3468 12.9402 76.1026 12.3931 77.0768 12.2107C77.5975 12.1112 77.9167 12.1775 77.8831 12.8407C77.8327 13.7692 77.8831 14.7143 77.8663 15.6594C77.8495 16.0573 78.0007 16.1899 78.4038 16.1734C79.0757 16.1568 79.7475 16.1899 80.4194 16.1568C80.8225 16.1402 80.9569 16.2894 80.9401 16.6874C80.9233 18.0469 80.9233 19.3899 80.9401 20.7495C80.9401 21.1309 80.8393 21.3298 80.4194 21.2801C80.3354 21.2635 80.2514 21.2801 80.1675 21.2801C79.4284 21.3464 78.4038 20.9485 78.0175 21.4459C77.6479 21.9102 77.8831 22.8718 77.8831 23.6179C77.8831 28.1278 77.8663 32.621 77.8999 37.1309C77.8999 37.7609 77.7319 37.9599 77.0936 37.9101C76.4889 37.8604 75.8675 37.9101 75.246 37.8936C73.4319 37.8272 72.2393 36.6169 72.2393 34.8262C72.2393 32.7537 72.2393 30.6811 72.2393 28.6086Z" fill="#02B9EF"/>
</svg>
