<svg width="45" height="45" viewBox="0 0 45 45" fill="none" xmlns="http://www.w3.org/2000/svg">
<g clip-path="url(#clip0_1_23812)">
<path d="M41.6176 40.7974L41.0149 35.8073C41.0139 35.799 41.0127 35.7908 41.0114 35.7825C40.8458 34.763 40.3706 33.8191 39.6502 33.079C38.9298 32.3388 37.9991 31.8383 36.9844 31.6452L30.8382 30.4891H30.8378L29.1732 30.1759C30.7864 29.8624 32.3745 29.4314 33.9249 28.8865C34.6171 28.6423 35.2033 28.1656 35.5836 27.5378C35.9639 26.9099 36.1148 26.1696 36.0106 25.443L35.0515 18.8682H35.5866C35.9296 18.8678 36.2584 18.7314 36.5009 18.4889C36.7434 18.2463 36.8798 17.9175 36.8802 17.5745V14.948C36.8798 14.605 36.7434 14.2762 36.5009 14.0336C36.2584 13.7911 35.9296 13.6547 35.5866 13.6543H34.5227C34.4395 13.456 34.3343 13.2677 34.2091 13.0929L33.6741 9.42505C33.2949 6.82794 31.9935 4.4541 30.0079 2.73762C28.0223 1.02114 25.4853 0.0767105 22.8606 0.0770264H22.3758C19.7145 0.0805393 17.1457 1.05359 15.1499 2.81411C13.1542 4.57463 11.8683 7.002 11.5328 9.64204L11.0295 13.6543H9.97712C9.63412 13.6547 9.30527 13.7911 9.06274 14.0336C8.8202 14.2761 8.68378 14.605 8.68342 14.948V17.5745C8.68378 17.9175 8.8202 18.2463 9.06274 18.4889C9.30527 18.7314 9.63412 18.8678 9.97712 18.8682H10.3755L9.54451 25.4927C9.45777 26.2078 9.61634 26.9312 9.99427 27.5444C10.3722 28.1577 10.9471 28.6245 11.6249 28.8684C13.2234 29.4336 14.8623 29.8773 16.5276 30.1955L15.1095 30.4744L15.0999 30.4763L9.02339 31.6713C8.07803 31.8586 7.20644 32.3137 6.51243 32.9824C5.81842 33.6511 5.33125 34.5051 5.10893 35.4429C5.10618 35.4542 5.10381 35.4655 5.1018 35.4769L4.18253 40.5998C4.08718 41.0163 4.08694 41.4489 4.18182 41.8655C4.27669 42.2821 4.46425 42.6719 4.73053 43.006C4.99682 43.3401 5.33499 43.6099 5.71991 43.7954C6.10483 43.9808 6.52659 44.0771 6.95384 44.077H38.8074C39.2177 44.077 39.6232 43.9883 39.996 43.8168C40.3687 43.6453 40.7 43.3952 40.9669 43.0836C41.2339 42.7721 41.4303 42.4064 41.5426 42.0118C41.6549 41.6171 41.6805 41.2029 41.6176 40.7974ZM34.743 14.9453L35.5912 14.9479L35.5866 17.5791H34.743V14.9453ZM33.8857 19.8066L34.7349 25.6292C34.7965 26.0601 34.7068 26.499 34.4811 26.8712C34.2554 27.2434 33.9076 27.5259 33.497 27.6704C31.7106 28.2984 29.8727 28.7688 28.0042 29.0762V26.591L28.4704 26.2993C29.1498 25.8761 29.7231 25.3029 30.1465 24.6237H30.2517C30.9959 24.6229 31.7094 24.327 32.2356 23.8009C32.7619 23.2748 33.058 22.5613 33.059 21.8172V20.376C33.3658 20.2361 33.6456 20.0434 33.8857 19.8066ZM25.2842 26.7723C24.5327 27.2382 23.6661 27.4851 22.7819 27.4851C21.8977 27.4851 21.0311 27.2382 20.2796 26.7723L18.9433 25.9363C18.9412 25.9348 18.9388 25.9336 18.9365 25.9321L17.7764 25.2063C17.2068 24.8527 16.7372 24.3593 16.4122 23.7729C16.0873 23.1866 15.9178 22.5268 15.92 21.8564V13.1344C16.5534 13.0474 17.1597 12.8211 17.6951 12.4716C18.2306 12.1221 18.6818 11.6581 19.0163 11.1132C19.426 11.5182 19.8701 11.8868 20.3437 12.2149L20.4688 12.3001C23.4017 14.2879 26.5679 13.8246 29.6435 13.2975V21.8566C29.6441 22.3629 29.5477 22.8647 29.3594 23.3347H25.0378C24.9065 22.9631 24.6633 22.6414 24.3417 22.4136C24.0201 22.1858 23.6358 22.0633 23.2417 22.0628H22.1472C21.6423 22.0634 21.1582 22.2642 20.8012 22.6212C20.4442 22.9783 20.2434 23.4623 20.2428 23.9672V23.9913C20.2434 24.4962 20.4442 24.9802 20.8012 25.3372C21.1582 25.6942 21.6423 25.8951 22.1472 25.8957H23.2417C23.6358 25.8952 24.0201 25.7726 24.3417 25.5449C24.6633 25.3171 24.9064 24.9953 25.0378 24.6238H28.5124C28.2941 24.8457 28.0506 25.0412 27.7869 25.2064L25.2842 26.7723ZM26.7152 27.3976V30.3322C26.7149 30.4055 26.698 30.4777 26.6657 30.5435C26.6335 30.6094 26.5867 30.667 26.5289 30.7121L22.8886 33.5455L19.4049 30.7202C19.3066 30.641 19.2436 30.5261 19.2296 30.4007C19.2292 30.3959 19.2292 30.3912 19.2288 30.3866C19.2278 30.3734 19.2266 30.3602 19.2266 30.3468V27.6342L19.5961 27.8653C20.5529 28.4585 21.6562 28.7728 22.782 28.7728C23.9077 28.7727 25.011 28.4584 25.9678 27.8652L26.7152 27.3976ZM23.8571 23.9671V23.9912C23.8569 24.1543 23.792 24.3107 23.6766 24.4261C23.5613 24.5414 23.4049 24.6063 23.2417 24.6065H22.1472C21.984 24.6063 21.8276 24.5414 21.7123 24.4261C21.5969 24.3107 21.532 24.1543 21.5318 23.9912V23.9671C21.532 23.804 21.5969 23.6476 21.7123 23.5322C21.8276 23.4168 21.984 23.3519 22.1472 23.3517H23.2417C23.4049 23.3519 23.5613 23.4168 23.6766 23.5322C23.792 23.6476 23.8569 23.804 23.8571 23.9671ZM30.7458 23.2504C30.8699 22.7962 30.9327 22.3274 30.9326 21.8565V20.6336H31.7699V21.8172C31.7694 22.1329 31.6704 22.4406 31.4869 22.6975C31.3033 22.9543 31.0443 23.1477 30.7458 23.2505V23.2504ZM33.454 14.756V17.7665C33.4535 18.1849 33.2871 18.586 32.9913 18.8818C32.6955 19.1777 32.2943 19.3441 31.876 19.3446H30.9326V13.1779H31.876C32.2943 13.1784 32.6955 13.3448 32.9913 13.6407C33.2871 13.9365 33.4535 14.3376 33.454 14.756ZM12.8118 9.80249C13.1077 7.47388 14.242 5.33289 16.0023 3.78009C17.7627 2.2273 20.0285 1.36911 22.3758 1.36609H22.8607C25.1757 1.36576 27.4135 2.19871 29.1648 3.71265C30.9161 5.22658 32.064 7.32032 32.3986 9.61102L32.7509 12.0261C32.4682 11.9351 32.173 11.8888 31.8761 11.8889H30.3206C30.3174 11.8888 30.3143 11.8891 30.3111 11.8889H30.2881L30.2855 11.8891C30.2654 11.8891 30.2454 11.8902 30.2254 11.8921L30.2168 11.8931C30.2044 11.8945 30.1921 11.8952 30.1798 11.8974L29.7386 11.9731C26.6821 12.4996 23.795 12.997 21.1921 11.233L21.0748 11.1531C20.4262 10.7037 19.8424 10.1673 19.3399 9.55894C19.2664 9.46986 19.1703 9.40217 19.0616 9.36297C18.953 9.32376 18.8358 9.31448 18.7223 9.33609C18.6088 9.3577 18.5032 9.4094 18.4166 9.4858C18.3299 9.5622 18.2654 9.66047 18.2298 9.77035C18.029 10.3919 17.6346 10.9329 17.1042 11.3142C16.5738 11.6954 15.9353 11.8968 15.2821 11.889L15.2793 11.8891L15.2755 11.8889H13.6876C13.2846 11.889 12.8861 11.9747 12.5186 12.1403L12.8118 9.80249ZM12.1097 14.7559C12.1102 14.3376 12.2766 13.9365 12.5724 13.6407C12.8682 13.3449 13.2692 13.1785 13.6876 13.178H14.6309V19.3446H13.6876C13.2692 19.3441 12.8681 19.1777 12.5723 18.8818C12.2764 18.586 12.11 18.1849 12.1096 17.7665L12.1097 14.7559ZM9.97239 17.5745L9.97704 14.9434H10.8205V17.5772L9.97239 17.5745ZM12.0548 27.6533C11.6534 27.5086 11.313 27.2319 11.0893 26.8686C10.8656 26.5052 10.7719 26.0767 10.8234 25.6531L11.5707 19.6958C11.8386 19.9911 12.1654 20.2271 12.5299 20.3886C12.8945 20.5502 13.2888 20.6336 13.6876 20.6336H14.6309V21.8565C14.6281 22.7456 14.8528 23.6206 15.2837 24.3982C15.7147 25.1759 16.3375 25.8303 17.0928 26.2992L17.9376 26.8277V29.1308C15.9347 28.8235 13.9652 28.3288 12.0548 27.6533ZM18.1508 31.1901C18.2618 31.3945 18.4121 31.5751 18.5929 31.7214L22.1567 34.6115C22.3597 34.7777 22.6134 34.8696 22.8757 34.8721C23.138 34.8747 23.3934 34.7877 23.5996 34.6255L27.3204 31.7296C27.4988 31.5903 27.6487 31.4181 27.762 31.2222L29.9942 31.642C29.9112 31.8944 29.7556 32.1167 29.5468 32.2811L22.9156 37.4421C22.8885 37.4633 22.8549 37.4746 22.8205 37.4743C22.786 37.4739 22.7527 37.4618 22.726 37.4401L16.3735 32.2879C16.163 32.1173 16.0097 31.8863 15.9342 31.626L18.1508 31.1901ZM39.9908 42.2418C39.8449 42.4132 39.6635 42.5508 39.4592 42.6451C39.2549 42.7394 39.0325 42.7881 38.8074 42.788H6.95384C6.71947 42.788 6.48814 42.735 6.27715 42.633C6.06616 42.5309 5.881 42.3825 5.73551 42.1987C5.59002 42.015 5.48799 41.8007 5.43705 41.5719C5.3861 41.3432 5.38757 41.1059 5.44134 40.8777C5.44398 40.8665 5.4463 40.8551 5.4483 40.8435L6.36732 35.7224C6.53496 35.029 6.89759 34.3982 7.41236 33.9045C7.92712 33.4107 8.57249 33.0746 9.27218 32.936L14.6653 31.8755C14.8009 32.4325 15.116 32.9294 15.562 33.2896L21.9144 38.4415C22.167 38.6477 22.4822 38.7617 22.8082 38.7649C23.1341 38.768 23.4515 38.6601 23.708 38.4589L30.3392 33.2979C30.7977 32.9421 31.1248 32.444 31.2691 31.8819L36.7458 32.912C37.4978 33.0551 38.1879 33.4255 38.7227 33.9733C39.2576 34.521 39.6115 35.2196 39.7367 35.9748L40.3391 40.9635C40.3401 40.9717 40.3413 40.9798 40.3426 40.9881C40.3783 41.2101 40.3653 41.4372 40.3046 41.6537C40.2438 41.8701 40.1367 42.0708 39.9907 42.2418H39.9908Z" fill="#F4F4F4"/>
</g>
<defs>
<clipPath id="clip0_1_23812">
<rect width="44" height="44" fill="white" transform="translate(0.882568 0.0769043)"/>
</clipPath>
</defs>
</svg>
