<svg width="56" height="58" viewBox="0 0 56 58" fill="none" xmlns="http://www.w3.org/2000/svg">
<path d="M55.6602 0.0769043H8.27381C3.70431 0.0769043 -3.8147e-06 3.78121 -3.8147e-06 8.35071V48.9676C-3.8147e-06 53.5371 3.70431 57.2414 8.2738 57.2414H55.6602V0.0769043Z" fill="#A95210"/>
<path d="M18.9998 26.3062C20.9471 26.3062 22.5257 24.7276 22.5257 22.7803C22.5257 20.833 20.9471 19.2544 18.9998 19.2544C17.0525 19.2544 15.4739 20.833 15.4739 22.7803C15.4739 24.7276 17.0525 26.3062 18.9998 26.3062Z" stroke="#FCFCFC" stroke-width="0.752353" stroke-linecap="round" stroke-linejoin="round"/>
<path d="M38.979 26.3062C40.9264 26.3062 42.505 24.7276 42.505 22.7803C42.505 20.833 40.9264 19.2544 38.979 19.2544C37.0317 19.2544 35.4531 20.833 35.4531 22.7803C35.4531 24.7276 37.0317 26.3062 38.979 26.3062Z" stroke="#FCFCFC" stroke-width="0.752353" stroke-linecap="round" stroke-linejoin="round"/>
<path d="M17.8722 39.2341V43.0361C17.8722 43.6908 17.3457 44.2184 16.6911 44.2184C16.5357 44.2189 16.3817 44.1886 16.2381 44.1293C16.0944 44.0701 15.9639 43.9831 15.854 43.8732C15.7442 43.7633 15.6571 43.6328 15.5978 43.4891C15.5386 43.3455 15.5083 43.1915 15.5088 43.0361V39.2341M22.538 39.2341V43.0361C22.538 43.6908 22.0115 44.2184 21.3569 44.2184C21.2016 44.2187 21.0478 44.1884 20.9043 44.129C20.7607 44.0697 20.6303 43.9826 20.5206 43.8728C20.4108 43.7629 20.3239 43.6324 20.2647 43.4888C20.2055 43.3453 20.1753 43.1914 20.1757 43.0361V39.2341" stroke="#FCFCFC" stroke-width="0.752164" stroke-linecap="round" stroke-linejoin="round"/>
<path d="M38.9809 40.4187V43.606C38.9809 44.2607 38.4543 44.7872 37.7997 44.7872C37.6444 44.7876 37.4906 44.7574 37.347 44.6982C37.2034 44.639 37.073 44.552 36.9631 44.4423C36.8532 44.3325 36.7661 44.2022 36.7068 44.0587C36.6475 43.9151 36.6171 43.7613 36.6174 43.606V40.4187M41.3654 40.3999V43.5872C41.3654 44.2419 40.8378 44.7684 40.1832 44.7684C40.028 44.7687 39.8743 44.7383 39.7308 44.6791C39.5874 44.6198 39.457 44.5328 39.3473 44.4231C39.2375 44.3133 39.1506 44.183 39.0913 44.0396C39.0321 43.8961 39.0017 43.7424 39.002 43.5872V40.3999" stroke="#FCFCFC" stroke-width="0.752164" stroke-linecap="round" stroke-linejoin="round"/>
<path d="M26.9579 12.8061C25.4231 12.8061 24.1785 13.8697 24.1785 15.8053C24.1785 17.741 26.7722 19.605 28.997 21.6041C31.2206 19.605 33.8273 17.7645 33.8273 15.8053C33.8273 13.8462 32.5815 12.8049 31.0467 12.8049C30.2381 12.8049 29.5047 13.4102 28.997 14.0049C28.4893 13.4137 27.7653 12.8061 26.9579 12.8061Z" stroke="#FCFCFC" stroke-width="0.752164" stroke-linecap="round" stroke-linejoin="round"/>
<path d="M33.1035 30.1059V34.1041C33.1035 34.3415 33.2798 34.5331 33.4972 34.5331H35.0603C35.2777 34.5331 35.454 34.3415 35.454 34.1041V27.5862" stroke="#FCFCFC" stroke-width="0.752164" stroke-linecap="round" stroke-linejoin="round"/>
<path d="M33.1128 30.1669C33.1761 29.4341 33.5119 28.7516 34.0539 28.2544C34.596 27.7572 35.3048 27.4814 36.0403 27.4814" stroke="#FCFCFC" stroke-width="0.751819" stroke-linecap="round" stroke-linejoin="round"/>
<path d="M44.8561 30.133V34.1042C44.8561 34.3416 44.6798 34.5331 44.4612 34.5331H42.8981C42.6807 34.5331 42.5056 34.3416 42.5056 34.1042V27.6321" stroke="#FCFCFC" stroke-width="0.752164" stroke-linecap="round" stroke-linejoin="round"/>
<path d="M44.8443 30.1669C44.7811 29.4341 44.4453 28.7516 43.9032 28.2544C43.3612 27.7572 42.6523 27.4814 41.9167 27.4814" stroke="#FCFCFC" stroke-width="0.751819" stroke-linecap="round" stroke-linejoin="round"/>
<path d="M35.4517 27.5627V39.2341C35.4517 39.8888 35.9723 40.4094 36.6269 40.4094H41.3279C41.4827 40.4108 41.6361 40.3814 41.7794 40.3228C41.9226 40.2642 42.0527 40.1777 42.1621 40.0683C42.2715 39.9589 42.3581 39.8288 42.4166 39.6855C42.4752 39.5423 42.5046 39.3889 42.5032 39.2341L42.4115 27.6708M41.932 27.4828H36.0229M35.454 35.7519H42.6466M38.9857 39.9593V38.6759" stroke="#FCFCFC" stroke-width="0.752164"/>
<path d="M17.2374 27.4814C13.1334 38.0494 17.2398 27.4814 13.124 38.0588C13.124 38.7134 13.5918 39.234 14.1888 39.234H23.813C24.4088 39.234 25.0634 38.7522 24.8777 38.0588C20.7808 27.5249 24.9142 38.0588 20.7643 27.4814H17.2374V27.4814Z" stroke="#FCFCFC" stroke-width="0.752164" stroke-linecap="round" stroke-linejoin="round"/>
<path d="M13.7106 26.3063C12.737 26.3063 11.9477 25.5169 11.9477 24.5433C11.9477 23.5696 12.737 22.7803 13.7106 22.7803C14.6843 22.7803 15.4736 23.5696 15.4736 24.5433C15.4736 25.5169 14.6843 26.3063 13.7106 26.3063Z" stroke="#FCFCFC" stroke-width="0.752132"/>
</svg>
