<svg width="53" height="53" viewBox="0 0 53 53" fill="none" xmlns="http://www.w3.org/2000/svg">
<path d="M26.4556 48.3627C14.1186 48.3627 4.08179 38.3259 4.08179 25.9889C4.08179 13.6519 14.1186 3.61511 26.4556 3.61511C38.7926 3.61511 48.8286 13.6519 48.8286 25.9889C48.8286 38.3259 38.7918 48.3627 26.4556 48.3627ZM26.4556 5.12636C14.9514 5.12636 5.59222 14.4856 5.59222 25.9889C5.59222 37.4931 14.9514 46.8515 26.4556 46.8515C37.959 46.8515 47.3182 37.4923 47.3182 25.9889C47.3182 14.4856 37.959 5.12636 26.4556 5.12636Z" fill="#F4F4F4"/>
<path d="M26.4588 8.91223C22.1801 8.91223 18.6978 12.3881 18.6978 16.6667V20.4985H20.3152V16.6667C20.3152 13.8189 22.9993 10.7096 25.8471 10.7096C28.6131 10.7096 30.0024 12.0481 30.9707 13.0164C31.939 13.9846 32.4837 15.2974 32.4854 16.6667V20.4985H34.2133V16.6667C34.2133 12.3881 30.7374 8.91223 26.4588 8.91223Z" fill="#F4F4F4"/>
<path d="M26.4115 30.2616C27.5957 30.2616 28.5557 29.3017 28.5557 28.1175C28.5557 26.9333 27.5957 25.9733 26.4115 25.9733C25.2273 25.9733 24.2673 26.9333 24.2673 28.1175C24.2673 29.3017 25.2273 30.2616 26.4115 30.2616Z" fill="#F4F4F4"/>
<path d="M28.0653 32.8461H24.7551L25.5798 29.1078H27.2406L28.0653 32.8461Z" fill="#F4F4F4"/>
<path d="M16.4398 20.0621V36.5568L15.0244 36.0753V21.3865C15.0244 20.6512 15.6135 20.0621 16.3488 20.0621H16.4398ZM37.7712 21.3865V35.537L35.9748 36.0753V20.0622L36.4525 20.0621C37.1821 20.0621 37.7712 20.6512 37.7712 21.3865ZM16.4398 35.537V38.5587H16.3488C15.6135 38.5587 15.0244 37.9696 15.0244 37.2392V35.537L16.4398 35.537ZM37.7712 35.537V37.2392C37.7712 37.9696 37.1821 38.5587 36.4517 38.5587L35.9748 38.5588V35.5371L37.7712 35.537Z" fill="#F4F4F4"/>
<path d="M16.2861 20.0621H36.0269V21.773H16.2861V20.0621Z" fill="#F4F4F4"/>
<path d="M16.2861 36.7088L36.0269 36.7087V38.599H16.2861V36.7088Z" fill="#F4F4F4"/>
</svg>
