<svg width="44" height="44" viewBox="0 0 44 44" fill="none" xmlns="http://www.w3.org/2000/svg">
<g clip-path="url(#clip0_1_23839)">
<path d="M30.5621 42.0941H6.01416V42.9414C6.01416 43.1099 6.27453 43.2716 6.73798 43.3908C7.20143 43.5099 7.83 43.5769 8.48542 43.5769H33.4452" fill="#F4F4F4"/>
<mask id="path-2-outside-1_1_23839" maskUnits="userSpaceOnUse" x="-0.163574" y="-0.422974" width="45" height="45" fill="black">
<rect fill="white" x="-0.163574" y="-0.422974" width="45" height="45"/>
<path d="M9.49444 34.6304L6.79829 37.3267L6.01312 36.5414C5.95463 36.4829 5.88518 36.4365 5.80875 36.4049C5.73232 36.3732 5.65041 36.3569 5.56768 36.3569C5.48496 36.3569 5.40305 36.3732 5.32662 36.4049C5.25019 36.4365 5.18075 36.4829 5.12226 36.5414C5.06377 36.5999 5.01737 36.6694 4.98572 36.7458C4.95406 36.8222 4.93777 36.9042 4.93778 36.9869C4.93778 37.0696 4.95408 37.1515 4.98574 37.2279C5.0174 37.3044 5.0638 37.3738 5.1223 37.4323L6.35284 38.6628C6.47099 38.7809 6.6312 38.8473 6.79825 38.8473C6.9653 38.8473 7.12551 38.7809 7.24366 38.6628L10.3853 35.5212C10.5035 35.4031 10.5698 35.2429 10.5698 35.0758C10.5698 34.9087 10.5034 34.7485 10.3853 34.6304C10.2672 34.5122 10.1069 34.4459 9.93987 34.4459C9.7728 34.4459 9.61257 34.5123 9.49444 34.6304ZM13.694 9.89929H31.0158C31.5168 9.89871 31.9971 9.69944 32.3513 9.34519C32.7056 8.99094 32.9048 8.51063 32.9054 8.00964V6.24597C32.9048 5.74498 32.7056 5.26468 32.3513 4.91043C31.9971 4.55617 31.5168 4.3569 31.0158 4.35632H13.694C13.193 4.3569 12.7127 4.55617 12.3585 4.91043C12.0042 5.26468 11.8049 5.74498 11.8043 6.24597V8.00964C11.8049 8.51063 12.0042 8.99094 12.3585 9.34519C12.7127 9.69944 13.193 9.89871 13.694 9.89929ZM13.0641 6.24597C13.0643 6.07897 13.1307 5.91886 13.2488 5.80077C13.3669 5.68269 13.527 5.61627 13.694 5.61609H31.0158C31.1828 5.61627 31.3429 5.68269 31.461 5.80077C31.5791 5.91886 31.6455 6.07897 31.6457 6.24597V8.00964C31.6455 8.17664 31.5791 8.33675 31.461 8.45484C31.3429 8.57293 31.1828 8.63935 31.0158 8.63953H13.694C13.527 8.63935 13.3669 8.57293 13.2488 8.45484C13.1307 8.33675 13.0643 8.17664 13.0641 8.00964V6.24597ZM32.9738 13.0487C32.9738 12.8816 32.9074 12.7214 32.7893 12.6033C32.6712 12.4852 32.511 12.4188 32.3439 12.4188H12.2925C12.1254 12.4188 11.9652 12.4852 11.8471 12.6033C11.7289 12.7214 11.6626 12.8816 11.6626 13.0487C11.6626 13.2158 11.7289 13.376 11.8471 13.4941C11.9652 13.6122 12.1254 13.6786 12.2925 13.6786H32.3439C32.511 13.6786 32.6712 13.6122 32.7893 13.4941C32.9074 13.376 32.9738 13.2158 32.9738 13.0487ZM42.8423 9.92919C42.6247 9.80978 42.3858 9.73442 42.139 9.70741C41.8923 9.6804 41.6427 9.70228 41.4045 9.77179C41.1662 9.8413 40.944 9.95708 40.7505 10.1125C40.5571 10.2679 40.3961 10.46 40.2769 10.6777L39.5907 11.9298L36.7527 17.1086V7.7157H41.4455C41.6125 7.7157 41.7727 7.64933 41.8909 7.53121C42.009 7.41308 42.0753 7.25287 42.0753 7.08581V3.86804C42.0744 2.99551 41.7273 2.15899 41.1103 1.54202C40.4934 0.925049 39.6569 0.578004 38.7843 0.577026C38.7528 0.577026 38.7215 0.578538 38.6901 0.579378C38.6745 0.578286 38.6588 0.577026 38.6427 0.577026H11.0119C10.1769 0.57796 9.37636 0.910072 8.78593 1.5005C8.19551 2.09093 7.86339 2.89145 7.86246 3.72644L7.86212 29.7171C6.53354 29.6977 5.22743 30.061 4.09965 30.7636C2.97187 31.4661 2.07003 32.4784 1.50174 33.6794C0.933451 34.8805 0.722709 36.2197 0.89466 37.5372C1.06661 38.8548 1.61399 40.0951 2.47149 41.1101C3.329 42.125 4.46041 42.8719 5.73073 43.2615C7.00105 43.6511 8.35664 43.667 9.63576 43.3073C10.9149 42.9476 12.0635 42.2275 12.9446 41.2329C13.8257 40.2383 14.402 39.0113 14.6048 37.6981H30.2024V40.3016C30.2024 41.1703 30.5475 42.0034 31.1617 42.6177C31.776 43.2319 32.6091 43.577 33.4778 43.577C34.3465 43.577 35.1796 43.2319 35.7938 42.6177C36.4081 42.0034 36.7532 41.1703 36.7532 40.3016L36.7527 24.9726L42.9044 13.7463L43.59 12.495C43.7095 12.2775 43.785 12.0385 43.8121 11.7918C43.8391 11.5451 43.8174 11.2954 43.7479 11.0572C43.6785 10.8189 43.5627 10.5966 43.4074 10.4031C43.252 10.2096 43.0599 10.0485 42.8423 9.92919ZM36.7531 3.86804C36.7531 3.32932 36.9671 2.81266 37.348 2.43173C37.729 2.0508 38.2456 1.83679 38.7843 1.83679C39.323 1.83679 39.8397 2.0508 40.2206 2.43173C40.6016 2.81266 40.8156 3.32932 40.8156 3.86804V6.45593H36.7531V3.86804ZM12.7593 39.3081C12.3216 40.1312 11.6876 40.8337 10.9136 41.3533C10.1396 41.8729 9.24939 42.1936 8.32183 42.287C7.39427 42.3804 6.45799 42.2436 5.59593 41.8887C4.73387 41.5338 3.97263 40.9718 3.37965 40.2524C2.78667 39.5331 2.38024 38.6786 2.19636 37.7647C2.01249 36.8507 2.05684 35.9056 2.3255 35.0129C2.59416 34.1202 3.07883 33.3075 3.73657 32.6468C4.39432 31.9862 5.20485 31.4979 6.09635 31.2254C6.808 31.0058 7.55612 30.9295 8.29744 31.0009C9.03876 31.0723 9.75857 31.2899 10.4152 31.6412C11.0726 31.9907 11.6546 32.4663 12.1282 33.0407C12.6017 33.6152 12.9575 34.2773 13.1751 34.9892C13.3928 35.7011 13.4681 36.449 13.3967 37.19C13.3254 37.931 13.1088 38.6508 12.7593 39.3081ZM33.4777 42.3173C32.9433 42.3167 32.431 42.1041 32.0531 41.7262C31.6752 41.3484 31.4627 40.836 31.4621 40.3016V37.0682C31.4621 36.9012 31.3957 36.741 31.2776 36.6228C31.1595 36.5047 30.9992 36.4384 30.8322 36.4384C30.8181 36.4384 30.8041 36.4395 30.7902 36.4404C30.7762 36.4396 30.7625 36.4384 30.7482 36.4384H14.6804C14.6611 35.8219 14.56 35.2107 14.3797 34.6209C14.116 33.7497 13.6821 32.9394 13.1031 32.2371C12.524 31.5347 11.8115 30.9541 11.0066 30.529C10.4143 30.2135 9.7795 29.9854 9.12189 29.8518L9.12223 3.72644C9.1228 3.22545 9.32208 2.74515 9.67633 2.3909C10.0306 2.03664 10.5109 1.83737 11.0119 1.83679H36.1979C35.741 2.41525 35.4928 3.13095 35.4933 3.86804V7.07767L35.493 7.08581V19.4074L29.9041 29.6059C29.8984 29.6161 29.894 29.6265 29.889 29.6369C29.8857 29.6439 29.882 29.6507 29.8789 29.658C29.8601 29.701 29.8462 29.7461 29.8376 29.7922L29.8366 29.7962L29.2103 33.2476C27.986 33.355 26.7529 33.2977 25.5439 33.0773C24.975 32.9669 24.4127 32.8251 23.8594 32.6528C23.0915 32.4249 22.428 32.2285 21.4858 32.2597C20.1217 32.3054 18.7798 32.8128 17.4977 33.7681C17.3658 33.8686 17.2789 34.0171 17.2559 34.1814C17.2328 34.3456 17.2754 34.5123 17.3745 34.6453C17.4736 34.7783 17.6211 34.8668 17.7851 34.8917C17.9491 34.9166 18.1162 34.8758 18.2503 34.7782C19.3226 33.9795 20.4253 33.5557 21.528 33.5187C22.2664 33.4935 22.784 33.6478 23.5011 33.8605C24.0959 34.0457 24.7006 34.1976 25.3123 34.3156C26.7984 34.5859 28.3165 34.6326 29.8164 34.4542C29.8241 34.4533 29.8315 34.4515 29.8391 34.4504C29.849 34.4489 29.859 34.4474 29.8689 34.4455C29.8796 34.4432 29.8903 34.4407 29.901 34.4379C29.9405 34.4279 29.979 34.414 30.0159 34.3965C30.023 34.3932 30.03 34.3896 30.037 34.3859C30.0831 34.3619 30.126 34.3322 30.1647 34.2975C30.1675 34.295 30.1706 34.2927 30.1734 34.2901L33.0944 31.5816L33.0998 31.576C33.1134 31.563 33.1265 31.5493 33.1389 31.535C33.1417 31.5319 33.1448 31.529 33.1475 31.5258C33.1622 31.5083 33.1759 31.49 33.1886 31.4711C33.1926 31.4652 33.1959 31.459 33.1997 31.453C33.206 31.4429 33.2127 31.433 33.2185 31.4224L35.493 27.2715L35.4933 40.3016C35.4927 40.836 35.2802 41.3484 34.9023 41.7262C34.5244 42.1041 34.0121 42.3167 33.4777 42.3173ZM30.9201 30.8811L31.4877 31.1922L31.597 31.2521L30.7023 32.0817L30.9201 30.8811ZM35.57 24.5096L35.5683 24.5127L32.4164 30.2646L31.864 29.9618L31.3115 29.659L40.3927 13.0877L41.497 13.6931L35.57 24.5096ZM42.4858 11.8886L42.1024 12.5883L41.8544 12.4524L40.9982 11.9829L41.3816 11.2831C41.4489 11.1605 41.5551 11.0638 41.6835 11.0083C41.8118 10.9527 41.955 10.9414 42.0904 10.9762C42.2259 11.011 42.3459 11.0899 42.4316 11.2004C42.5173 11.311 42.5637 11.4469 42.5636 11.5867C42.5639 11.6923 42.5371 11.7963 42.4858 11.8886Z"/>
</mask>
<path d="M9.49444 34.6304L6.79829 37.3267L6.01312 36.5414C5.95463 36.4829 5.88518 36.4365 5.80875 36.4049C5.73232 36.3732 5.65041 36.3569 5.56768 36.3569C5.48496 36.3569 5.40305 36.3732 5.32662 36.4049C5.25019 36.4365 5.18075 36.4829 5.12226 36.5414C5.06377 36.5999 5.01737 36.6694 4.98572 36.7458C4.95406 36.8222 4.93777 36.9042 4.93778 36.9869C4.93778 37.0696 4.95408 37.1515 4.98574 37.2279C5.0174 37.3044 5.0638 37.3738 5.1223 37.4323L6.35284 38.6628C6.47099 38.7809 6.6312 38.8473 6.79825 38.8473C6.9653 38.8473 7.12551 38.7809 7.24366 38.6628L10.3853 35.5212C10.5035 35.4031 10.5698 35.2429 10.5698 35.0758C10.5698 34.9087 10.5034 34.7485 10.3853 34.6304C10.2672 34.5122 10.1069 34.4459 9.93987 34.4459C9.7728 34.4459 9.61257 34.5123 9.49444 34.6304ZM13.694 9.89929H31.0158C31.5168 9.89871 31.9971 9.69944 32.3513 9.34519C32.7056 8.99094 32.9048 8.51063 32.9054 8.00964V6.24597C32.9048 5.74498 32.7056 5.26468 32.3513 4.91043C31.9971 4.55617 31.5168 4.3569 31.0158 4.35632H13.694C13.193 4.3569 12.7127 4.55617 12.3585 4.91043C12.0042 5.26468 11.8049 5.74498 11.8043 6.24597V8.00964C11.8049 8.51063 12.0042 8.99094 12.3585 9.34519C12.7127 9.69944 13.193 9.89871 13.694 9.89929ZM13.0641 6.24597C13.0643 6.07897 13.1307 5.91886 13.2488 5.80077C13.3669 5.68269 13.527 5.61627 13.694 5.61609H31.0158C31.1828 5.61627 31.3429 5.68269 31.461 5.80077C31.5791 5.91886 31.6455 6.07897 31.6457 6.24597V8.00964C31.6455 8.17664 31.5791 8.33675 31.461 8.45484C31.3429 8.57293 31.1828 8.63935 31.0158 8.63953H13.694C13.527 8.63935 13.3669 8.57293 13.2488 8.45484C13.1307 8.33675 13.0643 8.17664 13.0641 8.00964V6.24597ZM32.9738 13.0487C32.9738 12.8816 32.9074 12.7214 32.7893 12.6033C32.6712 12.4852 32.511 12.4188 32.3439 12.4188H12.2925C12.1254 12.4188 11.9652 12.4852 11.8471 12.6033C11.7289 12.7214 11.6626 12.8816 11.6626 13.0487C11.6626 13.2158 11.7289 13.376 11.8471 13.4941C11.9652 13.6122 12.1254 13.6786 12.2925 13.6786H32.3439C32.511 13.6786 32.6712 13.6122 32.7893 13.4941C32.9074 13.376 32.9738 13.2158 32.9738 13.0487ZM42.8423 9.92919C42.6247 9.80978 42.3858 9.73442 42.139 9.70741C41.8923 9.6804 41.6427 9.70228 41.4045 9.77179C41.1662 9.8413 40.944 9.95708 40.7505 10.1125C40.5571 10.2679 40.3961 10.46 40.2769 10.6777L39.5907 11.9298L36.7527 17.1086V7.7157H41.4455C41.6125 7.7157 41.7727 7.64933 41.8909 7.53121C42.009 7.41308 42.0753 7.25287 42.0753 7.08581V3.86804C42.0744 2.99551 41.7273 2.15899 41.1103 1.54202C40.4934 0.925049 39.6569 0.578004 38.7843 0.577026C38.7528 0.577026 38.7215 0.578538 38.6901 0.579378C38.6745 0.578286 38.6588 0.577026 38.6427 0.577026H11.0119C10.1769 0.57796 9.37636 0.910072 8.78593 1.5005C8.19551 2.09093 7.86339 2.89145 7.86246 3.72644L7.86212 29.7171C6.53354 29.6977 5.22743 30.061 4.09965 30.7636C2.97187 31.4661 2.07003 32.4784 1.50174 33.6794C0.933451 34.8805 0.722709 36.2197 0.89466 37.5372C1.06661 38.8548 1.61399 40.0951 2.47149 41.1101C3.329 42.125 4.46041 42.8719 5.73073 43.2615C7.00105 43.6511 8.35664 43.667 9.63576 43.3073C10.9149 42.9476 12.0635 42.2275 12.9446 41.2329C13.8257 40.2383 14.402 39.0113 14.6048 37.6981H30.2024V40.3016C30.2024 41.1703 30.5475 42.0034 31.1617 42.6177C31.776 43.2319 32.6091 43.577 33.4778 43.577C34.3465 43.577 35.1796 43.2319 35.7938 42.6177C36.4081 42.0034 36.7532 41.1703 36.7532 40.3016L36.7527 24.9726L42.9044 13.7463L43.59 12.495C43.7095 12.2775 43.785 12.0385 43.8121 11.7918C43.8391 11.5451 43.8174 11.2954 43.7479 11.0572C43.6785 10.8189 43.5627 10.5966 43.4074 10.4031C43.252 10.2096 43.0599 10.0485 42.8423 9.92919ZM36.7531 3.86804C36.7531 3.32932 36.9671 2.81266 37.348 2.43173C37.729 2.0508 38.2456 1.83679 38.7843 1.83679C39.323 1.83679 39.8397 2.0508 40.2206 2.43173C40.6016 2.81266 40.8156 3.32932 40.8156 3.86804V6.45593H36.7531V3.86804ZM12.7593 39.3081C12.3216 40.1312 11.6876 40.8337 10.9136 41.3533C10.1396 41.8729 9.24939 42.1936 8.32183 42.287C7.39427 42.3804 6.45799 42.2436 5.59593 41.8887C4.73387 41.5338 3.97263 40.9718 3.37965 40.2524C2.78667 39.5331 2.38024 38.6786 2.19636 37.7647C2.01249 36.8507 2.05684 35.9056 2.3255 35.0129C2.59416 34.1202 3.07883 33.3075 3.73657 32.6468C4.39432 31.9862 5.20485 31.4979 6.09635 31.2254C6.808 31.0058 7.55612 30.9295 8.29744 31.0009C9.03876 31.0723 9.75857 31.2899 10.4152 31.6412C11.0726 31.9907 11.6546 32.4663 12.1282 33.0407C12.6017 33.6152 12.9575 34.2773 13.1751 34.9892C13.3928 35.7011 13.4681 36.449 13.3967 37.19C13.3254 37.931 13.1088 38.6508 12.7593 39.3081ZM33.4777 42.3173C32.9433 42.3167 32.431 42.1041 32.0531 41.7262C31.6752 41.3484 31.4627 40.836 31.4621 40.3016V37.0682C31.4621 36.9012 31.3957 36.741 31.2776 36.6228C31.1595 36.5047 30.9992 36.4384 30.8322 36.4384C30.8181 36.4384 30.8041 36.4395 30.7902 36.4404C30.7762 36.4396 30.7625 36.4384 30.7482 36.4384H14.6804C14.6611 35.8219 14.56 35.2107 14.3797 34.6209C14.116 33.7497 13.6821 32.9394 13.1031 32.2371C12.524 31.5347 11.8115 30.9541 11.0066 30.529C10.4143 30.2135 9.7795 29.9854 9.12189 29.8518L9.12223 3.72644C9.1228 3.22545 9.32208 2.74515 9.67633 2.3909C10.0306 2.03664 10.5109 1.83737 11.0119 1.83679H36.1979C35.741 2.41525 35.4928 3.13095 35.4933 3.86804V7.07767L35.493 7.08581V19.4074L29.9041 29.6059C29.8984 29.6161 29.894 29.6265 29.889 29.6369C29.8857 29.6439 29.882 29.6507 29.8789 29.658C29.8601 29.701 29.8462 29.7461 29.8376 29.7922L29.8366 29.7962L29.2103 33.2476C27.986 33.355 26.7529 33.2977 25.5439 33.0773C24.975 32.9669 24.4127 32.8251 23.8594 32.6528C23.0915 32.4249 22.428 32.2285 21.4858 32.2597C20.1217 32.3054 18.7798 32.8128 17.4977 33.7681C17.3658 33.8686 17.2789 34.0171 17.2559 34.1814C17.2328 34.3456 17.2754 34.5123 17.3745 34.6453C17.4736 34.7783 17.6211 34.8668 17.7851 34.8917C17.9491 34.9166 18.1162 34.8758 18.2503 34.7782C19.3226 33.9795 20.4253 33.5557 21.528 33.5187C22.2664 33.4935 22.784 33.6478 23.5011 33.8605C24.0959 34.0457 24.7006 34.1976 25.3123 34.3156C26.7984 34.5859 28.3165 34.6326 29.8164 34.4542C29.8241 34.4533 29.8315 34.4515 29.8391 34.4504C29.849 34.4489 29.859 34.4474 29.8689 34.4455C29.8796 34.4432 29.8903 34.4407 29.901 34.4379C29.9405 34.4279 29.979 34.414 30.0159 34.3965C30.023 34.3932 30.03 34.3896 30.037 34.3859C30.0831 34.3619 30.126 34.3322 30.1647 34.2975C30.1675 34.295 30.1706 34.2927 30.1734 34.2901L33.0944 31.5816L33.0998 31.576C33.1134 31.563 33.1265 31.5493 33.1389 31.535C33.1417 31.5319 33.1448 31.529 33.1475 31.5258C33.1622 31.5083 33.1759 31.49 33.1886 31.4711C33.1926 31.4652 33.1959 31.459 33.1997 31.453C33.206 31.4429 33.2127 31.433 33.2185 31.4224L35.493 27.2715L35.4933 40.3016C35.4927 40.836 35.2802 41.3484 34.9023 41.7262C34.5244 42.1041 34.0121 42.3167 33.4777 42.3173ZM30.9201 30.8811L31.4877 31.1922L31.597 31.2521L30.7023 32.0817L30.9201 30.8811ZM35.57 24.5096L35.5683 24.5127L32.4164 30.2646L31.864 29.9618L31.3115 29.659L40.3927 13.0877L41.497 13.6931L35.57 24.5096ZM42.4858 11.8886L42.1024 12.5883L41.8544 12.4524L40.9982 11.9829L41.3816 11.2831C41.4489 11.1605 41.5551 11.0638 41.6835 11.0083C41.8118 10.9527 41.955 10.9414 42.0904 10.9762C42.2259 11.011 42.3459 11.0899 42.4316 11.2004C42.5173 11.311 42.5637 11.4469 42.5636 11.5867C42.5639 11.6923 42.5371 11.7963 42.4858 11.8886Z" fill="#F4F4F4"/>
<path d="M9.49444 34.6304L6.79829 37.3267L6.01312 36.5414C5.95463 36.4829 5.88518 36.4365 5.80875 36.4049C5.73232 36.3732 5.65041 36.3569 5.56768 36.3569C5.48496 36.3569 5.40305 36.3732 5.32662 36.4049C5.25019 36.4365 5.18075 36.4829 5.12226 36.5414C5.06377 36.5999 5.01737 36.6694 4.98572 36.7458C4.95406 36.8222 4.93777 36.9042 4.93778 36.9869C4.93778 37.0696 4.95408 37.1515 4.98574 37.2279C5.0174 37.3044 5.0638 37.3738 5.1223 37.4323L6.35284 38.6628C6.47099 38.7809 6.6312 38.8473 6.79825 38.8473C6.9653 38.8473 7.12551 38.7809 7.24366 38.6628L10.3853 35.5212C10.5035 35.4031 10.5698 35.2429 10.5698 35.0758C10.5698 34.9087 10.5034 34.7485 10.3853 34.6304C10.2672 34.5122 10.1069 34.4459 9.93987 34.4459C9.7728 34.4459 9.61257 34.5123 9.49444 34.6304ZM13.694 9.89929H31.0158C31.5168 9.89871 31.9971 9.69944 32.3513 9.34519C32.7056 8.99094 32.9048 8.51063 32.9054 8.00964V6.24597C32.9048 5.74498 32.7056 5.26468 32.3513 4.91043C31.9971 4.55617 31.5168 4.3569 31.0158 4.35632H13.694C13.193 4.3569 12.7127 4.55617 12.3585 4.91043C12.0042 5.26468 11.8049 5.74498 11.8043 6.24597V8.00964C11.8049 8.51063 12.0042 8.99094 12.3585 9.34519C12.7127 9.69944 13.193 9.89871 13.694 9.89929ZM13.0641 6.24597C13.0643 6.07897 13.1307 5.91886 13.2488 5.80077C13.3669 5.68269 13.527 5.61627 13.694 5.61609H31.0158C31.1828 5.61627 31.3429 5.68269 31.461 5.80077C31.5791 5.91886 31.6455 6.07897 31.6457 6.24597V8.00964C31.6455 8.17664 31.5791 8.33675 31.461 8.45484C31.3429 8.57293 31.1828 8.63935 31.0158 8.63953H13.694C13.527 8.63935 13.3669 8.57293 13.2488 8.45484C13.1307 8.33675 13.0643 8.17664 13.0641 8.00964V6.24597ZM32.9738 13.0487C32.9738 12.8816 32.9074 12.7214 32.7893 12.6033C32.6712 12.4852 32.511 12.4188 32.3439 12.4188H12.2925C12.1254 12.4188 11.9652 12.4852 11.8471 12.6033C11.7289 12.7214 11.6626 12.8816 11.6626 13.0487C11.6626 13.2158 11.7289 13.376 11.8471 13.4941C11.9652 13.6122 12.1254 13.6786 12.2925 13.6786H32.3439C32.511 13.6786 32.6712 13.6122 32.7893 13.4941C32.9074 13.376 32.9738 13.2158 32.9738 13.0487ZM42.8423 9.92919C42.6247 9.80978 42.3858 9.73442 42.139 9.70741C41.8923 9.6804 41.6427 9.70228 41.4045 9.77179C41.1662 9.8413 40.944 9.95708 40.7505 10.1125C40.5571 10.2679 40.3961 10.46 40.2769 10.6777L39.5907 11.9298L36.7527 17.1086V7.7157H41.4455C41.6125 7.7157 41.7727 7.64933 41.8909 7.53121C42.009 7.41308 42.0753 7.25287 42.0753 7.08581V3.86804C42.0744 2.99551 41.7273 2.15899 41.1103 1.54202C40.4934 0.925049 39.6569 0.578004 38.7843 0.577026C38.7528 0.577026 38.7215 0.578538 38.6901 0.579378C38.6745 0.578286 38.6588 0.577026 38.6427 0.577026H11.0119C10.1769 0.57796 9.37636 0.910072 8.78593 1.5005C8.19551 2.09093 7.86339 2.89145 7.86246 3.72644L7.86212 29.7171C6.53354 29.6977 5.22743 30.061 4.09965 30.7636C2.97187 31.4661 2.07003 32.4784 1.50174 33.6794C0.933451 34.8805 0.722709 36.2197 0.89466 37.5372C1.06661 38.8548 1.61399 40.0951 2.47149 41.1101C3.329 42.125 4.46041 42.8719 5.73073 43.2615C7.00105 43.6511 8.35664 43.667 9.63576 43.3073C10.9149 42.9476 12.0635 42.2275 12.9446 41.2329C13.8257 40.2383 14.402 39.0113 14.6048 37.6981H30.2024V40.3016C30.2024 41.1703 30.5475 42.0034 31.1617 42.6177C31.776 43.2319 32.6091 43.577 33.4778 43.577C34.3465 43.577 35.1796 43.2319 35.7938 42.6177C36.4081 42.0034 36.7532 41.1703 36.7532 40.3016L36.7527 24.9726L42.9044 13.7463L43.59 12.495C43.7095 12.2775 43.785 12.0385 43.8121 11.7918C43.8391 11.5451 43.8174 11.2954 43.7479 11.0572C43.6785 10.8189 43.5627 10.5966 43.4074 10.4031C43.252 10.2096 43.0599 10.0485 42.8423 9.92919ZM36.7531 3.86804C36.7531 3.32932 36.9671 2.81266 37.348 2.43173C37.729 2.0508 38.2456 1.83679 38.7843 1.83679C39.323 1.83679 39.8397 2.0508 40.2206 2.43173C40.6016 2.81266 40.8156 3.32932 40.8156 3.86804V6.45593H36.7531V3.86804ZM12.7593 39.3081C12.3216 40.1312 11.6876 40.8337 10.9136 41.3533C10.1396 41.8729 9.24939 42.1936 8.32183 42.287C7.39427 42.3804 6.45799 42.2436 5.59593 41.8887C4.73387 41.5338 3.97263 40.9718 3.37965 40.2524C2.78667 39.5331 2.38024 38.6786 2.19636 37.7647C2.01249 36.8507 2.05684 35.9056 2.3255 35.0129C2.59416 34.1202 3.07883 33.3075 3.73657 32.6468C4.39432 31.9862 5.20485 31.4979 6.09635 31.2254C6.808 31.0058 7.55612 30.9295 8.29744 31.0009C9.03876 31.0723 9.75857 31.2899 10.4152 31.6412C11.0726 31.9907 11.6546 32.4663 12.1282 33.0407C12.6017 33.6152 12.9575 34.2773 13.1751 34.9892C13.3928 35.7011 13.4681 36.449 13.3967 37.19C13.3254 37.931 13.1088 38.6508 12.7593 39.3081ZM33.4777 42.3173C32.9433 42.3167 32.431 42.1041 32.0531 41.7262C31.6752 41.3484 31.4627 40.836 31.4621 40.3016V37.0682C31.4621 36.9012 31.3957 36.741 31.2776 36.6228C31.1595 36.5047 30.9992 36.4384 30.8322 36.4384C30.8181 36.4384 30.8041 36.4395 30.7902 36.4404C30.7762 36.4396 30.7625 36.4384 30.7482 36.4384H14.6804C14.6611 35.8219 14.56 35.2107 14.3797 34.6209C14.116 33.7497 13.6821 32.9394 13.1031 32.2371C12.524 31.5347 11.8115 30.9541 11.0066 30.529C10.4143 30.2135 9.7795 29.9854 9.12189 29.8518L9.12223 3.72644C9.1228 3.22545 9.32208 2.74515 9.67633 2.3909C10.0306 2.03664 10.5109 1.83737 11.0119 1.83679H36.1979C35.741 2.41525 35.4928 3.13095 35.4933 3.86804V7.07767L35.493 7.08581V19.4074L29.9041 29.6059C29.8984 29.6161 29.894 29.6265 29.889 29.6369C29.8857 29.6439 29.882 29.6507 29.8789 29.658C29.8601 29.701 29.8462 29.7461 29.8376 29.7922L29.8366 29.7962L29.2103 33.2476C27.986 33.355 26.7529 33.2977 25.5439 33.0773C24.975 32.9669 24.4127 32.8251 23.8594 32.6528C23.0915 32.4249 22.428 32.2285 21.4858 32.2597C20.1217 32.3054 18.7798 32.8128 17.4977 33.7681C17.3658 33.8686 17.2789 34.0171 17.2559 34.1814C17.2328 34.3456 17.2754 34.5123 17.3745 34.6453C17.4736 34.7783 17.6211 34.8668 17.7851 34.8917C17.9491 34.9166 18.1162 34.8758 18.2503 34.7782C19.3226 33.9795 20.4253 33.5557 21.528 33.5187C22.2664 33.4935 22.784 33.6478 23.5011 33.8605C24.0959 34.0457 24.7006 34.1976 25.3123 34.3156C26.7984 34.5859 28.3165 34.6326 29.8164 34.4542C29.8241 34.4533 29.8315 34.4515 29.8391 34.4504C29.849 34.4489 29.859 34.4474 29.8689 34.4455C29.8796 34.4432 29.8903 34.4407 29.901 34.4379C29.9405 34.4279 29.979 34.414 30.0159 34.3965C30.023 34.3932 30.03 34.3896 30.037 34.3859C30.0831 34.3619 30.126 34.3322 30.1647 34.2975C30.1675 34.295 30.1706 34.2927 30.1734 34.2901L33.0944 31.5816L33.0998 31.576C33.1134 31.563 33.1265 31.5493 33.1389 31.535C33.1417 31.5319 33.1448 31.529 33.1475 31.5258C33.1622 31.5083 33.1759 31.49 33.1886 31.4711C33.1926 31.4652 33.1959 31.459 33.1997 31.453C33.206 31.4429 33.2127 31.433 33.2185 31.4224L35.493 27.2715L35.4933 40.3016C35.4927 40.836 35.2802 41.3484 34.9023 41.7262C34.5244 42.1041 34.0121 42.3167 33.4777 42.3173ZM30.9201 30.8811L31.4877 31.1922L31.597 31.2521L30.7023 32.0817L30.9201 30.8811ZM35.57 24.5096L35.5683 24.5127L32.4164 30.2646L31.864 29.9618L31.3115 29.659L40.3927 13.0877L41.497 13.6931L35.57 24.5096ZM42.4858 11.8886L42.1024 12.5883L41.8544 12.4524L40.9982 11.9829L41.3816 11.2831C41.4489 11.1605 41.5551 11.0638 41.6835 11.0083C41.8118 10.9527 41.955 10.9414 42.0904 10.9762C42.2259 11.011 42.3459 11.0899 42.4316 11.2004C42.5173 11.311 42.5637 11.4469 42.5636 11.5867C42.5639 11.6923 42.5371 11.7963 42.4858 11.8886Z" stroke="#F4F4F4" stroke-width="0.149057" mask="url(#path-2-outside-1_1_23839)"/>
</g>
<defs>
<clipPath id="clip0_1_23839">
<rect width="43" height="43" fill="white" transform="translate(0.823486 0.576904)"/>
</clipPath>
</defs>
</svg>
