<svg width="56" height="58" viewBox="0 0 56 58" fill="none" xmlns="http://www.w3.org/2000/svg">
<path d="M55.6602 0.817505H8.27381C3.70431 0.817505 -3.8147e-06 4.52182 -3.8147e-06 9.09131V49.7082C-3.8147e-06 54.2777 3.70431 57.982 8.2738 57.982H55.6602V0.817505Z" fill="#A95210"/>
<g clip-path="url(#clip0_1_22612)">
<path d="M38.6076 18.9724L42.8734 17.8679L27.8587 13.9803L12.7869 17.8682L18.3051 19.2914V26.2887L18.736 26.4486C17.2349 28.3817 16.3376 30.8211 16.3376 33.4699C16.3376 39.7278 21.3437 44.8191 27.4971 44.8191C33.6506 44.8191 38.6568 39.7278 38.6568 33.4699C38.6568 30.803 37.747 28.3486 36.2273 26.4093L36.5522 26.2806V19.5046L37.927 19.1461V21.6387L37.3021 22.8764V25.69H39.3642V22.8314L38.6238 21.6249L38.6076 18.9724ZM27.8582 15.0295L38.8209 17.8679L27.8582 20.7063L16.8538 17.8681L27.8582 15.0295ZM21.6743 27.5391C21.0248 27.4456 20.3542 27.3353 19.6743 27.2084L19.3622 27.1501L19.563 26.9002C19.593 26.8628 19.6244 26.8266 19.655 26.7897L21.6743 27.5391ZM17.2843 32.7965C17.3891 31.1445 17.8886 29.5233 18.7287 28.1072L18.7964 27.9934L18.925 28.0189C19.8458 28.2008 20.746 28.3542 21.6005 28.4748L21.8081 28.5041L21.7564 28.7107C21.4354 29.9944 21.2507 31.3745 21.2076 32.8146L21.202 32.9985H17.2714L17.2843 32.7965ZM18.7957 38.9452L18.728 38.8311C17.8883 37.4153 17.3891 35.8001 17.2843 34.1485L17.2714 33.9517H21.202L21.2076 34.1304C21.2507 35.5702 21.4353 36.948 21.7562 38.2315L21.8079 38.4365L21.6003 38.465C20.7423 38.586 19.8419 38.7389 18.9244 38.9202L18.7957 38.9452ZM23.6679 43.1207C22.0725 42.4615 20.6533 41.3963 19.5637 40.0403L19.3628 39.7902L19.6752 39.7321C20.4494 39.5882 21.2068 39.4654 21.9264 39.3673L22.0782 39.3466L22.1284 39.4937C22.5811 40.82 23.1715 41.9401 23.8834 42.8232L24.3506 43.4028L23.6679 43.1207ZM27.0537 43.8488L26.8118 43.7896C25.3312 43.4136 23.9793 41.8368 23.1106 39.4636L23.0238 39.2326L23.2637 39.2074C24.4561 39.083 25.6699 39.0101 26.8547 38.9906L27.0537 38.9874V43.8488H27.0537ZM27.0537 38.0478L26.8601 38.0507C25.5607 38.0715 24.2271 38.1563 22.9054 38.3029L22.7433 38.3206L22.7006 38.1625C22.3698 36.904 22.1782 35.5556 22.1321 34.1425L22.1251 33.9517H27.0537V38.0478ZM22.1251 32.9985L22.1315 32.8025C22.1776 31.3894 22.3687 30.0352 22.6994 28.7766L22.741 28.6188L22.9008 28.6366C23.6445 28.719 24.3916 28.781 25.1355 28.8237L27.0537 29.5356V32.9985H22.1251V32.9985ZM30.1818 28.8043C30.8181 28.7627 31.4567 28.707 32.0936 28.6364L32.2534 28.6187L32.295 28.7767C32.6258 30.0351 32.817 31.3889 32.8632 32.8025L32.8697 32.9985H27.9286V29.6969L30.1818 28.8043ZM27.9286 33.9517H32.8697L32.8632 34.1425C32.817 35.556 32.6259 36.9076 32.2951 38.1659L32.2535 38.3224L32.0936 38.3039C30.7714 38.1573 29.4272 38.0719 28.1282 38.0511L27.9286 38.0478V33.9517H27.9286ZM28.1765 43.7897L27.9286 43.8488V38.9874L28.1342 38.9906C29.3185 39.0101 30.5314 39.083 31.7243 39.2075L31.9692 39.2327L31.879 39.4637C31.0102 41.8369 29.6571 43.4137 28.1765 43.7897ZM35.4306 40.0404C34.3411 41.3962 32.9221 42.4613 31.3268 43.1204L30.644 43.4026L31.1113 42.8229C31.8232 41.9399 32.4136 40.8199 32.8662 39.4939L32.9164 39.3467L33.0682 39.3675C33.7887 39.4658 34.5461 39.5885 35.3191 39.7322L35.6315 39.7903L35.4306 40.0404ZM37.71 34.1485C37.6052 35.8001 37.1059 37.4184 36.2662 38.8342L36.1986 38.9468L36.0699 38.9206C35.1527 38.7394 34.2525 38.5858 33.3943 38.4647L33.1867 38.4352L33.2384 38.2286C33.5594 36.9453 33.744 35.5706 33.7871 34.1304L33.7926 33.9517H37.7228L37.71 34.1485ZM37.71 32.7965L37.7228 32.9985H33.7926L33.7871 32.8146C33.744 31.3744 33.5594 29.994 33.2384 28.7108L33.1867 28.5044L33.3943 28.4754C34.2524 28.3544 35.1526 28.2012 36.0699 28.02L36.1985 27.9945L36.2662 28.1086C37.1059 29.5245 37.6052 31.1449 37.71 32.7965ZM35.4311 26.9001L35.6317 27.1498L35.3198 27.2082C34.6472 27.3342 34.015 27.4401 33.3972 27.5305L35.3212 26.7683C35.3578 26.8122 35.3952 26.8554 35.4311 26.9001ZM35.5524 25.5858L27.7041 28.6945L19.305 25.5777V19.5493L27.8587 21.7554L35.5524 19.7634V25.5858Z" fill="#FCFCFC"/>
</g>
<defs>
<clipPath id="clip0_1_22612">
<rect width="30.0866" height="30.8387" fill="white" transform="translate(12.7869 13.9803)"/>
</clipPath>
</defs>
</svg>
