<svg width="346" height="92" viewBox="0 0 346 92" fill="none" xmlns="http://www.w3.org/2000/svg">
<path fill-rule="evenodd" clip-rule="evenodd" d="M173 73.7769C192.109 73.7769 207.6 58.286 207.6 39.1769L346 39.1769V74.7793C346 83.7802 338.703 91.0769 329.702 91.0769H174.236H16.2976C7.29668 91.0769 0 83.7802 0 74.7793V39.1769L138.4 39.1769C138.4 58.286 153.891 73.7769 173 73.7769Z" fill="#A95210"/>
<g filter="url(#filter0_d_1_22182)">
<circle cx="173" cy="39.1769" r="33.3643" fill="#833800"/>
<path d="M172.3 61.397C167.94 61.397 163.569 61.3527 159.209 61.4191C157.223 61.4523 155.914 60.0585 155.936 58.1448C155.98 54.8262 155.936 51.5077 155.958 48.1891C155.969 46.6294 156.834 45.5011 158.243 45.1913C158.51 45.136 158.798 45.125 159.064 45.125C167.907 45.125 176.738 45.125 185.581 45.125C187.345 45.125 188.61 46.2643 188.632 48.0121C188.676 51.5187 188.676 55.0143 188.632 58.5209C188.61 60.2355 187.345 61.3859 185.614 61.3859C181.176 61.397 176.738 61.397 172.3 61.397ZM179.534 50.678C180.677 50.678 181.786 50.6448 182.885 50.6891C183.484 50.7112 183.484 50.3904 183.473 49.959C183.462 49.5608 183.528 49.1957 182.907 49.2068C181.387 49.24 179.878 49.2289 178.358 49.2068C177.903 49.1957 177.781 49.3727 177.792 49.7931C177.803 52.1161 177.803 54.4391 177.792 56.762C177.792 57.1603 177.914 57.3151 178.336 57.3151C179.867 57.3041 181.409 57.293 182.94 57.3262C183.528 57.3373 183.484 56.9943 183.484 56.6072C183.484 56.22 183.573 55.8218 182.929 55.8439C181.953 55.8882 180.965 55.866 179.989 55.8439C179.823 55.8439 179.534 55.678 179.523 55.5674C179.467 55.0585 179.501 54.5497 179.501 53.9634C180.266 53.9634 180.965 53.9523 181.664 53.9634C182.019 53.9745 182.186 53.8417 182.152 53.4877C182.141 53.3439 182.141 53.1891 182.152 53.0453C182.197 52.636 182.019 52.4922 181.609 52.5032C180.932 52.5254 180.244 52.5143 179.534 52.5143C179.534 51.8838 179.534 51.3085 179.534 50.678ZM170.325 49.2289C170.381 49.4612 170.403 49.5718 170.436 49.6714C171.102 51.8727 171.768 54.074 172.445 56.2753C172.833 57.5253 172.589 57.2598 173.854 57.3151C174.308 57.3373 174.541 57.2045 174.675 56.7399C175.351 54.4833 176.061 52.2377 176.76 49.9922C176.827 49.7709 176.871 49.5497 176.96 49.2289C176.45 49.2289 176.028 49.1957 175.618 49.251C175.44 49.2732 175.196 49.4612 175.141 49.6271C174.919 50.3019 174.752 51.0099 174.564 51.6957C174.286 52.7023 174.02 53.6979 173.743 54.7045C173.576 54.5386 173.51 54.3727 173.465 54.2068C173.055 52.7134 172.655 51.2201 172.234 49.7378C172.178 49.5497 172.023 49.2842 171.879 49.2621C171.391 49.1957 170.902 49.2289 170.325 49.2289ZM161.128 53.2665C161.128 54.4501 161.128 55.6227 161.128 56.8063C161.128 57.0939 161.15 57.3151 161.527 57.3151C163.158 57.3041 164.778 57.3151 166.409 57.293C166.531 57.293 166.698 57.0828 166.753 56.928C166.808 56.762 166.753 56.5629 166.775 56.3859C166.82 55.9767 166.642 55.8439 166.232 55.8439C165.289 55.866 164.345 55.8328 163.402 55.855C162.981 55.866 162.825 55.7444 162.837 55.3019C162.859 53.6426 162.859 51.9833 162.848 50.324C162.837 49.0962 163.036 49.24 161.716 49.2068C161.283 49.1957 161.128 49.3395 161.139 49.7709C161.139 50.9435 161.128 52.105 161.128 53.2665ZM169.371 53.2665C169.371 52.2488 169.382 51.2422 169.371 50.2245C169.36 49.0851 169.527 49.2621 168.373 49.2179C167.829 49.1957 167.685 49.3838 167.696 49.9037C167.718 52.0054 167.696 54.1072 167.707 56.2089C167.718 57.4479 167.519 57.293 168.828 57.3373C169.283 57.3483 169.394 57.1824 169.382 56.762C169.36 55.5784 169.371 54.4169 169.371 53.2665Z" fill="white" fill-opacity="0.5"/>
<path d="M172.267 43.3109C168.606 43.3109 164.945 43.2998 161.283 43.322C160.851 43.322 160.618 43.1781 160.418 42.8131C155.559 34.2734 160.773 23.7203 170.536 22.3597C178.07 21.3089 185.181 26.9062 185.936 34.4614C186.235 37.437 185.658 40.2136 184.194 42.8131C183.983 43.1781 183.75 43.322 183.317 43.322C179.623 43.3109 175.951 43.3109 172.267 43.3109ZM169.272 34.7158C169.26 36.1207 169.249 37.5145 169.26 38.9193C169.272 39.8707 169.771 40.1583 170.581 39.6715C172.844 38.2777 175.096 36.8729 177.348 35.457C178.014 35.0366 178.025 34.5057 177.348 34.0853C175.085 32.6694 172.811 31.2535 170.525 29.8486C169.782 29.3951 169.272 29.6937 169.26 30.5676C169.272 31.9614 169.272 33.3442 169.272 34.7158Z" fill="white" fill-opacity="0.5"/>
<path d="M153.229 35.9659C153.229 27.05 159.342 19.2735 168.084 17.4372C175.451 15.8886 181.875 17.9018 186.768 23.654C191.949 29.7491 192.692 36.6517 189.63 43.9968C189.608 44.0521 189.586 44.0963 189.564 44.1516C189.386 44.5167 189.098 44.7047 188.709 44.5056C188.321 44.3065 188.31 43.9746 188.487 43.6096C189.741 41.0433 190.318 38.311 190.207 35.4681C190.041 30.9659 188.432 27.0168 185.314 23.7425C182.064 20.3355 178.07 18.4328 173.354 18.1673C168.173 17.8797 163.658 19.5279 159.919 23.112C156.058 26.7956 154.272 31.3752 154.405 36.6738C154.46 39.0521 155.037 41.3419 156.069 43.499C156.257 43.8972 156.357 44.2401 155.914 44.4946C155.547 44.7158 155.248 44.5388 154.982 43.9968C153.828 41.5963 153.229 38.8641 153.229 35.9659Z" fill="white" fill-opacity="0.5"/>
</g>
<defs>
<filter id="filter0_d_1_22182" x="134.693" y="0.869765" width="76.6142" height="76.6143" filterUnits="userSpaceOnUse" color-interpolation-filters="sRGB">
<feFlood flood-opacity="0" result="BackgroundImageFix"/>
<feColorMatrix in="SourceAlpha" type="matrix" values="0 0 0 0 0 0 0 0 0 0 0 0 0 0 0 0 0 0 127 0" result="hardAlpha"/>
<feOffset/>
<feGaussianBlur stdDeviation="2.47143"/>
<feComposite in2="hardAlpha" operator="out"/>
<feColorMatrix type="matrix" values="0 0 0 0 1 0 0 0 0 1 0 0 0 0 1 0 0 0 0.5 0"/>
<feBlend mode="normal" in2="BackgroundImageFix" result="effect1_dropShadow_1_22182"/>
<feBlend mode="normal" in="SourceGraphic" in2="effect1_dropShadow_1_22182" result="shape"/>
</filter>
</defs>
</svg>
