<svg width="57" height="58" viewBox="0 0 57 58" fill="none" xmlns="http://www.w3.org/2000/svg">
<path d="M0.465088 57.5927L47.8514 57.5927C52.4209 57.5927 56.1252 53.8883 56.1252 49.3188L56.1252 8.70196C56.1252 4.13246 52.4209 0.428162 47.8514 0.428162L0.465088 0.428162L0.465088 57.5927Z" fill="#A95210"/>
<path d="M35.6934 29.5745H22.414C21.8783 29.5715 21.3655 29.357 20.9872 28.9777C20.609 28.5984 20.3959 28.085 20.3944 27.5493V14.2755C20.3944 13.7378 20.6076 13.2221 20.9872 12.8414C21.3669 12.4607 21.882 12.2461 22.4196 12.2446H35.6934C36.2311 12.2461 36.7462 12.4607 37.1258 12.8414C37.5054 13.2221 37.7186 13.7378 37.7186 14.2755V27.5493C37.7171 28.086 37.5033 28.6002 37.1238 28.9797C36.7443 29.3592 36.2301 29.573 35.6934 29.5745ZM22.414 13.3729C22.1765 13.3758 21.9499 13.4722 21.783 13.6412C21.6162 13.8101 21.5226 14.038 21.5227 14.2755V27.5493C21.5241 27.7858 21.6183 28.0122 21.785 28.1799C21.9517 28.3477 22.1775 28.4433 22.414 28.4462H35.6934C35.9318 28.4448 36.16 28.349 36.328 28.1799C36.4961 28.0108 36.5904 27.7821 36.5904 27.5437V14.2755C36.5904 14.0371 36.4961 13.8083 36.328 13.6392C36.16 13.4701 35.9318 13.3744 35.6934 13.3729H22.414Z" fill="#FCFCFC"/>
<path d="M35.6934 29.5745H22.414C21.8783 29.5715 21.3655 29.357 20.9872 28.9777C20.609 28.5984 20.3959 28.085 20.3944 27.5493V14.2755C20.3944 13.7378 20.6076 13.2221 20.9872 12.8414C21.3669 12.4607 21.882 12.2461 22.4196 12.2446H35.6934C36.2311 12.2461 36.7462 12.4607 37.1258 12.8414C37.5054 13.2221 37.7186 13.7378 37.7186 14.2755V27.5493C37.7171 28.086 37.5033 28.6002 37.1238 28.9797C36.7443 29.3592 36.2301 29.573 35.6934 29.5745ZM22.414 13.3729C22.1765 13.3758 21.9499 13.4722 21.783 13.6412C21.6162 13.8101 21.5226 14.038 21.5227 14.2755V27.5493C21.5241 27.7858 21.6183 28.0122 21.785 28.1799C21.9517 28.3477 22.1775 28.4433 22.414 28.4462H35.6934C35.9318 28.4448 36.16 28.349 36.328 28.1799C36.4961 28.0108 36.5904 27.7821 36.5904 27.5437V14.2755C36.5904 14.0371 36.4961 13.8083 36.328 13.6392C36.16 13.4701 35.9318 13.3744 35.6934 13.3729H22.414Z" fill="#FCFCFC"/>
<path d="M43.0835 45.7762H29.8097C29.271 45.7762 28.7545 45.5622 28.3736 45.1814C27.9928 44.8005 27.7788 44.284 27.7788 43.7453V30.4715C27.7788 29.9329 27.9928 29.4164 28.3736 29.0355C28.7545 28.6546 29.271 28.4407 29.8097 28.4407H43.0835C43.6211 28.4422 44.1362 28.6568 44.5158 29.0375C44.8955 29.4182 45.1087 29.9339 45.1087 30.4715V43.7453C45.1087 44.283 44.8955 44.7987 44.5158 45.1794C44.1362 45.5601 43.6211 45.7747 43.0835 45.7762ZM29.8097 29.5746C29.5703 29.5746 29.3407 29.6697 29.1714 29.8389C29.0021 30.0082 28.9071 30.2378 28.9071 30.4772V43.7453C28.9071 43.8639 28.9304 43.9812 28.9758 44.0907C29.0211 44.2003 29.0876 44.2998 29.1714 44.3836C29.2552 44.4674 29.3547 44.5339 29.4642 44.5792C29.5738 44.6246 29.6911 44.6479 29.8097 44.6479H43.0835C43.3219 44.6464 43.55 44.5507 43.7181 44.3816C43.8861 44.2125 43.9804 43.9837 43.9804 43.7453V30.4715C43.9789 30.2341 43.884 30.0068 43.7161 29.8389C43.5482 29.671 43.3209 29.576 43.0835 29.5746H29.8097Z" fill="#FCFCFC"/>
<path d="M26.7747 45.7763H13.5009C12.9633 45.7748 12.4482 45.5602 12.0685 45.1795C11.6889 44.7988 11.4757 44.2831 11.4757 43.7454V30.4716C11.4772 29.935 11.691 29.4207 12.0705 29.0412C12.45 28.6617 12.9643 28.4479 13.5009 28.4464H26.7747C27.3133 28.4464 27.8299 28.6604 28.2108 29.0412C28.5916 29.4221 28.8056 29.9386 28.8056 30.4773V43.7454C28.8056 44.284 28.5916 44.8006 28.2108 45.1815C27.8299 45.5623 27.3133 45.7763 26.7747 45.7763ZM13.5009 29.5747C13.2625 29.5762 13.0344 29.6719 12.8663 29.841C12.6983 30.0101 12.6039 30.2388 12.604 30.4773V43.7454C12.6039 43.9838 12.6983 44.2126 12.8663 44.3817C13.0344 44.5508 13.2625 44.6465 13.5009 44.648H26.7747C26.8933 44.648 27.0106 44.6247 27.1201 44.5793C27.2296 44.534 27.3291 44.4675 27.413 44.3837C27.4968 44.2999 27.5633 44.2004 27.6086 44.0908C27.654 43.9813 27.6773 43.864 27.6773 43.7454V30.4716C27.6773 30.3531 27.654 30.2357 27.6086 30.1262C27.5633 30.0167 27.4968 29.9172 27.413 29.8334C27.3291 29.7496 27.2296 29.6831 27.1201 29.6377C27.0106 29.5924 26.8933 29.569 26.7747 29.569L13.5009 29.5747ZM30.7292 27.352H27.6435C27.0783 27.3576 26.5303 27.1576 26.1017 26.7891C25.6731 26.4207 25.393 25.909 25.3137 25.3494C25.2574 24.8208 25.3895 24.2894 25.6867 23.8487C25.9839 23.408 26.4272 23.0864 26.9383 22.9406V20.8533C26.3546 20.7667 25.8281 20.4548 25.4716 19.9846C25.16 19.5341 25.0179 18.9879 25.0706 18.4427C25.1233 17.8974 25.3672 17.3885 25.7593 17.006L27.5984 15.1331C27.9847 14.7514 28.4958 14.5219 29.0377 14.4867C29.5797 14.4515 30.1162 14.6129 30.5487 14.9413C30.8296 15.166 31.055 15.4523 31.2076 15.778C31.3602 16.1038 31.4358 16.4602 31.4287 16.8198V22.9406C31.9399 23.0864 32.3831 23.408 32.6804 23.8487C32.9776 24.2894 33.1097 24.8208 33.0534 25.3494C32.9753 25.9085 32.6964 26.4201 32.2687 26.7887C31.841 27.1572 31.2938 27.3574 30.7292 27.352ZM29.1835 15.6013C28.8868 15.6041 28.603 15.7237 28.3938 15.9342L26.5491 17.7732C26.346 17.9639 26.217 18.2204 26.185 18.4971C26.153 18.7739 26.22 19.053 26.3742 19.2851C26.4747 19.4228 26.605 19.5359 26.7555 19.6161C26.9059 19.6962 27.0726 19.7412 27.243 19.7476C27.4659 19.7578 27.6763 19.854 27.8299 20.016C27.9834 20.178 28.0683 20.3932 28.0666 20.6164V23.1437C28.0696 23.3463 28.0003 23.5434 27.871 23.6995C27.7418 23.8557 27.5611 23.9606 27.3614 23.9955C27.0802 24.0453 26.8283 24.1999 26.6566 24.4282C26.4849 24.6564 26.4062 24.9413 26.4363 25.2253C26.4826 25.5096 26.6304 25.7675 26.8524 25.9511C27.0744 26.1347 27.3555 26.2316 27.6435 26.2238H30.7292C31.0175 26.2328 31.2992 26.1364 31.5215 25.9526C31.7437 25.7687 31.8913 25.5101 31.9365 25.2253C31.9665 24.9413 31.8878 24.6564 31.7161 24.4282C31.5444 24.1999 31.2925 24.0453 31.0113 23.9955C30.8121 23.9595 30.6321 23.8543 30.5031 23.6984C30.374 23.5425 30.3043 23.346 30.3061 23.1437V16.8198C30.3139 16.6339 30.2788 16.4486 30.2035 16.2784C30.1281 16.1082 30.0146 15.9576 29.8718 15.8383C29.6748 15.6854 29.4328 15.6021 29.1835 15.6013Z" fill="#FCFCFC"/>
<path d="M23.153 43.5986H18.1718C18.076 43.6045 17.9799 43.6045 17.8841 43.5986H17.7317C17.3034 43.5204 16.9056 43.3235 16.5838 43.0302C16.2619 42.737 16.0289 42.3592 15.9113 41.9399C15.7937 41.5207 15.7962 41.0768 15.9186 40.659C16.041 40.2411 16.2783 39.866 16.6035 39.5764L20.2759 35.8983C20.3376 35.836 20.3722 35.7519 20.3722 35.6642C20.3722 35.5766 20.3376 35.4924 20.2759 35.4301C20.2493 35.3929 20.2142 35.3625 20.1735 35.3415C20.1328 35.3206 20.0876 35.3096 20.0418 35.3096C19.996 35.3096 19.9509 35.3206 19.9102 35.3415C19.8695 35.3625 19.8343 35.3929 19.8077 35.4301L19.2097 35.9942C18.7664 36.4029 18.1822 36.6243 17.5794 36.612C16.9765 36.5997 16.4018 36.3548 15.9754 35.9284C15.5491 35.5021 15.3041 34.9274 15.2919 34.3245C15.2796 33.7217 15.501 33.1375 15.9096 32.6941L16.5189 32.0849C17.4424 31.1563 18.6935 30.6273 20.003 30.6117C21.3126 30.5961 22.5759 31.095 23.5214 32.0013C24.4668 32.9075 25.0188 34.1487 25.0585 35.4577C25.0983 36.7667 24.6227 38.039 23.734 39.001C24.2836 39.142 24.763 39.4782 25.0827 39.9469C25.4025 40.4155 25.5408 40.9845 25.4717 41.5476C25.4026 42.1108 25.1309 42.6295 24.7073 43.0069C24.2837 43.3843 23.7372 43.5947 23.1699 43.5986H23.153ZM17.9518 42.4704H18.0082C18.0626 42.474 18.1173 42.474 18.1718 42.4704H23.153C23.4731 42.4704 23.7802 42.3432 24.0066 42.1168C24.233 41.8904 24.3602 41.5833 24.3602 41.2632C24.3602 40.943 24.233 40.6359 24.0066 40.4095C23.7802 40.1831 23.4731 40.0559 23.153 40.0559H22.4535C22.3426 40.0555 22.2343 40.0223 22.1421 39.9607C22.0499 39.899 21.978 39.8115 21.9352 39.7092C21.8925 39.6069 21.8809 39.4942 21.9018 39.3853C21.9227 39.2764 21.9753 39.1761 22.0529 39.0969L22.7919 38.3579C23.5183 37.6323 23.9267 36.6478 23.9272 35.6211C23.9277 34.5944 23.5204 33.6095 22.7948 32.8831C22.0691 32.1567 21.0847 31.7484 20.0579 31.7478C19.0312 31.7473 18.0463 32.1547 17.3199 32.8803L16.705 33.5234C16.5272 33.7558 16.4399 34.0448 16.4592 34.3368C16.4785 34.6288 16.6032 34.9038 16.8101 35.1107C17.017 35.3176 17.292 35.4423 17.584 35.4616C17.876 35.4809 18.165 35.3936 18.3974 35.2158L19.0123 34.6065C19.2896 34.3502 19.6553 34.2111 20.0328 34.2185C20.4103 34.2259 20.7703 34.3792 21.0373 34.6462C21.3043 34.9132 21.4576 35.2732 21.465 35.6507C21.4724 36.0282 21.3333 36.3939 21.077 36.6712L17.3876 40.3493C17.2563 40.4629 17.1507 40.6031 17.0778 40.7607C17.0048 40.9183 16.9662 41.0895 16.9645 41.2632C16.9651 41.5433 17.0634 41.8144 17.2427 42.0297C17.4219 42.245 17.6707 42.3909 17.9461 42.4422L17.9518 42.4704ZM36.4437 43.5986C35.1999 43.5971 34.0075 43.102 33.1286 42.2219C32.2496 41.3419 31.7558 40.1489 31.7558 38.9051C31.7558 38.3381 31.9811 37.7943 32.3821 37.3933C32.783 36.9924 33.3268 36.7671 33.8939 36.7671C34.0495 36.7666 34.2047 36.7837 34.3565 36.8179V36.7107C34.3509 36.6318 34.3509 36.5526 34.3565 36.4738C34.3532 36.4343 34.3532 36.3947 34.3565 36.3553C34.3538 36.3215 34.3538 36.2875 34.3565 36.2537C34.3525 36.188 34.3525 36.1221 34.3565 36.0563C34.3626 35.9897 34.3739 35.9237 34.3903 35.8589C34.4039 35.7953 34.4228 35.7331 34.4467 35.6727C34.4705 35.5996 34.4988 35.528 34.5313 35.4583C34.529 35.4377 34.529 35.4169 34.5313 35.3963L34.7796 34.9055H34.1647C33.8743 34.9204 33.5839 34.8761 33.3112 34.7752C33.0385 34.6744 32.7891 34.5191 32.5783 34.3188C32.3675 34.1186 32.1996 33.8775 32.0849 33.6103C31.9702 33.3431 31.9111 33.0554 31.9111 32.7646C31.9111 32.4739 31.9702 32.1861 32.0849 31.919C32.1996 31.6518 32.3675 31.4107 32.5783 31.2105C32.7891 31.0102 33.0385 30.8549 33.3112 30.7541C33.5839 30.6532 33.8743 30.6089 34.1647 30.6238H38.2658C38.6314 30.6231 38.9911 30.7161 39.3106 30.894C39.63 31.0719 39.8984 31.3287 40.0902 31.64C40.2821 31.9512 40.3909 32.3065 40.4063 32.6718C40.4217 33.037 40.3432 33.4002 40.1782 33.7265L39.3941 35.2665C40.1476 35.8763 40.6936 36.7046 40.9569 37.6374C41.2201 38.5703 41.1878 39.5618 40.8643 40.4755C40.5407 41.3892 39.9419 42.1802 39.1502 42.7395C38.3586 43.2988 37.413 43.5989 36.4437 43.5986ZM33.8939 37.8953C33.6261 37.8953 33.3692 38.0017 33.1799 38.1911C32.9905 38.3805 32.8841 38.6373 32.8841 38.9051C32.8814 39.5249 33.0403 40.1347 33.3452 40.6743C33.65 41.2139 34.0903 41.6647 34.6225 41.9823C35.1547 42.2999 35.7606 42.4732 36.3802 42.4852C36.9999 42.4972 37.612 42.3475 38.1561 42.0508C38.7002 41.7541 39.1576 41.3207 39.4832 40.7933C39.8087 40.2659 39.9911 39.6627 40.0125 39.0433C40.0338 38.4239 39.8933 37.8096 39.6048 37.2611C39.3163 36.7126 38.8898 36.2487 38.3674 35.9153C38.2583 35.8398 38.1792 35.7284 38.1441 35.6004C38.1091 35.4725 38.1202 35.3363 38.1756 35.2158L39.1684 33.247C39.2454 33.0924 39.2821 32.9209 39.2752 32.7483C39.2683 32.5757 39.218 32.4077 39.1289 32.2598C39.0382 32.1126 38.9111 31.9913 38.76 31.9073C38.6089 31.8234 38.4387 31.7796 38.2658 31.7802H34.1647C34.0253 31.7698 33.8853 31.7883 33.7535 31.8345C33.6216 31.8806 33.5007 31.9535 33.3983 32.0486C33.2959 32.1436 33.2142 32.2588 33.1583 32.3868C33.1024 32.5149 33.0736 32.6531 33.0736 32.7928C33.0736 32.9326 33.1024 33.0708 33.1583 33.1988C33.2142 33.3269 33.2959 33.4421 33.3983 33.5371C33.5007 33.6322 33.6216 33.7051 33.7535 33.7512C33.8853 33.7974 34.0253 33.8159 34.1647 33.8054H35.6991C35.7949 33.8053 35.8893 33.8295 35.9732 33.8759C36.0571 33.9223 36.1278 33.9893 36.1786 34.0706C36.2281 34.1563 36.2542 34.2536 36.2542 34.3526C36.2542 34.4517 36.2281 34.549 36.1786 34.6347L35.5298 35.9153V35.983C35.5298 35.983 35.5298 36.0337 35.496 36.0732C35.4943 36.1033 35.4943 36.1334 35.496 36.1635C35.496 36.1635 35.496 36.2086 35.496 36.2312C35.496 36.2537 35.496 36.3327 35.496 36.3666V36.344C35.4944 36.359 35.4944 36.3741 35.496 36.3891C35.4924 36.4285 35.4924 36.4682 35.496 36.5076C35.4928 36.5395 35.4928 36.5716 35.496 36.6035C35.5028 36.6362 35.5122 36.6683 35.5242 36.6994C35.535 36.7287 35.5482 36.757 35.5637 36.784L35.6088 36.8743C35.6243 36.9028 35.6433 36.9293 35.6652 36.9533L35.7273 37.0266C35.7469 37.0519 35.7697 37.0746 35.795 37.0943L35.8683 37.1563L35.9642 37.2184H36.0093C36.0619 37.244 36.1166 37.2647 36.1729 37.2804H36.235C36.2986 37.2894 36.3632 37.2894 36.4268 37.2804H36.4776C36.7811 37.286 37.0763 37.3812 37.3259 37.554C37.5756 37.7268 37.7686 37.9696 37.8806 38.2517C37.9927 38.5339 38.0189 38.8429 37.9559 39.1399C37.8928 39.437 37.7434 39.7087 37.5264 39.921C37.3094 40.1334 37.0344 40.2768 36.7361 40.3334C36.4378 40.3899 36.1294 40.357 35.8498 40.2388C35.5701 40.1206 35.3316 39.9223 35.1643 39.669C34.997 39.4156 34.9082 39.1185 34.9093 38.8149C34.8854 38.5625 34.7679 38.3282 34.58 38.1581C34.3921 37.9879 34.1474 37.8942 33.8939 37.8953ZM35.9868 38.4595C36.021 38.6094 36.038 38.7627 36.0375 38.9164C36.0375 39.0247 36.0802 39.1286 36.1562 39.2056C36.2322 39.2827 36.3355 39.3267 36.4437 39.3282C36.5529 39.3282 36.6577 39.2848 36.7349 39.2076C36.8121 39.1304 36.8555 39.0256 36.8555 38.9164C36.854 38.8082 36.81 38.7049 36.7329 38.6289C36.6559 38.5528 36.552 38.5102 36.4437 38.5102H36.376C36.2449 38.4993 36.1148 38.4786 35.9868 38.4482V38.4595Z" fill="#FCFCFC"/>
</svg>
