<svg width="346" height="91" viewBox="0 0 346 91" fill="none" xmlns="http://www.w3.org/2000/svg">
<path fill-rule="evenodd" clip-rule="evenodd" d="M173 73.6983C192.109 73.6983 207.6 58.2074 207.6 39.0983L346 39.0983V74.7007C346 83.7016 338.703 90.9983 329.702 90.9983H174.236H16.2976C7.29668 90.9983 0 83.7016 0 74.7007V39.0983L138.4 39.0983C138.4 58.2074 153.891 73.6983 173 73.6983Z" fill="#A95210"/>
<g filter="url(#filter0_d_1_22007)">
<circle cx="173" cy="39.0983" r="33.3643" fill="#833800"/>
<path d="M172.3 61.3183C167.94 61.3183 163.569 61.2741 159.209 61.3405C157.223 61.3736 155.914 59.9798 155.936 58.0661C155.98 54.7476 155.936 51.429 155.958 48.1105C155.969 46.5508 156.834 45.4224 158.243 45.1127C158.51 45.0574 158.798 45.0463 159.064 45.0463C167.907 45.0463 176.738 45.0463 185.581 45.0463C187.345 45.0463 188.61 46.1857 188.632 47.9335C188.676 51.4401 188.676 54.9356 188.632 58.4422C188.61 60.1568 187.345 61.3073 185.614 61.3073C181.176 61.3183 176.738 61.3183 172.3 61.3183ZM179.534 50.5994C180.677 50.5994 181.786 50.5662 182.885 50.6105C183.484 50.6326 183.484 50.3118 183.473 49.8804C183.462 49.4821 183.528 49.1171 182.907 49.1282C181.387 49.1614 179.878 49.1503 178.358 49.1282C177.903 49.1171 177.781 49.2941 177.792 49.7144C177.803 52.0374 177.803 54.3604 177.792 56.6834C177.792 57.0816 177.914 57.2365 178.336 57.2365C179.867 57.2254 181.409 57.2144 182.94 57.2476C183.528 57.2586 183.484 56.9157 183.484 56.5285C183.484 56.1414 183.573 55.7432 182.929 55.7653C181.953 55.8095 180.965 55.7874 179.989 55.7653C179.823 55.7653 179.534 55.5994 179.523 55.4887C179.467 54.9799 179.501 54.471 179.501 53.8848C180.266 53.8848 180.965 53.8737 181.664 53.8848C182.019 53.8958 182.186 53.7631 182.152 53.4091C182.141 53.2653 182.141 53.1104 182.152 52.9666C182.197 52.5573 182.019 52.4135 181.609 52.4246C180.932 52.4467 180.244 52.4357 179.534 52.4357C179.534 51.8051 179.534 51.2299 179.534 50.5994ZM170.325 49.1503C170.381 49.3826 170.403 49.4932 170.436 49.5928C171.102 51.7941 171.768 53.9954 172.445 56.1967C172.833 57.4467 172.589 57.1812 173.854 57.2365C174.308 57.2586 174.541 57.1259 174.675 56.6613C175.351 54.4047 176.061 52.1591 176.76 49.9136C176.827 49.6923 176.871 49.4711 176.96 49.1503C176.45 49.1503 176.028 49.1171 175.618 49.1724C175.44 49.1945 175.196 49.3826 175.141 49.5485C174.919 50.2233 174.752 50.9312 174.564 51.6171C174.286 52.6237 174.02 53.6193 173.743 54.6259C173.576 54.46 173.51 54.2941 173.465 54.1281C173.055 52.6348 172.655 51.1414 172.234 49.6591C172.178 49.4711 172.023 49.2056 171.879 49.1835C171.391 49.1171 170.902 49.1503 170.325 49.1503ZM161.128 53.1879C161.128 54.3715 161.128 55.544 161.128 56.7277C161.128 57.0153 161.15 57.2365 161.527 57.2365C163.158 57.2254 164.778 57.2365 166.409 57.2144C166.531 57.2144 166.698 57.0042 166.753 56.8493C166.808 56.6834 166.753 56.4843 166.775 56.3073C166.82 55.898 166.642 55.7653 166.232 55.7653C165.289 55.7874 164.345 55.7542 163.402 55.7763C162.981 55.7874 162.825 55.6657 162.837 55.2233C162.859 53.564 162.859 51.9047 162.848 50.2454C162.837 49.0175 163.036 49.1614 161.716 49.1282C161.283 49.1171 161.128 49.2609 161.139 49.6923C161.139 50.8649 161.128 52.0264 161.128 53.1879ZM169.371 53.1879C169.371 52.1702 169.382 51.1635 169.371 50.1459C169.36 49.0065 169.527 49.1835 168.373 49.1392C167.829 49.1171 167.685 49.3052 167.696 49.8251C167.718 51.9268 167.696 54.0286 167.707 56.1303C167.718 57.3692 167.519 57.2144 168.828 57.2586C169.283 57.2697 169.394 57.1038 169.382 56.6834C169.36 55.4998 169.371 54.3383 169.371 53.1879Z" fill="white"/>
<path d="M172.267 43.2323C168.606 43.2323 164.945 43.2212 161.283 43.2433C160.851 43.2433 160.618 43.0995 160.418 42.7345C155.559 34.1947 160.773 23.6417 170.536 22.2811C178.07 21.2302 185.181 26.8275 185.936 34.3828C186.235 37.3584 185.658 40.1349 184.194 42.7345C183.983 43.0995 183.75 43.2433 183.317 43.2433C179.623 43.2323 175.951 43.2323 172.267 43.2323ZM169.272 34.6372C169.26 36.0421 169.249 37.4358 169.26 38.8407C169.272 39.792 169.771 40.0796 170.581 39.5929C172.844 38.1991 175.096 36.7943 177.348 35.3783C178.014 34.958 178.025 34.427 177.348 34.0067C175.085 32.5908 172.811 31.1748 170.525 29.77C169.782 29.3164 169.272 29.6151 169.26 30.489C169.272 31.8828 169.272 33.2655 169.272 34.6372Z" fill="white"/>
<path d="M153.229 35.8872C153.229 26.9714 159.342 19.1949 168.084 17.3586C175.451 15.81 181.875 17.8232 186.768 23.5754C191.949 29.6705 192.692 36.5731 189.63 43.9182C189.608 43.9735 189.586 44.0177 189.564 44.073C189.386 44.4381 189.098 44.6261 188.709 44.427C188.321 44.2279 188.31 43.896 188.487 43.531C189.741 40.9646 190.318 38.2324 190.207 35.3895C190.041 30.8873 188.432 26.9382 185.314 23.6639C182.064 20.2568 178.07 18.3542 173.354 18.0887C168.173 17.8011 163.658 19.4493 159.919 23.0334C156.058 26.717 154.272 31.2966 154.405 36.5952C154.46 38.9735 155.037 41.2633 156.069 43.4204C156.257 43.8186 156.357 44.1615 155.914 44.4159C155.547 44.6372 155.248 44.4602 154.982 43.9182C153.828 41.5177 153.229 38.7855 153.229 35.8872Z" fill="white"/>
</g>
<defs>
<filter id="filter0_d_1_22007" x="134.693" y="0.791152" width="76.6142" height="76.6143" filterUnits="userSpaceOnUse" color-interpolation-filters="sRGB">
<feFlood flood-opacity="0" result="BackgroundImageFix"/>
<feColorMatrix in="SourceAlpha" type="matrix" values="0 0 0 0 0 0 0 0 0 0 0 0 0 0 0 0 0 0 127 0" result="hardAlpha"/>
<feOffset/>
<feGaussianBlur stdDeviation="2.47143"/>
<feComposite in2="hardAlpha" operator="out"/>
<feColorMatrix type="matrix" values="0 0 0 0 1 0 0 0 0 1 0 0 0 0 1 0 0 0 0.5 0"/>
<feBlend mode="normal" in2="BackgroundImageFix" result="effect1_dropShadow_1_22007"/>
<feBlend mode="normal" in="SourceGraphic" in2="effect1_dropShadow_1_22007" result="shape"/>
</filter>
</defs>
</svg>
