<svg width="56" height="58" viewBox="0 0 56 58" fill="none" xmlns="http://www.w3.org/2000/svg">
<path d="M55.6602 0.147705H8.27381C3.70431 0.147705 -3.8147e-06 3.85202 -3.8147e-06 8.42151V49.0384C-3.8147e-06 53.6079 3.70431 57.3122 8.2738 57.3122H55.6602V0.147705Z" fill="#A95210"/>
<path d="M36.6386 35.5758C37.1455 35.5758 37.6411 35.4224 38.0626 35.135C38.4841 34.8476 38.8126 34.4391 39.0066 33.9612C39.2006 33.4833 39.2514 32.9574 39.1525 32.4501C39.0536 31.9427 38.8095 31.4767 38.451 31.1109C38.0925 30.7451 37.6358 30.496 37.1386 30.3951C36.6414 30.2942 36.1261 30.346 35.6577 30.5439C35.1894 30.7419 34.7891 31.0771 34.5074 31.5072C34.2258 31.9374 34.0754 32.443 34.0754 32.9603C34.0762 33.6537 34.3465 34.3185 34.827 34.8088C35.3075 35.2992 35.959 35.575 36.6386 35.5758ZM36.6386 31.5201C36.9177 31.5201 37.1906 31.6046 37.4227 31.7628C37.6548 31.9211 37.8357 32.146 37.9426 32.4092C38.0494 32.6723 38.0773 32.9619 38.0229 33.2413C37.9684 33.5207 37.834 33.7773 37.6366 33.9787C37.4392 34.1801 37.1877 34.3173 36.9139 34.3728C36.6402 34.4284 36.3564 34.3999 36.0985 34.2909C35.8406 34.1819 35.6201 33.9973 35.4651 33.7604C35.31 33.5236 35.2272 33.2452 35.2272 32.9603C35.2276 32.5785 35.3764 32.2124 35.641 31.9423C35.9056 31.6723 36.2644 31.5204 36.6386 31.52V31.5201Z" fill="#FCFCFC"/>
<path d="M38.5606 35.5612C38.4694 35.5636 38.38 35.5877 38.2995 35.6315C38.219 35.6753 38.1495 35.7376 38.0966 35.8135C37.9883 35.9662 37.8579 36.1013 37.71 36.2143C37.3219 36.5022 36.8377 36.6214 36.3637 36.5456C35.8896 36.4699 35.4643 36.2055 35.181 35.8103C35.128 35.7347 35.0584 35.6729 34.9777 35.6296C34.8971 35.5864 34.8077 35.5629 34.7167 35.5612C33.4133 35.5612 32.3651 36.6695 32.3651 37.9993V40.7738C32.3637 40.8504 32.3772 40.9266 32.4049 40.9979C32.4325 41.0692 32.4738 41.1341 32.5262 41.189C32.5787 41.2439 32.6413 41.2877 32.7104 41.3177C32.7795 41.3477 32.8538 41.3635 32.9289 41.364H40.3482C40.5019 41.3637 40.6493 41.3016 40.7585 41.1911C40.8676 41.0806 40.9297 40.9307 40.9312 40.7738V37.9993C40.9312 36.6695 39.8638 35.5612 38.5606 35.5612ZM39.7795 40.1887H33.5168V37.9993C33.5159 37.716 33.6106 37.4409 33.7849 37.2204C33.9592 36.9998 34.2026 36.8472 34.4742 36.7882C34.7519 37.092 35.0879 37.3342 35.4612 37.4998C35.8345 37.6654 36.2373 37.7508 36.6443 37.7508C37.0514 37.7508 37.4542 37.6654 37.8275 37.4998C38.2008 37.3342 38.5368 37.092 38.8145 36.7882C39.0868 36.8469 39.3312 36.9992 39.5069 37.2196C39.6825 37.44 39.7787 37.7152 39.7795 37.9993V40.1887Z" fill="#FCFCFC"/>
<path d="M40.4994 29.0797V26.6732H41.6531C41.7277 26.6752 41.8019 26.6619 41.8713 26.6342C41.9408 26.6065 42.0042 26.5649 42.0576 26.5119C42.1111 26.4588 42.1537 26.3954 42.1827 26.3253C42.2118 26.2552 42.2269 26.1799 42.227 26.1038V21.2174C42.227 19.1379 40.6596 17.418 38.7305 17.418H32.2932V16.443C32.2932 14.3635 30.7438 12.6436 28.8147 12.6436H23.8312C21.9021 12.6436 20.3437 14.3635 20.3437 16.443V17.418H14.3396C12.4106 17.418 10.8418 19.1379 10.8418 21.2174V26.1038C10.8421 26.18 10.8573 26.2553 10.8865 26.3254C10.9157 26.3955 10.9584 26.4589 11.012 26.512C11.0656 26.565 11.129 26.6066 11.1986 26.6343C11.2681 26.662 11.3424 26.6752 11.417 26.6732H12.5694V35.8188C12.5694 37.8984 14.1459 39.601 16.0751 39.601H29.0632C30.2839 42.6126 33.2194 44.7935 36.6386 44.7935C38.4627 44.7935 40.2345 44.1715 41.6727 43.0265C43.1109 41.8815 44.1329 40.279 44.5765 38.4735C45.0201 36.668 44.8598 34.7631 44.1212 33.0611C43.3825 31.3592 42.1078 29.9579 40.4994 29.0797ZM21.4955 16.443C21.4955 15.0115 22.5373 13.8188 23.8312 13.8188H28.8147C30.1086 13.8188 31.1414 15.0115 31.1414 16.443V17.418H21.4955V16.443ZM11.9935 21.2175C11.9935 19.7859 13.0456 18.5933 14.3396 18.5933H38.7305C40.0243 18.5933 41.0753 19.7859 41.0753 21.2174V25.4979H30.2776V23.3905C30.273 23.2298 30.2083 23.0769 30.0967 22.9634C29.9852 22.8499 29.8352 22.7843 29.6777 22.7801H22.9294C22.775 22.7855 22.6289 22.8524 22.5223 22.9665C22.4157 23.0806 22.3572 23.2328 22.3593 23.3905V25.4979H11.9935V21.2175ZM29.1259 23.9554V28.2157H23.5111V23.9554H29.1259ZM16.0751 38.4258C14.7809 38.4258 13.7212 37.2505 13.7212 35.8188V26.6732H22.3593V28.817C22.3589 28.8931 22.3735 28.9686 22.4021 29.0389C22.4307 29.1092 22.4728 29.173 22.5259 29.2265C22.579 29.28 22.6421 29.3221 22.7114 29.3503C22.7807 29.3786 22.8548 29.3924 22.9294 29.391H29.6777C29.9957 29.391 30.2776 29.1412 30.2776 28.817V26.6732H39.3477V28.562C38.4777 28.2524 37.563 28.094 36.6417 28.0932C32.1309 28.0932 28.4596 31.8432 28.4596 36.446C28.4606 37.1128 28.5379 37.7773 28.69 38.4258H16.0751ZM36.6389 43.6129C35.2487 43.6129 33.8898 43.1923 32.7339 42.4042C31.578 41.6161 30.6771 40.4959 30.1451 39.1854C29.6131 37.8748 29.4739 36.4327 29.7451 35.0414C30.0164 33.6502 30.6858 32.3722 31.6688 31.3691C32.6518 30.3661 33.9042 29.683 35.2676 29.4063C36.6311 29.1295 38.0443 29.2715 39.3287 29.8144C40.613 30.3572 41.7108 31.2765 42.4831 32.456C43.2554 33.6355 43.6677 35.0221 43.6677 36.4407C43.6656 38.3423 42.9243 40.1653 41.6066 41.5099C40.2888 42.8545 38.5021 43.6108 36.6386 43.6129H36.6389Z" fill="#FCFCFC"/>
</svg>
