<svg width="25" height="25" viewBox="0 0 25 25" fill="none" xmlns="http://www.w3.org/2000/svg">
<path d="M12.1287 23.5798C11.4387 23.5798 10.7887 23.2298 10.3287 22.6198L8.82866 20.6198C8.77097 20.571 8.70238 20.5367 8.62866 20.5198H8.12866C3.95866 20.5198 1.37866 19.3898 1.37866 13.7698V8.76982C1.37866 4.34982 3.70866 2.01982 8.12866 2.01982H16.1287C20.5487 2.01982 22.8787 4.34982 22.8787 8.76982V13.7698C22.8787 18.1898 20.5487 20.5198 16.1287 20.5198H15.6287C15.5487 20.5198 15.4787 20.5598 15.4287 20.6198L13.9287 22.6198C13.4687 23.2298 12.8187 23.5798 12.1287 23.5798ZM8.12866 3.51982C4.54866 3.51982 2.87866 5.18982 2.87866 8.76982V13.7698C2.87866 18.2898 4.42866 19.0198 8.12866 19.0198H8.62866C9.13866 19.0198 9.71866 19.3098 10.0287 19.7198L11.5287 21.7198C11.8787 22.1798 12.3787 22.1798 12.7287 21.7198L14.2287 19.7198C14.5587 19.2798 15.0787 19.0198 15.6287 19.0198H16.1287C19.7087 19.0198 21.3787 17.3498 21.3787 13.7698V8.76982C21.3787 5.18982 19.7087 3.51982 16.1287 3.51982H8.12866Z" fill="white"/>
<path d="M12.1287 12.7699C11.5687 12.7699 11.1287 12.3199 11.1287 11.7699C11.1287 11.2199 11.5787 10.7699 12.1287 10.7699C12.6787 10.7699 13.1287 11.2199 13.1287 11.7699C13.1287 12.3199 12.6887 12.7699 12.1287 12.7699ZM16.1287 12.7699C15.5687 12.7699 15.1287 12.3199 15.1287 11.7699C15.1287 11.2199 15.5787 10.7699 16.1287 10.7699C16.6787 10.7699 17.1287 11.2199 17.1287 11.7699C17.1287 12.3199 16.6887 12.7699 16.1287 12.7699ZM8.12866 12.7699C7.56866 12.7699 7.12866 12.3199 7.12866 11.7699C7.12866 11.2199 7.57866 10.7699 8.12866 10.7699C8.67866 10.7699 9.12866 11.2199 9.12866 11.7699C9.12866 12.3199 8.68866 12.7699 8.12866 12.7699Z" fill="white"/>
</svg>
