<svg width="25" height="25" viewBox="0 0 25 25" fill="none" xmlns="http://www.w3.org/2000/svg">
<path d="M12.1287 23.5797C11.4387 23.5797 10.7887 23.2297 10.3287 22.6197L8.82866 20.6197C8.77097 20.5708 8.70238 20.5365 8.62866 20.5197H8.12866C3.95866 20.5197 1.37866 19.3897 1.37866 13.7697V8.7697C1.37866 4.3497 3.70866 2.0197 8.12866 2.0197H16.1287C20.5487 2.0197 22.8787 4.3497 22.8787 8.7697V13.7697C22.8787 18.1897 20.5487 20.5197 16.1287 20.5197H15.6287C15.5487 20.5197 15.4787 20.5597 15.4287 20.6197L13.9287 22.6197C13.4687 23.2297 12.8187 23.5797 12.1287 23.5797ZM8.12866 3.5197C4.54866 3.5197 2.87866 5.1897 2.87866 8.7697V13.7697C2.87866 18.2897 4.42866 19.0197 8.12866 19.0197H8.62866C9.13866 19.0197 9.71866 19.3097 10.0287 19.7197L11.5287 21.7197C11.8787 22.1797 12.3787 22.1797 12.7287 21.7197L14.2287 19.7197C14.5587 19.2797 15.0787 19.0197 15.6287 19.0197H16.1287C19.7087 19.0197 21.3787 17.3497 21.3787 13.7697V8.7697C21.3787 5.1897 19.7087 3.5197 16.1287 3.5197H8.12866Z" fill="white"/>
<path d="M12.1287 12.7698C11.5687 12.7698 11.1287 12.3198 11.1287 11.7698C11.1287 11.2198 11.5787 10.7698 12.1287 10.7698C12.6787 10.7698 13.1287 11.2198 13.1287 11.7698C13.1287 12.3198 12.6887 12.7698 12.1287 12.7698ZM16.1287 12.7698C15.5687 12.7698 15.1287 12.3198 15.1287 11.7698C15.1287 11.2198 15.5787 10.7698 16.1287 10.7698C16.6787 10.7698 17.1287 11.2198 17.1287 11.7698C17.1287 12.3198 16.6887 12.7698 16.1287 12.7698ZM8.12866 12.7698C7.56866 12.7698 7.12866 12.3198 7.12866 11.7698C7.12866 11.2198 7.57866 10.7698 8.12866 10.7698C8.67866 10.7698 9.12866 11.2198 9.12866 11.7698C9.12866 12.3198 8.68866 12.7698 8.12866 12.7698Z" fill="white"/>
</svg>
