<svg width="24" height="25" viewBox="0 0 24 25" fill="none" xmlns="http://www.w3.org/2000/svg">
<path d="M17.45 23.7482C16.32 23.7482 15.13 23.4782 13.9 22.9582C12.7 22.4482 11.49 21.7482 10.31 20.8982C9.14 20.0382 8.01 19.0782 6.94 18.0282C5.88 16.9582 4.92 15.8282 4.07 14.6682C3.21 13.4682 2.52 12.2682 2.03 11.1082C1.51 9.86823 1.25 8.66823 1.25 7.53823C1.25 6.75823 1.39 6.01823 1.66 5.32823C1.94 4.61823 2.39 3.95823 3 3.38823C3.77 2.62823 4.65 2.24823 5.59 2.24823C5.98 2.24823 6.38 2.33823 6.72 2.49823C7.11 2.67823 7.44 2.94823 7.68 3.30823L10 6.57823C10.21 6.86823 10.37 7.14823 10.48 7.42823C10.61 7.72823 10.68 8.02823 10.68 8.31823C10.68 8.69823 10.57 9.06823 10.36 9.41823C10.1762 9.73061 9.95081 10.0166 9.69 10.2682L9.01 10.9782C9.02 11.0082 9.03 11.0282 9.04 11.0482C9.16 11.2582 9.4 11.6182 9.86 12.1582C10.35 12.7182 10.81 13.2282 11.27 13.6982C11.86 14.2782 12.35 14.7382 12.81 15.1182C13.38 15.5982 13.75 15.8382 13.97 15.9482L13.95 15.9982L14.68 15.2782C14.99 14.9682 15.29 14.7382 15.58 14.5882C16.13 14.2482 16.83 14.1882 17.53 14.4782C17.79 14.5882 18.07 14.7382 18.37 14.9482L21.69 17.3082C22.06 17.5582 22.33 17.8782 22.49 18.2582C22.64 18.6382 22.71 18.9882 22.71 19.3382C22.71 19.8182 22.6 20.2982 22.39 20.7482C22.18 21.1982 21.92 21.5882 21.59 21.9482C21.02 22.5782 20.4 23.0282 19.68 23.3182C18.99 23.5982 18.24 23.7482 17.45 23.7482ZM5.59 3.74823C5.04 3.74823 4.53 3.98823 4.04 4.46823C3.58 4.89823 3.26 5.36823 3.06 5.87823C2.85 6.39823 2.75 6.94823 2.75 7.53823C2.75 8.46823 2.97 9.47823 3.41 10.5182C3.86 11.5782 4.49 12.6782 5.29 13.7782C6.09 14.8782 7 15.9482 8 16.9582C9 17.9482 10.08 18.8682 11.19 19.6782C12.27 20.4682 13.38 21.1082 14.48 21.5682C16.19 22.2982 17.79 22.4682 19.11 21.9182C19.62 21.7082 20.07 21.3882 20.48 20.9282C20.71 20.6782 20.89 20.4082 21.04 20.0882C21.16 19.8382 21.22 19.5782 21.22 19.3182C21.22 19.1582 21.19 18.9982 21.11 18.8182C21.0461 18.6944 20.9492 18.5905 20.83 18.5182L17.51 16.1582C17.31 16.0182 17.13 15.9182 16.96 15.8482C16.74 15.7582 16.65 15.6682 16.31 15.8782C16.11 15.9782 15.93 16.1282 15.73 16.3282L14.97 17.0782C14.58 17.4582 13.98 17.5482 13.52 17.3782L13.25 17.2582C12.84 17.0382 12.36 16.6982 11.83 16.2482C11.35 15.8382 10.83 15.3582 10.2 14.7382C9.71 14.2382 9.22 13.7082 8.71 13.1182C8.24 12.5682 7.9 12.0982 7.69 11.7082L7.57 11.4082C7.51 11.1782 7.49 11.0482 7.49 10.9082C7.49 10.5482 7.62 10.2282 7.87 9.97823L8.62 9.19823C8.82 8.99823 8.97 8.80823 9.07 8.63823C9.15 8.50823 9.18 8.39823 9.18 8.29823C9.18 8.21823 9.15 8.09823 9.1 7.97823C9.03 7.81823 8.92 7.63823 8.78 7.44823L6.46 4.16823C6.36638 4.03387 6.23868 3.92687 6.09 3.85823C5.93 3.78823 5.76 3.74823 5.59 3.74823ZM13.95 16.0082L13.79 16.6882L14.06 15.9882C14.01 15.9782 13.97 15.9882 13.95 16.0082Z" fill="#F9F9F9"/>
</svg>
