<svg width="25" height="25" viewBox="0 0 25 25" fill="none" xmlns="http://www.w3.org/2000/svg">
<path d="M12.1287 23.5011C11.4387 23.5011 10.7887 23.1511 10.3287 22.5411L8.82866 20.5411C8.77097 20.4922 8.70238 20.4579 8.62866 20.4411H8.12866C3.95866 20.4411 1.37866 19.3111 1.37866 13.6911V8.69109C1.37866 4.27109 3.70866 1.94109 8.12866 1.94109H16.1287C20.5487 1.94109 22.8787 4.27109 22.8787 8.69109V13.6911C22.8787 18.1111 20.5487 20.4411 16.1287 20.4411H15.6287C15.5487 20.4411 15.4787 20.4811 15.4287 20.5411L13.9287 22.5411C13.4687 23.1511 12.8187 23.5011 12.1287 23.5011ZM8.12866 3.44109C4.54866 3.44109 2.87866 5.11109 2.87866 8.69109V13.6911C2.87866 18.2111 4.42866 18.9411 8.12866 18.9411H8.62866C9.13866 18.9411 9.71866 19.2311 10.0287 19.6411L11.5287 21.6411C11.8787 22.1011 12.3787 22.1011 12.7287 21.6411L14.2287 19.6411C14.5587 19.2011 15.0787 18.9411 15.6287 18.9411H16.1287C19.7087 18.9411 21.3787 17.2711 21.3787 13.6911V8.69109C21.3787 5.11109 19.7087 3.44109 16.1287 3.44109H8.12866Z" fill="white"/>
<path d="M12.1287 12.6912C11.5687 12.6912 11.1287 12.2412 11.1287 11.6912C11.1287 11.1412 11.5787 10.6912 12.1287 10.6912C12.6787 10.6912 13.1287 11.1412 13.1287 11.6912C13.1287 12.2412 12.6887 12.6912 12.1287 12.6912ZM16.1287 12.6912C15.5687 12.6912 15.1287 12.2412 15.1287 11.6912C15.1287 11.1412 15.5787 10.6912 16.1287 10.6912C16.6787 10.6912 17.1287 11.1412 17.1287 11.6912C17.1287 12.2412 16.6887 12.6912 16.1287 12.6912ZM8.12866 12.6912C7.56866 12.6912 7.12866 12.2412 7.12866 11.6912C7.12866 11.1412 7.57866 10.6912 8.12866 10.6912C8.67866 10.6912 9.12866 11.1412 9.12866 11.6912C9.12866 12.2412 8.68866 12.6912 8.12866 12.6912Z" fill="white"/>
</svg>
