<svg width="24" height="25" viewBox="0 0 24 25" fill="none" xmlns="http://www.w3.org/2000/svg">
<path d="M17.45 22.8268C16.32 22.8268 15.13 22.5568 13.9 22.0368C12.7 21.5268 11.49 20.8268 10.31 19.9768C9.14 19.1168 8.01 18.1568 6.94 17.1068C5.88 16.0368 4.92 14.9068 4.07 13.7468C3.21 12.5468 2.52 11.3468 2.03 10.1868C1.51 8.94684 1.25 7.74684 1.25 6.61684C1.25 5.83684 1.39 5.09684 1.66 4.40684C1.94 3.69684 2.39 3.03684 3 2.46684C3.77 1.70684 4.65 1.32684 5.59 1.32684C5.98 1.32684 6.38 1.41684 6.72 1.57684C7.11 1.75684 7.44 2.02684 7.68 2.38684L10 5.65684C10.21 5.94684 10.37 6.22684 10.48 6.50684C10.61 6.80684 10.68 7.10684 10.68 7.39684C10.68 7.77684 10.57 8.14684 10.36 8.49684C10.1762 8.80922 9.95081 9.09517 9.69 9.34684L9.01 10.0568C9.02 10.0868 9.03 10.1068 9.04 10.1268C9.16 10.3368 9.4 10.6968 9.86 11.2368C10.35 11.7968 10.81 12.3068 11.27 12.7768C11.86 13.3568 12.35 13.8168 12.81 14.1968C13.38 14.6768 13.75 14.9168 13.97 15.0268L13.95 15.0768L14.68 14.3568C14.99 14.0468 15.29 13.8168 15.58 13.6668C16.13 13.3268 16.83 13.2668 17.53 13.5568C17.79 13.6668 18.07 13.8168 18.37 14.0268L21.69 16.3868C22.06 16.6368 22.33 16.9568 22.49 17.3368C22.64 17.7168 22.71 18.0668 22.71 18.4168C22.71 18.8968 22.6 19.3768 22.39 19.8268C22.18 20.2768 21.92 20.6668 21.59 21.0268C21.02 21.6568 20.4 22.1068 19.68 22.3968C18.99 22.6768 18.24 22.8268 17.45 22.8268ZM5.59 2.82684C5.04 2.82684 4.53 3.06684 4.04 3.54684C3.58 3.97684 3.26 4.44684 3.06 4.95684C2.85 5.47684 2.75 6.02684 2.75 6.61684C2.75 7.54684 2.97 8.55684 3.41 9.59684C3.86 10.6568 4.49 11.7568 5.29 12.8568C6.09 13.9568 7 15.0268 8 16.0368C9 17.0268 10.08 17.9468 11.19 18.7568C12.27 19.5468 13.38 20.1868 14.48 20.6468C16.19 21.3768 17.79 21.5468 19.11 20.9968C19.62 20.7868 20.07 20.4668 20.48 20.0068C20.71 19.7568 20.89 19.4868 21.04 19.1668C21.16 18.9168 21.22 18.6568 21.22 18.3968C21.22 18.2368 21.19 18.0768 21.11 17.8968C21.0461 17.773 20.9492 17.6692 20.83 17.5968L17.51 15.2368C17.31 15.0968 17.13 14.9968 16.96 14.9268C16.74 14.8368 16.65 14.7468 16.31 14.9568C16.11 15.0568 15.93 15.2068 15.73 15.4068L14.97 16.1568C14.58 16.5368 13.98 16.6268 13.52 16.4568L13.25 16.3368C12.84 16.1168 12.36 15.7768 11.83 15.3268C11.35 14.9168 10.83 14.4368 10.2 13.8168C9.71 13.3168 9.22 12.7868 8.71 12.1968C8.24 11.6468 7.9 11.1768 7.69 10.7868L7.57 10.4868C7.51 10.2568 7.49 10.1268 7.49 9.98684C7.49 9.62684 7.62 9.30684 7.87 9.05684L8.62 8.27684C8.82 8.07684 8.97 7.88684 9.07 7.71684C9.15 7.58684 9.18 7.47684 9.18 7.37684C9.18 7.29684 9.15 7.17684 9.1 7.05684C9.03 6.89684 8.92 6.71684 8.78 6.52684L6.46 3.24684C6.36638 3.11249 6.23868 3.00549 6.09 2.93684C5.93 2.86684 5.76 2.82684 5.59 2.82684ZM13.95 15.0868L13.79 15.7668L14.06 15.0668C14.01 15.0568 13.97 15.0668 13.95 15.0868Z" fill="#F9F9F9"/>
</svg>
