<svg width="39" height="40" viewBox="0 0 39 40" fill="none" xmlns="http://www.w3.org/2000/svg">
<g clip-path="url(#clip0_1_22621)">
<path d="M32.4568 29.5385L37.5036 23.5457C37.8216 23.1704 38.0414 22.7193 38.1425 22.2341C38.2437 21.749 38.2229 21.2457 38.0821 20.7709L35.1714 10.8733C35.0499 10.462 34.7876 10.1089 34.4324 9.87825C34.0771 9.6476 33.6525 9.55473 33.2357 9.61653C32.819 9.67834 32.4379 9.89071 32.1617 10.215C31.8856 10.5393 31.7328 10.9539 31.7311 11.3835C31.7311 11.4254 31.7324 11.4674 31.7353 11.5058L32.1409 17.5389C31.9429 17.5216 31.7436 17.5472 31.556 17.6142C31.3684 17.6812 31.1969 17.7879 31.0527 17.9274L26.0711 22.7727C25.5083 23.3217 25.06 23.9811 24.7531 24.7111C24.4462 25.4412 24.287 26.227 24.2851 27.0213V31.6552C23.973 31.8429 23.7142 32.1103 23.5343 32.4311C23.3543 32.7519 23.2595 33.115 23.259 33.4846V38.7138C23.259 38.8628 23.3521 39.1703 23.4555 39.2757C23.5588 39.3811 32.1359 39.2757 32.282 39.2757C32.4281 39.2757 31.6278 38.8191 31.7311 38.7138C31.8344 38.6084 24.3608 38.8628 24.3608 38.7138V34.8365H31.7311V38.7138C31.7311 38.8628 31.7892 39.0057 31.8925 39.1111C31.9958 39.2165 32.1359 39.2757 32.282 39.2757C32.4281 39.2757 32.5683 39.2165 32.6716 39.1111C32.7749 39.0057 32.8329 38.8628 32.8329 38.7138V33.4846C32.8325 33.1238 32.7421 32.7691 32.5701 32.4538C32.3982 32.1385 32.1504 31.873 31.8501 31.6823V31.2073C31.8504 30.5949 32.0657 30.003 32.4568 29.5385ZM31.7311 33.7127H24.3608V33.4846C24.3621 33.2175 24.4671 32.9619 24.6529 32.7737C24.8388 32.5856 25.0901 32.4803 25.352 32.4809H30.7398C31.0016 32.4803 31.253 32.5856 31.4388 32.7737C31.6247 32.9619 31.7297 33.2175 31.731 33.4846L31.7311 33.7127ZM31.6209 28.8064C31.0582 29.4747 30.7486 30.3263 30.7482 31.2073V31.3573C30.7455 31.3573 30.7427 31.3571 30.7398 31.3571H25.3869V27.0213C25.3885 26.379 25.5173 25.7436 25.7655 25.1533C26.0137 24.563 26.3763 24.0299 26.8314 23.586L31.8133 18.7406C31.8716 18.6843 31.9491 18.6533 32.0294 18.6543C32.1096 18.6554 32.1864 18.6883 32.2432 18.746L32.2843 18.7886C32.2999 18.8045 32.3149 18.8208 32.3294 18.8373C32.3342 18.8433 32.3391 18.8491 32.3441 18.8549C32.6172 19.17 32.7615 19.5799 32.7473 20.0002C32.7331 20.4205 32.5614 20.8193 32.2677 21.1144L29.5036 23.8941C29.4023 23.9993 29.3456 24.1409 29.3457 24.2884C29.3458 24.4359 29.4028 24.5774 29.5043 24.6824C29.6058 24.7874 29.7438 24.8475 29.8883 24.8497C30.0329 24.8519 30.1726 24.7961 30.2771 24.6942L33.0413 21.9146C33.5113 21.4419 33.7963 20.8107 33.8428 20.1391C33.8894 19.4675 33.6944 18.8016 33.2942 18.2662L32.8342 11.4242C32.8333 11.4106 32.8329 11.3971 32.8329 11.3835C32.8347 11.2239 32.8924 11.0702 32.9956 10.9502C33.0988 10.8301 33.2407 10.7517 33.3956 10.7291C33.5505 10.7064 33.7082 10.741 33.8403 10.8266C33.9724 10.9122 34.0702 11.0431 34.1159 11.1958L37.0268 21.0938C37.114 21.388 37.1268 21.6999 37.0641 22.0005C37.0014 22.3011 36.8651 22.5807 36.668 22.8131L31.6209 28.8064ZM14.41 31.6552V26.9134C14.4081 26.1191 14.249 25.3333 13.9421 24.6032C13.6352 23.8731 13.1869 23.2138 12.6241 22.6647L7.64262 17.8196C7.49843 17.6801 7.32686 17.5733 7.13924 17.5064C6.95162 17.4395 6.75222 17.4139 6.55419 17.4313L6.95936 11.4041C6.96252 11.3637 6.96406 11.3217 6.96406 11.2756C6.96231 10.8462 6.80949 10.4316 6.53339 10.1074C6.25729 9.78322 5.87627 9.57088 5.45964 9.50904C5.043 9.4472 4.61845 9.53997 4.26322 9.77046C3.90798 10.001 3.64567 10.3539 3.52401 10.765L0.612972 20.663C0.472209 21.1377 0.451428 21.641 0.552563 22.1261C0.653698 22.6112 0.873464 23.0623 1.19142 23.4375L6.23834 29.4305C6.62948 29.8951 6.8447 30.487 6.84507 31.0994V31.6824C6.54481 31.8731 6.29706 32.1386 6.12515 32.4538C5.95324 32.7691 5.86282 33.1238 5.8624 33.4846V38.7138C5.8624 38.8628 5.89758 39.1703 6.00089 39.2757C6.10421 39.3811 14.701 39.2743 14.8472 39.2743C14.9933 39.2743 14.2311 38.8191 14.3344 38.7138C14.4377 38.6084 6.96421 38.8628 6.96421 38.7138V34.8365H14.3344V38.7138C14.3344 38.8628 14.3924 39.0057 14.4957 39.1111C14.5991 39.2165 14.7392 39.2757 14.8853 39.2757C15.0314 39.2757 15.1715 39.2165 15.2748 39.1111C15.3782 39.0057 15.4362 38.8628 15.4362 38.7138V33.4846C15.4357 33.115 15.3408 32.7519 15.1609 32.4311C14.981 32.1103 14.7222 31.8429 14.41 31.6552ZM2.02703 22.705C1.82998 22.4726 1.69376 22.1931 1.63104 21.8926C1.56831 21.592 1.58112 21.2802 1.66828 20.986L4.57946 11.0875C4.62519 10.9348 4.72295 10.8038 4.85507 10.7182C4.9872 10.6327 5.14498 10.5981 5.2999 10.6208C5.45482 10.6436 5.59666 10.722 5.69979 10.8421C5.80293 10.9622 5.86056 11.116 5.86226 11.2756C5.86226 11.2886 5.86211 11.3016 5.86057 11.3211L5.40097 18.1576C5.00078 18.6932 4.8057 19.3592 4.85227 20.0309C4.89883 20.7026 5.18385 21.334 5.65394 21.8068L8.418 24.5864C8.46952 24.6382 8.53054 24.6792 8.59758 24.7069C8.66461 24.7347 8.73635 24.7487 8.8087 24.7482C8.88105 24.7477 8.95259 24.7326 9.01923 24.7039C9.08588 24.6752 9.14632 24.6333 9.19712 24.5808C9.24792 24.5282 9.28807 24.466 9.31528 24.3976C9.3425 24.3293 9.35624 24.2561 9.35573 24.1823C9.35522 24.1085 9.34046 24.0355 9.3123 23.9675C9.28414 23.8996 9.24313 23.8379 9.19161 23.7861L6.42763 21.0065C6.13368 20.7111 5.962 20.3119 5.94795 19.8912C5.9339 19.4704 6.07856 19.0603 6.35212 18.7451C6.37092 18.7233 6.39009 18.7018 6.41448 18.677L6.45077 18.6391C6.50772 18.581 6.58464 18.5478 6.6652 18.5467C6.74575 18.5455 6.82358 18.5764 6.88216 18.6328L11.8636 23.4779C12.3188 23.9218 12.6814 24.4549 12.9296 25.0453C13.1779 25.6357 13.3066 26.2711 13.3082 26.9134V31.3571H7.95539C7.95245 31.3571 7.94973 31.3572 7.94687 31.3573V31.0994C7.94646 30.2184 7.63691 29.3667 7.07424 28.6983L2.02703 22.705ZM14.3344 33.7127H6.96421V33.4846C6.96547 33.2175 7.07053 32.9619 7.25635 32.7737C7.44216 32.5856 7.69356 32.4803 7.95539 32.4809H13.3431C13.605 32.4803 13.8564 32.5856 14.0422 32.7737C14.2281 32.9619 14.3331 33.2175 14.3344 33.4846V33.7127ZM21.1117 21.3534C22.8358 20.8129 24.2094 20.2518 24.4578 19.2038C24.5003 19.0314 24.5073 18.852 24.4784 18.6767C24.4495 18.5014 24.3854 18.3341 24.29 18.1853C23.9157 17.5891 23.0484 17.1956 21.9096 16.8742C23.7723 16.4276 25.1786 15.8757 25.4509 14.8117C25.4924 14.6557 25.5021 14.4926 25.4793 14.3325C25.4565 14.1725 25.4018 14.019 25.3185 13.8814C24.9733 13.3 24.1563 12.8947 22.5863 12.526C22.5158 12.5095 22.4428 12.5073 22.3714 12.5195C22.3001 12.5317 22.2318 12.5582 22.1705 12.5973C22.0466 12.6764 21.9586 12.8024 21.9258 12.9476C21.8931 13.0928 21.9182 13.2454 21.9957 13.3717C22.0732 13.4981 22.1967 13.5878 22.3391 13.6213C23.9509 13.9998 24.3005 14.3364 24.376 14.4635C24.383 14.4725 24.3874 14.4832 24.389 14.4945C24.3905 14.5058 24.3891 14.5173 24.3848 14.5278C24.3507 14.6612 24.1396 15.0156 22.9193 15.425C22.0591 15.7135 20.9485 15.9474 19.8456 16.1701V11.311H25.1797L25.1806 11.311L25.1822 11.311H28.4228C28.5845 11.311 28.7429 11.2636 28.879 11.1745C29.0152 11.0854 29.1233 10.9582 29.1907 10.8083C29.2581 10.6583 29.2818 10.4917 29.2591 10.3283C29.2364 10.165 29.1682 10.0117 29.0626 9.88675L25.393 5.54498C24.9086 4.96879 24.2473 4.57675 23.5167 4.43264C22.7861 4.28854 22.0292 4.40086 21.3691 4.75133L19.8456 5.5551V4.57526C20.2641 4.44101 20.6217 4.15835 20.8536 3.77846C21.0855 3.39857 21.1764 2.94654 21.1098 2.50422C21.0432 2.06189 20.8236 1.6585 20.4906 1.36706C20.1577 1.07563 19.7334 0.915405 19.2947 0.915405C18.856 0.915405 18.4317 1.07563 18.0988 1.36706C17.7659 1.6585 17.5462 2.06189 17.4796 2.50422C17.4131 2.94654 17.5039 3.39857 17.7358 3.77846C17.9677 4.15835 18.3253 4.44101 18.7438 4.57526V5.55525L17.2203 4.75133C16.5602 4.40088 15.8033 4.28856 15.0727 4.43267C14.3421 4.57677 13.6808 4.9688 13.1964 5.54498L9.52685 9.88675C9.42124 10.0117 9.35301 10.165 9.33029 10.3283C9.30758 10.4917 9.33132 10.6583 9.3987 10.8083C9.46608 10.9582 9.57426 11.0854 9.71039 11.1745C9.84653 11.2636 10.0049 11.311 10.1666 11.311H13.4072L13.4088 11.311L13.4097 11.311H18.7438V16.1701C17.641 15.9474 16.5303 15.7135 15.6701 15.425C14.4499 15.0155 14.2388 14.6612 14.2046 14.5278C14.2003 14.5172 14.1989 14.5057 14.2004 14.4944C14.202 14.4831 14.2065 14.4725 14.2134 14.4635C14.2889 14.3364 14.6384 13.9998 16.2499 13.6213C16.321 13.6054 16.3883 13.5752 16.4478 13.5325C16.5074 13.4899 16.5581 13.4356 16.597 13.3729C16.6359 13.3101 16.6622 13.2402 16.6745 13.167C16.6867 13.0938 16.6846 13.0189 16.6683 12.9465C16.6519 12.8742 16.6217 12.8058 16.5793 12.7455C16.537 12.6851 16.4833 12.6339 16.4214 12.5948C16.3595 12.5557 16.2907 12.5296 16.2188 12.5178C16.1469 12.506 16.0735 12.5089 16.0027 12.5262C14.433 12.8948 13.616 13.3001 13.271 13.8815C13.1877 14.019 13.1329 14.1726 13.1101 14.3326C13.0873 14.4926 13.097 14.6557 13.1385 14.8117C13.4109 15.8756 14.8171 16.4277 16.6798 16.8743C15.541 17.1956 14.6737 17.589 14.2994 18.1853C14.204 18.3341 14.1399 18.5014 14.111 18.6767C14.0821 18.852 14.0892 19.0314 14.1317 19.2038C14.38 20.2518 15.7537 20.8129 17.4777 21.3535C16.6511 21.6938 16.0228 22.0862 15.7393 22.6232C15.6549 22.7806 15.6027 22.9537 15.5858 23.1322C15.5689 23.3106 15.5876 23.4907 15.6408 23.6616C15.8964 24.5149 16.8105 25.0505 17.9017 25.5367C16.7696 26.1175 15.8915 26.8566 16.1491 28.0234C16.1812 28.1688 16.2686 28.2952 16.3921 28.3749C16.5156 28.4545 16.6651 28.4809 16.8076 28.4481C16.9501 28.4154 17.0741 28.3262 17.1522 28.2002C17.2303 28.0742 17.2561 27.9218 17.224 27.7764C17.1121 27.2699 17.7548 26.8342 18.7438 26.3735V27.8999C18.7438 28.0489 18.8018 28.1918 18.9052 28.2972C19.0085 28.4026 19.1486 28.4618 19.2947 28.4618C19.4408 28.4618 19.5809 28.4026 19.6843 28.2972C19.7876 28.1918 19.8456 28.0489 19.8456 27.8999V26.3735C20.8346 26.8342 21.4773 27.2698 21.3654 27.7764C21.349 27.8486 21.3466 27.9234 21.3586 27.9965C21.3706 28.0696 21.3967 28.1396 21.4353 28.2024C21.4739 28.2652 21.5243 28.3196 21.5837 28.3624C21.643 28.4053 21.71 28.4357 21.7809 28.452C21.8518 28.4683 21.9252 28.4701 21.9968 28.4574C22.0684 28.4446 22.1368 28.4175 22.1981 28.3777C22.2594 28.3378 22.3123 28.286 22.3539 28.2252C22.3955 28.1644 22.4248 28.0958 22.4403 28.0233C22.698 26.8566 21.8198 26.1175 20.6878 25.5367C21.7789 25.0505 22.6931 24.5148 22.9487 23.6617C23.0019 23.4908 23.0206 23.3107 23.0036 23.1322C22.9867 22.9537 22.9345 22.7806 22.8502 22.6233C22.5666 22.0861 21.9383 21.6937 21.1117 21.3534ZM18.7438 24.6806C17.8123 24.2843 16.8399 23.8187 16.6945 23.3334C16.6836 23.3047 16.6793 23.2738 16.6819 23.2431C16.6845 23.2124 16.6939 23.1827 16.7094 23.1562C16.9114 22.7734 17.7738 22.4102 18.7438 22.0851V24.6806ZM18.7438 20.5664C17.8523 20.2987 16.9312 20.0218 16.2416 19.7127C15.3774 19.3254 15.2271 19.0431 15.2026 18.9397C15.195 18.9148 15.1933 18.8883 15.1976 18.8625C15.2019 18.8368 15.2121 18.8124 15.2274 18.7914C15.552 18.274 17.1625 17.8718 18.7438 17.5403V20.5664ZM18.7438 10.1872H15.8001C15.8974 10.0973 15.9904 10.0026 16.0788 9.90361C16.4221 9.51515 16.6932 9.06612 16.8787 8.57853C16.9319 8.43972 16.9288 8.28505 16.8702 8.14854C16.8116 8.01203 16.7022 7.90486 16.5661 7.85062C16.43 7.79637 16.2784 7.79948 16.1445 7.85928C16.0107 7.91907 15.9056 8.03064 15.8525 8.16945C15.7154 8.53022 15.5151 8.86251 15.2613 9.15004C14.6267 9.86622 13.8147 10.1066 13.3616 10.1872H10.7277L14.0309 6.27893C14.3539 5.89469 14.7948 5.63325 15.282 5.53714C15.7692 5.44103 16.274 5.51591 16.7141 5.7496L18.7438 6.82047V10.1872ZM23.362 18.7913C23.3773 18.8123 23.3875 18.8367 23.3918 18.8625C23.3961 18.8883 23.3944 18.9147 23.3868 18.9397C23.3623 19.0431 23.2121 19.3254 22.3478 19.7127C21.6581 20.0218 20.7371 20.2986 19.8456 20.5664V17.5403C21.4269 17.8718 23.0373 18.2739 23.362 18.7913ZM21.8753 5.74967C22.3154 5.51597 22.8202 5.44107 23.3074 5.53716C23.7946 5.63326 24.2355 5.89469 24.5585 6.27893L27.8617 10.1872H25.2278C24.7746 10.1066 23.9627 9.86622 23.3281 9.15011C23.0743 8.86252 22.874 8.53019 22.737 8.16937C22.7111 8.10004 22.6719 8.03662 22.6219 7.98279C22.5718 7.92895 22.5118 7.88576 22.4453 7.8557C22.3788 7.82565 22.3071 7.80932 22.2344 7.80768C22.1617 7.80603 22.0893 7.81909 22.0216 7.8461C21.9538 7.87312 21.892 7.91355 21.8397 7.96507C21.7873 8.01659 21.7455 8.07817 21.7166 8.14627C21.6877 8.21436 21.6723 8.28762 21.6713 8.36181C21.6703 8.436 21.6838 8.50965 21.7108 8.57853C21.8963 9.06613 22.1674 9.51519 22.5107 9.90368C22.5991 10.0027 22.692 10.0973 22.7893 10.1872H19.8456V6.82047L21.8753 5.74967ZM19.2947 3.53758C19.1494 3.53758 19.0074 3.49364 18.8866 3.41132C18.7658 3.32899 18.6717 3.21198 18.6161 3.07507C18.5605 2.93817 18.5459 2.78753 18.5743 2.64219C18.6026 2.49685 18.6726 2.36336 18.7753 2.25857C18.878 2.15379 19.0089 2.08244 19.1514 2.05353C19.2939 2.02462 19.4416 2.03945 19.5758 2.09616C19.71 2.15287 19.8247 2.2489 19.9055 2.37211C19.9862 2.49532 20.0292 2.64017 20.0292 2.78836C20.029 2.98699 19.9515 3.17742 19.8138 3.31788C19.6761 3.45833 19.4894 3.53735 19.2947 3.53758ZM21.895 23.3333C21.7495 23.8186 20.7771 24.2842 19.8456 24.6804V22.0851C20.8156 22.4101 21.678 22.7733 21.8801 23.1561C21.8955 23.1826 21.9049 23.2123 21.9075 23.243C21.9101 23.2737 21.9058 23.3046 21.895 23.3333Z" fill="#FCFCFC"/>
</g>
<defs>
<clipPath id="clip0_1_22621">
<rect width="37.6082" height="38.3604" fill="white" transform="translate(0.491089 0.915283)"/>
</clipPath>
</defs>
</svg>
