<svg width="18" height="11" viewBox="0 0 18 11" fill="none" xmlns="http://www.w3.org/2000/svg">
<path opacity="0.63" d="M16.6719 10.9557H0.756104L1.32044 8.75977H16.108L16.6719 10.9557Z" fill="#440E37"/>
<path d="M8.41135 5.98142C8.24298 5.85901 8.07551 5.73481 7.9116 5.60571L1.62375 8.21433C1.15607 8.40842 0.967223 8.95284 1.20195 9.43005L8.81266 6.27256C8.67904 6.17507 8.54497 6.07891 8.41135 5.98142Z" fill="#402206"/>
<path d="M8.45458 5.99658C8.38332 5.94494 8.3125 5.89286 8.24212 5.84033L1.93468 8.45696C1.56366 8.61098 1.36857 8.98536 1.42068 9.3722L8.85545 6.28771C8.72227 6.19067 8.58821 6.09407 8.45458 5.99658Z" fill="#703D0B"/>
<path opacity="0.2" d="M5.90576 7.65833L8.81206 6.27256C8.67888 6.17507 8.54437 6.07847 8.41074 5.98142C8.24238 5.85901 8.0749 5.73481 7.91099 5.60571L6.46965 6.19688L6.54804 6.50048L5.90576 7.65833Z" fill="#821C4E"/>
<path d="M9.05903 5.98142C9.22739 5.85901 9.39487 5.73481 9.55878 5.60571L15.8466 8.21433C16.3143 8.40842 16.5032 8.95284 16.2684 9.43005L8.65771 6.27256C8.79134 6.17507 8.92541 6.07891 9.05903 5.98142Z" fill="#402206"/>
<path d="M9.0598 5.98145C9.13107 5.92981 9.20189 5.87772 9.27227 5.8252L15.5797 8.44182C15.9507 8.59585 16.1458 8.97022 16.0937 9.35706L8.65894 6.27258C8.79211 6.17509 8.92618 6.07893 9.0598 5.98145Z" fill="#703D0B"/>
<path opacity="0.2" d="M11.258 7.40236L8.65771 6.27256C8.79089 6.17507 8.92541 6.07847 9.05903 5.98142C9.22739 5.85901 9.39487 5.73481 9.55878 5.60571L11.0001 6.19688L10.9217 6.50048L11.258 7.40236Z" fill="#821C4E"/>
<path d="M16.3268 9.75173L9.77931 6.4687L16.3268 3.18567C16.7865 2.95508 16.9718 2.39597 16.7415 1.93701L9.41497 5.61089C8.94105 5.61089 8.54241 5.61089 8.06849 5.61089L0.741957 1.93701C0.511235 2.39641 0.696971 2.95553 1.15663 3.18567L7.70415 6.4687L1.15663 9.75173C0.696971 9.98232 0.51168 10.5414 0.741957 11.0004L8.74195 6.98909L16.7419 11.0004C16.9722 10.5414 16.7865 9.98232 16.3268 9.75173Z" fill="#8A4B0D"/>
<path d="M16.767 1.99178C16.7619 1.97351 16.7539 1.95478 16.7422 1.93652C16.7511 1.95478 16.7591 1.97351 16.767 1.99178Z" fill="#821C4E"/>
<path d="M16.767 1.99178C16.7619 1.97351 16.7539 1.95478 16.7422 1.93652C16.7511 1.95478 16.7591 1.97351 16.767 1.99178Z" fill="#942059"/>
<path d="M16.0631 9.95755L9.44124 6.63713L16.3264 3.1845C16.6912 3.00154 16.8831 2.61159 16.8315 2.2292C16.8208 2.14818 16.7981 2.06761 16.7651 1.98926C16.8292 2.21273 16.4315 2.42996 16.2596 2.51632L9.55971 5.87592H7.92283L1.22299 2.51632C1.05462 2.43219 0.665336 2.21228 0.711659 2.00217C0.681371 2.07651 0.661328 2.15263 0.650638 2.22964C0.598971 2.61248 0.790942 3.00199 1.15573 3.18495L8.04087 6.63758L1.41897 9.958C1.05418 10.141 0.862208 10.5309 0.913875 10.9133L8.74105 6.98836L16.5682 10.9133C16.6199 10.5305 16.4279 10.1405 16.0631 9.95755Z" fill="#B56311"/>
<path opacity="0.44" d="M8.74052 6.79013L1.10264 10.6202C1.15252 10.407 1.29417 10.2205 1.49816 10.1181L8.43764 6.63833L1.23493 3.02678C1.02068 2.91949 0.875035 2.71917 0.832275 2.49214C0.917794 2.55447 1.02113 2.6159 1.14228 2.67644L7.87999 6.05473H9.60105L16.3388 2.67644C16.4599 2.61545 16.5632 2.55402 16.6488 2.4917C16.6064 2.71873 16.4608 2.91905 16.2461 3.02633L9.04339 6.63788L15.9829 10.1177C16.1869 10.2201 16.329 10.4061 16.3784 10.6198L8.74052 6.79013Z" fill="white"/>
<path d="M0.710938 2.00255C0.719926 1.98054 0.729812 1.95853 0.740598 1.93652C0.725767 1.95853 0.715881 1.98054 0.710938 2.00255Z" fill="#821C4E"/>
<path d="M0.710938 2.00255C0.719926 1.98054 0.729812 1.95853 0.740598 1.93652C0.725767 1.95853 0.715881 1.98054 0.710938 2.00255Z" fill="#942059"/>
<path d="M16.7456 1.94206L15.9163 1.07579C15.7729 0.934228 15.5542 0.903067 15.3769 0.99833L9.26231 4.29115L8.68506 4.32587L8.26415 4.3005L2.14957 1.00768C1.97229 0.912415 1.7536 0.943576 1.61018 1.08514L0.743408 1.94073L8.06683 5.62617H8.87079V5.61682H9.45962L16.7456 1.94206Z" fill="#402206"/>
<path d="M17.0659 1.60028L16.0286 0.908063C15.9907 0.876457 15.9373 0.869779 15.8927 0.891592L9.24768 4.15414L9.26015 4.50492C9.13321 4.4653 8.93322 4.41856 8.6829 4.41901C8.43392 4.41945 8.23526 4.4662 8.10921 4.50537L8.12168 4.15236L1.47662 0.889811C1.43208 0.867999 1.37908 0.874231 1.34077 0.906282L0.303416 1.5985C0.197854 1.75386 0.293171 1.87361 0.355083 1.90432C0.355083 1.90432 7.13644 5.28528 8.07269 5.74691C8.11367 5.76694 8.16088 5.76739 8.20275 5.74869C8.32746 5.6926 8.57021 5.63072 8.76352 5.63072C8.95504 5.63028 9.15681 5.70284 9.27084 5.74246C9.30959 5.75581 9.3519 5.75314 9.38843 5.73489C10.5189 5.1691 17.0147 1.9061 17.0147 1.9061C17.0762 1.87539 17.1715 1.75608 17.0659 1.60028Z" fill="#B3276B"/>
<path d="M8.67856 4.27442C8.39617 4.27486 8.17837 4.33496 8.05811 4.37636L8.18995 5.6081C8.76586 5.36995 8.99881 5.46565 9.36182 5.57872L9.30436 4.37636C9.18321 4.33496 8.96362 4.27397 8.67856 4.27442Z" fill="#360B2B"/>
<path d="M15.8929 0.703532L9.2478 3.96608L9.35203 5.58111L17.0144 1.71804C17.0763 1.68733 17.0866 1.60275 17.0331 1.55823L16.0287 0.720003C15.9904 0.687951 15.9374 0.681719 15.8929 0.703532Z" fill="#360B2B"/>
<path d="M1.53006 0.726969L8.17512 3.98952L8.19516 5.61033L0.408517 1.74148C0.346605 1.71076 0.33636 1.62618 0.389809 1.58167L1.39421 0.74344C1.43251 0.711389 1.48552 0.705157 1.53006 0.726969Z" fill="#360B2B"/>
<path d="M8.74438 4.42571C9.0958 3.16904 9.91714 2.28585 11.1474 1.83847C11.9161 1.55891 13.2394 1.11954 14.4986 1.03051C15.1899 1.05188 15.3872 1.02339 15.7823 0.924561L16.805 1.68088L8.78179 5.37746C8.75373 5.06629 8.73502 4.83081 8.74438 4.42571Z" fill="white"/>
<path d="M14.5587 1.10739C14.5997 1.17194 14.6358 1.2396 14.6754 1.30504C14.7097 1.36202 14.7476 1.41455 14.7895 1.46574C14.8425 1.52984 14.8928 1.59617 14.9418 1.66339C15.0402 1.79872 15.1329 1.93761 15.2291 2.07471C15.2767 2.14282 15.3253 2.21049 15.3756 2.27682C15.3872 2.29195 15.3992 2.30664 15.4112 2.32178L16.8049 1.67942L15.7823 0.923096C15.3885 1.02192 15.1908 1.04997 14.5044 1.02949C14.524 1.05486 14.5418 1.08113 14.5587 1.10739Z" fill="#BFC7C9"/>
<path d="M8.79468 5.39058C9.14121 4.11076 10.1897 3.15278 11.403 2.62305C12.1611 2.29185 13.6532 1.91169 14.895 1.73852C15.6001 1.73852 16.2397 1.73852 16.7381 1.70068L9.35455 5.50143C9.27394 5.46181 8.85392 5.38524 8.79468 5.39058Z" fill="#AEB4B8"/>
<path d="M9.02637 5.24571C9.19295 4.68437 9.55908 4.20182 9.96841 3.79183C10.8111 2.97541 11.9157 2.48218 13.0422 2.19595C13.607 2.05216 14.1833 1.96179 14.7619 1.91016C14.5027 1.94755 14.1553 2.00497 13.9032 2.05439C12.497 2.33662 11.0761 2.84632 10.0147 3.8408C9.59783 4.23521 9.22814 4.70173 9.02637 5.24571Z" fill="#AEB4B8"/>
<path d="M9.36694 5.36781C11.508 4.20907 13.7302 3.08416 15.9207 2.02246C13.7765 3.17319 11.5615 4.31323 9.36694 5.36781Z" fill="#AEB4B8"/>
<g opacity="0.69">
<path d="M9.67725 4.96529C11.3092 4.06341 12.9866 3.20159 14.6703 2.39941C13.0379 3.3013 11.3609 4.16357 9.67725 4.96529Z" fill="#AEB4B8"/>
</g>
<g opacity="0.69">
<path d="M9.47803 4.67801C10.7319 3.32697 12.0235 2.62317 13.8297 2.26393C14.0662 2.21764 14.3031 2.17579 14.5414 2.14062C14.3067 2.19315 14.0711 2.24346 13.8381 2.30222C11.9982 2.74426 10.8494 3.38751 9.47803 4.67801Z" fill="#AEB4B8"/>
</g>
<g opacity="0.69">
<path d="M9.90088 4.57879C10.9761 3.73478 12.2085 3.08396 13.5114 2.67041C12.2544 3.20682 11.0514 3.84384 9.90088 4.57879Z" fill="#AEB4B8"/>
</g>
<path d="M8.83327 4.42571C8.48185 3.16904 7.66051 2.28585 6.43029 1.83847C5.66152 1.55891 4.33821 1.11954 3.07903 1.03051C2.38776 1.05188 2.19044 1.02339 1.79536 0.924561L0.772705 1.68088L8.79586 5.37746C8.82392 5.06629 8.84307 4.83081 8.83327 4.42571Z" fill="white"/>
<path d="M3.0189 1.10739C2.97793 1.17194 2.94185 1.2396 2.90221 1.30504C2.86791 1.36202 2.83005 1.41455 2.78818 1.46574C2.73518 1.52984 2.68485 1.59617 2.63585 1.66339C2.53742 1.79872 2.44477 1.93761 2.34856 2.07471C2.3009 2.14282 2.25235 2.21049 2.20202 2.27682C2.19044 2.29195 2.17842 2.30664 2.16639 2.32178L0.772705 1.67942L1.79536 0.923096C2.18911 1.02192 2.38687 1.04997 3.07324 1.02949C3.05409 1.05486 3.03583 1.08113 3.0189 1.10739Z" fill="#BFC7C9"/>
<path d="M8.80538 5.39281C8.45886 4.11298 7.38898 3.15278 6.17569 2.62305C5.4176 2.29185 3.92548 1.91169 2.68368 1.73852C1.9786 1.73852 1.33899 1.73852 0.840576 1.70068L8.17958 5.47917C8.26065 5.43955 8.74614 5.38747 8.80538 5.39281Z" fill="#AEB4B8"/>
<path d="M8.55068 5.24616C8.34891 4.70218 7.97922 4.2361 7.56187 3.8408C6.50046 2.84587 5.0796 2.33617 3.67345 2.05439C3.42224 2.00408 3.07081 1.94799 2.8147 1.91016C3.39328 1.96179 3.97009 2.05216 4.53442 2.19595C5.66086 2.48218 6.76548 2.97542 7.60819 3.79183C8.01797 4.20227 8.3841 4.68481 8.55068 5.24616Z" fill="#AEB4B8"/>
<path d="M8.21049 5.36781C6.01596 4.31323 3.80138 3.17363 1.65674 2.02246C3.84726 3.08371 6.06941 4.20907 8.21049 5.36781Z" fill="#AEB4B8"/>
<g opacity="0.69">
<path d="M7.90271 4.967C6.21906 4.16528 4.54209 3.30301 2.90967 2.40112C4.59332 3.20329 6.27117 4.06512 7.90271 4.967Z" fill="#AEB4B8"/>
</g>
<g opacity="0.69">
<path d="M8.09954 4.67801C6.72724 3.38706 5.57808 2.74426 3.73943 2.30222C3.50649 2.24346 3.27131 2.1936 3.03613 2.14062C3.27443 2.17579 3.51138 2.21764 3.7479 2.26393C5.55448 2.62362 6.84616 3.32786 8.09954 4.67801Z" fill="#AEB4B8"/>
</g>
<g opacity="0.69">
<path d="M7.6747 4.57879C6.52376 3.84384 5.32115 3.20682 4.06421 2.67041C5.36703 3.08396 6.59948 3.73478 7.6747 4.57879Z" fill="#AEB4B8"/>
</g>
<path d="M8.88672 4.26392C8.88672 4.26392 9.15931 1.79464 14.2463 1.19189" stroke="#AEB4B8" stroke-width="0.198257" stroke-miterlimit="10"/>
<path d="M8.89917 4.29688C8.89917 4.29688 9.2702 1.82671 14.2868 1.24756" stroke="#AEB4B8" stroke-width="0.198257" stroke-miterlimit="10"/>
<path d="M8.91089 4.33135C8.91089 4.33135 9.3799 1.86029 14.3271 1.30518" stroke="#AEB4B8" stroke-width="0.198257" stroke-miterlimit="10"/>
<path d="M8.92383 4.36386C8.92383 4.36386 9.49128 1.89147 14.3681 1.36084" stroke="#AEB4B8" stroke-width="0.198257" stroke-miterlimit="10"/>
<path d="M8.93628 4.39833C8.93628 4.39833 9.60172 1.92504 14.4086 1.41846" stroke="#AEB4B8" stroke-width="0.198257" stroke-miterlimit="10"/>
<path d="M8.94922 4.43105C8.94922 4.43105 9.7131 1.95687 14.45 1.47388" stroke="#AEB4B8" stroke-width="0.198257" stroke-miterlimit="10"/>
<path d="M8.9624 4.46576C8.9624 4.46576 9.82427 1.99025 14.4913 1.53174" stroke="#AEB4B8" stroke-width="0.198257" stroke-miterlimit="10"/>
<path d="M8.97461 4.49925C8.97461 4.49925 9.93491 2.02285 14.5315 1.58838" stroke="#AEB4B8" stroke-width="0.198257" stroke-miterlimit="10"/>
<path d="M8.98755 4.53153C8.98755 4.53153 10.0458 2.05423 14.573 1.6438" stroke="#AEB4B8" stroke-width="0.198257" stroke-miterlimit="10"/>
<path d="M8.99878 4.56546C8.99878 4.56546 10.1555 2.08683 14.6123 1.70044" stroke="#AEB4B8" stroke-width="0.198257" stroke-miterlimit="10"/>
<path d="M8.67748 4.26392C8.67748 4.26392 8.40489 1.79464 3.31787 1.19189" stroke="#AEB4B8" stroke-width="0.198257" stroke-miterlimit="10"/>
<path d="M8.66501 4.29688C8.66501 4.29688 8.29399 1.82671 3.27734 1.24756" stroke="#AEB4B8" stroke-width="0.198257" stroke-miterlimit="10"/>
<path d="M8.65299 4.33135C8.65299 4.33135 8.18398 1.86029 3.23682 1.30518" stroke="#AEB4B8" stroke-width="0.198257" stroke-miterlimit="10"/>
<path d="M8.64028 4.36386C8.64028 4.36386 8.07283 1.89147 3.19604 1.36084" stroke="#AEB4B8" stroke-width="0.198257" stroke-miterlimit="10"/>
<path d="M8.62684 4.39833C8.62684 4.39833 7.9614 1.92504 3.15454 1.41846" stroke="#AEB4B8" stroke-width="0.198257" stroke-miterlimit="10"/>
<path d="M8.61384 4.43105C8.61384 4.43105 7.84996 1.95687 3.11304 1.47388" stroke="#AEB4B8" stroke-width="0.198257" stroke-miterlimit="10"/>
<path d="M8.60162 4.46576C8.60162 4.46576 7.73975 1.99025 3.07275 1.53174" stroke="#AEB4B8" stroke-width="0.198257" stroke-miterlimit="10"/>
<path d="M8.59013 4.49925C8.59013 4.49925 7.62983 2.02285 3.0332 1.58838" stroke="#AEB4B8" stroke-width="0.198257" stroke-miterlimit="10"/>
<path d="M8.57835 4.53153C8.57835 4.53153 7.52006 2.05423 2.99292 1.6438" stroke="#AEB4B8" stroke-width="0.198257" stroke-miterlimit="10"/>
<path d="M8.56491 4.56546C8.56491 4.56546 7.40818 2.08683 2.95142 1.70044" stroke="#AEB4B8" stroke-width="0.198257" stroke-miterlimit="10"/>
<path d="M8.17781 5.60368C8.17781 5.60368 8.71408 5.37665 9.30425 5.61035L9.4695 5.5231C9.4695 5.5231 8.76219 5.19458 8.04419 5.52845L8.17781 5.60368Z" fill="#360B2B"/>
</svg>
