<svg width="18" height="12" viewBox="0 0 18 12" fill="none" xmlns="http://www.w3.org/2000/svg">
<path opacity="0.63" d="M17.1719 11.0326H1.2561L1.82044 8.83667H16.608L17.1719 11.0326Z" fill="#440E37"/>
<path d="M8.91135 6.05833C8.74298 5.93591 8.57551 5.81171 8.4116 5.68262L2.12375 8.29123C1.65607 8.48532 1.46722 9.02975 1.70195 9.50695L9.31266 6.34946C9.17904 6.25197 9.04497 6.15582 8.91135 6.05833Z" fill="#402206"/>
<path d="M8.95458 6.07349C8.88332 6.02185 8.8125 5.96976 8.74212 5.91724L2.43468 8.53386C2.06366 8.68789 1.86857 9.06227 1.92068 9.44911L9.35545 6.36462C9.22227 6.26758 9.08821 6.17098 8.95458 6.07349Z" fill="#703D0B"/>
<path opacity="0.2" d="M6.40576 7.73523L9.31206 6.34946C9.17888 6.25197 9.04437 6.15537 8.91074 6.05833C8.74238 5.93591 8.5749 5.81171 8.41099 5.68262L6.96965 6.27378L7.04804 6.57738L6.40576 7.73523Z" fill="#821C4E"/>
<path d="M9.55903 6.05833C9.72739 5.93591 9.89487 5.81171 10.0588 5.68262L16.3466 8.29123C16.8143 8.48532 17.0032 9.02975 16.7684 9.50695L9.15771 6.34946C9.29134 6.25197 9.42541 6.15582 9.55903 6.05833Z" fill="#402206"/>
<path d="M9.5598 6.05835C9.63107 6.00671 9.70189 5.95463 9.77227 5.9021L16.0797 8.51873C16.4507 8.67275 16.6458 9.04713 16.5937 9.43397L9.15894 6.34948C9.29211 6.25199 9.42618 6.15584 9.5598 6.05835Z" fill="#703D0B"/>
<path opacity="0.2" d="M11.758 7.47927L9.15771 6.34946C9.29089 6.25197 9.42541 6.15537 9.55903 6.05833C9.72739 5.93591 9.89487 5.81171 10.0588 5.68262L11.5001 6.27378L11.4217 6.57738L11.758 7.47927Z" fill="#821C4E"/>
<path d="M16.8268 9.82863L10.2793 6.54561L16.8268 3.26258C17.2865 3.03199 17.4718 2.47287 17.2415 2.01392L9.91497 5.68779C9.44105 5.68779 9.04241 5.68779 8.56849 5.68779L1.24196 2.01392C1.01124 2.47332 1.19697 3.03243 1.65663 3.26258L8.20415 6.54561L1.65663 9.82863C1.19697 10.0592 1.01168 10.6183 1.24196 11.0773L9.24195 7.06599L17.2419 11.0773C17.4722 10.6183 17.2865 10.0592 16.8268 9.82863Z" fill="#8A4B0D"/>
<path d="M17.267 2.06868C17.2619 2.05042 17.2539 2.03169 17.2422 2.01343C17.2511 2.03169 17.2591 2.05042 17.267 2.06868Z" fill="#821C4E"/>
<path d="M17.267 2.06868C17.2619 2.05042 17.2539 2.03169 17.2422 2.01343C17.2511 2.03169 17.2591 2.05042 17.267 2.06868Z" fill="#942059"/>
<path d="M16.5631 10.0345L9.94124 6.71404L16.8264 3.26141C17.1912 3.07845 17.3831 2.68849 17.3315 2.3061C17.3208 2.22508 17.2981 2.14451 17.2651 2.06616C17.3292 2.28963 16.9315 2.50687 16.7596 2.59323L10.0597 5.95282H8.42283L1.72299 2.59323C1.55462 2.50909 1.16534 2.28919 1.21166 2.07907C1.18137 2.15341 1.16133 2.22953 1.15064 2.30655C1.09897 2.68938 1.29094 3.07889 1.65573 3.26185L8.54087 6.71448L1.91897 10.0349C1.55418 10.2179 1.36221 10.6078 1.41388 10.9902L9.24105 7.06527L17.0682 10.9902C17.1199 10.6074 16.9279 10.2174 16.5631 10.0345Z" fill="#B56311"/>
<path opacity="0.44" d="M9.24052 6.86703L1.60264 10.6972C1.65252 10.4839 1.79417 10.2974 1.99816 10.195L8.93764 6.71523L1.73493 3.10368C1.52068 2.9964 1.37503 2.79608 1.33228 2.56905C1.41779 2.63137 1.52113 2.6928 1.64228 2.75334L8.37999 6.13163H10.101L16.8388 2.75334C16.9599 2.69236 17.0632 2.63093 17.1488 2.5686C17.1064 2.79563 16.9608 2.99595 16.7461 3.10324L9.54339 6.71479L16.4829 10.1946C16.6869 10.297 16.829 10.483 16.8784 10.6967L9.24052 6.86703Z" fill="white"/>
<path d="M1.21094 2.07946C1.21993 2.05745 1.22981 2.03544 1.2406 2.01343C1.22577 2.03544 1.21588 2.05745 1.21094 2.07946Z" fill="#821C4E"/>
<path d="M1.21094 2.07946C1.21993 2.05745 1.22981 2.03544 1.2406 2.01343C1.22577 2.03544 1.21588 2.05745 1.21094 2.07946Z" fill="#942059"/>
<path d="M17.2456 2.01897L16.4163 1.15269C16.2729 1.01113 16.0542 0.979971 15.8769 1.07523L9.76231 4.36805L9.18506 4.40278L8.76415 4.3774L2.64957 1.08458C2.47229 0.989319 2.2536 1.02048 2.11018 1.16204L1.24341 2.01763L8.56683 5.70308H9.37079V5.69373H9.95962L17.2456 2.01897Z" fill="#402206"/>
<path d="M17.5659 1.67718L16.5286 0.984967C16.4907 0.953361 16.4373 0.946683 16.3927 0.968496L9.74768 4.23105L9.76015 4.58183C9.63321 4.54221 9.43322 4.49547 9.1829 4.49591C8.93392 4.49636 8.73526 4.5431 8.60921 4.58227L8.62168 4.22926L1.97662 0.966716C1.93208 0.944903 1.87908 0.951135 1.84077 0.983186L0.803416 1.6754C0.697854 1.83076 0.793171 1.95051 0.855083 1.98123C0.855083 1.98123 7.63644 5.36219 8.57269 5.82381C8.61367 5.84385 8.66088 5.84429 8.70275 5.82559C8.82746 5.76951 9.07021 5.70763 9.26352 5.70763C9.45504 5.70718 9.65681 5.77974 9.77084 5.81936C9.80959 5.83272 9.8519 5.83005 9.88843 5.81179C11.0189 5.246 17.5147 1.98301 17.5147 1.98301C17.5762 1.95229 17.6715 1.83299 17.5659 1.67718Z" fill="#B3276B"/>
<path d="M9.17856 4.35132C8.89617 4.35177 8.67837 4.41186 8.55811 4.45326L8.68995 5.68501C9.26586 5.44685 9.49881 5.54256 9.86182 5.65563L9.80436 4.45326C9.68321 4.41186 9.46362 4.35088 9.17856 4.35132Z" fill="#360B2B"/>
<path d="M16.3929 0.780436L9.7478 4.04298L9.85203 5.65801L17.5144 1.79495C17.5763 1.76423 17.5866 1.67965 17.5331 1.63514L16.5287 0.796907C16.4904 0.764856 16.4374 0.758624 16.3929 0.780436Z" fill="#360B2B"/>
<path d="M2.03006 0.803874L8.67512 4.06642L8.69516 5.68723L0.908517 1.81838C0.846605 1.78767 0.83636 1.70309 0.889809 1.65857L1.89421 0.820344C1.93251 0.788293 1.98552 0.782061 2.03006 0.803874Z" fill="#360B2B"/>
<path d="M9.24438 4.50262C9.5958 3.24594 10.4171 2.36275 11.6474 1.91537C12.4161 1.63581 13.7394 1.19644 14.9986 1.10741C15.6899 1.12878 15.8872 1.10029 16.2823 1.00146L17.305 1.75779L9.28179 5.45436C9.25373 5.1432 9.23502 4.90771 9.24438 4.50262Z" fill="white"/>
<path d="M15.0587 1.18429C15.0997 1.24884 15.1358 1.31651 15.1754 1.38194C15.2097 1.43892 15.2476 1.49145 15.2895 1.54265C15.3425 1.60675 15.3928 1.67308 15.4418 1.74029C15.5402 1.87562 15.6329 2.01451 15.7291 2.15162C15.7767 2.21973 15.8253 2.28739 15.8756 2.35372C15.8872 2.36886 15.8992 2.38355 15.9112 2.39868L17.3049 1.75632L16.2823 1C15.8885 1.09882 15.6908 1.12687 15.0044 1.10639C15.024 1.13177 15.0418 1.15803 15.0587 1.18429Z" fill="#BFC7C9"/>
<path d="M9.29468 5.46749C9.64121 4.18766 10.6897 3.22969 11.903 2.69995C12.6611 2.36876 14.1532 1.98859 15.395 1.81543C16.1001 1.81543 16.7397 1.81543 17.2381 1.77759L9.85455 5.57833C9.77394 5.53871 9.35392 5.46214 9.29468 5.46749Z" fill="#AEB4B8"/>
<path d="M9.52637 5.32262C9.69295 4.76127 10.0591 4.27872 10.4684 3.86874C11.3111 3.05232 12.4157 2.55909 13.5422 2.27285C14.107 2.12907 14.6833 2.0387 15.2619 1.98706C15.0027 2.02445 14.6553 2.08188 14.4032 2.13129C12.997 2.41352 11.5761 2.92322 10.5147 3.9177C10.0978 4.31211 9.72814 4.77863 9.52637 5.32262Z" fill="#AEB4B8"/>
<path d="M9.86694 5.44471C12.008 4.28597 14.2302 3.16106 16.4207 2.09937C14.2765 3.25009 12.0615 4.39014 9.86694 5.44471Z" fill="#AEB4B8"/>
<g opacity="0.69">
<path d="M10.1772 5.0422C11.8092 4.14031 13.4866 3.27849 15.1703 2.47632C13.5379 3.3782 11.8609 4.24047 10.1772 5.0422Z" fill="#AEB4B8"/>
</g>
<g opacity="0.69">
<path d="M9.97803 4.75492C11.2319 3.40387 12.5235 2.70008 14.3297 2.34084C14.5662 2.29454 14.8031 2.2527 15.0414 2.21753C14.8067 2.27006 14.5711 2.32036 14.3381 2.37912C12.4982 2.82116 11.3494 3.46441 9.97803 4.75492Z" fill="#AEB4B8"/>
</g>
<g opacity="0.69">
<path d="M10.4009 4.6557C11.4761 3.81168 12.7085 3.16086 14.0114 2.74731C12.7544 3.28373 11.5514 3.92075 10.4009 4.6557Z" fill="#AEB4B8"/>
</g>
<path d="M9.33327 4.50262C8.98185 3.24594 8.16051 2.36275 6.93029 1.91537C6.16152 1.63581 4.83821 1.19644 3.57903 1.10741C2.88776 1.12878 2.69044 1.10029 2.29536 1.00146L1.27271 1.75779L9.29586 5.45436C9.32392 5.1432 9.34307 4.90771 9.33327 4.50262Z" fill="white"/>
<path d="M3.5189 1.18429C3.47793 1.24884 3.44185 1.31651 3.40221 1.38194C3.36791 1.43892 3.33005 1.49145 3.28818 1.54265C3.23518 1.60675 3.18485 1.67308 3.13585 1.74029C3.03742 1.87562 2.94477 2.01451 2.84856 2.15162C2.8009 2.21973 2.75235 2.28739 2.70202 2.35372C2.69044 2.36886 2.67842 2.38355 2.66639 2.39868L1.27271 1.75632L2.29536 1C2.68911 1.09882 2.88687 1.12687 3.57324 1.10639C3.55409 1.13177 3.53583 1.15803 3.5189 1.18429Z" fill="#BFC7C9"/>
<path d="M9.30538 5.46971C8.95886 4.18989 7.88898 3.22969 6.67569 2.69995C5.9176 2.36876 4.42548 1.98859 3.18368 1.81543C2.4786 1.81543 1.83899 1.81543 1.34058 1.77759L8.67958 5.55607C8.76065 5.51645 9.24614 5.46437 9.30538 5.46971Z" fill="#AEB4B8"/>
<path d="M9.05068 5.32306C8.84891 4.77908 8.47922 4.313 8.06187 3.9177C7.00046 2.92278 5.5796 2.41307 4.17345 2.13129C3.92224 2.08099 3.57081 2.0249 3.3147 1.98706C3.89328 2.0387 4.47009 2.12907 5.03442 2.27285C6.16086 2.55909 7.26548 3.05232 8.10819 3.86874C8.51797 4.27917 8.8841 4.76172 9.05068 5.32306Z" fill="#AEB4B8"/>
<path d="M8.71049 5.44471C6.51596 4.39014 4.30138 3.25054 2.15674 2.09937C4.34726 3.16062 6.56941 4.28597 8.71049 5.44471Z" fill="#AEB4B8"/>
<g opacity="0.69">
<path d="M8.40271 5.04391C6.71906 4.24218 5.04209 3.37991 3.40967 2.47803C5.09332 3.2802 6.77117 4.14202 8.40271 5.04391Z" fill="#AEB4B8"/>
</g>
<g opacity="0.69">
<path d="M8.59954 4.75492C7.22724 3.46397 6.07808 2.82116 4.23943 2.37912C4.00649 2.32036 3.77131 2.2705 3.53613 2.21753C3.77443 2.2527 4.01138 2.29454 4.2479 2.34084C6.05448 2.70052 7.34616 3.40476 8.59954 4.75492Z" fill="#AEB4B8"/>
</g>
<g opacity="0.69">
<path d="M8.1747 4.6557C7.02376 3.92075 5.82115 3.28373 4.56421 2.74731C5.86703 3.16086 7.09948 3.81168 8.1747 4.6557Z" fill="#AEB4B8"/>
</g>
<path d="M9.38672 4.34082C9.38672 4.34082 9.65931 1.87154 14.7463 1.2688" stroke="#AEB4B8" stroke-width="0.198257" stroke-miterlimit="10"/>
<path d="M9.39917 4.37378C9.39917 4.37378 9.7702 1.90361 14.7868 1.32446" stroke="#AEB4B8" stroke-width="0.198257" stroke-miterlimit="10"/>
<path d="M9.41089 4.40825C9.41089 4.40825 9.8799 1.93719 14.8271 1.38208" stroke="#AEB4B8" stroke-width="0.198257" stroke-miterlimit="10"/>
<path d="M9.42383 4.44077C9.42383 4.44077 9.99128 1.96837 14.8681 1.43774" stroke="#AEB4B8" stroke-width="0.198257" stroke-miterlimit="10"/>
<path d="M9.43628 4.47524C9.43628 4.47524 10.1017 2.00195 14.9086 1.49536" stroke="#AEB4B8" stroke-width="0.198257" stroke-miterlimit="10"/>
<path d="M9.44922 4.50795C9.44922 4.50795 10.2131 2.03378 14.95 1.55078" stroke="#AEB4B8" stroke-width="0.198257" stroke-miterlimit="10"/>
<path d="M9.4624 4.54267C9.4624 4.54267 10.3243 2.06715 14.9913 1.60864" stroke="#AEB4B8" stroke-width="0.198257" stroke-miterlimit="10"/>
<path d="M9.47461 4.57616C9.47461 4.57616 10.4349 2.09976 15.0315 1.66528" stroke="#AEB4B8" stroke-width="0.198257" stroke-miterlimit="10"/>
<path d="M9.48755 4.60843C9.48755 4.60843 10.5458 2.13114 15.073 1.7207" stroke="#AEB4B8" stroke-width="0.198257" stroke-miterlimit="10"/>
<path d="M9.49878 4.64237C9.49878 4.64237 10.6555 2.16374 15.1123 1.77734" stroke="#AEB4B8" stroke-width="0.198257" stroke-miterlimit="10"/>
<path d="M9.17748 4.34082C9.17748 4.34082 8.90489 1.87154 3.81787 1.2688" stroke="#AEB4B8" stroke-width="0.198257" stroke-miterlimit="10"/>
<path d="M9.16501 4.37378C9.16501 4.37378 8.79399 1.90361 3.77734 1.32446" stroke="#AEB4B8" stroke-width="0.198257" stroke-miterlimit="10"/>
<path d="M9.15299 4.40825C9.15299 4.40825 8.68398 1.93719 3.73682 1.38208" stroke="#AEB4B8" stroke-width="0.198257" stroke-miterlimit="10"/>
<path d="M9.14028 4.44077C9.14028 4.44077 8.57283 1.96837 3.69604 1.43774" stroke="#AEB4B8" stroke-width="0.198257" stroke-miterlimit="10"/>
<path d="M9.12684 4.47524C9.12684 4.47524 8.4614 2.00195 3.65454 1.49536" stroke="#AEB4B8" stroke-width="0.198257" stroke-miterlimit="10"/>
<path d="M9.11384 4.50795C9.11384 4.50795 8.34996 2.03378 3.61304 1.55078" stroke="#AEB4B8" stroke-width="0.198257" stroke-miterlimit="10"/>
<path d="M9.10162 4.54267C9.10162 4.54267 8.23975 2.06715 3.57275 1.60864" stroke="#AEB4B8" stroke-width="0.198257" stroke-miterlimit="10"/>
<path d="M9.09013 4.57616C9.09013 4.57616 8.12983 2.09976 3.5332 1.66528" stroke="#AEB4B8" stroke-width="0.198257" stroke-miterlimit="10"/>
<path d="M9.07835 4.60843C9.07835 4.60843 8.02006 2.13114 3.49292 1.7207" stroke="#AEB4B8" stroke-width="0.198257" stroke-miterlimit="10"/>
<path d="M9.06491 4.64237C9.06491 4.64237 7.90818 2.16374 3.45142 1.77734" stroke="#AEB4B8" stroke-width="0.198257" stroke-miterlimit="10"/>
<path d="M8.67781 5.68058C8.67781 5.68058 9.21408 5.45355 9.80425 5.68726L9.9695 5.60001C9.9695 5.60001 9.26219 5.27148 8.54419 5.60535L8.67781 5.68058Z" fill="#360B2B"/>
</svg>
