<svg width="40" height="41" viewBox="0 0 40 41" fill="none" xmlns="http://www.w3.org/2000/svg">
<g clip-path="url(#clip0_1_22628)">
<path d="M20.2952 0.948853C14.0365 0.948853 8.15403 3.96831 4.47684 9.03522C4.23254 8.93629 3.96701 8.879 3.68772 8.879C2.52229 8.879 1.57434 9.82694 1.57434 10.992C1.57434 11.6703 1.90107 12.2682 2.39922 12.6551C1.30949 15.1255 0.751221 17.7595 0.751221 20.4928C0.751221 31.2696 9.51839 40.0368 20.2952 40.0368C31.072 40.0368 39.8392 31.2696 39.8392 20.4928C39.8392 9.71602 31.072 0.948853 20.2952 0.948853ZM3.68772 9.69341C4.40381 9.69341 4.98638 10.2759 4.98638 10.9921C4.98638 11.7082 4.40389 12.2911 3.68772 12.2911C2.97155 12.2911 2.38868 11.7082 2.38868 10.9921C2.38868 10.276 2.97155 9.69341 3.68772 9.69341ZM20.2952 39.2225C9.96773 39.2225 1.56556 30.8203 1.56556 20.4928C1.56556 17.887 2.09503 15.3765 3.12792 13.0206C3.30736 13.0702 3.49261 13.1054 3.68764 13.1054C4.85269 13.1054 5.80064 12.1574 5.80064 10.992C5.80064 10.3996 5.55389 9.86514 5.15979 9.48104C8.68526 4.64468 14.3108 1.76319 20.2952 1.76319C30.6227 1.76319 39.0248 10.1654 39.0248 20.4928C39.0248 30.8203 30.6227 39.2225 20.2952 39.2225Z" fill="#FCFCFC"/>
<path d="M20.2952 9.09229C14.0087 9.09229 8.89453 14.2065 8.89453 20.4929C8.89453 22.9536 9.71444 25.3636 11.1952 27.3278C10.923 27.6871 10.7673 28.128 10.7673 28.5877C10.7673 29.744 11.7081 30.6844 12.8644 30.6844C13.3868 30.6844 13.8767 30.491 14.2574 30.1491C16.0681 31.287 18.1457 31.8936 20.2952 31.8936C26.5816 31.8936 31.6958 26.7794 31.6958 20.493C31.6958 14.2066 26.5816 9.09229 20.2952 9.09229ZM12.8644 29.8701C12.157 29.8701 11.5816 29.2947 11.5816 28.5877C11.5816 27.8722 12.1714 27.301 12.8644 27.301C13.5714 27.301 14.1467 27.8784 14.1467 28.5877C14.1467 29.263 13.599 29.8701 12.8644 29.8701ZM20.2952 31.0792C18.3246 31.0792 16.4155 30.536 14.7495 29.505C14.8887 29.2219 14.961 28.911 14.961 28.5877C14.961 27.429 14.0206 26.4867 12.8644 26.4867C12.4819 26.4867 12.1133 26.59 11.7928 26.7829C10.4464 24.9705 9.70879 22.7522 9.70879 20.4929C9.70879 14.6554 14.4576 9.90662 20.2951 9.90662C26.1325 9.90662 30.8814 14.6554 30.8814 20.4929C30.8814 26.3304 26.1326 31.0792 20.2952 31.0792Z" fill="#FCFCFC"/>
<path d="M20.2959 15.4602C17.5217 15.4602 15.2648 17.7171 15.2648 20.4914C15.2648 23.2656 17.5217 25.5224 20.2959 25.5224C23.0702 25.5224 25.3271 23.2655 25.3271 20.4914C25.3271 17.7172 23.0702 15.4602 20.2959 15.4602ZM20.2959 24.7081C17.9706 24.7081 16.0791 22.8166 16.0791 20.4913C16.0791 18.166 17.9706 16.2745 20.2959 16.2745C22.6213 16.2745 24.5127 18.1659 24.5127 20.4913C24.5127 22.8166 22.6213 24.7081 20.2959 24.7081Z" fill="#FCFCFC"/>
<path d="M37.5393 19.2822C37.5393 18.0763 36.577 17.0929 35.3802 17.0544C33.784 10.0614 27.4978 5.02063 20.2952 5.02063C11.7637 5.02063 4.82288 11.9615 4.82288 20.4929C4.82288 29.0244 11.7637 35.9652 20.2952 35.9652C28.5137 35.9652 35.2257 29.6249 35.7323 21.4678C36.7603 21.2693 37.5393 20.3652 37.5393 19.2822ZM20.2952 35.1509C12.2127 35.1509 5.63721 28.5754 5.63721 20.4929C5.63721 12.4105 12.2127 5.83497 20.2952 5.83497C27.0992 5.83497 33.0399 10.5826 34.5735 17.1776C33.7036 17.4824 33.0768 18.3096 33.0768 19.2822C33.0768 20.3764 33.8727 21.287 34.9164 21.4727C34.4093 29.1731 28.0625 35.1509 20.2952 35.1509ZM35.3082 20.6949C34.5269 20.6949 33.8911 20.0611 33.8911 19.2821C33.8911 18.5008 34.5269 17.865 35.3082 17.865C36.0895 17.865 36.725 18.5008 36.725 19.2821C36.725 20.0611 36.0895 20.6949 35.3082 20.6949Z" fill="#FCFCFC"/>
</g>
<defs>
<clipPath id="clip0_1_22628">
<rect width="39.1125" height="39.1125" fill="white" transform="translate(0.738892 0.936523)"/>
</clipPath>
</defs>
</svg>
