<svg width="41" height="38" viewBox="0 0 41 38" fill="none" xmlns="http://www.w3.org/2000/svg">
<path d="M26.7201 20.9629C26.844 20.9629 26.9628 20.9174 27.0505 20.8364C27.1381 20.7554 27.1873 20.6456 27.1873 20.531C27.1873 20.4165 27.1381 20.3066 27.0505 20.2256C26.9628 20.1446 26.844 20.0991 26.7201 20.0991H22.3116C22.1877 20.0991 22.0689 20.1446 21.9813 20.2256C21.8937 20.3066 21.8445 20.4165 21.8445 20.531C21.8445 20.6456 21.8937 20.7554 21.9813 20.8364C22.0689 20.9174 22.1877 20.9629 22.3116 20.9629H23.573C23.866 20.9612 24.1525 21.0433 24.3931 21.1979C24.6337 21.3526 24.8167 21.5722 24.917 21.8267H22.3116C22.1877 21.8267 22.0689 21.8723 21.9813 21.9533C21.8937 22.0342 21.8445 22.1441 21.8445 22.2587C21.8445 22.3732 21.8937 22.4831 21.9813 22.5641C22.0689 22.6451 22.1877 22.6906 22.3116 22.6906H24.9171C24.8168 22.9451 24.6338 23.1648 24.3932 23.3194C24.1526 23.4741 23.8661 23.5561 23.5731 23.5544H22.3117C22.2178 23.5559 22.1264 23.5832 22.0493 23.6328C21.9721 23.6824 21.9126 23.752 21.8782 23.8329C21.8439 23.9138 21.8362 24.0022 21.8563 24.0871C21.8763 24.172 21.9232 24.2494 21.9909 24.3097L25.1434 27.0659C25.1879 27.105 25.2403 27.1356 25.2976 27.1559C25.3549 27.1763 25.4159 27.186 25.4773 27.1845C25.5386 27.183 25.599 27.1703 25.6551 27.1472C25.7111 27.1241 25.7617 27.0909 25.8039 27.0497C25.8891 26.9653 25.9349 26.8533 25.9314 26.7379C25.9279 26.6224 25.8754 26.5129 25.7852 26.433L23.4862 24.4182H23.5731C24.1157 24.4242 24.6437 24.2549 25.0657 23.9395C25.4878 23.6241 25.7776 23.1824 25.8851 22.6906H26.7201C26.844 22.6906 26.9628 22.6451 27.0505 22.5641C27.1381 22.4831 27.1873 22.3732 27.1873 22.2587C27.1873 22.1441 27.1381 22.0342 27.0505 21.9533C26.9628 21.8723 26.844 21.8267 26.7201 21.8267H25.8851C25.8309 21.507 25.6807 21.2077 25.4515 20.9629H26.7201Z" fill="#FCFCFC"/>
<path d="M24.7121 14.9935C24.5689 14.4757 24.2337 14.0208 23.765 13.708C24.0811 13.4977 24.3387 13.2209 24.5164 12.9005C24.6941 12.5801 24.7869 12.2252 24.7871 11.8651C24.7873 11.505 24.6949 11.15 24.5175 10.8295C24.3401 10.5089 24.0828 10.2319 23.7668 10.0214C24.1888 9.74138 24.5035 9.34462 24.6655 8.88842C24.8276 8.43222 24.8285 7.9402 24.6682 7.48347C24.5079 7.02674 24.1947 6.62896 23.7739 6.3476C23.353 6.06623 22.8463 5.91587 22.327 5.91824H10.2632C9.7437 5.91647 9.23702 6.06733 8.81627 6.34906C8.39552 6.63079 8.08246 7.02882 7.92227 7.48571C7.76207 7.9426 7.76301 8.43474 7.92496 8.8911C8.08691 9.34747 8.4015 9.74446 8.82333 10.0248C8.50746 10.2349 8.25018 10.5115 8.07272 10.8317C7.89526 11.1519 7.80271 11.5065 7.80271 11.8663C7.80271 12.2261 7.89526 12.5807 8.07272 12.9009C8.25018 13.221 8.50746 13.4976 8.82333 13.7078C8.50745 13.9181 8.25017 14.1949 8.07273 14.5152C7.89528 14.8356 7.80275 15.1904 7.80275 15.5503C7.80275 15.9102 7.89528 16.2649 8.07273 16.5853C8.25017 16.9057 8.50745 17.1824 8.82333 17.3928C8.50741 17.6032 8.25012 17.88 8.07265 18.2004C7.89519 18.5208 7.80265 18.8756 7.80265 19.2356C7.80265 19.5956 7.89519 19.9504 8.07265 20.2708C8.25012 20.5912 8.50741 20.868 8.82333 21.0784C8.50746 21.2888 8.2502 21.5656 8.07277 21.886C7.89534 22.2064 7.80281 22.5612 7.80281 22.9212C7.80281 23.2811 7.89534 23.6359 8.07277 23.9563C8.2502 24.2767 8.50746 24.5536 8.82333 24.764C8.50744 24.9744 8.25017 25.2512 8.07273 25.5716C7.89529 25.892 7.80276 26.2468 7.80276 26.6068C7.80276 26.9668 7.89529 27.3216 8.07273 27.642C8.25017 27.9624 8.50744 28.2392 8.82333 28.4496C8.40134 28.7296 8.08656 29.1263 7.9245 29.5825C7.76244 30.0387 7.76148 30.5308 7.92176 30.9875C8.08205 31.4443 8.39527 31.8421 8.81617 32.1234C9.23706 32.4048 9.74382 32.5551 10.2632 32.5527H22.327C22.7852 32.5561 23.2352 32.4399 23.6251 32.2173C23.9184 32.2431 24.2155 32.2605 24.516 32.2605C26.9769 32.2619 29.3389 31.3652 31.0886 29.7654C32.8383 28.1656 33.8344 25.9919 33.8602 23.7169C33.886 21.4419 32.9396 19.2493 31.2266 17.6159C29.5136 15.9825 27.1725 15.0401 24.7121 14.9937V14.9935ZM31.5756 23.3385C31.5056 21.8529 30.8873 20.4344 29.8237 19.319L30.7729 18.4418C32.0864 19.7911 32.8452 21.5244 32.9167 23.3385H31.5756ZM18.9069 29.412L19.8558 28.5348C20.9756 29.4473 22.3802 30.0071 23.8666 30.1332V31.3772C22.0242 31.246 20.2804 30.555 18.9069 29.412ZM16.1319 24.2023H17.4767C17.6075 25.58 18.2096 26.8833 19.1958 27.9232L18.247 28.8005C17.0117 27.526 16.2679 25.909 16.1319 24.2023ZM29.1623 18.7089C27.9507 17.7267 26.4112 17.1587 24.801 17.0998V15.8599C26.7666 15.9202 28.6465 16.6182 30.1111 17.8317L29.1623 18.7089ZM23.8666 15.8779V17.1218C22.3675 17.2491 20.952 17.8174 19.8279 18.7432L18.8748 17.8695C20.2529 16.7109 22.0095 16.0101 23.8666 15.8779ZM18.2185 18.4844L19.1716 19.3577C18.1301 20.4675 17.5255 21.8706 17.4564 23.3385H16.1153C16.186 21.5439 16.9296 19.8278 18.2185 18.4844ZM24.801 30.1554C26.3957 30.0972 27.9216 29.5395 29.1283 28.5738L30.0774 29.4512C28.6174 30.6479 26.7511 31.3355 24.801 31.3952V30.1554ZM24.516 29.2974C23.3031 29.2974 22.1174 28.9649 21.1088 28.342C20.1003 27.719 19.3142 26.8335 18.85 25.7975C18.3858 24.7615 18.2643 23.6215 18.5009 22.5216C18.7375 21.4218 19.3215 20.4115 20.1792 19.6185C21.0368 18.8256 22.1295 18.2855 23.3192 18.0668C24.5088 17.848 25.7419 17.9602 26.8625 18.3893C27.9831 18.8185 28.9409 19.5452 29.6148 20.4776C30.2886 21.41 30.6483 22.5062 30.6483 23.6276C30.6465 25.1307 29.9998 26.5718 28.8502 27.6347C27.7006 28.6976 26.1418 29.2955 24.516 29.2973V29.2974ZM8.73706 8.18575C8.73743 8.00091 8.77722 7.81795 8.85414 7.64733C8.93106 7.47671 9.04361 7.32179 9.18535 7.19142C9.32708 7.06105 9.49523 6.95779 9.68016 6.88755C9.8651 6.81731 10.0632 6.78146 10.2631 6.78205H22.3269C22.7295 6.78205 23.1157 6.92994 23.4005 7.19319C23.6852 7.45643 23.8452 7.81347 23.8452 8.18575C23.8452 8.55804 23.6852 8.91507 23.4005 9.17832C23.1157 9.44156 22.7295 9.58945 22.3269 9.58945H10.2632C10.0633 9.59005 9.86516 9.55421 9.68021 9.48397C9.49527 9.41374 9.32712 9.31048 9.18537 9.18011C9.04363 9.04974 8.93108 8.89481 8.85415 8.72419C8.77722 8.55357 8.73743 8.3706 8.73706 8.18575ZM8.73706 11.857C8.73743 11.6721 8.77722 11.4892 8.85414 11.3185C8.93106 11.1479 9.04361 10.993 9.18535 10.8626C9.32708 10.7323 9.49523 10.629 9.68016 10.5588C9.8651 10.4885 10.0632 10.4527 10.2631 10.4533H22.3269C22.7295 10.4533 23.1157 10.6012 23.4005 10.8644C23.6852 11.1276 23.8452 11.4847 23.8452 11.857C23.8452 12.2292 23.6852 12.5863 23.4005 12.8495C23.1157 13.1128 22.7295 13.2607 22.3269 13.2607H10.2632C10.0633 13.2613 9.86516 13.2254 9.68021 13.1552C9.49527 13.0849 9.32712 12.9817 9.18537 12.8513C9.04363 12.7209 8.93108 12.566 8.85415 12.3954C8.77722 12.2248 8.73743 12.0418 8.73706 11.857ZM8.73706 15.5282C8.73743 15.3433 8.77722 15.1604 8.85414 14.9897C8.93106 14.8191 9.04361 14.6642 9.18535 14.5338C9.32708 14.4035 9.49523 14.3002 9.68016 14.23C9.8651 14.1597 10.0632 14.1239 10.2631 14.1245H22.3269C22.6298 14.1242 22.926 14.2072 23.1778 14.3631C23.4295 14.5189 23.6253 14.7405 23.7404 14.9997C21.8494 15.145 20.051 15.8189 18.5843 16.9319H10.2632C10.0633 16.9325 9.86516 16.8966 9.68021 16.8264C9.49527 16.7562 9.32712 16.6529 9.18537 16.5225C9.04363 16.3922 8.93108 16.2372 8.85415 16.0666C8.77722 15.896 8.73743 15.713 8.73706 15.5282ZM8.73706 19.2354C8.73706 18.4574 9.42169 17.7957 10.2631 17.7957H17.6034C16.8027 18.6595 16.1679 19.5953 15.7483 20.6751H10.2632C9.42169 20.6751 8.73706 20.0134 8.73706 19.2354ZM8.73706 22.9426C8.73743 22.7577 8.77722 22.5748 8.85414 22.4041C8.93106 22.2335 9.04361 22.0786 9.18535 21.9482C9.32708 21.8179 9.49523 21.7146 9.68016 21.6444C9.8651 21.5741 10.0632 21.5383 10.2631 21.5389H15.4589C15.2676 22.2283 15.172 22.9374 15.1744 23.6491C15.1744 23.8866 15.1852 24.1303 15.2056 24.3463H10.2632C10.0633 24.3469 9.86516 24.311 9.68021 24.2408C9.49527 24.1706 9.32712 24.0673 9.18537 23.9369C9.04363 23.8066 8.93108 23.6516 8.85415 23.481C8.77722 23.3104 8.73743 23.1274 8.73706 22.9426ZM8.73706 26.6138C8.73743 26.4289 8.77722 26.246 8.85414 26.0754C8.93106 25.9047 9.04361 25.7498 9.18535 25.6194C9.32708 25.4891 9.49523 25.3858 9.68016 25.3156C9.8651 25.2453 10.0632 25.2095 10.2631 25.2101H15.3292C15.5302 26.2007 15.9179 27.1509 16.4745 28.0175H10.2632C10.0633 28.0181 9.86516 27.9822 9.68021 27.912C9.49527 27.8418 9.32712 27.7385 9.18537 27.6081C9.04363 27.4778 8.93108 27.3228 8.85415 27.1522C8.77722 26.9816 8.73743 26.7986 8.73706 26.6138ZM10.2631 31.6887C9.86045 31.6887 9.47427 31.5408 9.18954 31.2776C8.9048 31.0143 8.74484 30.6573 8.74484 30.285C8.74484 29.9127 8.9048 29.5557 9.18954 29.2924C9.47427 29.0292 9.86045 28.8813 10.2631 28.8813H17.1071C18.1558 30.177 19.5718 31.1128 21.206 31.6887H10.2631ZM30.7426 28.8445L29.7938 27.9671C30.8045 26.9205 31.4224 25.6 31.5552 24.2023H32.9001C32.7626 25.9292 32.003 27.5637 30.7427 28.8445H30.7426Z" fill="#FCFCFC"/>
</svg>
