<svg width="1173" height="830" viewBox="0 0 1173 830" fill="none" xmlns="http://www.w3.org/2000/svg">
<g filter="url(#filter0_d_1_21955)">
<path d="M4.59183 776.931C4.42496 767.688 5.49011 3.26982 5.49011 3.00252C5.49011 2.59749 5.62585 0.645231 5.62585 0.0512C59.1837 0.0511843 1012.81 0.0969817 1168.17 0.0507813C1168.33 9.29399 1167.69 764.666 1167.86 773.909C1167.86 774.907 1167.91 775.972 1167.86 776.552C1167.66 779.015 1167.81 782.021 1167.86 784.486C1167.91 787.391 1167.81 789.678 1167.86 792.583C1167.89 794.695 1167.83 795.804 1167.86 797.916C1161.6 797.653 1152.61 798.121 1147.47 797.142C1141.32 795.972 1135.24 796.7 1130.3 796.901C1124.63 797.131 1120 796.987 1114.9 796.429C1112.82 796.202 1110.47 796.278 1108.24 796.216C1106.76 795.47 1104.52 794.788 1103.93 793.963C1102.37 791.773 1097.31 791.495 1092.46 791.186C1090.9 791.087 1087.78 791.518 1087.47 791.908C1085.97 793.836 1082.17 794.024 1077.5 793.929C1074.15 793.86 1070.77 793.926 1067.4 793.932C1065.99 793.671 1064.64 793.239 1063.16 793.178C1057.02 792.923 1050.85 792.707 1044.67 792.626C1041.19 792.581 1037.21 792.515 1034.34 793.045C1032.31 793.417 1026.98 793.409 1028.87 795.21C1031.51 797.616 1029.77 799.481 1023.27 800.761C1019.46 803.241 1012.99 803.154 1006.06 803.265C998.872 803.379 991.77 804.158 984.62 804.633C981.944 804.81 979.091 805.288 977.66 803.837C977.364 803.536 974.653 803.237 973.487 803.377C963.942 804.519 958.278 802.217 951.889 800.532C948.827 799.246 945.531 798.018 942.769 796.657C940.046 795.315 936.789 794.589 931.992 794.616C920.208 794.681 908.419 794.638 896.64 794.742C893.905 794.766 891.199 795.204 888.48 795.451C883.765 795.228 879.117 794.476 874.288 793.91C871.222 793.551 867.857 793.254 864.677 793.306C856.46 793.44 848.277 793.822 840.062 794.012C838.135 794.057 835.92 793.87 834.212 793.548C826.786 792.148 819.269 792.134 811.432 793.041C810.034 793.202 808.251 792.982 806.658 792.908C801.713 792.678 796.548 791.995 791.881 792.289C783.461 792.819 776.024 792.534 768.612 791.049C764.635 790.252 760.559 790.373 756.751 791.601C754.917 792.192 751.929 792.472 749.336 792.616C746.208 792.791 742.921 792.595 739.754 792.718C738.315 792.774 736.034 793.129 735.782 793.489C734.266 795.653 732.509 797.888 737.759 799.814C739.439 802.232 741.416 804.677 732.503 806.006C732.078 806.069 731.887 806.329 731.598 806.499C729.463 807.753 726.681 808.667 722.484 809.102C717.135 809.656 714.224 811.068 712.887 812.924C711.121 815.374 704.988 816.341 699.32 816.832C688.492 817.772 676.228 817.104 668.067 820.687C667.761 820.821 667.057 820.89 666.519 820.906C660.908 821.078 655.293 821.373 649.681 821.367C636.502 821.352 623.316 821.26 610.154 821.05C605.947 820.983 601.818 820.419 597.624 820.136C592.402 819.784 587.146 819.497 581.913 819.165C577.407 818.88 572.752 818.742 568.454 818.235C562.702 817.558 556.649 816.436 551.141 817.616C541.689 819.641 531.327 819.004 521.554 819.084C509.506 819.185 497.37 818.322 485.317 817.755C482.798 817.636 480.487 816.985 478.069 816.589C475.717 816.203 473.308 815.479 470.997 815.512C461.068 815.655 451.173 816.229 441.253 816.264C423.173 816.329 405.086 816.108 387.001 816.049C384.601 816.041 381.837 816.057 379.855 816.444C370.304 818.312 359.973 817.575 349.934 817.644C345.923 817.671 341.663 816.787 337.895 817.03C320.233 818.174 304.928 816.122 289.944 813.264C287.804 812.856 284.938 812.877 282.383 812.788C281.139 812.745 279.774 813.031 278.574 812.956C271.843 812.532 265.198 811.859 258.421 811.618C247.229 811.221 235.956 811.111 224.725 810.838C213.833 810.574 203.61 811.853 193.073 812.366C178.228 813.087 163.081 813.028 148.086 813.412C138.844 813.649 129.655 814.131 120.422 814.43C106.519 814.88 93.6762 817.64 79.1473 816.731C78.2846 816.677 77.3149 816.846 76.3892 816.899C65.5204 817.528 54.6374 818.129 43.7858 818.793C38.649 819.108 32.9879 819.169 28.6037 820.009C21.7807 821.315 12.2806 821.648 4.59183 821.575C4.59183 807.456 4.59183 793.807 4.59183 779.284C4.57291 778.53 4.9838 777.682 4.59183 776.931Z" fill="white"/>
</g>
<defs>
<filter id="filter0_d_1_21955" x="0.573975" y="0.0507812" width="1171.62" height="829.534" filterUnits="userSpaceOnUse" color-interpolation-filters="sRGB">
<feFlood flood-opacity="0" result="BackgroundImageFix"/>
<feColorMatrix in="SourceAlpha" type="matrix" values="0 0 0 0 0 0 0 0 0 0 0 0 0 0 0 0 0 0 127 0" result="hardAlpha"/>
<feOffset dy="4"/>
<feGaussianBlur stdDeviation="2"/>
<feComposite in2="hardAlpha" operator="out"/>
<feColorMatrix type="matrix" values="0 0 0 0 0 0 0 0 0 0 0 0 0 0 0 0 0 0 0.25 0"/>
<feBlend mode="normal" in2="BackgroundImageFix" result="effect1_dropShadow_1_21955"/>
<feBlend mode="normal" in="SourceGraphic" in2="effect1_dropShadow_1_21955" result="shape"/>
</filter>
</defs>
</svg>
