<svg width="63" height="25" viewBox="0 0 63 25" fill="none" xmlns="http://www.w3.org/2000/svg">
<path d="M29.5024 5.95527H33.8195V19.9657H29.5024V5.95527ZM11.1994 15.882C11.1994 11.0429 4.62699 11.9142 4.62699 10.0824L4.62957 10.0872C4.62957 9.45486 5.19211 9.20869 6.09268 9.19903C7.58638 9.2287 9.05179 9.58582 10.3711 10.2417V6.41867C9.01256 5.91724 7.5634 5.66566 6.103 5.67772C2.61683 5.67772 0.294434 7.39614 0.294434 10.2682C0.294434 14.767 6.82811 14.0357 6.82811 15.9762C6.82811 16.7243 6.14171 16.9729 5.18179 16.9729C3.75996 16.9729 1.92011 16.4154 0.477645 15.6745V19.3334C1.95868 19.9368 3.55602 20.2505 5.17146 20.2553C8.74279 20.2529 11.1994 18.8072 11.1994 15.882ZM29.4895 4.72439L33.8066 3.85552V0.544189L29.4895 1.41305V4.72439ZM42.7891 5.68255C41.5318 5.67762 40.3227 6.13433 39.4216 6.95447L39.1997 5.94804H35.4142V24.6793L39.7107 23.8176L39.721 19.2272C40.3403 19.6568 41.2589 20.2529 42.7607 20.2529C45.8392 20.2529 48.6441 18.1314 48.6441 12.9738C48.6545 8.25293 45.8108 5.68255 42.7891 5.68255ZM41.7647 16.8836C40.7557 16.8861 40.1596 16.5385 39.7416 16.1161L39.7132 10.08C40.1596 9.61415 40.7789 9.27385 41.7647 9.27385C43.331 9.27385 44.4148 10.9392 44.4148 13.0606C44.4277 15.2473 43.362 16.8836 41.7647 16.8836ZM56.0113 5.68255C51.9265 5.68255 49.4389 8.96492 49.4389 13.1017C49.4389 17.9939 52.3703 20.2553 56.5532 20.2553C58.6046 20.2553 60.1426 19.8161 61.3141 19.203V16.1475C60.1426 16.705 58.7982 17.0429 57.0951 17.0429C55.4204 17.0429 53.9495 16.4854 53.756 14.5836H62.1656C62.1837 14.3736 62.2224 13.5216 62.2224 13.1306C62.2224 8.96733 60.0961 5.68255 56.0113 5.68255ZM53.7173 11.5908C53.7173 9.76138 54.9094 8.99388 55.9829 8.99388C57.0383 8.99388 58.1608 9.76379 58.1608 11.5908H53.7173ZM19.5239 9.41383V5.95527H16.2622L16.2519 2.43397L12.0587 3.27628L12.0406 16.2996C12.0406 18.7058 13.9579 20.2601 16.5022 20.2601C17.9163 20.2601 18.951 20.0115 19.5239 19.7195V16.6278C18.9717 16.8378 16.2622 17.5884 16.2622 15.1918V9.41142H19.5239V9.41383ZM28.4651 9.68897V5.95769C27.8845 5.76461 25.8821 5.40982 24.8757 7.15479L24.6125 5.95769H20.8967V19.9681H25.1854V10.5385C26.202 9.27626 27.9155 9.52485 28.4651 9.68897Z" fill="#646FDE"/>
</svg>
